<svg width="29" height="81" viewBox="0 0 29 81" fill="none" xmlns="http://www.w3.org/2000/svg">
<g clip-path="url(#clip0_549_159)">
<path d="M12.6545 81L16.3718 81L16.3455 10.0703L18.8869 12.4433C19.9836 13.4679 21.6235 14.9171 23.2 15.3243L29 16.2L29 13.6474L25.3091 13.1351C23.5744 12.7061 21.1384 11.0773 20.2789 9.75503L18.6075 7.39946C17.8113 6.27421 17.3367 5.01762 17.2155 3.71724L16.8727 -9.75949e-07L12.1273 -7.68519e-07L11.3258 4.01497C11.1624 4.83811 10.8513 5.63498 10.3978 6.3793L8.45745 9.60178C8.09891 10.2016 7.61909 10.7489 7.04963 11.2218C5.90018 12.1763 4.78236 13.4372 3.16363 13.573L-2.94733e-06 13.573L-2.8325e-06 16.2L3.16363 16.2C5.18309 15.8497 6.97582 15.2236 8.43636 14.0108L10.5455 12.2595L12.6545 10.0703L12.6545 81Z" fill="#FC4D5C"/>
</g>
<defs>
<clipPath id="clip0_549_159">
<rect width="81" height="29" fill="white" transform="translate(0 81) rotate(-90)"/>
</clipPath>
</defs>
</svg>
