<svg width="185" height="55" viewBox="0 0 185 55" fill="none" xmlns="http://www.w3.org/2000/svg">
<g clip-path="url(#clip0_159_426)">
<path d="M0 24V31.05L162 31L156.58 35.82C154.24 37.9 150.93 41.01 150 44L148 55H153.83L155 48C155.98 44.71 159.7 40.09 162.72 38.46L168.1 35.29C170.67 33.78 173.54 32.88 176.51 32.65L185 32V23L175.83 21.48C173.95 21.17 172.13 20.58 170.43 19.72L163.07 16.04C161.7 15.36 160.45 14.45 159.37 13.37C157.19 11.19 154.31 9.07 154 6V0H148V6C148.8 9.83 150.23 13.23 153 16L157 20L162 24H0Z" fill="#273AAA"/>
</g>
<defs>
<clipPath id="clip0_159_426">
<rect width="185" height="55" fill="white"/>
</clipPath>
</defs>
</svg>
