<svg width="108" height="94" viewBox="0 0 108 94" fill="none" xmlns="http://www.w3.org/2000/svg">
<path d="M25.5 26.9982V26.7443C25.5 25.9366 25.762 25.1507 26.2466 24.5046C26.7354 23.8528 27.424 23.3788 28.2074 23.155L28.8925 22.9593C29.9432 22.6591 31.0568 22.6591 32.1075 22.9593L34 23.5L38 25L45.5401 27.262C47.1683 27.7505 48.7022 28.5107 50.077 29.5105L50.4167 29.7576C52.4333 31.2242 54.0073 33.2176 54.9664 35.5193C55.6488 37.1572 56.6456 38.6456 57.9003 39.9003L58.2963 40.2963C59.4261 41.4261 60.7147 42.3848 62.1214 43.1423L64.8365 44.6043C65.943 45.2001 66.991 45.8989 67.9663 46.6914L73.1009 50.8632C74.0283 51.6168 74.8371 52.5056 75.5 53.4999L76.5981 55.1471C77.1862 56.0293 77.5 57.0658 77.5 58.126V59.0812C77.5 60.28 76.9009 61.3994 75.9034 62.0644C75.0145 62.657 73.9077 62.8223 72.8844 62.5153L70.3533 61.756C69.7858 61.5857 69.236 61.361 68.7116 61.0851L63.288 58.2305C61.1146 57.0866 58.7491 56.3528 56.3099 56.0659L54.0714 55.8025C52.3701 55.6024 50.7164 55.1082 49.1842 54.3421L48.9854 54.2427C46.0834 52.7917 43.7675 50.3884 42.4249 47.4347C42.142 46.8124 41.8144 46.2114 41.4448 45.6364L39.0839 41.9638C38.0336 40.33 36.7508 38.8579 35.2761 37.5938L30.5 33.5L26.9879 30.3391C26.0408 29.4867 25.5 28.2724 25.5 26.9982Z" fill="#FC4D5C"/>
<path d="M10.5312 5.47657L11.4846 4.76154C13.4773 3.267 15.7317 2.15786 18.1317 1.49119L20.8733 0.729642C22.6164 0.245452 24.4171 0 26.2262 0H30.321C32.0895 0 33.8405 0.350195 35.4729 1.03038C37.7783 1.99097 39.7693 3.57696 41.2209 5.60929L41.5 6C39.8539 4.35389 37.8628 3.09385 35.6704 2.31087L35.0459 2.08781C33.0303 1.36796 30.906 1 28.7657 1H25.7539C24.2561 1 22.7632 1.17003 21.3038 1.50681C18.4695 2.16089 15.8142 3.43173 13.5269 5.22887L11.3559 6.93464C10.4536 7.64357 9.61406 8.42882 8.84645 9.28172L7.77971 10.467C6.27175 12.1425 5.07154 14.0711 4.23437 16.1641C3.74609 17.3848 3.38485 18.6525 3.15637 19.9473L2.30433 24.7755C2.10183 25.923 2 27.086 2 28.2512V30.1871C2 32.3658 2.50724 34.5145 3.48155 36.4631C4.15611 37.8122 5.04374 39.0437 6.11031 40.1103L6.48989 40.4899C7.81776 41.8178 9.38682 42.8801 11.1129 43.6198L13.8504 44.793C14.9228 45.2526 15.8231 46.0385 16.4233 47.0389C16.8039 47.6732 17.0539 48.3772 17.1585 49.1095L18 55C18.9683 59.196 21.3974 62.9109 24.8531 65.4805L39 76L47.8568 81.3141C50.2407 82.7444 52.9686 83.5 55.7487 83.5H56.7218C57.5694 83.5 58.4125 83.3763 59.2243 83.1327C61.6243 82.4127 64.218 82.7613 66.3427 84.0892L67 84.5L71.8829 88.1622C73.9365 89.7024 76.2999 90.7785 78.8099 91.3164C80.919 91.7683 83.0927 91.8319 85.2246 91.5039L85.9936 91.3856C87.6579 91.1296 89.2831 90.6644 90.8308 90.0011L91.5438 89.6955C94.1514 88.578 96.4914 86.9184 98.4085 84.8271L101 82L102.296 80.148C103.752 78.0684 104.799 75.7306 105.38 73.2595L105.968 70.7595C106.322 69.2582 106.5 67.7211 106.5 66.1788V60L107.296 65.3091C107.759 68.3927 107.486 71.5419 106.5 74.5L104.098 79.648C103.369 81.2094 102.442 82.6702 101.338 83.9939L100.678 84.7861C98.9119 86.9058 96.726 88.637 94.2581 89.8709L92.271 90.8645C90.7631 91.6185 89.1658 92.1788 87.5173 92.532L86.6574 92.7163C84.242 93.2339 81.7492 93.2793 79.3164 92.85L79.1538 92.8213C76.1003 92.2824 73.2311 90.9849 70.8098 89.0479L70.6178 88.8943C69.8741 88.2993 69.0781 87.7729 68.2396 87.3213L66.7778 86.5342C64.3428 85.2231 61.5139 84.8429 58.8192 85.4648C57.2896 85.8178 55.7035 85.8507 54.1606 85.5614L52.2118 85.196C49.7589 84.736 47.4138 83.8211 45.2976 82.4985L36.5 77L23.5 67.5L22.2978 66.5163C19.4941 64.2225 17.4242 61.1573 16.3437 57.6998L15.9135 56.3231C15.6394 55.4461 15.5 54.5326 15.5 53.6138V51.3541C15.5 49.2985 14.3386 47.4193 12.5 46.5L8.50939 44.5047C5.89085 43.1954 3.69995 41.1666 2.1937 38.6562C0.758257 36.2638 0 33.5262 0 30.7362V28.8212C0 27.2789 0.178404 25.7418 0.531657 24.2405L1.62422 19.5971C1.87432 18.5341 2.21105 17.4935 2.63103 16.4855L3.41618 14.6012C4.13518 12.8756 5.09255 11.2593 6.26035 9.79957L6.91387 8.98267C7.96706 7.66617 9.18249 6.48813 10.5312 5.47657Z" fill="#273AAA"/>
<path d="M45.8258 8.93032L43.5 8L46.2174 8.54348C47.7155 8.8431 49.2647 8.76472 50.7249 8.31542C53.4238 7.48499 56.3546 7.94067 58.6739 9.55133L88.3817 30.1817C90.0815 31.3621 91.3536 33.0609 92.0081 35.0242C92.3339 36.0017 92.5 37.0253 92.5 38.0556V39.7569C92.5 41.2358 92.8104 42.6983 93.411 44.0498C94.1257 45.6578 95.2305 47.0619 96.6253 48.1348L98.9754 49.9426C100.32 50.9767 101.527 52.1775 102.568 53.5163L104.5 56L101 52.5L95.5549 48.1439C94.2047 47.0638 93.1335 45.6753 92.4312 44.0952C91.8172 42.7138 91.5 41.2189 91.5 39.7072V38.123C91.5 37.0497 91.307 35.9853 90.9301 34.9804C90.3231 33.3615 89.2601 31.9531 87.8697 30.9254L78.5 24L58.2407 10.2064C56.1924 8.81188 53.6212 8.42424 51.2528 9.15298C49.4715 9.70107 47.5562 9.62249 45.8258 8.93032Z" fill="#273AAA"/>
<path d="M6.27306 28.4114L6.34041 28.8829C6.44642 29.625 6.6407 30.3517 6.9191 31.0478L7.5 32.5L7.11844 32.0231C6.07078 30.7135 5.5 29.0863 5.5 27.4092C5.5 26.8054 5.57406 26.2038 5.72052 25.6179L6.06389 24.2444C6.35125 23.095 6.88314 22.0211 7.62327 21.0959C8.20358 20.3705 8.90238 19.7485 9.69012 19.2562L12.0782 17.7636C12.359 17.5881 12.6528 17.4345 12.9572 17.3041C14.8676 16.4853 16.2673 14.7973 16.7181 12.7683L16.8063 12.3715C16.935 11.7927 17.1341 11.2318 17.3993 10.7015L18.5 8.5L19.7044 6.69338C20.2296 5.90559 20.9056 5.22961 21.6934 4.70442C22.8714 3.91908 24.2555 3.5 25.6713 3.5H26.5561C27.8402 3.5 29.1126 3.74503 30.3048 4.22194L31.6682 4.76728C32.8856 5.25426 34.0453 5.87486 35.1258 6.6177L39.802 9.83265C40.931 10.6088 41.9773 11.499 42.9243 12.489L52.5 22.5L74 41L78.5308 44.1367C79.8389 45.0423 81.2505 45.7886 82.7354 46.3598L87 48L89.5386 48.9764C92.1505 49.9809 94.5224 51.5224 96.5012 53.5012L98 55L96.3935 53.7505C94.4804 52.2626 92.3128 51.1347 89.9964 50.422L87 49.5L81.8505 47.2931C80.6199 46.7657 79.4454 46.1161 78.3447 45.354L73.5 42L63.5 33.5L54 25L46 17L40.295 11.295C38.7749 9.77493 37.0198 8.50989 35.0971 7.54854L32.7203 6.36015C31.5798 5.78992 30.3605 5.39342 29.1028 5.1838L27.2606 4.87677C25.7914 4.6319 24.2824 4.85881 22.9501 5.52493C21.6797 6.16013 20.6309 7.16434 19.9411 8.40594L19.08 9.95604C18.6944 10.6501 18.3823 11.3826 18.1488 12.1414L17.4989 14.2536C16.8689 16.3009 15.3253 17.9405 13.3196 18.6926C12.7754 18.8967 12.2591 19.1687 11.7829 19.502L9.41799 21.1574C8.16867 22.0319 7.21341 23.2642 6.67795 24.6921C6.23314 25.8783 6.0939 27.1573 6.27306 28.4114Z" fill="#273AAA"/>
<path d="M10.7889 36.575L8.5 34L11.9728 37.1256C12.9883 38.0394 14.0947 38.8469 15.2747 39.5352L19.5 42L38 55.5L51.5 63.5L56.0002 66.2693C57.3288 67.087 58.5572 68.0573 59.6604 69.1604L60.5 70L63.5 73.5L66.5 77L69.5 80.5L70.9836 81.9836C71.6596 82.6596 72.4006 83.2671 73.1959 83.7973C74.392 84.5947 75.6999 85.21 77.0768 85.623L77.2255 85.6676C79.0594 86.2178 80.9791 86.4247 82.8882 86.2778L83.335 86.2435C85.4288 86.0824 87.4781 85.5554 89.3899 84.6864L90.0179 84.401C91.3354 83.8021 92.584 83.062 93.7418 82.1936L94.1887 81.8585C95.3914 80.9565 96.4752 79.906 97.4144 78.732L98.045 77.9437C99.3312 76.3359 100.232 74.455 100.679 72.445C100.892 71.4846 101 70.5036 101 69.5197V66.5V65.1784C101 63.4007 100.763 61.631 100.295 59.916L99.5 57L100.089 58.1776C100.695 59.3894 101.176 60.6596 101.525 61.9687L102.101 64.1274C102.694 66.3516 102.819 68.6747 102.469 70.9499C102.159 72.9661 101.481 74.9082 100.469 76.6794L100.13 77.2729C98.7259 79.7297 96.8167 81.8606 94.5283 83.5248L94.1406 83.8068C93.0497 84.6002 91.8813 85.2812 90.6532 85.8394L89.9209 86.1723C87.9891 87.0504 85.9163 87.5774 83.7997 87.7286L83.558 87.7459C81.2124 87.9134 78.8577 87.5846 76.6477 86.781L76.5819 86.757C75.2004 86.2547 73.8936 85.5668 72.6974 84.7124C71.5704 83.9075 70.5512 82.9615 69.6646 81.8976L68.5 80.5L63 73.5L59.741 70.241C58.5847 69.0847 57.291 68.0746 55.8888 67.2333L50.5 64L37.5 56L18.5 42.5L14.643 39.9287C13.2202 38.9801 11.9249 37.853 10.7889 36.575Z" fill="#273AAA"/>
<path d="M20.9504 49.5405L20.5 49L24 51.5L31.5 56.5L42 63.5L48.5 68L52.5 71.5L56.1212 74.4628C57.3692 75.4839 58.489 76.6521 59.4565 77.942L61 80L58.6096 77.6096C57.871 76.871 57.0757 76.1914 56.2309 75.577L53.2691 73.423C52.4243 72.8086 51.629 72.129 50.8904 71.3904L49.2752 69.7752C48.4268 68.9268 47.5038 68.1564 46.5173 67.4735L41.5 64L31 57L25.7149 53.6968C23.9164 52.5728 22.3082 51.1698 20.9504 49.5405Z" fill="#273AAA"/>
<path d="M20.7378 56.1644L20.5 54.5L20.5287 54.6005C21.1657 56.83 22.3604 58.8604 24 60.5L28 64L31.5 67.5L28 65L24.7834 62.7483C23.609 61.9263 22.6312 60.8545 21.92 59.61C21.3121 58.5463 20.911 57.3772 20.7378 56.1644Z" fill="#273AAA"/>
<path d="M49.5 80.5L45 77L50.7418 80.281C51.5663 80.7522 52.4995 81 53.4491 81H53.6919C54.2257 81 54.7547 80.8981 55.2503 80.6999L56.7947 80.0821C56.9253 80.0299 57.072 80.036 57.1978 80.0989C57.5453 80.2726 57.564 80.7616 57.2309 80.9615L55.83 81.802C55.614 81.9316 55.367 82 55.1152 82H53.75C52.6049 82 51.4813 81.6888 50.4994 81.0996L49.5 80.5Z" fill="#273AAA"/>
<path d="M56.1624 20.9953L49.5 13.5L56.7523 21.1789C57.5824 22.0578 58.4904 22.8597 59.4653 23.5746L65.5 28L81.6423 39.2507C81.8801 39.4164 82.1349 39.5562 82.4025 39.6677L87.1196 41.6331C87.5392 41.808 87.647 42.353 87.3255 42.6744C87.1311 42.8689 86.8341 42.9171 86.5882 42.7941L82.515 40.7575C82.1722 40.5861 81.8443 40.3867 81.5343 40.1613L65.5 28.5L59.1106 23.708C58.0396 22.9047 57.0519 21.9959 56.1624 20.9953Z" fill="#273AAA"/>
<path d="M63.1425 16.276L59.6471 14.4118C57.9091 13.4849 55.9697 13 54 13C53.5726 13 53.3176 12.5236 53.5547 12.1679L53.7774 11.834C53.9165 11.6253 54.1506 11.5 54.4014 11.5H56.1891C57.0417 11.5 57.8729 11.7664 58.5667 12.2619L63.1531 15.5379C64.0495 16.1782 64.8915 16.8915 65.6704 17.6704L66.5 18.5L65.7308 17.9231C64.9115 17.3086 64.0462 16.758 63.1425 16.276Z" fill="#273AAA"/>
<path d="M87.1893 34.7794L83.5 31.5L88.0449 34.8054C88.645 35.2418 89 35.939 89 36.6809V38.5C89 38.7761 88.7761 39 88.5 39C88.2239 39 88 38.7761 88 38.5V36.5847C88 35.8947 87.705 35.2378 87.1893 34.7794Z" fill="#273AAA"/>
<path d="M73.9856 71.9423L73.5 70L74.0694 71.5184C74.676 73.136 75.7508 74.5363 77.1567 75.5405L77.4823 75.7731C78.1548 76.2534 78.9126 76.6032 79.7144 76.8036C80.2357 76.9339 80.7717 77 81.3091 77H82.5C83.1491 77 83.7807 76.7895 84.3 76.4C85.0554 75.8334 85.5 74.9443 85.5 74V71.8615C85.5 71.6214 85.4706 71.3822 85.4123 71.1492C84.9489 69.2956 86.3509 67.5 88.2616 67.5H88.425C89.1209 67.5 89.796 67.2632 90.3394 66.8285L90.487 66.7104C91.4317 65.9546 91.9341 64.7752 91.8246 63.5704L91.761 62.871C91.5999 61.0985 90.492 59.552 88.8656 58.8292L87.8339 58.3706C87.2804 58.1246 86.6967 57.9533 86.098 57.8612L80.5 57H84.8691C86.2673 57 87.6432 57.3508 88.8707 58.0204L90.0236 58.6492C91.5843 59.5005 92.6586 61.031 92.9289 62.788L93.0341 63.4718C93.3168 65.3092 92.4784 67.1385 90.9019 68.1238L90.1255 68.609C89.7209 68.8619 89.2415 68.9677 88.768 68.9085L88.3467 68.8558C87.0268 68.6908 85.9866 69.9597 86.4072 71.2217C86.4687 71.406 86.5 71.5991 86.5 71.7934V74.6492C86.5 75.5236 86.2024 76.372 85.6562 77.0548C84.9254 77.9682 83.819 78.5 82.6492 78.5H81.5097C80.8409 78.5 80.1766 78.3922 79.5422 78.1807L79.3917 78.1306C78.1539 77.718 77.0514 76.9767 76.2023 75.986L75.8804 75.6104C74.9726 74.5514 74.3239 73.2955 73.9856 71.9423Z" fill="#273AAA"/>
<path d="M74.024 80.271L72 78.5L76.5 81L78.5038 81.8588C79.491 82.2818 80.5538 82.5 81.6278 82.5C82.859 82.5 84.0733 82.2133 85.1745 81.6627L86.5 81L87.9189 80.2906C88.2398 80.1301 88.6301 80.2602 88.7906 80.5811C88.9156 80.8313 88.8666 81.1334 88.6689 81.3311L87.8701 82.1299C87.6267 82.3733 87.33 82.5567 87.0035 82.6655L85.7221 83.0926C84.9127 83.3624 84.065 83.5 83.2118 83.5H82.5C81.1753 83.5 79.8593 83.2864 78.6026 82.8675L78.4909 82.8303C76.8468 82.2823 75.3283 81.4122 74.024 80.271Z" fill="#273AAA"/>
<path d="M95.0603 77.1466L94.5793 77.3069C94.2469 77.4177 93.8836 77.2672 93.7269 76.9539C93.5914 76.6828 93.6445 76.3555 93.8588 76.1412L94.3792 75.6208C94.4595 75.5405 94.5317 75.4524 94.5948 75.3579L96.5 72.5L96.9594 71.5471C97.6443 70.1263 98 68.5693 98 66.992C98 66.3321 97.9377 65.6738 97.814 65.0256L97.7619 64.7525C97.4155 62.9371 96.698 61.2127 95.6543 59.6872L95.5937 59.5986C94.868 58.5379 93.9993 57.5827 93.012 56.76L91.5 55.5L92.3379 56.0586C93.7699 57.0133 95.0387 58.1926 96.0953 59.5511L96.7029 60.3323C97.5597 61.4339 98.197 62.6896 98.5804 64.0315C98.8588 65.0057 99 66.014 99 67.0273V67.6866C99 68.8897 98.8323 70.0869 98.5018 71.2437L98.3651 71.7221C98.1229 72.5698 97.7629 73.3794 97.2956 74.127L95.7456 76.607C95.5869 76.861 95.3445 77.0518 95.0603 77.1466Z" fill="#273AAA"/>
<path d="M58.5 65L68.5 74.5L60.7228 65.8587C59.9093 64.9548 59.015 64.127 58.0511 63.3855L53 59.5L48 56L43.1662 53.3634C42.866 53.1996 42.5 53.4169 42.5 53.7589C42.5 53.9095 42.5753 54.0502 42.7006 54.1337L47 57L52 60L58.5 65Z" fill="#273AAA"/>
<path d="M65.7793 42.1854L60.5 36.5L68 43L72.3391 46.2543C73.4434 47.0825 74.6305 47.7942 75.8814 48.378L80.8632 50.7028C81.2849 50.8996 81.7359 51.0262 82.1984 51.0776L85.5306 51.4478C85.7978 51.4775 86 51.7034 86 51.9723C86 52.2637 85.7637 52.5 85.4723 52.5H83.384C83.1293 52.5 82.8761 52.4628 82.6322 52.3897L80.301 51.6903C78.773 51.2319 77.308 50.5848 75.94 49.764L73 48L68.4352 44.5764C67.4803 43.8602 66.5915 43.06 65.7793 42.1854Z" fill="#273AAA"/>
<path d="M36.7535 33.1406L37.5 36.5L35.6974 32.8948C35.5676 32.6352 35.5 32.3489 35.5 32.0586C35.5 31.4019 35.8446 30.7932 36.4078 30.4553L37.0149 30.0911C37.6508 29.7095 38.4017 29.567 39.1332 29.6889L43.465 30.4108C45.7892 30.7982 47.9899 31.7259 49.8899 33.1193L60.5206 40.9151C61.5048 41.6369 62.4209 42.4472 63.2573 43.3359L69.9549 50.4521C69.9847 50.4837 70.0083 50.5207 70.0245 50.5611L70.0802 50.7004C70.2223 51.0558 69.7436 51.3249 69.514 51.0186C69.5047 51.0062 69.4945 50.9945 69.4835 50.9835L62.2383 43.7383C61.4143 42.9143 60.52 42.164 59.5654 41.4958L48.6424 33.8496C46.9071 32.635 44.9013 31.8627 42.7995 31.5999L38.6295 31.0787C38.2234 31.0279 37.8126 31.1249 37.4722 31.3519C36.8862 31.7425 36.6007 32.4531 36.7535 33.1406Z" fill="#273AAA"/>
<path d="M53 52L41.5 43L63.5 58L67.0513 59.9729C67.6735 60.3186 68.3735 60.5 69.0853 60.5H69.2252C69.408 60.5 69.5902 60.482 69.7694 60.4461L70.0388 60.3922C71.1792 60.1642 72 59.1629 72 58C72 57.4699 72.7316 57.329 72.9285 57.8212L72.9642 57.9106C72.9879 57.9697 73 58.0327 73 58.0963V59.3486C73 59.7733 72.8743 60.1886 72.6387 60.542C72.2397 61.1405 71.5679 61.5 70.8486 61.5H69.2243C68.4192 61.5 67.6251 61.3125 66.9049 60.9525L64.1893 59.5946C63.3975 59.1987 62.6359 58.7451 61.9107 58.2375L53 52Z" fill="#273AAA"/>
<path d="M36.5 48L25.245 42.1641C23.7543 41.3911 22.3668 40.4335 21.1154 39.3138L19.75 38.0921L16.5 35.1842L14.9409 33.7892C14.0141 32.9599 13.4314 31.8136 13.3076 30.5761C13.1192 28.6924 14.0162 26.8649 15.6216 25.8615L15.7367 25.7896C16.5623 25.2736 17.5162 25 18.4897 25H20.6421C22.2007 25 23.746 25.2869 25.2008 25.8465L27.8174 26.8528C28.9357 27.283 30.0031 27.8354 31 28.5L24 26.5L20.6416 25.8283C19.5658 25.6132 18.4526 25.6825 17.4118 26.0294L16.9741 26.1753C16.3335 26.3888 15.7514 26.7486 15.274 27.226L15.0609 27.4391C14.3816 28.1184 14 29.0397 14 30.0003C14 30.6546 14.1772 31.2965 14.5127 31.8582L16.5 35.1842L19.75 38.0921L25 41L30.5 44L36.5 48Z" fill="#273AAA"/>
<path d="M24.0892 18.4141L26 23L25.08 17.9397C25.0268 17.6472 25 17.3504 25 17.0531V16.2255C25 15.4408 25.3117 14.6883 25.8666 14.1334C26.2796 13.7204 26.8056 13.4389 27.3784 13.3243L28.3839 13.1232C28.7936 13.0413 29.2105 13 29.6283 13H29.7388C30.897 13 32.0393 13.2697 33.0753 13.7877L34.318 14.409C35.1041 14.802 35.8494 15.2718 36.5432 15.8113L40 18.5L43.5 21.5L47 25L50.5 28.5L48.9621 26.3469C48.3218 25.4505 47.6085 24.6085 46.8296 23.8296L42 19L36.529 14.6232C35.1905 13.5524 33.6469 12.7673 31.9932 12.3163L30.2447 11.8395C29.4272 11.6165 28.5677 11.5961 27.7405 11.7799L27.5046 11.8323C25.6714 12.2397 24.2397 13.6714 23.8323 15.5046C23.6161 16.4777 23.7058 17.4939 24.0892 18.4141Z" fill="#273AAA"/>
</svg>
