<svg width="83" height="74" viewBox="0 0 83 74" fill="none" xmlns="http://www.w3.org/2000/svg">
<g clip-path="url(#clip0_159_375)">
<mask id="mask0_159_375" style="mask-type:luminance" maskUnits="userSpaceOnUse" x="0" y="0" width="83" height="74">
<path d="M6.50998 0.5L0.599976 70.05L4.65998 66.45L8.88998 66L21.51 70.84L34.81 69.65L44.52 68.04L52.01 71.02L60.51 70.13L68 73.12L79.19 69.83L82.26 2.43L76.2 1.89L62.36 3.45L38.13 1.28L15.58 0.58L6.50998 0.5Z" fill="white"/>
</mask>
<g mask="url(#mask0_159_375)">
<path d="M12.54 0.55L11.93 11.47L8.88998 66L4.65998 66.45L0.599976 70.05L6.50998 0.5L12.54 0.55Z" stroke="#273AAA" stroke-miterlimit="10"/>
<path d="M10.72 33.23L12.81 11.22L25.64 13.53L34.14 12.64L38.26 12.68L38.55 7.59L45.83 7.42L46 12.93L46.39 25.13L39.11 25.3L38.26 12.68" stroke="#273AAA" stroke-miterlimit="10"/>
<path d="M53.53 13.55L46 12.92" stroke="#273AAA" stroke-miterlimit="10"/>
<path d="M76.2 1.89L75.62 12.07L64.93 13.42L58.62 13.84L53.53 13.55" stroke="#273AAA" stroke-miterlimit="10"/>
</g>
<path d="M6.50998 0.5L0.599976 70.05L4.65998 66.45L8.88998 66L21.51 70.84L34.81 69.65L44.52 68.04L52.01 71.02L60.51 70.13L68 73.12L79.19 69.83L82.26 2.43L76.2 1.89L62.36 3.45L38.13 1.28L15.58 0.58L6.50998 0.5Z" stroke="#273AAA" stroke-miterlimit="10"/>
<path d="M8.88995 66L16.5 68.92L12.34 60.7L12.11 49.51L11.17 25.17L8.88995 66Z" fill="#273AAA" stroke="#273AAA" stroke-miterlimit="10"/>
<path d="M4.70996 46.32L6.89996 45.86C7.57996 45.61 8.39996 46.16 10.31 44.68L11.28 44.93L11.74 47.12L10.77 46.87C9.98996 45.2 7.73996 46.68 6.64996 46.83L4.70996 46.33V46.32Z" fill="#273AAA" stroke="#273AAA" stroke-width="0.75" stroke-miterlimit="10"/>
<path d="M73.92 71.38L73.72 59.11L74.63 39.71L74.54 24.19L75.63 12.07L69.13 12.89L58.64 13.84L49.43 13.51L56.07 16.05C57.26 16.5 58.55 16.61 59.79 16.34L64.45 15.35C66.86 15.73 70.42 16.42 71.94 18.33L74.05 26.11L75.64 12.06" fill="#273AAA"/>
<path d="M73.92 71.38L73.72 59.11L74.63 39.71L74.54 24.19L75.63 12.07L69.13 12.89L58.64 13.84L49.43 13.51L56.07 16.05C57.26 16.5 58.55 16.61 59.79 16.34L64.45 15.35C66.86 15.73 70.42 16.42 71.94 18.33L74.05 26.11L75.64 12.06" stroke="#273AAA" stroke-miterlimit="10"/>
<path d="M12.05 16.95C12.34 17.93 10.14 17.12 9.17 17.79L7.25 18.35L8.28 17.45C13.17 16.92 11.96 16.21 11.66 16.6L12.05 16.94V16.95Z" fill="#273AAA" stroke="#273AAA" stroke-width="0.75" stroke-miterlimit="10"/>
<path d="M20.46 40.5L18.68 43.72C17.78 44.97 17.13 47.24 17.23 48.77C17.4 51.32 18.71 53.65 20.8 55.11L21.46 55.57C21.62 55.68 21.8 55.77 21.99 55.83C22.74 56.05 24.82 56.59 26.76 56.27C27.74 56.11 30.47 54.92 31.66 54.39C32.03 54.22 32.34 53.95 32.54 53.59L34.75 49.69C34.79 49.62 34.84 49.36 34.89 49.03C35.1 47.66 34.77 46.26 33.96 45.14L33.56 44.58L33.96 47C33.94 47.08 33.73 49.56 33.7 49.63L32.22 52.88C32.02 53.31 31.68 53.65 31.24 53.84L27.7 55.36C27.41 55.48 27.1 55.53 26.79 55.51L22.74 55.17C22.4 55.14 22.07 55.02 21.79 54.82L21.11 54.33C19.56 53.22 18.52 51.53 18.21 49.65L17.96 48.11C17.8 47.1 18.04 46.07 18.64 45.23L20.65 41.69C20.94 41.28 22.55 40.14 23.05 40.06L25.6 39.65C26.2 39.55 26.82 39.6 27.41 39.78L29.14 40.32L28.97 40.2C27.29 38.99 25.16 38.58 23.15 39.07C21.67 40.29 20.85 39.95 20.46 40.49V40.5Z" fill="#273AAA"/>
<path d="M38.68 49.56L36.21 48.64C35.24 48.14 33.55 47.91 32.45 48.13C30.63 48.49 29.07 49.63 28.19 51.23L27.92 51.73C27.85 51.85 27.8 51.98 27.78 52.12C27.68 52.66 27.48 54.16 27.87 55.47C28.07 56.13 29.15 57.91 29.64 58.68C29.79 58.92 30.02 59.11 30.29 59.21L33.28 60.36C33.33 60.38 33.52 60.39 33.77 60.39C34.77 60.41 35.75 60.04 36.49 59.37L36.86 59.04L35.15 59.55C35.09 59.55 33.29 59.64 33.24 59.63L30.77 58.92C30.44 58.83 30.17 58.62 30 58.34L28.6 56.04C28.49 55.85 28.42 55.64 28.42 55.42L28.32 52.58C28.32 52.34 28.37 52.1 28.49 51.89L28.78 51.37C29.45 50.19 30.57 49.3 31.9 48.9L32.99 48.58C33.7 48.37 34.47 48.43 35.12 48.77L37.83 49.82C38.15 49.98 39.11 50.98 39.21 51.32L39.72 53.04C39.84 53.45 39.86 53.88 39.78 54.3L39.54 55.55L39.61 55.42C40.34 54.14 40.45 52.62 39.93 51.28C38.93 50.37 39.1 49.77 38.68 49.55V49.56Z" fill="#273AAA"/>
<path d="M67.96 22.4L66.43 20.9C65.87 20.21 64.69 19.48 63.8 19.28C62.33 18.95 60.78 19.28 59.61 20.18L59.24 20.46C59.15 20.53 59.07 20.61 59.01 20.71C58.76 21.08 58.11 22.13 57.97 23.23C57.9 23.79 58.12 25.47 58.23 26.21C58.26 26.44 58.37 26.65 58.54 26.82L60.39 28.66C60.39 28.66 60.56 28.76 60.74 28.85C61.48 29.19 62.33 29.24 63.11 28.98L63.49 28.85L62.05 28.67C62.05 28.67 60.63 28.13 60.6 28.1L59 26.76C58.79 26.58 58.65 26.34 58.62 26.07L58.34 23.89C58.32 23.71 58.34 23.54 58.41 23.37L59.27 21.22C59.34 21.04 59.47 20.88 59.63 20.76L60.02 20.47C60.91 19.81 62.04 19.52 63.16 19.66L64.08 19.78C64.68 19.86 65.23 20.16 65.6 20.62L67.28 22.29C67.46 22.52 67.85 23.58 67.81 23.86L67.63 25.31C67.59 25.65 67.46 25.98 67.26 26.27L66.67 27.12L66.77 27.05C67.73 26.33 68.32 25.24 68.37 24.07C67.92 23.06 68.25 22.67 68.01 22.37L67.96 22.4Z" fill="#273AAA"/>
<path d="M65.17 34.89L65.69 31.88C66.05 30.66 65.95 28.68 65.46 27.48C64.65 25.49 63.02 23.94 61.01 23.29L60.38 23.09C60.22 23.04 60.07 23.01 59.9 23.01C59.26 23.01 57.51 23.1 56.1 23.83C55.39 24.2 53.6 25.82 52.82 26.54C52.58 26.76 52.41 27.06 52.35 27.39L51.68 31.05C51.67 31.12 51.7 31.33 51.74 31.61C51.94 32.76 52.57 33.8 53.49 34.49L53.95 34.84L53 33C53 32.93 52.49 30.9 52.5 30.83L52.77 27.87C52.81 27.48 52.98 27.12 53.27 26.86L55.6 24.77C55.79 24.6 56.02 24.48 56.26 24.43L59.47 23.71C59.74 23.65 60.03 23.66 60.3 23.76L60.95 23.98C62.44 24.49 63.7 25.58 64.43 27.01L65.03 28.18C65.43 28.95 65.51 29.83 65.27 30.65L64.66 33.97C64.54 34.37 63.61 35.68 63.24 35.87L61.39 36.83C60.95 37.06 60.46 37.17 59.96 37.17H58.48L58.64 37.22C60.26 37.77 62.01 37.58 63.43 36.69C64.25 35.35 64.97 35.42 65.13 34.89H65.17Z" fill="#273AAA"/>
<path d="M70.61 69.78L71.13 66.77C71.49 65.55 71.39 63.57 70.9 62.37C70.09 60.38 68.46 58.83 66.45 58.18L65.82 57.98C65.66 57.93 65.51 57.9 65.34 57.9C64.7 57.9 62.95 57.99 61.54 58.72C60.83 59.09 59.04 60.71 58.26 61.43C58.02 61.65 57.85 61.95 57.79 62.28L57.12 65.94C57.11 66.01 57.14 66.22 57.18 66.5C57.38 67.65 58.01 68.69 58.93 69.38L59.39 69.73L58.44 67.89C58.44 67.82 57.93 65.79 57.94 65.72L58.21 62.76C58.25 62.37 58.42 62.01 58.71 61.75L61.04 59.66C61.23 59.49 61.46 59.37 61.7 59.32L64.91 58.6C65.18 58.54 65.47 58.55 65.74 58.65L66.39 58.87C67.88 59.38 69.14 60.47 69.87 61.9L70.47 63.07C70.87 63.84 70.95 64.72 70.71 65.54L70.1 68.86C69.98 69.26 69.05 70.57 68.68 70.76L66.83 71.72C66.39 71.95 65.9 72.06 65.4 72.06H63.92L64.08 72.11C65.7 72.66 67.45 72.47 68.87 71.58C69.69 70.24 70.41 70.31 70.57 69.78H70.61Z" fill="#273AAA"/>
<path d="M68.72 56.97L67.19 55.47C66.63 54.78 65.45 54.05 64.56 53.85C63.09 53.52 61.54 53.85 60.37 54.75L60 55.03C59.91 55.1 59.83 55.18 59.77 55.28C59.52 55.65 58.87 56.7 58.73 57.8C58.66 58.36 58.88 60.04 58.99 60.78C59.02 61.01 59.13 61.22 59.3 61.39L61.15 63.23C61.15 63.23 61.32 63.33 61.5 63.42C62.24 63.76 63.09 63.81 63.87 63.55L64.25 63.42L62.81 63.24C62.81 63.24 61.39 62.7 61.36 62.67L59.76 61.33C59.55 61.15 59.41 60.91 59.38 60.64L59.1 58.46C59.08 58.28 59.1 58.11 59.17 57.94L60.03 55.79C60.1 55.61 60.23 55.45 60.39 55.33L60.78 55.04C61.67 54.38 62.8 54.09 63.92 54.23L64.84 54.35C65.44 54.43 65.99 54.73 66.36 55.19L68.04 56.86C68.22 57.09 68.61 58.15 68.57 58.43L68.39 59.88C68.35 60.22 68.22 60.55 68.02 60.84L67.43 61.69L67.53 61.62C68.49 60.9 69.08 59.81 69.13 58.64C68.68 57.63 69.01 57.24 68.77 56.94L68.72 56.97Z" fill="#273AAA"/>
<path d="M33.77 18.44L31.36 16.66C30.45 15.8 28.68 15.03 27.43 14.95C25.36 14.81 23.33 15.63 21.93 17.16L21.49 17.64C21.38 17.76 21.29 17.89 21.23 18.04C20.97 18.62 20.32 20.25 20.37 21.85C20.39 22.66 21.06 24.99 21.37 26.01C21.46 26.33 21.66 26.6 21.92 26.8L24.83 29C24.88 29.04 25.08 29.11 25.35 29.19C26.43 29.51 27.6 29.39 28.59 28.85L29.08 28.58L27.08 28.64C27.02 28.61 25.04 28.18 24.98 28.15L22.51 26.61C22.18 26.41 21.94 26.09 21.84 25.72L20.99 22.7C20.92 22.46 20.91 22.2 20.97 21.95L21.67 18.72C21.73 18.45 21.86 18.19 22.06 17.99L22.53 17.5C23.59 16.37 25.07 15.7 26.62 15.66L27.89 15.62C28.72 15.59 29.53 15.9 30.14 16.47L32.78 18.47C33.08 18.75 33.83 20.17 33.85 20.58L33.91 22.68C33.93 23.18 33.82 23.67 33.62 24.13L33 25.47L33.12 25.35C34.28 24.12 34.83 22.45 34.65 20.77C33.82 19.44 34.19 18.82 33.79 18.44H33.77Z" fill="#273AAA"/>
<path d="M36.11 25.87L34.99 24.78C34.58 24.28 33.72 23.74 33.07 23.6C32 23.36 30.87 23.6 30.02 24.26L29.75 24.47C29.68 24.52 29.63 24.58 29.58 24.65C29.4 24.92 28.93 25.68 28.83 26.49C28.78 26.9 28.94 28.12 29.02 28.66C29.04 28.83 29.12 28.98 29.24 29.1L30.59 30.44C30.59 30.44 30.71 30.51 30.85 30.58C31.39 30.83 32.01 30.86 32.57 30.68L32.85 30.59L31.8 30.46C31.8 30.46 30.77 30.06 30.74 30.04L29.57 29.07C29.42 28.94 29.32 28.76 29.29 28.57L29.08 26.99C29.06 26.86 29.08 26.73 29.13 26.61L29.76 25.05C29.81 24.92 29.9 24.8 30.02 24.71L30.3 24.5C30.95 24.02 31.77 23.81 32.59 23.91L33.26 23.99C33.7 24.05 34.1 24.27 34.37 24.6L35.59 25.82C35.72 25.99 36 26.76 35.98 26.97L35.85 28.03C35.82 28.28 35.73 28.52 35.58 28.73L35.15 29.35L35.22 29.3C35.92 28.78 36.35 27.99 36.38 27.13C36.05 26.4 36.29 26.11 36.12 25.89L36.11 25.87Z" fill="#273AAA"/>
<path d="M6.09997 28.21L7.51997 27.7C7.93997 27.49 8.60997 27.65 9.64997 26.68H10.36L11.08 27.67H10.37C9.52997 26.97 8.23997 27.99 7.51997 28.2H6.08997L6.09997 28.21Z" fill="#273AAA" stroke="#273AAA" stroke-width="0.75" stroke-miterlimit="10"/>
<path d="M6.13 23.68L7.98 23.79C8.57 23.9 9.2 23.38 10.91 24.32L11.69 24.01L11.89 22.23L11.11 22.54C10.61 23.94 8.61 23.04 7.69 23.05L6.13 23.67V23.68Z" fill="#273AAA" stroke="#273AAA" stroke-width="0.25" stroke-miterlimit="10"/>
<path d="M5.70996 40.69L7.55996 40.8C8.14996 40.91 8.77996 40.39 10.49 41.33L11.27 41.02L11.47 39.24L10.69 39.55C10.19 40.95 8.18996 40.05 7.26996 40.06L5.70996 40.68V40.69Z" fill="#273AAA" stroke="#273AAA" stroke-width="0.25" stroke-miterlimit="10"/>
<path d="M2.84998 62.6L5.11998 62.55C5.82998 62.62 6.64998 62.01 8.66998 62.84L9.65998 62.45L10.06 60.59L9.06998 60.98C8.32998 62.48 5.94998 61.73 4.82998 61.82L2.84998 62.61V62.6Z" fill="#273AAA" stroke="#273AAA" stroke-width="0.25" stroke-miterlimit="10"/>
<path d="M2.69 55.09L4.99 54.58C5.7 54.48 6.59 53.87 8.55 54.05L9.59 53.56L10.19 52.13L9.15 52.62C8.25 53.86 5.92 53.81 4.77 54.11L2.69 55.09Z" fill="#273AAA" stroke="#273AAA" stroke-width="0.25" stroke-miterlimit="10"/>
<path d="M4.13 36L6.43 35.49C7.14 35.39 8.03 34.78 9.99 34.96L11.03 34.47L11.63 33.04L10.59 33.53C9.69 34.77 7.36 34.72 6.21 35.02L4.13 36Z" fill="#273AAA" stroke="#273AAA" stroke-width="0.25" stroke-miterlimit="10"/>
<path d="M6.06 15.23L8.36 14.72C9.07 14.62 9.96 14.01 11.92 14.19L12.96 13.7L13.56 12.27L12.52 12.76C11.62 14 9.29 13.95 8.14 14.25L6.06 15.23Z" fill="#273AAA" stroke="#273AAA" stroke-width="0.25" stroke-miterlimit="10"/>
<path d="M5.66998 4.78999L7.44998 4.21999C7.98998 4.06999 8.72998 3.63999 10.17 3.47999L11.01 3.08999L11.64 2.25999L10.8 2.64999C9.96998 3.41999 8.24998 3.69999 7.34998 3.99999L5.67998 4.78999H5.66998Z" fill="#273AAA" stroke="#273AAA" stroke-width="0.25" stroke-miterlimit="10"/>
<path d="M5.09998 12.69L6.87998 12.12C7.41998 11.97 8.15998 11.54 9.59998 11.38L10.44 10.99L11.07 10.16L10.23 10.55C9.39998 11.32 7.67998 11.6 6.77998 11.9L5.10998 12.69H5.09998Z" fill="#273AAA" stroke="#273AAA" stroke-width="0.25" stroke-miterlimit="10"/>
<path d="M4.35999 21.65L6.13999 21.08C6.67999 20.93 7.41998 20.5 8.85998 20.34L9.69999 19.95L10.33 19.12L9.48998 19.51C8.65999 20.28 6.93999 20.56 6.03999 20.86L4.36999 21.65H4.35999Z" fill="#273AAA" stroke="#273AAA" stroke-width="0.25" stroke-miterlimit="10"/>
<path d="M4.28998 32.07L6.06998 31.5C6.60998 31.35 7.34998 30.92 8.78998 30.76L9.62998 30.37L10.26 29.54L9.41998 29.93C8.58998 30.7 6.86998 30.98 5.96998 31.28L4.29998 32.07H4.28998Z" fill="#273AAA" stroke="#273AAA" stroke-width="0.25" stroke-miterlimit="10"/>
<path d="M76.06 4.42999L75.97 5.33999L77.99 5.39999L79.32 5.73999L80.9 5.68999L79.25 5.25999L78.06 4.94999L76.06 4.42999Z" fill="#273AAA" stroke="#273AAA" stroke-width="0.25" stroke-miterlimit="10"/>
<path d="M76.02 8.55L77.87 9.5L79.59 9.48L81.76 10.28L79.54 9.93L77.7 10.02L76.04 9.08L76.02 8.55Z" fill="#273AAA" stroke="#273AAA" stroke-width="0.25" stroke-miterlimit="10"/>
<path d="M75.66 11.38L75.55 12.88L76.95 12.93L79.42 13.89L81.72 14.31L78.88 13.43L77.02 12.43L75.66 11.38Z" fill="#273AAA" stroke="#273AAA" stroke-width="0.25" stroke-miterlimit="10"/>
<path d="M75.43 18.73L77.37 19.24L79.16 20.27L80.42 20.6L79.05 20.71L77.44 19.77L75.34 19.23L75.43 18.73Z" fill="#273AAA" stroke="#273AAA" stroke-width="0.25" stroke-miterlimit="10"/>
<path d="M75.06 22.21L74.54 25.29L76.16 24.11L78.05 24.58L79.98 25.08L80.95 25.34L79.44 24.36L77.93 24.06L76.36 23.11L75.14 23.83L75.06 22.21Z" fill="#273AAA" stroke="#273AAA" stroke-width="0.25" stroke-miterlimit="10"/>
<path d="M74.91 28.39L75.18 28.41L77.9 28.68L79.79 29.88L80.78 29.98L79.75 30.31L77.85 29.13L75.17 29.14L74.91 28.39Z" fill="#273AAA" stroke="#273AAA" stroke-width="0.25" stroke-miterlimit="10"/>
<path d="M81.98 17.47L80.49 17.01C80.05 16.84 79.33 16.82 78.27 16.19L77.51 16.08L76.68 16.45L77.44 16.56C78.38 16.35 79.7 17.03 80.46 17.25L81.99 17.47H81.98Z" fill="#273AAA" stroke="#273AAA" stroke-width="0.25" stroke-miterlimit="10"/>
<path d="M74.66 37.46L74.88 37.48L77.16 37.71L78.73 38.82L79.56 38.9L78.69 39.24L77.12 38.14L74.86 38.17L74.66 37.46Z" fill="#273AAA" stroke="#273AAA" stroke-width="0.25" stroke-miterlimit="10"/>
<path d="M74.54 32.19L76.48 32.7L78.27 33.73L79.53 34.05L78.16 34.17L76.55 33.23L74.45 32.69L74.54 32.19Z" fill="#273AAA" stroke="#273AAA" stroke-width="0.25" stroke-miterlimit="10"/>
<path d="M76.79 41.55H77.68C77.96 41.54 78.3 41.76 79.07 41.44L79.47 41.58L79.67 42.27L79.27 42.13C78.94 41.58 78.03 41.87 77.58 41.83L76.78 41.55H76.79Z" fill="#273AAA" stroke="#273AAA" stroke-width="0.75" stroke-miterlimit="10"/>
<path d="M76.47 50.96H77.36C77.64 50.95 77.98 51.17 78.75 50.85L79.15 50.99L79.35 51.68L78.95 51.54C78.62 50.99 77.71 51.28 77.26 51.24L76.46 50.96H76.47Z" fill="#273AAA" stroke="#273AAA" stroke-width="0.75" stroke-miterlimit="10"/>
<path d="M79.63 62.19L78.34 61.85C77.96 61.73 77.34 61.69 76.41 61.27L75.75 61.17L75.05 61.36L75.71 61.46C76.51 61.37 77.66 61.83 78.32 61.99L79.63 62.18V62.19Z" fill="#273AAA" stroke="#273AAA" stroke-width="0.25" stroke-miterlimit="10"/>
<path d="M73.75 57.47L73.96 57.49L76.22 57.72L77.76 58.88L78.59 58.96L77.72 59.31L76.17 58.17L73.95 58.21L73.75 57.47Z" fill="#273AAA" stroke="#273AAA" stroke-width="0.25" stroke-miterlimit="10"/>
<path d="M74.37 45.69L74.59 45.71L76.84 45.93L78.42 46.78L79.24 46.86L78.39 47.08L76.81 46.24L74.59 46.21L74.37 45.69Z" fill="#273AAA" stroke="#273AAA" stroke-width="0.25" stroke-miterlimit="10"/>
<path d="M75.21 67.24L76.42 67.17C76.8 67.1 77.23 67.42 78.31 66.85L78.83 67.04L79.04 68.11L78.52 67.92C78.13 67.08 76.86 67.62 76.27 67.61L75.22 67.24H75.21Z" fill="#273AAA" stroke="#273AAA" stroke-width="0.75" stroke-miterlimit="10"/>
<path d="M2.13 50.29L4.62 49.83L7.25 50.18L8.87 49.88L7.39 50.85L5.01 50.53L2.3 51.03L2.13 50.29Z" fill="#273AAA" stroke="#273AAA" stroke-width="0.25" stroke-miterlimit="10"/>
<path d="M2.23 57.7L1.81 60.54L3.36 59.45L5.22 59.89L7.12 60.36L8.08 60.6L6.57 59.7L5.09 59.42L3.53 58.53L2.36 59.19L2.23 57.7Z" fill="#273AAA" stroke="#273AAA" stroke-width="0.25" stroke-miterlimit="10"/>
</g>
<defs>
<clipPath id="clip0_159_375">
<rect width="82.78" height="73.64" fill="white"/>
</clipPath>
</defs>
</svg>
