<svg width="119" height="140" viewBox="0 0 119 140" fill="none" xmlns="http://www.w3.org/2000/svg">
<path d="M29.6132 40.1523L27.3787 24.1131C27.2334 23.0695 27.3492 22.0061 27.716 21.0183C28.3038 19.4352 29.4964 18.1504 31.0314 17.4467L31.5223 17.2216C32.899 16.5904 34.4317 16.3809 35.9272 16.6194L46.3937 18.2883C47.3804 18.4456 48.354 18.6767 49.3062 18.9796L71.5628 26.0584C74.6158 27.0294 77.391 28.7197 79.6545 30.987L81.6279 32.9635C84.7116 36.0523 86.7003 40.065 87.2905 44.3895L88.2807 51.6445C88.5666 53.7394 88.5185 55.8664 88.1382 57.9463L86.3634 67.653C85.7443 71.039 86.0095 74.5274 87.1334 77.7808L90.4637 87.4209C91.5663 90.6125 91.8429 94.0313 91.2676 97.3586L89.363 108.375C88.8155 111.542 87.5129 114.53 85.5654 117.087L79.7366 124.739C78.7464 126.039 77.4515 127.075 75.966 127.756C72.3706 129.404 68.1403 128.768 65.1889 126.135L65.1226 126.076C64.0736 125.14 62.8405 124.433 61.5025 124.002L57.6019 122.743C56.3937 122.353 55.151 122.079 53.8909 121.925L47.4657 121.139C43.2202 120.619 39.5483 117.935 37.7657 114.047C36.7815 111.9 36.4352 109.515 36.7682 107.177L37.4314 102.52C37.7743 96.5132 35.1212 90.7266 30.3465 87.0664L27.0075 84.0418C23.7472 81.0886 21.9114 76.8779 21.9664 72.4792C21.9959 70.1157 22.5711 67.7911 23.6471 65.6866L26.1204 60.8491C27.0488 59.0332 27.694 57.0859 28.0336 55.0749L29.5253 46.2423C29.8653 44.2287 29.895 42.1749 29.6132 40.1523Z" fill="#FFF5EB" stroke="#273AAA"/>
<path d="M35.8112 38.1103L35.2549 28.3423C35.2482 28.2249 35.2513 28.1072 35.2643 27.9904C35.4168 26.6162 36.8304 25.7598 38.1191 26.261L56.9872 33.5989L72.9176 39.5138C75.5083 40.4757 77.7956 42.1108 79.5441 44.2507C82.6014 47.9926 83.7447 52.9435 82.6376 57.647L80.4753 66.8339L79.879 70.5735C79.1748 74.9896 80.3904 79.4963 83.2199 82.9593C85.2209 85.4084 86.4343 88.4054 86.7007 91.5568L87.0342 95.5022C87.2822 98.4359 86.8794 101.388 85.8546 104.148L82.9934 111.854C82.3318 113.636 81.4184 115.314 80.281 116.836L75.4638 123.285C74.8536 124.102 73.9022 124.594 72.8827 124.619C71.5528 124.653 70.3311 123.89 69.7767 122.681L69.3096 121.662C68.9844 120.953 68.4987 120.329 67.8907 119.84L65.3301 117.781L63.7373 116.798C61.7463 115.569 59.5552 114.7 57.2635 114.228L53.64 113.483C52.2981 113.207 51.0002 112.749 49.7819 112.123L48.0035 111.208C45.2691 109.802 43.274 107.285 42.5296 104.302L42.3864 103.728C41.959 102.015 42.0591 100.213 42.6735 98.5585L42.8094 98.1925C43.9466 95.1298 43.1491 91.6842 40.7821 89.4325L36.804 86.0745C34.6964 84.2954 33.0075 82.0729 31.858 79.5657C30.1515 75.8435 29.7113 71.6647 30.6049 67.6686L32.6537 58.5063L35.5173 42.8448C35.8028 41.2839 35.9014 39.6945 35.8112 38.1103Z" fill="#273AAA" stroke="#273AAA"/>
<path d="M42.4827 43.558L41.7479 39.2588C41.6578 38.7319 41.7333 38.1901 41.964 37.708C42.6579 36.2573 44.494 35.7857 45.8012 36.7224L46.2698 37.0582C46.4701 37.2017 46.6869 37.3206 46.9156 37.4122L59.3746 42.4052L67.2839 46.0942C69.8564 47.2941 71.9184 49.3696 73.1014 51.9499C74.5809 55.1771 74.5506 58.8948 73.0186 62.0974L72.9786 62.1811C72.3748 63.4434 71.9934 64.8004 71.8511 66.1923L71.7415 67.2646C71.3035 71.5506 72.3868 75.8542 74.8017 79.422L77.3812 83.233C78.8381 85.3854 79.8614 87.801 80.3941 90.3449L80.9152 92.8337C81.562 95.923 81.4685 99.1217 80.6423 102.168L79.2262 107.389C78.9644 108.354 78.606 109.291 78.1565 110.184L75.1268 116.205C74.7456 116.963 74.0063 117.475 73.1632 117.567C72.0933 117.683 71.0691 117.102 70.6206 116.123L69.7745 114.278C69.4539 113.579 68.9853 112.957 68.4011 112.457L67.1947 111.423C65.0308 109.568 62.3001 108.506 59.4519 108.409L56.03 108.294L54.3304 108.023C51.0792 107.504 48.5049 104.998 47.8996 101.762C47.8146 101.308 47.7702 100.847 47.767 100.384L47.7425 96.8963C47.7116 92.4975 46.2313 88.2316 43.5309 84.7591L42.3343 83.2204L38.2401 78.1038C36.7105 76.1922 35.7809 73.8706 35.5685 71.4316C35.3603 69.0401 35.8506 66.6396 36.98 64.5213L39.8185 59.1976C40.9047 57.1606 41.6299 54.9509 41.9622 52.6664L42.546 48.6524C42.7919 46.9614 42.7705 45.2423 42.4827 43.558Z" fill="#FFF5EB" stroke="#273AAA"/>
<path d="M46.8366 47.8299L46.3832 44.2793C46.3578 44.0803 46.3666 43.8785 46.4091 43.6825C46.6481 42.5807 47.8459 41.9836 48.8697 42.4559L53.8117 44.7362C54.7527 45.1703 55.5682 45.836 56.182 46.671L60.3061 52.2812C62.6969 55.5337 63.8177 59.5473 63.4579 63.5678C63.3513 64.7582 63.3739 65.9566 63.5253 67.1422L63.54 67.2573C64.0688 71.3993 66.0505 75.2192 69.1322 78.0369L70.1481 78.9657C73.1614 81.7209 75.2593 85.3324 76.1598 89.3149L76.3497 90.1547C76.7269 91.8226 76.8886 93.532 76.8308 95.241L76.5144 104.608C76.4822 105.561 76.1418 106.477 75.5443 107.22C74.4089 108.632 72.525 109.205 70.7957 108.665L68.1998 107.853C67.5634 107.654 66.9529 107.38 66.3813 107.037L60.783 103.675C58.5323 102.323 56.5698 100.541 55.0074 98.4313L54.2493 97.4075C52.5023 95.0482 51.2961 92.3332 50.7164 89.4553L49.8722 85.265L49.2103 77.122C49.0229 74.8155 48.2194 72.6018 46.8838 70.712C45.1651 68.2801 44.3416 65.2947 44.5483 62.3239C44.6227 61.2547 44.8294 60.1866 45.162 59.1677L46.0102 56.5696C46.9295 53.7535 47.2117 50.7684 46.8366 47.8299Z" fill="#273AAA" stroke="#273AAA"/>
<path d="M48.5811 57.2545L50.2574 50.8461C50.3347 50.5508 50.5404 50.3057 50.8179 50.1785C51.3288 49.9443 51.9329 50.1686 52.1671 50.6795L55.3287 57.5754C55.7141 58.416 55.9615 59.3132 56.0613 60.2326L56.7638 66.7041L57.0582 68.1658C57.9822 72.7524 60.4849 76.8699 64.131 79.8019L65.2641 80.7131C67.6837 82.6589 69.6171 85.1413 70.9111 87.9637L71.8231 89.953C72.6701 91.8003 73.0753 93.8194 73.0067 95.8504L72.7841 102.44C72.7531 103.357 72.2068 104.178 71.3729 104.56C70.789 104.828 70.1227 104.852 69.5205 104.629L64.7451 102.856C62.8316 102.145 61.0867 101.044 59.6214 99.6235L59.2402 99.2539C56.4376 96.5361 54.6417 92.9465 54.1473 89.0739C53.9497 87.5263 53.9633 85.959 54.1879 84.4151L54.2553 83.9512C54.9279 79.3268 53.7173 74.6259 50.8946 70.9016L50.6524 70.5821C50.0445 69.7799 49.5261 68.9137 49.1067 67.9988C47.8917 65.3487 47.5475 62.3818 48.1236 59.5239L48.5811 57.2545Z" fill="#FFF5EB" stroke="#273AAA"/>
<path d="M58.3678 88.3147L61.7665 90.8126L61.7199 86.8206C61.7129 86.214 61.893 85.62 62.2358 85.1195L62.6273 84.5478C63.0682 83.904 63.855 83.5913 64.6176 83.7567C65.3399 83.9134 65.908 84.4709 66.0783 85.1901L66.7685 88.1054C66.9052 88.6825 66.9643 89.2753 66.9443 89.8681L66.8067 93.9412C66.7427 95.8353 66.9482 97.7288 67.4171 99.565L68.0934 102.213L66.5592 101.266L63.8105 99.4882C62.0056 98.3206 60.4008 96.8697 59.0577 95.1913L58.5094 94.5061L56.4771 91.9663C56.1236 91.5245 55.9183 90.9826 55.8904 90.4175L55.8533 89.6662C55.8214 89.0207 56.1857 88.4209 56.7732 88.1515C57.2949 87.9123 57.9053 87.9748 58.3678 88.3147Z" fill="#273AAA"/>
<path d="M50.4028 61.0838L51.5362 62.5002L53.0448 59.3466C53.152 59.1223 53.3819 58.9828 53.6303 58.9912C54.0065 59.0039 54.2864 59.3434 54.2271 59.7151L53.771 62.5757L52.7487 66.3447L49.8067 62.2864C49.7729 62.2398 49.7438 62.19 49.7199 62.1377L49.4936 61.6442C49.3269 61.2806 49.6011 60.8687 50.0008 60.8822C50.1578 60.8875 50.3047 60.9612 50.4028 61.0838Z" fill="#273AAA"/>
</svg>
