<svg width="422" height="447" viewBox="0 0 422 447" fill="none" xmlns="http://www.w3.org/2000/svg">
<g clip-path="url(#clip0_159_428)">
<path d="M116.89 147.814L64.8899 139.814L47.8899 164.814L43.8899 165.594L27.8899 191.814L24.8899 204.814V260.284L8.88989 292.814L4.88989 317.814L6.88989 343.814L10.8899 359.814L7.88989 374.814L1.88989 397.814V417.424L14.8899 431.604L45.8899 435.814L67.8899 438.814L104.89 445.814H149.1L196 441.194L199.89 440.814L240.89 428.814L255.56 426.814C260.39 426.154 265.31 426.514 270 427.874L293.89 434.814L327.89 441.814L400.89 431.814L417.9 416.404C418.48 415.874 418.83 415.134 418.88 414.354L420.85 376.674C420.88 376.104 420.81 375.534 420.64 374.994L403.21 318.814L391.82 262.574L399.97 241.594C400.57 239.794 400.53 237.844 399.84 236.074L385.89 199.814L377.89 181.814L376.89 163.814L370.89 146.814L339.97 155.814L326.89 154.814" stroke="#273AAA" stroke-miterlimit="10"/>
<path d="M303.89 154.734L292.83 153.814L223.89 163.814L139.62 151.094" stroke="#273AAA" stroke-miterlimit="10"/>
<path d="M41.8899 175.814L27.9899 190.714C27.3299 191.374 27.1199 192.374 27.4699 193.244L28.8899 196.804L32.3499 198.264C33.9499 198.934 35.7599 198.814 37.2599 197.934L40.8899 195.804L41.8899 175.804V175.814Z" fill="#273AAA" stroke="#273AAA" stroke-miterlimit="10"/>
<path d="M42.8899 165.594V175.814L37.8899 226.814L33.6799 249.334L28.6799 276.834L20.8899 301.814L15.8899 313.814L13.8899 365.904L32.8899 401.814L58.8899 425.814L79.8899 435.814L100.89 444.814L58.8899 437.814L35.8899 417.814L22.8899 396.814L9.88989 359.814L12.8899 326.814L13.8899 318.814L22.8899 282.814L31.6999 255.014L36.6999 226.014L42.8899 165.594Z" fill="#273AAA" stroke="#273AAA" stroke-miterlimit="10"/>
<path d="M222.89 440.814L195 441.194L241.67 428.704L256.14 426.904C261.91 426.184 267.77 426.654 273.36 428.274L295.89 435.814H273.89L252.89 436.814L222.89 440.814Z" fill="#273AAA" stroke="#273AAA" stroke-miterlimit="10"/>
<path d="M377.82 180.574L372.89 195.814L368.38 210.844C367.41 214.084 367.42 217.534 368.4 220.774L379.06 255.804C380.27 259.774 380.73 263.934 380.42 268.074L377.89 301.814L373.89 342.274V366.694C373.89 368.184 374.09 369.664 374.49 371.104L380.89 394.354L384.42 404.044C385.97 408.304 389.47 411.564 393.83 412.814L404.28 415.804C406.66 416.484 409.15 416.694 411.61 416.424L416.81 415.604L400.55 407.314C396.24 405.064 392.86 401.384 390.99 396.894L384.91 382.294C384.23 380.664 383.79 378.934 383.61 377.184L380.24 344.344C380 342.014 380.11 339.664 380.56 337.364L387.88 299.824L391.88 262.824L378.88 243.824L374.52 225.794C373.85 223.014 373.63 220.134 373.87 217.284L377.8 180.584L377.82 180.574Z" fill="#273AAA" stroke="#273AAA" stroke-width="0.75" stroke-miterlimit="10"/>
<path d="M120.89 143.814V133.074L125.89 129.814L130.89 130.814V139.814V148.354L125.89 150.464L120.89 149.774V143.814Z" stroke="#273AAA" stroke-miterlimit="10"/>
<path d="M126.12 159.694L123.89 160.814L121.89 169.814V182.374L122.89 191.814L123.61 195.434C123.78 196.274 124.43 196.924 125.27 197.094L126.79 197.394C128.1 197.654 129.45 197.244 130.4 196.304L130.62 196.084C131.43 195.274 131.86 194.164 131.8 193.024L130.88 173.584V160.584L132.88 159.814L129.82 159.204C128.56 158.954 127.26 159.124 126.11 159.704L126.12 159.694Z" stroke="#273AAA" stroke-miterlimit="10"/>
<path d="M310.89 154.814V164.424L312.89 175.814L314.89 191.814L318.89 194.104C320.49 195.014 322.53 194.334 323.25 192.644L324 190.884C324.58 189.544 324.71 188.054 324.39 186.624L321.33 173.154L319.89 155.824L318.69 155.004C317.59 154.244 316.23 153.944 314.91 154.164L310.89 154.824V154.814Z" stroke="#273AAA" stroke-miterlimit="10"/>
<path d="M307.89 131.434L308.89 137.424L309.69 143.614C309.8 144.464 310.57 145.054 311.42 144.944L314.39 144.554C315.82 144.364 316.89 143.154 316.89 141.714V138.824C317.03 137.674 317.11 134.954 316.89 133.824L315.89 130.824C315.32 129.114 313.65 128.014 311.86 128.174L310.45 128.294C308.96 128.604 307.89 129.914 307.89 131.434Z" stroke="#273AAA" stroke-miterlimit="10"/>
<path d="M120.89 133.074L125.05 95.6937C125.6 90.7237 126.9 85.8637 128.89 81.2837L140.81 53.8837C142.84 49.2137 145.77 44.9937 149.43 41.4637L173.89 17.8237L193.27 8.13366C201.61 3.96366 210.67 1.44366 219.95 0.693661C227.18 0.113661 234.45 0.883661 241.39 2.97366L252.86 6.41366C258.16 8.00366 263.09 10.6137 267.39 14.0837L278.38 22.9737C280.69 24.8437 282.61 27.1637 284.01 29.7837L297.89 55.8037L307.81 85.2937C308.53 87.4337 309.02 89.6537 309.28 91.9037L313.39 127.874L308.89 128.804L306.89 118.804L301.89 94.8037L296.38 74.8437C294.73 68.8437 292.24 63.1137 288.99 57.8137L281.31 45.2737C278.39 39.0137 274.39 33.3137 269.51 28.4337L262.31 21.2337C258.75 17.6737 254.39 15.0137 249.6 13.4837L240.74 10.6437C234.91 8.77366 228.75 8.18366 222.67 8.91366L210.39 10.3737L179.89 24.8137L151.89 51.8137L134.89 88.9537L130.89 114.234L128.45 129.824H125.89L120.89 133.074Z" stroke="#273AAA" stroke-miterlimit="10"/>
<path d="M120.89 143.814L117.85 146.774C116.82 147.774 116.22 149.124 116.14 150.554L115.94 154.634C115.9 155.404 116.02 156.174 116.29 156.894L117.53 160.194C118.07 161.624 119.17 162.784 120.58 163.384L123.88 164.804V160.804L123.08 160.554C121.67 160.114 120.51 159.114 119.86 157.794L118.88 155.804L118.74 152.214C118.7 151.084 119.05 149.964 119.74 149.064L120.88 147.574V143.814H120.89Z" stroke="#273AAA" stroke-miterlimit="10"/>
<path d="M130.89 143.174V146.514L132.54 147.234C133.4 147.604 134.08 148.304 134.43 149.184L135.42 151.664C135.72 152.424 135.81 153.254 135.68 154.064L135.25 156.624C135.16 157.154 135.13 157.654 135.04 158.104C134.86 159.124 133.91 159.834 132.88 159.834L130.88 160.604V164.834L133.27 164.674C134.31 164.604 135.3 164.184 136.08 163.474L137.03 162.604C137.59 162.094 138.01 161.454 138.24 160.744L139.28 157.634C139.67 156.454 139.78 155.194 139.58 153.964L139.02 150.484L138.08 148.444C137.31 146.764 135.94 145.414 134.25 144.674L130.88 143.194L130.89 143.174Z" stroke="#273AAA" stroke-miterlimit="10"/>
<path d="M308.89 139.814L304.89 142.814L302.89 147.814V151.304C302.89 152.934 303.42 154.524 304.4 155.834L305.24 156.954C305.67 157.524 306.23 157.994 306.87 158.314L309.9 159.824V154.824L309 154.564C307.46 154.124 306.4 152.714 306.4 151.114V149.814L306.55 148.914C306.78 147.564 307.49 146.334 308.55 145.474L309.81 144.454L308.9 139.814H308.89Z" stroke="#273AAA" stroke-miterlimit="10"/>
<path d="M316.89 139.664V143.154L317.27 143.234C318.95 143.604 320.43 144.614 321.38 146.044L321.89 146.814L322.75 149.384C322.85 149.674 322.89 149.974 322.89 150.274V151.904C322.89 152.504 322.73 153.094 322.42 153.604L321.8 154.654C321.23 155.394 320.35 155.824 319.42 155.824H319.9L320.9 160.824L320.97 160.354C322.22 160.354 323.42 159.894 324.35 159.074L324.96 158.544C326.22 157.434 327.06 155.924 327.33 154.264L327.56 152.874C327.75 151.764 327.86 150.414 327.89 149.414C327.9 149.044 327.82 148.674 327.65 148.334L326.9 146.824L325.51 144.044C325.11 143.244 324.53 142.534 323.83 141.984L321.07 139.824L317.73 139.024C317.31 138.924 316.9 139.244 316.9 139.674L316.89 139.664Z" stroke="#273AAA" stroke-miterlimit="10"/>
<path d="M376.5 174.814L377.43 183.554L381.05 200.924C381.93 205.154 383.53 209.204 385.78 212.894L394.88 227.814L400.31 238.074L377.31 170.074L376.5 174.814Z" fill="#273AAA" stroke="#273AAA" stroke-width="0.25" stroke-miterlimit="10"/>
<path d="M28.8899 196.814L26.8899 205.684L23.8899 260.294V204.814L26.8899 192.814L28.8899 196.814Z" fill="#273AAA" stroke="#273AAA" stroke-miterlimit="10"/>
<path d="M9.88989 359.814L2.88989 342.814L0.889893 317.944L3.88989 291.814L13.8899 271.814L26.8899 255.814L7.88989 292.814L3.88989 317.814L5.88989 343.814L9.88989 359.814Z" fill="#273AAA" stroke="#273AAA" stroke-miterlimit="10"/>
<path d="M8.03989 369.074L4.88989 395.814V412.634L16.8899 426.814L36.0799 434.624L13.8899 431.614L0.889893 417.424V397.814L8.03989 369.074Z" fill="#273AAA" stroke="#273AAA" stroke-miterlimit="10"/>
<path d="M123.89 164.814V180.904L124.89 191.814L125.89 194.594L127.89 196.814H125.31C124.49 196.814 123.77 196.234 123.61 195.424L122.89 191.814L121.89 182.374V169.814L123.89 164.814Z" fill="#273AAA" stroke="#273AAA" stroke-miterlimit="10"/>
<path d="M313.89 154.814L311.89 156.814V167.684L314.89 187.814L319.89 193.814L316.22 192.594C314.79 192.114 313.76 190.884 313.54 189.394L309.89 164.434V157.774C309.89 156.144 311.21 154.824 312.84 154.824H313.89V154.814Z" fill="#273AAA" stroke="#273AAA" stroke-miterlimit="10"/>
<path d="M125.89 129.814L132.89 89.0837L148.89 50.8137L177.89 22.8137L210.39 10.3737L179.89 24.8137L151.89 51.8137L134.89 88.9537L128.45 129.814H125.89Z" fill="#273AAA" stroke="#273AAA" stroke-miterlimit="10"/>
<path d="M263.89 11.8137L277.89 26.8137L291.89 51.8137L302.89 82.2537L313.39 127.874L309.39 92.8937C309.06 89.9837 308.42 87.1237 307.49 84.3437L297.89 55.8037L283.73 29.2537C282.52 26.9737 280.84 24.9837 278.8 23.3937L263.89 11.7937V11.8137Z" fill="#273AAA" stroke="#273AAA" stroke-width="0.25" stroke-miterlimit="10"/>
<path d="M396.32 285.074L399.61 306.114C399.69 307.544 399.85 308.964 400.07 310.374L402.27 324.284C402.37 324.934 402.5 325.584 402.65 326.234L409.05 353.854C409.42 355.474 409.97 357.034 410.67 358.504L415.6 370.394C416.4 372.314 416.93 374.354 417.19 376.454L420.32 393.074L420.39 376.304L411.41 346.284L405.86 323.834L396.32 285.084V285.074Z" fill="#273AAA" stroke="#273AAA" stroke-width="0.25" stroke-miterlimit="10"/>
<path d="M125.89 129.814L120.89 133.074V135.484V139.584L122.54 134.704L125.89 129.814Z" fill="#273AAA" stroke="#273AAA" stroke-miterlimit="10"/>
<path d="M311.86 128.164L309.89 130.814V135.724V142.414L307.89 131.434L308.89 128.814L311.86 128.164Z" fill="#273AAA" stroke="#273AAA" stroke-miterlimit="10"/>
<path d="M63.8899 138.814L46.8899 164.814L60.8899 165.374L105.89 160.814L120.59 163.394L117.83 160.834L116.07 156.074L115.94 149.104L116.89 147.814L63.8899 138.814Z" fill="#273AAA" stroke="#273AAA" stroke-miterlimit="10"/>
<path d="M120.32 148.334L119.22 149.944L118.76 152.224L118.89 155.814L120.59 159.094L121.89 160.814H123.89L127 159.344L128.86 159.094L131.14 159.464L132.89 158.814L134.33 158.654L135.26 156.614L135.72 152.814L134.83 150.154L129.29 149.034L126.53 150.294L124.56 150.464L121.89 149.914L120.32 148.334Z" fill="#273AAA" stroke="#273AAA" stroke-miterlimit="10"/>
<path d="M139.89 150.814L140.1 154.574L138.8 159.094L137.04 162.584L136.09 163.454L163.89 162.814L183.89 166.814L222.89 163.814L191.23 159.034L139.89 150.814Z" fill="#273AAA" stroke="#273AAA" stroke-miterlimit="10"/>
</g>
<defs>
<clipPath id="clip0_159_428">
<rect width="420.97" height="446.31" fill="white" transform="translate(0.389893 0.00366211)"/>
</clipPath>
</defs>
</svg>
