<svg width="253" height="263" viewBox="0 0 253 263" fill="none" xmlns="http://www.w3.org/2000/svg">
<g clip-path="url(#clip0_556_161)">
<mask id="mask0_556_161" style="mask-type:luminance" maskUnits="userSpaceOnUse" x="5" y="5" width="243" height="253">
<path d="M244.152 162.327L115.907 10.3841C111.415 5.06214 103.459 4.38927 98.1367 8.88125L10.4009 82.9337C5.0789 87.4256 4.40603 95.3815 8.89801 100.703L137.143 252.646C141.635 257.968 149.591 258.641 154.913 254.149L242.649 180.096C247.971 175.604 248.644 167.649 244.152 162.327Z" fill="white"/>
</mask>
<g mask="url(#mask0_556_161)">
<path d="M173.686 78.8396L151.423 57.7186C149.689 56.0676 148.04 54.3315 146.499 52.5051L138.666 43.2561C136.396 40.5661 133.842 38.1149 130.962 36.0972C128.751 34.5477 126.724 32.7512 124.914 30.746L118.675 24.2219C116.511 22.6977 114.675 20.6619 111.664 18.2571C110.699 17.6716 109.568 17.4482 108.45 17.5807C107.483 17.6905 106.338 17.2176 105.284 16.5891C103.479 15.5211 101.273 15.3416 99.2801 16.0033L98.9658 16.1115C97.6398 16.6026 96.0913 17.5432 95.0062 18.4591L84.1972 25.6063L61.1383 44.1005C60.7574 44.409 60.3712 44.6956 59.9645 44.9735L33.6856 63.2805L107.773 0.747803L126.297 22.6951" fill="#273AAA"/>
<path d="M173.686 78.8396L151.423 57.7186C149.689 56.0676 148.04 54.3315 146.499 52.5051L138.666 43.2561C136.396 40.5661 133.842 38.1149 130.962 36.0972C128.751 34.5477 126.724 32.7512 124.914 30.746L118.675 24.2219C116.511 22.6977 114.675 20.6619 111.664 18.2571C110.699 17.6716 109.568 17.4482 108.45 17.5807C107.483 17.6905 106.338 17.2176 105.284 16.5891C103.479 15.5211 101.273 15.3416 99.2801 16.0033L98.9658 16.1115C97.6398 16.6026 96.0913 17.5432 95.0062 18.4591L84.1972 25.6063L61.1383 44.1005C60.7574 44.409 60.3712 44.6956 59.9645 44.9735L33.6856 63.2805L107.773 0.747803L126.297 22.6951" stroke="#273AAA" stroke-miterlimit="10"/>
<path d="M56.7635 157.413L89.1826 190.35C90.7445 191.937 92.6316 195.382 94.5605 196.489L98.6196 201.019C101.435 202.634 105.15 206.539 107.578 209.54C108.15 210.249 110.331 212.739 111.106 213.224C110.319 212.54 112.723 214.581 114.298 216.51C115.327 217.775 116.555 218.609 117.614 219.756C119.143 221.397 120.124 222.218 121.521 224.153C122.468 225.461 123.611 226.629 124.905 227.604L129.561 231.12C130.972 232.063 133.162 237.542 134.39 238.717L138.449 243.247C139.821 244.563 142.132 245.688 144.3 246.474C145.897 247.063 147.64 247.175 149.302 246.819L152.149 246.223C153.673 245.904 155.215 245.794 156.763 245.705C159.195 245.562 161.139 243.463 163.498 242.087L181.982 231.289L145.255 262.288L56.7418 157.419" fill="#273AAA"/>
<path d="M56.7635 157.413L89.1826 190.35C90.7445 191.937 92.6316 195.382 94.5605 196.489L98.6196 201.019C101.435 202.634 105.15 206.539 107.578 209.54C108.15 210.249 110.331 212.739 111.106 213.224C110.319 212.54 112.723 214.581 114.298 216.51C115.327 217.775 116.555 218.609 117.614 219.756C119.143 221.397 120.124 222.218 121.521 224.153C122.468 225.461 123.611 226.629 124.905 227.604L129.561 231.12C130.972 232.063 133.162 237.542 134.39 238.717L138.449 243.247C139.821 244.563 142.132 245.688 144.3 246.474C145.897 247.063 147.64 247.175 149.302 246.819L152.149 246.223C153.673 245.904 155.215 245.794 156.763 245.705C159.195 245.562 161.139 243.463 163.498 242.087L181.982 231.289L145.255 262.288L56.7418 157.419" stroke="#273AAA" stroke-miterlimit="10"/>
</g>
<path d="M244.152 162.327L115.907 10.3841C111.415 5.06214 103.459 4.38927 98.1367 8.88125L10.4009 82.9337C5.0789 87.4256 4.40603 95.3815 8.89801 100.703L137.143 252.646C141.635 257.968 149.591 258.641 154.913 254.149L242.649 180.096C247.971 175.604 248.644 167.649 244.152 162.327Z" stroke="#273AAA" stroke-miterlimit="10"/>
<path d="M139.713 118.31L142.241 119.042L138.481 123.642C137.881 124.776 136.924 125.689 135.764 126.236L132.423 127.813L136.074 124.495L139.705 118.316L139.713 118.31Z" fill="#273AAA" stroke="#273AAA" stroke-miterlimit="10"/>
<path d="M145.703 125.934L146.155 126.207C147.174 126.825 147.937 127.791 148.317 128.923L149.183 131.515C149.375 132.099 149.423 132.714 149.329 133.316C149.236 133.918 149.16 134.48 149.174 135.07L149.235 137.623L147.143 134.834C146.718 133.308 145.98 131.89 144.954 130.675L144.722 130.4C143.877 129.399 142.847 128.567 141.686 127.951L140.471 127.301C140.138 127.124 139.78 126.995 139.417 126.921L135.383 126.126L140.144 124.96L141.555 124.881C143.017 124.799 144.476 125.163 145.731 125.937L145.703 125.934Z" fill="#273AAA" stroke="#273AAA" stroke-miterlimit="10"/>
<path d="M134.602 126.301L134.557 124.899L134.494 124.546C134.193 122.903 133.933 121.029 132.679 119.915L132.292 119.457L131.905 118.998C129.735 117.729 128.807 117.373 126.403 118.107L125.091 118.429L123.78 118.751C121.665 119.594 119.838 120.887 118.311 122.581L116.783 125.454L115.596 128.497L115.212 130.863C115.225 134.058 116.097 135.168 116.637 137.669L117.173 140.567L117.441 143.101L119.533 143.704C120.772 144.242 123.356 144.482 124.444 144.623L128.886 145.219C131.924 145.625 135.005 144.935 137.572 143.278C139.606 141.967 141.155 140.019 141.951 137.737C142.69 135.636 142.551 133.332 141.577 131.34L141.11 130.4L139.723 128.757C138.477 127.715 138.871 128.181 137.231 127.183L135.992 126.646L134.614 126.316L134.602 126.301Z" fill="#273AAA" stroke="#273AAA" stroke-miterlimit="10"/>
</g>
<defs>
<clipPath id="clip0_556_161">
<rect width="225.05" height="141.03" fill="white" transform="translate(107.833 0.0432129) rotate(49.8343)"/>
</clipPath>
</defs>
</svg>
