<svg width="226" height="142" viewBox="0 0 226 142" fill="none" xmlns="http://www.w3.org/2000/svg">
<g clip-path="url(#clip0_159_363)">
<mask id="mask0_159_363" style="mask-type:luminance" maskUnits="userSpaceOnUse" x="0" y="0" width="225" height="141">
<path d="M211.94 0.5H13.11C6.14569 0.5 0.5 6.14569 0.5 13.11V127.92C0.5 134.884 6.14569 140.53 13.11 140.53H211.94C218.904 140.53 224.55 134.884 224.55 127.92V13.11C224.55 6.14569 218.904 0.5 211.94 0.5Z" fill="white"/>
</mask>
<g mask="url(#mask0_159_363)">
<path d="M102.69 0.5L72.19 3.89C69.81 4.15 67.42 4.29 65.03 4.29L52.91 4.31C49.39 4.31 45.87 4.68 42.47 5.58C39.86 6.27 37.18 6.66 34.48 6.75L25.47 7.31C22.91 7.98 20.17 8.07 16.39 8.82C15.32 9.18 14.42 9.9 13.8 10.84C13.26 11.65 12.16 12.22 11 12.62C9.02 13.31 7.46 14.88 6.68 16.83L6.56 17.14C6.08 18.47 5.8 20.26 5.8 21.68L4.29 34.55L3.55 64.1C3.54 64.59 3.51 65.07 3.46 65.56L0.5 97.45V0.5H29.22" fill="#273AAA"/>
<path d="M102.69 0.5L72.19 3.89C69.81 4.15 67.42 4.29 65.03 4.29L52.91 4.31C49.39 4.31 45.87 4.68 42.47 5.58C39.86 6.27 37.18 6.66 34.48 6.75L25.47 7.31C22.91 7.98 20.17 8.07 16.39 8.82C15.32 9.18 14.42 9.9 13.8 10.84C13.26 11.65 12.16 12.22 11 12.62C9.02 13.31 7.46 14.88 6.68 16.83L6.56 17.14C6.08 18.47 5.8 20.26 5.8 21.68L4.29 34.55L3.55 64.1C3.54 64.59 3.51 65.07 3.46 65.56L0.5 97.45V0.5H29.22" stroke="#273AAA" stroke-miterlimit="10"/>
<path d="M87.32 140.53L133.4 137C135.62 136.83 139.47 137.61 141.56 136.85L147.64 136.67C150.69 135.56 156.07 135.24 159.93 135.32C160.84 135.34 164.15 135.28 165.02 135C163.99 135.16 167.1 134.64 169.59 134.68C171.22 134.71 172.65 134.31 174.21 134.24C176.45 134.13 177.71 133.91 180.09 134.09C181.7 134.21 183.33 134.09 184.91 133.73L190.6 132.44C192.23 131.97 197.83 133.83 199.52 133.65L205.6 133.47C207.49 133.27 209.84 132.23 211.84 131.08C213.32 130.24 214.53 128.98 215.33 127.48L216.71 124.92C217.45 123.55 218.36 122.3 219.29 121.06C220.75 119.11 220.4 116.27 220.87 113.58L224.54 92.49V140.55H87.31" fill="#273AAA"/>
<path d="M87.32 140.53L133.4 137C135.62 136.83 139.47 137.61 141.56 136.85L147.64 136.67C150.69 135.56 156.07 135.24 159.93 135.32C160.84 135.34 164.15 135.28 165.02 135C163.99 135.16 167.1 134.64 169.59 134.68C171.22 134.71 172.65 134.31 174.21 134.24C176.45 134.13 177.71 133.91 180.09 134.09C181.7 134.21 183.33 134.09 184.91 133.73L190.6 132.44C192.23 131.97 197.83 133.83 199.52 133.65L205.6 133.47C207.49 133.27 209.84 132.23 211.84 131.08C213.32 130.24 214.53 128.98 215.33 127.48L216.71 124.92C217.45 123.55 218.36 122.3 219.29 121.06C220.75 119.11 220.4 116.27 220.87 113.58L224.54 92.49V140.55H87.31" stroke="#273AAA" stroke-miterlimit="10"/>
</g>
<path d="M211.94 0.5H13.11C6.14569 0.5 0.5 6.14569 0.5 13.11V127.92C0.5 134.884 6.14569 140.53 13.11 140.53H211.94C218.904 140.53 224.55 134.884 224.55 127.92V13.11C224.55 6.14569 218.904 0.5 211.94 0.5Z" stroke="#273AAA" stroke-miterlimit="10"/>
<path d="M110.94 51.92L113.13 50.46L114.22 56.3C114.7 57.49 114.78 58.81 114.45 60.05L113.5 63.62L113.32 58.69L110.94 51.93V51.92Z" fill="#273AAA" stroke="#273AAA" stroke-miterlimit="10"/>
<path d="M120.63 52.26L121.13 52.09C122.26 51.71 123.49 51.75 124.6 52.19L127.14 53.2C127.71 53.43 128.21 53.79 128.61 54.25C129.01 54.71 129.39 55.13 129.85 55.5L131.84 57.1L128.36 56.9C126.92 56.24 125.36 55.89 123.77 55.89H123.41C122.1 55.89 120.8 56.14 119.58 56.63L118.3 57.14C117.95 57.28 117.62 57.47 117.33 57.7L114.12 60.27L116.3 55.88L117.15 54.75C118.03 53.58 119.25 52.7 120.65 52.24L120.63 52.26Z" fill="#273AAA" stroke="#273AAA" stroke-miterlimit="10"/>
<path d="M113.75 60.98L112.65 60.11L112.34 59.93C110.89 59.1 109.29 58.09 107.63 58.33H107.03H106.43C104.06 59.17 103.19 59.65 102.2 61.96L101.6 63.17L101 64.38C100.28 66.54 100.09 68.77 100.4 71.03L101.61 74.05L103.17 76.92L104.73 78.74C107.18 80.79 108.59 80.84 110.85 82.04L113.41 83.5L115.52 84.93L117.33 83.72C118.54 83.12 120.39 81.3 121.2 80.56L124.52 77.55C126.79 75.49 128.25 72.69 128.64 69.66C128.95 67.26 128.46 64.82 127.23 62.74C126.1 60.82 124.25 59.44 122.1 58.9L121.08 58.65H118.93C117.33 58.93 117.94 58.93 116.12 59.54L114.91 60.14L113.77 60.98H113.75Z" fill="#273AAA" stroke="#273AAA" stroke-miterlimit="10"/>
</g>
<defs>
<clipPath id="clip0_159_363">
<rect width="225.05" height="141.03" fill="white"/>
</clipPath>
</defs>
</svg>
