<svg width="142" height="226" viewBox="0 0 142 226" fill="none" xmlns="http://www.w3.org/2000/svg">
<mask id="mask0_556_162" style="mask-type:luminance" maskUnits="userSpaceOnUse" x="0" y="0" width="141" height="225">
<path d="M140.54 211.93L140.54 13.1001C140.54 6.13574 134.894 0.490051 127.93 0.490051L13.1199 0.490046C6.15562 0.490045 0.509926 6.13573 0.509926 13.1L0.509917 211.93C0.509917 218.894 6.15561 224.54 13.1199 224.54L127.93 224.54C134.894 224.54 140.54 218.894 140.54 211.93Z" fill="white"/>
</mask>
<g mask="url(#mask0_556_162)">
<path d="M140.54 102.68L137.15 72.18C136.89 69.8 136.75 67.41 136.75 65.02L136.73 52.9C136.73 49.38 136.36 45.86 135.46 42.46C134.77 39.85 134.38 37.17 134.29 34.47L133.73 25.46C133.06 22.9 132.97 20.16 132.22 16.38C131.86 15.31 131.14 14.4101 130.2 13.7901C129.39 13.2501 128.82 12.1501 128.42 10.9901C127.73 9.01005 126.16 7.45005 124.21 6.67005L123.9 6.55005C122.57 6.07005 120.78 5.79005 119.36 5.79005L106.49 4.28005L76.9399 3.54005C76.4499 3.53005 75.9699 3.50005 75.4799 3.45005L43.5899 0.490047L140.54 0.490051L140.54 29.21" fill="#273AAA"/>
<path d="M140.54 102.68L137.15 72.18C136.89 69.8 136.75 67.41 136.75 65.02L136.73 52.9C136.73 49.38 136.36 45.86 135.46 42.46C134.77 39.85 134.38 37.17 134.29 34.47L133.73 25.46C133.06 22.9 132.97 20.16 132.22 16.38C131.86 15.31 131.14 14.4101 130.2 13.7901C129.39 13.2501 128.82 12.1501 128.42 10.9901C127.73 9.01005 126.16 7.45005 124.21 6.67005L123.9 6.55005C122.57 6.07005 120.78 5.79005 119.36 5.79005L106.49 4.28005L76.9399 3.54005C76.4499 3.53005 75.9699 3.50005 75.4799 3.45005L43.5899 0.490047L140.54 0.490051L140.54 29.21" stroke="#273AAA" stroke-miterlimit="10"/>
<path d="M0.509929 87.31L4.03993 133.39C4.20993 135.61 3.42992 139.46 4.18992 141.55L4.36993 147.63C5.47993 150.68 5.79992 156.06 5.71992 159.92C5.69992 160.83 5.75992 164.14 6.03992 165.01C5.87992 163.98 6.39993 167.09 6.35993 169.58C6.32993 171.21 6.72992 172.64 6.79992 174.2C6.90992 176.44 7.12993 177.7 6.94993 180.08C6.82993 181.69 6.94993 183.32 7.30993 184.9L8.59992 190.59C9.06992 192.22 7.20993 197.82 7.38993 199.51L7.56992 205.59C7.76992 207.48 8.80992 209.83 9.95992 211.83C10.7999 213.31 12.0599 214.52 13.5599 215.32L16.1199 216.7C17.4899 217.44 18.7399 218.35 19.9799 219.28C21.9299 220.74 24.7699 220.39 27.4599 220.86L48.5499 224.53L0.489918 224.53L0.489924 87.3" fill="#273AAA"/>
<path d="M0.509929 87.31L4.03993 133.39C4.20993 135.61 3.42992 139.46 4.18992 141.55L4.36993 147.63C5.47993 150.68 5.79992 156.06 5.71992 159.92C5.69992 160.83 5.75992 164.14 6.03992 165.01C5.87992 163.98 6.39993 167.09 6.35993 169.58C6.32993 171.21 6.72992 172.64 6.79992 174.2C6.90992 176.44 7.12993 177.7 6.94993 180.08C6.82993 181.69 6.94993 183.32 7.30993 184.9L8.59992 190.59C9.06992 192.22 7.20993 197.82 7.38993 199.51L7.56992 205.59C7.76992 207.48 8.80992 209.83 9.95992 211.83C10.7999 213.31 12.0599 214.52 13.5599 215.32L16.1199 216.7C17.4899 217.44 18.7399 218.35 19.9799 219.28C21.9299 220.74 24.7699 220.39 27.4599 220.86L48.5499 224.53L0.489918 224.53L0.489924 87.3" stroke="#273AAA" stroke-miterlimit="10"/>
</g>
<path d="M140.54 211.93L140.54 13.1001C140.54 6.13574 134.894 0.490051 127.93 0.490051L13.1199 0.490046C6.15562 0.490045 0.509926 6.13573 0.509926 13.1L0.509917 211.93C0.509917 218.894 6.15561 224.54 13.1199 224.54L127.93 224.54C134.894 224.54 140.54 218.894 140.54 211.93Z" stroke="#273AAA" stroke-miterlimit="10"/>
<path d="M89.12 110.93L90.58 113.12L84.74 114.21C83.55 114.69 82.23 114.77 80.99 114.44L77.42 113.49L82.35 113.31L89.11 110.93L89.12 110.93Z" fill="#273AAA" stroke="#273AAA" stroke-miterlimit="10"/>
<path d="M88.7799 120.62L88.9499 121.12C89.3299 122.25 89.2899 123.48 88.8499 124.59L87.8399 127.13C87.6099 127.7 87.2499 128.2 86.7899 128.6C86.3299 129 85.9099 129.38 85.5399 129.84L83.9399 131.83L84.1399 128.35C84.7999 126.91 85.1499 125.35 85.1499 123.76L85.1499 123.4C85.1499 122.09 84.8999 120.79 84.4099 119.57L83.8999 118.29C83.7599 117.94 83.5699 117.61 83.3399 117.32L80.7699 114.11L85.1599 116.29L86.2899 117.14C87.4599 118.02 88.3399 119.24 88.7999 120.64L88.7799 120.62Z" fill="#273AAA" stroke="#273AAA" stroke-miterlimit="10"/>
<path d="M80.0599 113.74L80.9299 112.64L81.1099 112.33C81.9399 110.88 82.9499 109.28 82.7099 107.62L82.7099 107.02L82.7099 106.42C81.8699 104.05 81.3899 103.18 79.0799 102.19L77.8699 101.59L76.6599 100.99C74.4999 100.27 72.2699 100.08 70.0099 100.39L66.9899 101.6L64.1199 103.16L62.2999 104.72C60.2499 107.17 60.1999 108.58 58.9999 110.84L57.5399 113.4L56.1099 115.51L57.3199 117.32C57.9199 118.53 59.7399 120.38 60.4799 121.19L63.4899 124.51C65.5499 126.78 68.3499 128.24 71.3799 128.63C73.7799 128.94 76.2199 128.45 78.2999 127.22C80.2199 126.09 81.5999 124.24 82.1399 122.09L82.3899 121.07L82.3899 118.92C82.1099 117.32 82.1099 117.93 81.4999 116.11L80.8999 114.9L80.0599 113.76L80.0599 113.74Z" fill="#273AAA" stroke="#273AAA" stroke-miterlimit="10"/>
</svg>
