<svg width="589" height="402" viewBox="0 0 589 402" fill="none" xmlns="http://www.w3.org/2000/svg">
<path d="M460.07 267.169L478.495 171L496.326 267.169L588.452 282.323L496.326 299.226L478.495 401.806L460.07 299.226L362 282.323L460.07 267.169Z" fill="#F7C7D9"/>
<path d="M66.9964 33.1934L78.41 0L89.3835 33.2716C94.312 48.2149 105.987 59.9663 120.898 64.9919L152.419 75.6158L123.819 83.8197C107.265 88.5681 94.3196 101.501 89.556 118.051L78.41 156.774L66.8105 118.121C61.8349 101.54 48.6369 88.7129 31.9213 84.2117L0 75.6158L34.7968 64.6059C49.9001 59.8271 61.8454 48.1739 66.9964 33.1934Z" fill="#D1ECEF"/>
</svg>
