<svg width="50" height="49" viewBox="0 0 50 49" fill="none" xmlns="http://www.w3.org/2000/svg">
<g clip-path="url(#clip0_159_352)">
<path d="M0.5 5.06V13.45L2.5 26.06L4.5 40.06L5.5 47.06L6.5 45.06L8.5 47.06L9.5 45.06L11.5 46.06L12.5 44.06L14.5 46.06L16.5 44.06L17.5 46.06L19.5 44.06L20.5 46.06L22.5 45.06L23.5 46.06L24.5 45.06L27.5 46.06L28.5 44.06L30.5 45.06L31.5 44.06L32.5 45.06V44.06L34.5 45.06L35.5 44.06L36.5 45.06V44.06L38.5 45.06L39.5 43.06L40.5 44.06L41.5 42.34L43.5 44.06V41.7L46.5 42.06H48.5L45.5 36.06L44.5 22.06L41.5 1.06L38.5 4.06L36.5 2.06L35.5 4.06L33.5 2.06L32.5 4.06V2.06L31.5 3.06L29.5 2.06V4.06L27.5 2.06L26.5 4.06L24.5 2.06L23.5 4.06L21.5 2.06L20.5 4.06L18.5 2.06V3.06L16.5 2.06L15.5 4.06L14.5 2.06L13.5 5.06L11.5 3.06V5.06L8.5 3.06V5.06L5.5 3.06V5.06L4.5 4.06L3.5 5.06L2.5 4.06V5.06L1.5 4.06V6.06L0.5 5.06Z" stroke="#273AAA" stroke-miterlimit="10"/>
<path d="M4.31996 10.99C4.00996 11.94 4.35996 13.07 4.49996 14.06L5.93996 27.54L7.65996 38.18C7.88996 39.6 8.17996 40.61 9.49996 41.07H12.5L37.5 39.07C38.58 38.98 39.5 39.07 41.37 37.93L41.41 37.87C42.12 36.77 42.46 35.46 42.37 34.15L39.5 9.06998C39.31 7.30998 38.22 6.95998 36.5 7.06998L6.71996 9.09998C5.61996 9.16998 4.66996 9.91998 4.31996 11V10.99Z" stroke="#273AAA" stroke-miterlimit="10"/>
<path d="M14.88 12.97C14.06 13.99 12.87 15.83 12.64 16.22C12.15 17.06 11.74 17.76 11.37 18.73C10.58 20.78 10.52 22.58 10.49 23.53C10.47 24.23 10.45 25.35 10.68 26.72C10.81 27.51 11.02 28.37 11.37 29.29C12.51 32.32 14.39 34.02 14.87 34.44C16.81 36.11 18.7 36.6 20.13 36.97C21.87 37.42 24.49 38.09 27.43 36.97C29.57 36.16 31.95 34.74 33.49 33.08C35.36 31.08 35.98 29.29 36.68 26.42C37.77 21.95 35.67 17.96 35.02 16.83C34.39 15.61 33.06 13.43 30.64 12.03C28.39 10.73 26.54 10.88 22.49 11.08C18.59 11.28 16.17 11.37 14.87 12.99L14.88 12.97Z" stroke="#273AAA" stroke-miterlimit="10"/>
<path d="M17.63 16.19C17.06 16.91 16.24 18.21 16.08 18.49C15.74 19.08 15.46 19.58 15.2 20.26C14.65 21.71 14.61 22.98 14.59 23.65C14.57 24.43 14.54 25.95 15.2 27.72C15.99 29.86 17.29 31.06 17.63 31.36C18.97 32.54 20.29 32.89 21.28 33.14C22.48 33.45 24.31 33.93 26.35 33.14C27.83 32.57 29.48 31.56 30.56 30.39C31.86 28.97 32.29 27.71 32.77 25.68C33.53 22.52 32.07 19.7 31.62 18.9C31.18 18.03 30.26 16.5 28.58 15.51C27.02 14.59 25.73 14.69 22.93 14.84C20.23 14.98 18.54 15.04 17.64 16.19H17.63Z" stroke="#273AAA" stroke-miterlimit="10"/>
<path d="M4.31995 10.99L7.49995 37.06L7.32995 24.05L8.49995 21.06L11.3699 18.73L13.2899 14.8C13.4399 14.48 13.6599 14.2 13.9299 13.98C15.5999 12.58 17.6399 11.66 19.7999 11.34L24.4899 10.65H27.7999L31.4899 12.07L32.4899 13.07L32.1899 12.47C31.7399 11.58 31.6699 10.54 31.9899 9.59001C32.2999 8.65001 33.0999 7.95001 34.0699 7.76001L37.4999 7.07001L5.64995 9.41001L4.31995 11V10.99Z" fill="#273AAA" stroke="#273AAA" stroke-miterlimit="10"/>
<path d="M24.5 37.56L19.79 40.48L39.77 38.71C40.82 38.17 41.58 37.21 41.88 36.07L42.38 34.14L40.93 21.44L39.81 25.1C39.62 25.72 39.68 26.39 39.97 26.97C40.3 27.63 40.17 28.42 39.65 28.94L39.07 29.52C38.7 29.89 38.39 30.31 38.15 30.78L37.89 31.29C37.33 32.38 36.36 33.21 35.2 33.59L33 34.31L28.58 36.73L24.52 37.57L24.5 37.56Z" fill="#273AAA" stroke="#273AAA" stroke-miterlimit="10"/>
<path d="M8.5 21.06L9.83 15.06L13.5 12.06L16.5 10.06L24.5 10.64L19.63 11.36C17.61 11.66 15.76 12.66 14.42 14.2L13.64 15.09C12.98 15.84 12.47 16.7 12.13 17.63L10.5 22.06L10.7 26.71L8.51 21.06H8.5Z" fill="#273AAA" stroke="#273AAA" stroke-miterlimit="10"/>
<path d="M19.5 19.06L23.46 17.06C23.95 17.06 26.01 16.95 26.5 17.06C27.66 17.33 28.79 17.49 29.16 18.05L30.5 20.06L31.26 22.1C31.42 22.74 31.5 23.39 31.5 24.05V29.06L32.33 22.44C32.44 21.55 32.23 20.64 31.73 19.89L30.43 17.92C29.84 16.75 28.73 15.92 27.43 15.71L23.49 15.05L19.49 19.05L19.5 19.06Z" fill="#273AAA" stroke="#273AAA" stroke-miterlimit="10"/>
<path d="M24.5 16.06L22.5 19.06L21.5 20.06C21.04 20.52 20.66 20.57 20.5 21.06C20.34 21.55 19.88 21.68 19.5 22.06L18.5 23.06C17.8 23.76 18.45 24.7 18.49 25.69C18.49 25.83 18.5 25.96 18.5 26.06V28.06C18.81 29.53 20.21 29.29 21.5 30.06L23.5 31.06H25.5C26.13 31.24 28.88 31.26 29.5 31.06L27.5 33.06L23.74 33.55L18.53 32.02L15.59 28.63L14.58 23.64L16.07 18.48L17.2 17.13C18.11 16.04 19.43 15.37 20.85 15.29L24.49 16.06H24.5Z" fill="#273AAA" stroke="#273AAA" stroke-miterlimit="10"/>
</g>
<defs>
<clipPath id="clip0_159_352">
<rect width="49.31" height="48.72" fill="white"/>
</clipPath>
</defs>
</svg>
