<svg width="607" height="736" viewBox="0 0 607 736" fill="none" xmlns="http://www.w3.org/2000/svg">
<path d="M390.5 96.5L360.5 101L390 94.5L402.504 92.7753C403.831 92.5922 405.137 92.2762 406.401 91.8321L416.879 88.1507C420.858 86.7527 424.293 84.1329 426.693 80.6657L432 73L446.773 54.0721C447.589 53.0266 448.299 51.9025 448.892 50.7163C450.278 47.9435 451 44.8861 451 41.7861V34.5V15V4.60765C451 2.89134 452.391 1.5 454.108 1.5C456.252 1.5 457.752 3.62004 457.038 5.64194L455.824 9.08121C455.61 9.68931 455.5 10.3295 455.5 10.9743V23.5V34.2258C455.5 36.5864 457.414 38.5 459.774 38.5C460.575 38.5 461.36 38.2749 462.039 37.8503L464.714 36.1787C467.497 34.4393 469.646 31.8496 470.842 28.7934L473.5 22L476.004 14.3083C478.685 6.07362 486.362 0.5 495.022 0.5H512.5L517 17L524 40.5L526.317 50.542C526.77 52.5028 527.516 54.384 528.53 56.1222L534 65.5L541.5 77L532.533 66.6883C531.845 65.8973 531.221 65.0535 530.665 64.1647L525.386 55.7182C524.466 54.2457 523.741 52.6596 523.231 50.9999L520 40.5L512.5 15.5L516.549 46.9931C516.847 49.313 517.55 51.5627 518.626 53.6397L530.405 76.3857C531.132 77.7903 532.024 79.1036 533.061 80.2981L554.5 105L551.443 93.1534C550.82 90.7391 549.751 88.4626 548.291 86.4412L544 80.5L549.115 85.9157C551.338 88.27 552.957 91.129 553.831 94.2469L558.25 110L567.216 121.955C568.725 123.967 569.841 126.245 570.506 128.671L578.899 159.306C579.298 160.764 579.862 162.172 580.579 163.503L593.5 187.5L604.294 211.164C605.74 214.333 606.332 217.825 606.014 221.293L602 265V220.193C602 217.428 601.427 214.692 600.316 212.16L590.182 189.055C589.728 188.02 589.187 187.026 588.565 186.082L577.464 169.239C575.841 166.777 573.695 164.704 571.177 163.169L556.738 154.365C555.252 153.459 553.655 152.751 551.986 152.258L525.372 144.405C524.458 144.135 523.527 143.931 522.585 143.795L504.5 141.169L495.826 157.449C495.277 158.481 494.818 159.559 494.457 160.671L488.5 179L480.5 207.5L475.5 241L475.019 285.235C475.006 286.41 475.097 287.582 475.29 288.741L481 323C481.782 325.52 485.5 324.957 485.5 322.318V313.5L488.5 289.5V313.5V337.5L490.182 355.999C490.392 358.315 490.197 360.65 489.605 362.9L485.5 378.5L461.5 465.5L449 502.5L440 548L429.886 595.199C429.629 596.397 429.263 597.569 428.791 598.7L420.931 617.565C419.985 619.836 418.629 621.912 416.929 623.69L398 643.5L373.67 667.83C372.891 668.609 372.049 669.322 371.153 669.962L351.316 684.131C349.128 685.694 347.277 687.683 345.875 689.977L338.999 701.229C337.678 703.39 335.959 705.281 333.933 706.8L295 736L331.597 702.255C332.86 701.09 333.968 699.767 334.893 698.319L343.047 685.556C344.339 683.535 345.983 681.763 347.901 680.324L367.819 665.385C368.605 664.796 369.347 664.149 370.038 663.451L411.559 621.478C413.82 619.193 415.496 616.397 416.447 613.326L421.5 597L434.97 549.855C435.323 548.621 435.555 547.356 435.666 546.078L437.808 521.228C437.936 519.747 438.228 518.286 438.679 516.87L449 484.5L466 429.5L475 398L484.795 362.084C485.263 360.369 485.5 358.599 485.5 356.822V348.539C485.5 346.525 485.196 344.522 484.597 342.598L478.987 324.566C478.663 323.524 478.425 322.457 478.274 321.376L473.5 287V241.984C473.5 240.996 473.573 240.009 473.719 239.032L478.5 207L492.338 159.759C492.778 158.258 493.392 156.814 494.168 155.457L502.5 140.879L494.991 139.789C493.667 139.597 492.366 139.272 491.107 138.82L478.5 134.295L471.91 143.937C470.974 145.307 470.211 146.788 469.641 148.347L450.746 199.962C450.25 201.317 449.902 202.721 449.708 204.15L446 231.5V287V351.349C446 354.728 445.144 358.052 443.512 361.01L438.227 370.589C438.079 370.857 437.854 371.073 437.58 371.21L436.713 371.643C435.118 372.441 433.784 370.196 435.247 369.176C435.414 369.06 435.554 368.91 435.658 368.736L440.15 361.25C442.015 358.142 443 354.585 443 350.96V287V233.017C443 232.007 443.076 230.999 443.229 230.001L447.21 203.9C447.403 202.636 447.717 201.394 448.147 200.19L466.654 148.37C467.216 146.796 467.973 145.299 468.907 143.913L476 133.397C474.357 132.808 472.881 131.831 471.695 130.551L463.742 121.961C461.932 120.007 460.531 117.711 459.621 115.208L452.204 94.8114C451.408 92.6207 451 90.3075 451 87.9765V50.5L433 74L427.544 81.8816C425.236 85.215 421.969 87.7683 418.178 89.2031L407.345 93.3021C406.118 93.7662 404.848 94.1086 403.555 94.3242L390.5 96.5Z" fill="#F7C7D9"/>
<path d="M304.186 22.3206L301 20.5H302.587C305.16 20.5 307.698 19.9008 310 18.75L310.094 18.7032C312.334 17.5831 314.804 17 317.308 17C319.416 17 321.503 17.4128 323.451 18.2152L324.014 18.4471C327.275 19.7898 330.843 20.2091 334.326 19.6591L335.747 19.4347C337.565 19.1476 339.422 19.2128 341.216 19.6267C343.694 20.1986 345.976 21.4186 347.828 23.1619L353.5 28.5L357.597 32.5972C359.512 34.5124 361.797 36.0187 364.312 37.0246L370.5 39.5L365.63 39.987C362.265 40.3235 358.87 39.8013 355.761 38.4692L355.061 38.169C354.022 37.7238 353.023 37.1914 352.074 36.5775L346.714 33.1089C345.574 32.3715 344.363 31.7521 343.098 31.2602L339.625 29.9098C337.245 28.9841 334.674 28.656 332.137 28.9545C329.112 29.3104 326.048 28.7742 323.324 27.412L322.617 27.0583C320.557 26.0287 318.322 25.3976 316.029 25.1981L312.376 24.8805C309.493 24.6298 306.699 23.7564 304.186 22.3206Z" fill="#F7C7D9"/>
<path d="M317.292 41.1902L308 34.5L318.465 40.3604C319.817 41.1176 321.253 41.715 322.743 42.1408L328.307 43.7305C330.094 44.241 331.943 44.5 333.801 44.5H347.5L334.259 45.7037C332.101 45.8999 329.925 45.744 327.816 45.242L324.346 44.4156C321.806 43.8111 319.41 42.7153 317.292 41.1902Z" fill="#F7C7D9"/>
<path d="M323 97L315.5 95.5L317 103.5L323.5 126L327.5 143L331.138 160.734C331.37 161.864 331.14 163.04 330.5 164L332.235 172.676C332.41 173.548 332.388 174.447 332.173 175.31L332.085 175.659C331.714 177.144 332.013 178.718 332.903 179.964C333.612 180.957 333.951 182.166 333.862 183.383L332.5 202L329.5 239.5L328 264V280.079C328 281.025 328.067 281.97 328.201 282.907L331 302.5L334 328L339.496 352.276C339.831 353.754 340.333 355.189 340.992 356.554L344.884 364.616C346.274 367.497 348.336 370.002 350.895 371.921L353.158 373.619C355.684 375.513 358.621 376.782 361.731 377.323L365.608 377.997C367.526 378.331 369.384 378.942 371.125 379.813L377.277 382.889C380.054 384.277 383.116 385 386.221 385H402.392C402.464 385 402.535 384.992 402.605 384.975C403.696 384.715 404.209 386.267 403.178 386.709L402.682 386.922C402.562 386.974 402.433 387 402.302 387H386.221C383.116 387 380.054 386.277 377.277 384.889L371.125 381.813C369.384 380.942 367.526 380.331 365.608 379.997L360.855 379.17C358.309 378.728 355.873 377.796 353.682 376.426L350.591 374.495C346.96 372.225 344.153 368.85 342.583 364.865L338.5 354.5L331.593 330.097C331.199 328.703 330.957 327.271 330.872 325.825L329.5 302.5L326.272 283.133C326.091 282.046 326 280.946 326 279.845V264L328 239.5L331 202L332.764 183.916C332.917 182.353 332.524 180.787 331.654 179.481L331.498 179.246C331.168 178.752 330.926 178.206 330.782 177.63C330.596 176.886 330.578 176.11 330.728 175.358L330.8 174.999C330.933 174.337 330.966 173.658 330.899 172.986L330.5 169L329.5 164.833L325.7 168V171.48C325.7 173.482 325.399 175.473 324.808 177.386L324 180L318 195L310 216L306.5 225.5L302.481 238.896C302.161 239.963 301.931 241.056 301.792 242.162L300.5 252.5L299 263.5L298 272.5V290V300.5V307.228C298 308.407 298.104 309.584 298.311 310.744L300.5 323L303.5 337.5L304.298 343.881C304.432 344.959 304.479 346.045 304.437 347.13L304 358.5L303 400L303.5 408L306.5 423.5L308.48 433.796C308.825 435.59 309.414 437.329 310.232 438.963L314.5 447.5L321.5 458.874C322.165 459.956 322.932 460.971 323.79 461.907L333.5 472.5L346.548 483.298C347.513 484.097 348.38 485.006 349.131 486.008C350.365 487.654 351.907 489.044 353.671 490.103L356.085 491.551C357.687 492.512 359.416 493.244 361.221 493.726L373.5 497L401.501 501.271C402.499 501.424 403.507 501.5 404.517 501.5H407L406.624 501.594C404.229 502.193 401.743 502.343 399.293 502.037L383 500L372.5 498L360.71 494.631C359.241 494.212 357.826 493.626 356.491 492.884L351.949 490.36C350.324 489.458 348.833 488.333 347.519 487.019L345 484.5L332.5 473.5L322.381 462.502C321.463 461.503 320.648 460.414 319.95 459.25L313.5 448.5L308.698 438.896C307.903 437.306 307.323 435.617 306.975 433.874L305 424L302.5 408L302 400V386.5L302.5 359.5L301.924 357.483C300.99 354.215 299.239 351.239 296.835 348.835L296.5 348.5L295.068 347.068C294.026 346.026 293.102 344.872 292.314 343.627L284.111 330.675C284.037 330.559 283.978 330.434 283.935 330.304L282.729 326.687C282.524 326.072 281.64 326.118 281.5 326.75C281.36 327.382 280.476 327.428 280.271 326.813L279.946 325.837C279.735 325.206 278.947 324.998 278.452 325.443L277.077 326.681C275.895 327.745 274.006 327.19 273.588 325.656L273 323.5H271H268.5V321.112C268.5 320.733 268.402 320.36 268.215 320.03C267.419 318.624 265.43 318.529 264.504 319.852L263 322H260V317C260 315.847 258.491 315.415 257.88 316.392L257.843 316.451C257.63 316.793 257.255 317 256.853 317H256.243C255.215 317 254.316 317.691 254.051 318.684L252.5 324.5H251.5V321.5C251.5 319.877 250.974 318.298 250 317L249.181 315.636C248.762 314.937 248.762 314.063 249.181 313.364C249.67 312.55 249.583 311.513 248.965 310.792L248.56 310.32C247.643 309.25 246.116 308.942 244.856 309.572L240.572 311.714C238.897 312.551 237.007 312.858 235.154 312.593L233.409 312.344C231.814 312.116 230.192 312.15 228.607 312.443L217.5 314.5L197.619 319.952C196.21 320.339 194.764 320.569 193.306 320.641L165.5 322H150.692L159.121 329.305C160.038 330.1 160.882 330.977 161.64 331.925L173.605 346.881C174.201 347.626 174.743 348.413 175.226 349.235L184.5 365L212 430.5L241.5 481L257 515.5L283.5 571L312.5 634L326.5 660.5L332.949 671.786C333.977 673.584 334.719 675.532 335.149 677.558L338 691L334.415 679.847C333.808 677.959 332.925 676.173 331.793 674.545L326.412 666.811C325.805 665.938 325.268 665.019 324.807 664.06L281 573L254.5 517L239.5 482L210.5 432L183.178 367.597C182.727 366.534 182.185 365.513 181.557 364.543L162.527 335.132C161.187 333.062 159.476 331.257 157.48 329.809L139.011 316.41C136.377 314.499 133.316 313.259 130.095 312.799L107.952 309.636C105.021 309.217 102.033 309.455 99.2042 310.331L69.9059 319.409C68.6384 319.802 67.4132 320.32 66.2484 320.955L49.46 330.113C47.1753 331.359 45.1558 333.039 43.5147 335.059L33 348L16 366L25.8021 347.248C26.9247 345.101 28.4282 343.175 30.2393 341.565L41 332L54.1569 320.305C54.3842 320.103 54.6425 319.939 54.9219 319.819C57.2793 318.809 57.1831 315.435 54.772 314.56L21.766 302.591C18.0435 301.241 14.9215 298.613 12.957 295.175L2.63514 277.111C0.908306 274.09 0 270.669 0 267.189V238.683C0 236.574 0.333414 234.479 0.98789 232.475L16 186.5L41 118.5L57 83L82 42L106.5 4.5L85.5 42L61.244 81.7798C60.7486 82.5922 60.3119 83.439 59.937 84.3136L44 121.5L20.5 188L5.10738 232.312C4.37431 234.422 4 236.641 4 238.875V267.3C4 270.71 4.87185 274.063 6.53272 277.041L14.5056 291.338C17.0651 295.927 21.3281 299.325 26.3729 300.796L54.5 309L63.0475 311.849C66.2948 312.932 69.7655 313.162 73.1276 312.52L99.4542 307.487C101.144 307.164 102.869 307.06 104.586 307.178L116.5 308L131.706 310.877C133.887 311.289 135.984 312.062 137.911 313.163L143.802 316.53C144.931 317.175 145.995 317.929 146.978 318.781L149 320.533L193.158 319.077C194.714 319.026 196.259 318.793 197.761 318.383L217.5 313L221.448 312.415C227.354 311.54 232.336 307.564 234.5 302L238 294L240.793 288.014C241.262 287.01 241.874 286.079 242.61 285.251L243.74 283.98C244.874 282.705 245.5 281.057 245.5 279.351V277.638C245.5 277.548 245.476 277.459 245.431 277.38C245.13 276.852 245.822 276.322 246.253 276.753L246.869 277.369C246.954 277.454 247.014 277.564 247.041 277.682C247.22 278.488 248.394 278.451 248.486 277.63L248.491 277.578C248.497 277.526 248.497 277.474 248.492 277.422L248.166 274.161C248.056 273.056 247.853 271.961 247.561 270.889L246.5 267L248 269L249.519 271.659C249.817 272.179 250.37 272.5 250.969 272.5C251.601 272.5 252.179 272.143 252.461 271.577L253 270.5L253.5 268L254.5 270.5L254.336 272.408C254.276 273.107 254.495 273.802 254.946 274.34L255.175 274.613C255.386 274.864 255.672 275.043 255.99 275.123C256.824 275.331 257.669 274.824 257.877 273.99L257.887 273.951C257.961 273.656 257.949 273.347 257.853 273.059L257.5 272L258.597 273.097C259.175 273.675 259.5 274.459 259.5 275.277V276.782C259.5 277.211 259.774 277.591 260.181 277.727C260.651 277.884 261.165 277.671 261.386 277.228L261.842 276.315C261.947 276.106 262.084 275.916 262.249 275.751L263.374 274.626C263.455 274.545 263.5 274.436 263.5 274.322C263.5 273.868 264.112 273.724 264.315 274.13L264.433 274.367C264.477 274.454 264.494 274.552 264.482 274.648L264.304 276.067C264.119 277.546 264.825 278.995 266.103 279.762L266.414 279.949C266.471 279.983 266.524 280.024 266.571 280.071L267.954 281.454C268.214 281.714 268.649 281.446 268.532 281.096C268.511 281.033 268.509 280.966 268.525 280.901L268.925 279.3C268.973 279.107 269.092 278.939 269.257 278.829C269.788 278.474 270.5 278.855 270.5 279.494V282.14C270.5 282.379 270.538 282.615 270.614 282.841L271.255 284.764C271.418 285.254 271.616 285.732 271.847 286.194L272.951 288.401C272.983 288.466 273 288.538 273 288.611V290.038C273 290.307 272.623 290.368 272.538 290.113C272.514 290.042 272.458 289.986 272.387 289.962L272.103 289.868C271.56 289.687 271 290.09 271 290.662V290.731C271 290.906 271.052 291.078 271.149 291.224L272.914 293.871C272.971 293.956 273.013 294.051 273.037 294.15L273.403 295.61C273.546 296.183 274.367 296.164 274.483 295.584C274.494 295.528 274.497 295.471 274.491 295.415L274 291C274 290.631 274.446 290.446 274.707 290.707L275.757 291.757C275.915 291.915 276.017 292.119 276.049 292.34L276.412 294.885C276.471 295.294 276.5 295.708 276.5 296.121V299.837C276.5 299.944 276.475 300.05 276.427 300.146L275.959 301.081C275.812 301.376 276.124 301.688 276.419 301.541C276.472 301.514 276.517 301.474 276.55 301.424L277.226 300.41C277.405 300.143 277.5 299.828 277.5 299.507V298.948C277.5 298.673 277.655 298.423 277.9 298.3C278.239 298.131 278.65 298.251 278.845 298.575L279.655 299.924C279.881 300.301 280 300.732 280 301.171V302.51C280 303.493 280.2 304.466 280.587 305.369L281.5 307.5L282.5 310.5L282.971 312.383C282.99 312.459 283.034 312.526 283.097 312.572C283.411 312.808 283.804 312.406 283.568 312.091C283.524 312.032 283.5 311.96 283.5 311.886V310.829C283.5 310.611 283.465 310.395 283.396 310.188L283.085 309.256C283.033 309.099 283.074 308.926 283.191 308.809C283.362 308.638 283.638 308.638 283.809 308.809L285.097 310.097C285.362 310.362 285.556 310.687 285.664 311.046L286.478 313.759C286.824 314.914 287 316.112 287 317.318C287 319.085 287.378 320.833 288.11 322.442L289.5 325.5L292.746 331.992C293.248 332.996 293.664 334.04 293.991 335.113L296.192 342.344C296.728 344.106 297.505 345.786 298.501 347.336L299.454 348.817C300.806 350.92 301.752 353.258 302.242 355.71L302.5 357V352.5V345.082C302.5 343.698 302.356 342.317 302.071 340.962L300.5 333.5L299 323L296.811 310.744C296.604 309.584 296.5 308.407 296.5 307.228V300.5L296 289.5L296.5 272.5L297.5 263L299 252.5L301 240L303.5 231.5L305.5 224.5L309 213.5L315.5 196L321 182.5L322.823 178.333C323.929 175.805 324.5 173.076 324.5 170.316V169L315.5 174L305.08 178.585C303.698 179.193 302.251 179.643 300.768 179.925L292.5 181.5L263.5 183.5H249L231.565 184.394C230.192 184.465 228.83 184.676 227.5 185.026L213.047 188.83C211.356 189.275 209.731 189.939 208.214 190.806L196.5 197.5L177 210L164.69 218.49C163.236 219.492 161.657 220.298 159.992 220.885L148.957 224.78C146.671 225.587 144.258 225.971 141.835 225.915L125.478 225.534C124.494 225.511 123.51 225.561 122.533 225.683L114.658 226.668C112.894 226.888 111.167 227.343 109.523 228.02L103.5 230.5L108.067 227.813C110.656 226.291 113.554 225.37 116.547 225.121L118 225C117.668 223.672 117.5 222.308 117.5 220.938V219.009C117.5 217.343 117.708 215.683 118.12 214.069L124 191L135 121.5L142.68 84.5389C142.893 83.5145 143.186 82.5085 143.556 81.53L150 64.5L161 37.5L174 4.5L163 37.5L152.5 65.5L146.154 81.3651C145.719 82.4529 145.38 83.5769 145.142 84.724L137.5 121.5L125.5 191.5L121.5 209.5L119 218.5L118.434 221.048C118.145 222.345 118 223.671 118 225L124 224.5H141.264C143.733 224.5 146.181 224.043 148.484 223.151L158.238 219.376C159.74 218.794 161.167 218.033 162.487 217.109L175.5 208L195.5 195.5L208.648 188.926C209.879 188.31 211.171 187.823 212.502 187.473L227.789 183.45C228.928 183.151 230.09 182.952 231.263 182.857L248 181.5H263.5L290.533 178.703C291.841 178.568 293.133 178.304 294.389 177.915L313.5 172L291.185 171.27C286.361 171.113 282.3 167.61 281.437 162.86C281.097 160.99 281.284 159.063 281.976 157.293L285.417 148.5L283.454 157.529C283.1 159.156 283.108 160.842 283.477 162.466C284.62 167.497 289.007 171.128 294.163 171.311L313.5 172L304.217 170.52C295.115 169.068 288.417 161.217 288.417 152L287.245 136.293L286.417 146.5C282.6 144.845 280.854 140.404 282.522 136.593L283 135.5L288.417 124.5L289.214 119.717C289.404 118.579 289.762 117.475 290.278 116.444C291.082 114.837 291.5 113.065 291.5 111.268V103.5L290.5 92.5L289.186 80.6701C289.062 79.5587 288.846 78.4595 288.538 77.3843L288 75.5L283 61.5L282.5 65.5V81L281.612 100.095C281.538 101.693 281.272 103.275 280.821 104.809L279.735 108.5L279.963 109.394C280.315 110.773 281.031 112.031 282.037 113.037C282.345 113.345 282.627 113.678 282.881 114.033L284.54 116.357C284.839 116.775 285.263 117.088 285.75 117.25L285.392 116.033C284.806 114.039 284.694 111.935 285.066 109.889L285.373 108.199C285.457 107.737 285.624 107.294 285.865 106.891C286.569 105.718 287.837 105 289.206 105H290.5L289.203 105.216C288.133 105.395 287.213 106.074 286.728 107.044C286.577 107.346 286.472 107.669 286.416 108.003L286.08 110.018C285.698 112.315 285.791 114.666 286.356 116.925L286.5 117.5C286.776 117.592 286.71 118 286.419 118H285.189C285.068 118 284.952 117.952 284.866 117.866L281.772 114.772C281.258 114.258 280.797 113.696 280.395 113.092L279 111H278.106C276.389 111 274.691 110.632 273.127 109.921L272.452 109.615C270.849 108.886 269.482 107.724 268.506 106.259C267.522 104.783 266.974 103.06 266.925 101.287L266.5 86L267.5 96L267.8 100.495C267.93 102.456 268.628 104.337 269.807 105.909L270.861 107.314C270.953 107.437 271.068 107.541 271.199 107.62L271.544 107.826C272.295 108.277 273.224 107.622 273.053 106.763C273.018 106.591 273.029 106.412 273.085 106.246L273.5 105V105.809C273.5 106.267 273.574 106.721 273.719 107.156L274.045 108.134C274.326 108.979 275.039 109.608 275.912 109.782C276.604 109.921 277.323 109.758 277.888 109.334L278.115 109.164C278.687 108.734 279.095 108.121 279.268 107.427L280.342 103.132C280.447 102.712 280.512 102.282 280.536 101.85L280.86 96.0198C280.932 94.7162 279.794 93.6723 278.502 93.8569C277.87 93.9472 277.315 94.3242 276.998 94.8785L275.837 96.9107C275.613 97.3026 275.428 97.7157 275.285 98.1439L273.5 103.5L274.243 98.6697C274.412 97.5719 274.836 96.5291 275.482 95.6253L276.21 94.6056C276.72 93.892 277.467 93.3832 278.318 93.1705C279.908 92.7731 281.045 91.3751 281.11 89.7378L281.5 80L281 69.5L277.977 73.2787C277.327 74.0917 276.614 74.8526 275.845 75.5545L265.5 85L262.809 87.691C262.313 88.1868 261.58 88.3599 260.915 88.1382C260.642 88.0473 260.394 87.8942 260.191 87.691L259.224 86.7239C258.743 86.2434 258.329 85.7011 257.992 85.1111L257.738 84.6665C256.922 83.2389 256.423 81.6525 256.274 80.0149L256.256 79.8178C256.088 77.9632 256.34 76.0944 256.993 74.3508L257.5 73L260 67L260.719 65.0817C261.238 63.6987 261.593 62.2596 261.776 60.794L261.825 60.4004C261.941 59.4689 261.969 58.5285 261.906 57.5918C261.646 53.6913 259.847 50.0538 256.905 47.4796L255.642 46.3741C254.222 45.1318 252.623 44.1103 250.899 43.3441L240 38.5L218 29.5L198.5 20.5L188.696 14.9585C187.568 14.321 186.505 13.5755 185.521 12.7323L180.987 8.8459C180.33 8.2828 179.717 7.67007 179.154 7.01312L179.058 6.90098C177.699 5.31539 176.66 3.48117 176 1.5L176.647 2.36292C177.215 3.12002 177.836 3.83586 178.505 4.50505L180.5 6.5L185.921 11.5336C186.971 12.5084 188.122 13.3675 189.355 14.0963L198.5 19.5L218.5 28.5L240.5 37.5L253.246 42.6927C253.744 42.8958 254.201 43.1888 254.594 43.5571L258.352 47.0803C259.736 48.3773 262 47.3963 262 45.5L260.5 32L259.943 29.77C259.32 27.2799 258.224 24.933 256.714 22.8573L256.181 22.1233C255.396 21.0438 254.504 20.0456 253.52 19.1437L249 15L253.272 17.7461C255.076 18.906 256.659 20.3787 257.946 22.0948C259.626 24.3341 260.761 26.9338 261.261 29.6879L261.5 31L263.5 45.5V60.5L263.403 61.4693C263.137 64.1294 262.34 66.7092 261.06 69.0562L260 71L257.607 77.2221C257.537 77.4048 257.51 77.6035 257.53 77.7982C257.657 79.0677 259.388 79.3768 259.906 78.211C259.968 78.0715 260.055 77.9447 260.163 77.8368L261.15 76.8504C261.714 76.2861 262.353 75.8016 263.048 75.4104L267.077 73.1444C268.905 72.1161 271.124 72.062 273 73C271.065 72.6775 269.079 73.063 267.405 74.0859L262.663 76.984C261.579 77.6461 260.719 78.6179 260.194 79.7737L259.255 81.839C258.795 82.8503 258.97 84.0371 259.701 84.8731C260.886 86.2264 263.015 86.1462 264.094 84.7075L264.794 83.7753C264.931 83.5922 265.085 83.4219 265.253 83.2666L274.836 74.4204C276.915 72.5014 278.505 70.1126 279.471 67.4537C279.823 66.4864 280.09 65.4903 280.269 64.4767L281.5 57.5L283.56 48.5737C284.18 45.887 284.238 43.101 283.73 40.3908L281.5 28.5L278 13.5L276 3L283 26.5L284.5 34L285.289 42.6735C285.429 44.2192 285.389 45.7761 285.17 47.3126L284.5 52L283.5 59.5L289.5 77L289.719 77.4384C290.895 79.7897 292.523 81.8862 294.509 83.6079L296.566 85.3909C298.178 86.788 300.004 87.9182 301.973 88.7386L309.615 91.9227C310.537 92.307 311.487 92.6217 312.456 92.864L323 95.5L345 99L323 97Z" fill="#F7C7D9"/>
<path d="M358.086 442.816L338.5 447.5L357.739 441.226C360.222 440.417 362.84 440.101 365.445 440.298L388 442H407L408.636 441.84C410.569 441.652 411.078 444.438 409.203 444.945C409.068 444.982 408.929 445 408.79 445H388L364.988 442.395C362.68 442.134 360.345 442.276 358.086 442.816Z" fill="#F7C7D9"/>
<path d="M358.315 419.462L347 414L358.795 418.881C360.589 419.623 362.481 420.1 364.412 420.297L386 422.5L409 423.5H386.5L365.02 421.352C362.691 421.119 360.422 420.48 358.315 419.462Z" fill="#F7C7D9"/>
<path d="M349.5 499L350.032 496.339C350.198 495.508 351.407 495.567 351.491 496.411C351.497 496.47 351.496 496.53 351.487 496.589L351 500L350.257 503.22C349.756 505.391 349.621 507.631 349.859 509.847L351 520.5L352.5 538L354.321 546.742C354.771 548.899 354.861 551.116 354.587 553.302L354 558L351 573L350.804 573.736C349.893 577.151 352.467 580.5 356 580.5L369.907 581.804C371.299 581.934 372.672 582.21 374.006 582.627L396 589.5L401 591H398.747C396.924 591 395.11 590.751 393.355 590.259L371 584L356 582C351.848 582 348.191 584.731 347.011 588.712L345 595.5L342.5 610.5L340.871 618.236C340.626 619.403 340.177 620.517 339.545 621.529L338.677 622.917C338.235 623.625 338 624.443 338 625.277C338 625.756 338.077 626.232 338.229 626.686L341.477 636.43C341.825 637.475 342.259 638.489 342.774 639.463L346.5 646.5L352.5 655.5L347.143 649.786C345.723 648.271 344.548 646.545 343.659 644.669L340.5 638L337.014 628.704C336.5 627.334 334.833 626.817 333.634 627.656C333.545 627.719 333.46 627.788 333.381 627.862L320 640.5L334.5 624.75L335.656 623.181C337.204 621.08 338.326 618.698 338.958 616.167L340.155 611.379C340.385 610.461 340.549 609.528 340.646 608.586L341.813 597.312C341.937 596.106 342.171 594.915 342.512 593.752L348 575L351.708 560.169C352.232 558.07 352.413 555.9 352.243 553.744L351 538L349.5 520.5L348.327 509.548C348.11 507.528 348.203 505.487 348.601 503.495L349.5 499Z" fill="#F7C7D9"/>
<path d="M357.477 596.406L355 594.5L358.87 596.584C360.614 597.523 362.487 598.197 364.429 598.586L372.058 600.112C373.35 600.37 374.663 600.5 375.98 600.5H382.584C385.493 600.5 388.367 601.135 391.006 602.36L401 607L390.525 602.885C388.196 601.97 385.715 601.5 383.212 601.5H375.59C374.532 601.5 373.475 601.416 372.43 601.249L366.512 600.302C363.223 599.776 360.117 598.436 357.477 596.406Z" fill="#F7C7D9"/>
<path d="M240.5 13L232.5 9L238.036 10.8452C239.342 11.2806 240.599 11.8496 241.789 12.5433L246 15L240.5 13Z" fill="#F7C7D9"/>
<path d="M181.372 447.167L160.5 422.5L183.033 443.624C184.008 444.539 184.89 445.549 185.664 446.64L215.603 488.827C216.859 490.597 217.819 492.56 218.445 494.639L234.5 548L257 643.5L281 725L252.5 647.5L231.321 551.457C231.107 550.487 230.822 549.534 230.466 548.607L211.081 498.018C210.694 497.008 210.226 496.031 209.681 495.096L183.38 450.008C182.794 449.005 182.123 448.054 181.372 447.167Z" fill="#F7C7D9"/>
<path d="M47.618 587.753L22.5 538L52.5 589.5L100 655.5L49.704 591.043C48.9032 590.017 48.2046 588.915 47.618 587.753Z" fill="#F7C7D9"/>
<path d="M537 601.5L552 563.5L542.436 599.843C542.146 600.946 541.762 602.021 541.288 603.059L521 647.5L496.713 691.034C495.256 693.645 493.233 695.896 490.792 697.622L465.5 715.5L487.817 697.2C489.592 695.744 491.104 693.994 492.285 692.025L498 682.5L514.5 647.5L537 601.5Z" fill="#F7C7D9"/>
</svg>
