<svg width="16" height="73" viewBox="0 0 16 73" fill="none" xmlns="http://www.w3.org/2000/svg">
<g clip-path="url(#clip0_159_2)">
<mask id="mask0_159_2" style="mask-type:luminance" maskUnits="userSpaceOnUse" x="0" y="1" width="16" height="71">
<path d="M3.00002 3.25998L0.660016 64.45L0.510016 68.31C0.460016 69.54 1.18002 70.67 2.31002 71.16L3.13002 71.51C3.83002 71.81 4.59002 71.92 5.34002 71.85L11.62 71.21C12.72 71.1 13.57 70.18 13.6 69.08L15.31 3.17998C15.33 2.28998 14.64 1.54998 13.76 1.49998L5.38002 1.08998C4.12002 1.02998 3.06002 1.99998 3.01002 3.25998H3.00002Z" fill="white"/>
</mask>
<g mask="url(#mask0_159_2)">
<mask id="mask1_159_2" style="mask-type:luminance" maskUnits="userSpaceOnUse" x="1" y="26" width="15" height="5">
<path d="M1.8601 26.57L2.1301 26.84C2.9501 27.69 4.0601 28.18 5.2401 28.23L8.8701 28.37C9.0001 28.37 9.1301 28.37 9.2601 28.37L14.2701 28.19L15.6301 27.83L15.4901 30.61L11.6101 30.84L4.8001 30.5L3.1901 30.08L1.9901 29.77L1.7301 29.23L1.8601 26.57Z" fill="white"/>
</mask>
<g mask="url(#mask1_159_2)">
<path d="M1.83009 29.1L2.52009 28.44C2.59009 28.4 2.67009 28.38 2.75009 28.36L3.18009 28.27C3.49009 28.21 3.80009 28.25 4.09009 28.38L4.35009 28.5C4.71009 28.66 5.10009 28.74 5.49009 28.72L7.33009 28.64C7.56009 28.64 7.79009 28.64 8.02009 28.69L9.17009 28.89C9.51009 28.95 9.86009 28.96 10.2101 28.93L11.1601 28.84C11.3601 28.82 11.5601 28.78 11.7501 28.72L15.0501 27.72L1.47009 26.29L1.75009 28.82" fill="#273AAA"/>
<path d="M1.83009 29.1L2.52009 28.44C2.59009 28.4 2.67009 28.38 2.75009 28.36L3.18009 28.27C3.49009 28.21 3.80009 28.25 4.09009 28.38L4.35009 28.5C4.71009 28.66 5.10009 28.74 5.49009 28.72L7.33009 28.64C7.56009 28.64 7.79009 28.64 8.02009 28.69L9.17009 28.89C9.51009 28.95 9.86009 28.96 10.2101 28.93L11.1601 28.84C11.3601 28.82 11.5601 28.78 11.7501 28.72L15.0501 27.72L1.47009 26.29L1.75009 28.82" stroke="#273AAA" stroke-miterlimit="10"/>
<path d="M11.9401 28.37L13.4901 28.41C13.7901 28.52 14.2301 28.77 14.2201 28.95V29.2L13.9401 29.88C13.9201 29.92 13.9001 29.96 13.8601 30L13.4901 30.21C13.2601 30.34 12.9901 30.41 12.7201 30.39L12.3101 30.37C12.1901 30.37 12.0701 30.39 11.9501 30.44L11.8001 30.54C11.5001 30.73 11.1501 30.83 10.8001 30.81L10.2301 30.78L15.3801 31.03L15.6201 27.83L11.9901 28.08L12.2301 28.34" fill="#273AAA"/>
<path d="M11.9401 28.37L13.4901 28.41C13.7901 28.52 14.2301 28.77 14.2201 28.95V29.2L13.9401 29.88C13.9201 29.92 13.9001 29.96 13.8601 30L13.4901 30.21C13.2601 30.34 12.9901 30.41 12.7201 30.39L12.3101 30.37C12.1901 30.37 12.0701 30.39 11.9501 30.44L11.8001 30.54C11.5001 30.73 11.1501 30.83 10.8001 30.81L10.2301 30.78L15.3801 31.03L15.6201 27.83L11.9901 28.08L12.2301 28.34" stroke="#273AAA" stroke-miterlimit="10"/>
</g>
<path d="M1.8601 26.57L2.1301 26.84C2.9501 27.69 4.0601 28.18 5.2401 28.23L8.8701 28.37C9.0001 28.37 9.1301 28.37 9.2601 28.37L14.2701 28.19L15.6301 27.83L15.4901 30.61L11.6101 30.84L4.8001 30.5L3.1901 30.08L1.9901 29.77L1.7301 29.23L1.8601 26.57Z" stroke="#273AAA" stroke-miterlimit="10"/>
<mask id="mask2_159_2" style="mask-type:luminance" maskUnits="userSpaceOnUse" x="2" y="29" width="12" height="39">
<path d="M2.05005 29.87L2.78005 30.41L3.05005 30.71C3.18005 30.86 3.25005 31.06 3.23005 31.26L2.79005 35.47L2.82005 45.07L2.58005 49.86L2.13005 53.88L2.08005 59.94L2.42005 63.24L3.81005 65.84L6.17005 67.26C6.54005 67.48 6.98005 67.56 7.41005 67.48L9.38005 67.1C10 66.98 10.58 66.7 11.04 66.27L11.38 65.96L12.59 61.98L13.32 47.11L13.53 37.77L13.59 31.45L13.31 31.14C13.18 31 13 30.91 12.81 30.91L11.44 30.84L8.31005 30.94L5.28005 30.79L4.27005 30.74H4.22005C3.93005 30.72 3.65005 30.82 3.43005 31.02L3.24005 31.2" fill="white"/>
</mask>
<g mask="url(#mask2_159_2)">
<path d="M3.01004 33.27L3.21004 34.92C3.26004 35.3 3.26004 35.68 3.21004 36.05L2.87004 38.75L2.20004 35.31L3.01004 33.27L2.80004 42.45L3.22004 45.15C3.27004 45.44 3.27004 45.74 3.24004 46.04L2.84004 49.61L2.93004 52.2C2.94004 52.49 2.91004 52.79 2.85004 53.08L2.62004 54.15L2.47004 57.18L2.35004 59.7L3.21004 62.77L3.40004 64.04L4.15004 66.03L2.13004 64.23L1.67004 53.09L2.82004 42.44" fill="#273AAA"/>
<path d="M3.01004 33.27L3.21004 34.92C3.26004 35.3 3.26004 35.68 3.21004 36.05L2.87004 38.75L2.20004 35.31L3.01004 33.27ZM3.01004 33.27L2.80004 42.45L3.22004 45.15C3.27004 45.44 3.27004 45.74 3.24004 46.04L2.84004 49.61L2.93004 52.2C2.94004 52.49 2.91004 52.79 2.85004 53.08L2.62004 54.15L2.47004 57.18L2.35004 59.7L3.21004 62.77L3.40004 64.04L4.15004 66.03L2.13004 64.23L1.67004 53.09L2.82004 42.44" stroke="#273AAA" stroke-miterlimit="10"/>
<path d="M12.92 55.34L12.23 59.18L12.12 61.45L12.24 63.98L13.12 61.5L12.92 55.34Z" fill="#273AAA" stroke="#273AAA" stroke-miterlimit="10"/>
<path d="M12.3101 31.89L12.5401 32.34C12.7001 32.56 12.7801 32.81 12.7901 33.08L12.9101 36.87L13.1101 39.61C13.1401 40.05 13.1101 40.5 13.0101 40.94L12.6601 42.44C12.5701 42.83 12.5701 43.23 12.6601 43.61L13.3401 46.35L14.6101 29.67L8.1001 29.92L9.0701 30.73C9.6801 30.75 10.0401 31.28 10.3101 31.3C10.5901 31.31 10.8001 31.39 11.0301 31.49C11.1401 31.53 11.2501 31.55 11.3701 31.54C11.5301 31.53 11.6901 31.54 11.8201 31.62L12.3101 31.9" fill="#273AAA"/>
<path d="M12.3101 31.89L12.5401 32.34C12.7001 32.56 12.7801 32.81 12.7901 33.08L12.9101 36.87L13.1101 39.61C13.1401 40.05 13.1101 40.5 13.0101 40.94L12.6601 42.44C12.5701 42.83 12.5701 43.23 12.6601 43.61L13.3401 46.35L14.6101 29.67L8.1001 29.92L9.0701 30.73C9.6801 30.75 10.0401 31.28 10.3101 31.3C10.5901 31.31 10.8001 31.39 11.0301 31.49C11.1401 31.53 11.2501 31.55 11.3701 31.54C11.5301 31.53 11.6901 31.54 11.8201 31.62L12.3101 31.9" stroke="#273AAA" stroke-miterlimit="10"/>
</g>
<path d="M2.05005 29.87L2.78005 30.41L3.05005 30.71C3.18005 30.86 3.25005 31.06 3.23005 31.26L2.79005 35.47L2.82005 45.07L2.58005 49.86L2.13005 53.88L2.08005 59.94L2.42005 63.24L3.81005 65.84L6.17005 67.26C6.54005 67.48 6.98005 67.56 7.41005 67.48L9.38005 67.1C10 66.98 10.58 66.7 11.04 66.27L11.38 65.96L12.59 61.98L13.32 47.11L13.53 37.77L13.59 31.45L13.31 31.14C13.18 31 13 30.91 12.81 30.91L11.44 30.84L8.31005 30.94L5.28005 30.79L4.27005 30.74H4.22005C3.93005 30.72 3.65005 30.82 3.43005 31.02L3.24005 31.2" stroke="#273AAA" stroke-miterlimit="10"/>
<path d="M2.05007 29.87L5.29007 30.79L3.86007 30.72C3.80007 30.72 3.74007 30.72 3.69007 30.75L3.45007 30.86C3.33007 30.91 3.19007 30.9 3.08007 30.82C2.84007 30.64 2.50007 30.8 2.49007 31.1L2.46007 31.67L2.32007 34.56C2.31007 34.82 2.27007 35.08 2.20007 35.33L1.70007 37.2L2.04007 29.88" fill="#273AAA"/>
<path d="M2.05007 29.87L5.29007 30.79L3.86007 30.72C3.80007 30.72 3.74007 30.72 3.69007 30.75L3.45007 30.86C3.33007 30.91 3.19007 30.9 3.08007 30.82C2.84007 30.64 2.50007 30.8 2.49007 31.1L2.46007 31.67L2.32007 34.56C2.31007 34.82 2.27007 35.08 2.20007 35.33L1.70007 37.2L2.04007 29.88" stroke="#273AAA" stroke-miterlimit="10"/>
<path d="M14.1801 31.07L14.0901 31.11C13.9501 31.17 13.8601 31.31 13.8501 31.46L13.7901 32.75C13.7901 32.9 13.7601 33.06 13.7201 33.21L13.5801 33.73L13.6001 31.68C13.6001 31.54 13.5501 31.4 13.4501 31.3L13.1201 30.93L14.6001 30.74L14.8801 31.27L14.6101 31C14.4701 31 14.3201 31.02 14.1901 31.08L14.1801 31.07Z" fill="#273AAA" stroke="#273AAA" stroke-miterlimit="10"/>
<path d="M11.1801 1.38L6.51008 1.98C6.30008 2.01 6.10008 2.06 5.91008 2.15L5.59008 2.29C4.98008 2.56 4.50008 3.04 4.24008 3.65L4.09008 4C3.90008 4.45 3.81008 4.94 3.85008 5.43L4.10008 8.75L4.17008 10.55C4.20008 11.2 4.13008 11.85 3.98008 12.49L3.42008 14.82C3.31008 15.29 3.24008 15.78 3.21008 16.26L3.06008 19.32C3.02008 20.15 2.88008 20.98 2.66008 21.78L1.96008 24.26L2.73008 0.589996L11.1801 1.39" fill="#273AAA"/>
<path d="M11.1801 1.38L6.51008 1.98C6.30008 2.01 6.10008 2.06 5.91008 2.15L5.59008 2.29C4.98008 2.56 4.50008 3.04 4.24008 3.65L4.09008 4C3.90008 4.45 3.81008 4.94 3.85008 5.43L4.10008 8.75L4.17008 10.55C4.20008 11.2 4.13008 11.85 3.98008 12.49L3.42008 14.82C3.31008 15.29 3.24008 15.78 3.21008 16.26L3.06008 19.32C3.02008 20.15 2.88008 20.98 2.66008 21.78L1.96008 24.26L2.73008 0.589996L11.1801 1.39" stroke="#273AAA" stroke-miterlimit="10"/>
</g>
<path d="M3.00002 3.25998L0.660016 64.45L0.510016 68.31C0.460016 69.54 1.18002 70.67 2.31002 71.16L3.13002 71.51C3.83002 71.81 4.59002 71.92 5.34002 71.85L11.62 71.21C12.72 71.1 13.57 70.18 13.6 69.08L15.31 3.17998C15.33 2.28998 14.64 1.54998 13.76 1.49998L5.38002 1.08998C4.12002 1.02998 3.06002 1.99998 3.01002 3.25998H3.00002Z" stroke="#273AAA" stroke-miterlimit="10"/>
<path d="M12.11 66.75V67C12.08 67.32 11.92 67.61 11.66 67.8L10.76 68.45L10.16 68.81C10.04 68.88 9.94005 68.98 9.87005 69.11C9.76005 69.3 9.75005 69.54 9.84005 69.74C9.89005 69.86 10.01 69.94 10.14 69.95H10.19C10.51 69.97 10.82 69.87 11.08 69.69L11.51 69.38C11.83 69.15 12.08 68.85 12.24 68.49L12.56 67.79V67.61C12.59 67.26 12.41 66.93 12.11 66.76V66.75Z" fill="#273AAA" stroke="#273AAA" stroke-miterlimit="10"/>
<path d="M13.44 2.44998L13.1 4.19998L12.97 9.42998L12.98 21.89L13.55 10.4L13.77 5.97998L13.44 2.44998Z" fill="#273AAA"/>
<mask id="mask3_159_2" style="mask-type:luminance" maskUnits="userSpaceOnUse" x="6" y="30" width="3" height="25">
<path d="M7.35003 31.03L6.83003 54.12C6.81003 53.98 6.78003 54.48 6.78003 54.48C6.78003 54.48 7.12003 54.43 7.22003 54.41C7.38003 54.38 7.55003 54.38 7.72003 54.39C7.98003 54.41 8.23003 54.48 8.42003 54.59L8.92003 31.11C8.92003 30.96 8.79003 30.83 8.62003 30.82L7.70003 30.76C7.52003 30.75 7.36003 30.87 7.36003 31.03H7.35003Z" fill="white"/>
</mask>
<g mask="url(#mask3_159_2)">
<path d="M7.84997 32.08C8.01997 31.92 8.27997 31.91 8.46997 32.04L9.43997 32.73L9.46997 30.73L6.99997 30.61L6.71997 35.02L7.52997 33.93C7.69997 33.7 7.72997 33.4 7.61997 33.14C7.45997 32.77 7.54997 32.35 7.84997 32.08Z" fill="#273AAA" stroke="#273AAA" stroke-miterlimit="10"/>
<path d="M6.67999 51.2L7.04999 52.81C7.07999 52.93 7.09999 53.06 7.10999 53.18L7.18999 53.97C7.32999 54.21 7.67999 54.19 7.79999 53.94C7.98999 53.53 8.03999 53.06 7.92999 52.61L7.75999 51.9C7.69999 51.64 7.68999 51.37 7.71999 51.1L8.18998 47.41L8.52998 45.15L8.94999 56.37L7.56999 56.15L6.10999 55.92L6.66999 51.21L6.67999 51.2Z" fill="#273AAA" stroke="#273AAA" stroke-miterlimit="10"/>
</g>
<path d="M7.35003 31.03L6.83003 54.12C6.81003 53.98 6.78003 54.48 6.78003 54.48C6.78003 54.48 7.12003 54.43 7.22003 54.41C7.38003 54.38 7.55003 54.38 7.72003 54.39C7.98003 54.41 8.23003 54.48 8.42003 54.59L8.92003 31.11C8.92003 30.96 8.79003 30.83 8.62003 30.82L7.70003 30.76C7.52003 30.75 7.36003 30.87 7.36003 31.03H7.35003Z" stroke="#273AAA" stroke-miterlimit="10"/>
<path d="M5.98996 57.65L5.78996 61.65C5.77996 61.86 5.81996 62.07 5.89996 62.27L6.20996 63.02L6.64996 64.02L6.96996 64.09C7.36996 64.08 7.71996 63.84 7.88996 63.48L7.97996 63.28C8.08996 63.18 8.18996 63.06 8.26996 62.92L9.05996 61.52C9.16996 61.33 9.22996 61.11 9.23996 60.89L9.38996 57.91C9.40996 57.42 9.18996 56.96 8.78996 56.67L8.26996 56.3C7.82996 55.99 7.24996 55.95 6.76996 56.2C6.31996 56.44 6.03996 56.89 6.00996 57.4V57.66L5.98996 57.65Z" fill="#273AAA" stroke="#273AAA" stroke-miterlimit="10"/>
<path d="M1.16 66L0.72 62.78L0.5 67.27L0.6 69.13L1.26 70.38L2.32 71.15L4.16 71.8H5.76L10.11 71.35L9.01 71C8.76 70.92 8.5 70.9 8.24 70.94L7.86 71C7.53 71.05 7.2 71.02 6.88 70.91L6.02 70.62C5.76 70.53 5.47 70.51 5.2 70.57L4.97 70.61C4.72 70.66 4.47 70.65 4.23 70.57L3.44 70.33C2.92 70.17 2.53 69.75 2.4 69.22L2.27 68.68C2.21 68.42 2.1 68.17 1.95 67.95L1.47 67.24L1.25 66.43C1.21 66.29 1.18 66.14 1.16 66Z" fill="#273AAA" stroke="#273AAA" stroke-miterlimit="10"/>
</g>
<defs>
<clipPath id="clip0_159_2">
<rect width="15.81" height="71.77" fill="white" transform="translate(0 0.589996)"/>
</clipPath>
</defs>
</svg>
