<svg width="50" height="82" viewBox="0 0 50 82" fill="none" xmlns="http://www.w3.org/2000/svg">
<mask id="mask0_548_14" style="mask-type:luminance" maskUnits="userSpaceOnUse" x="3" y="1" width="44" height="79">
<path d="M3.85278 8.46808L29.4341 73.6525L31.0451 77.7657C31.556 79.0774 32.8986 79.8971 34.4133 79.841L35.5098 79.7945C36.4465 79.756 37.3638 79.4886 38.1867 79.038L45.0517 75.2082C46.2552 74.5396 46.7997 73.1495 46.326 71.9838L17.8519 2.18957C17.4638 1.24854 16.3354 0.821706 15.309 1.21225L5.56467 5.00048C4.1003 5.5718 3.33949 7.11988 3.86418 8.46304L3.85278 8.46808Z" fill="white"/>
</mask>
<g mask="url(#mask0_548_14)">
<mask id="mask1_548_14" style="mask-type:luminance" maskUnits="userSpaceOnUse" x="13" y="27" width="18" height="10">
<path d="M13.3142 33.4243L13.7468 33.5709C15.0741 34.0474 16.566 34.0013 17.9345 33.4598L22.1382 31.7795C22.2864 31.7141 22.4346 31.6487 22.5828 31.5833L28.2122 28.8738L29.5967 27.8128L30.7205 30.7912L26.4027 32.9844L18.4808 36.0557L16.4512 36.4266L14.9398 36.7062L14.3941 36.2722L13.3142 33.4243Z" fill="white"/>
</mask>
<g mask="url(#mask1_548_14)">
<path d="M14.4485 36.0858L14.9305 35.0482C14.9919 34.9711 15.0739 34.91 15.1559 34.8488L15.6046 34.5383C15.9304 34.3195 16.3023 34.2053 16.693 34.1954L17.0448 34.1901C17.5292 34.1763 18.0108 34.0637 18.4462 33.8465L20.5073 32.8369C20.7696 32.7211 21.0318 32.6054 21.3171 32.5419L22.7207 32.1724C23.1361 32.0641 23.5398 31.8984 23.925 31.6909L24.9667 31.1187C25.1855 30.9971 25.3951 30.8546 25.584 30.6962L28.885 27.9895L12.7407 33.3276L14.228 35.8332" fill="#F7C7D9"/>
<path d="M14.4485 36.0858L14.9305 35.0482C14.9919 34.9711 15.0739 34.91 15.1559 34.8488L15.6046 34.5383C15.9304 34.3195 16.3023 34.2053 16.693 34.1954L17.0448 34.1901C17.5292 34.1763 18.0108 34.0637 18.4462 33.8465L20.5073 32.8369C20.7696 32.7211 21.0318 32.6054 21.3171 32.5419L22.7207 32.1724C23.1361 32.0641 23.5398 31.8984 23.925 31.6909L24.9667 31.1187C25.1855 30.9971 25.3951 30.8546 25.584 30.6962L28.885 27.9895L12.7407 33.3276L14.228 35.8332" stroke="#F7C7D9" stroke-miterlimit="10"/>
<path d="M25.6385 30.2351L27.4243 29.4969C27.8172 29.461 28.4343 29.5011 28.506 29.6944L28.6214 29.9559L28.6161 30.8081C28.6117 30.86 28.6074 30.9119 28.5803 30.9739L28.2553 31.3798C28.0531 31.6315 27.7776 31.8406 27.4605 31.9556L26.9837 32.141C26.8469 32.2013 26.7193 32.2827 26.6056 32.3953L26.4807 32.5754C26.2264 32.9252 25.8735 33.2059 25.4651 33.3611L24.8014 33.6166L30.7889 31.2864L29.5852 27.8183L25.5617 29.9066L25.9553 30.0578" fill="#F7C7D9"/>
<path d="M25.6385 30.2351L27.4243 29.4969C27.8172 29.461 28.4343 29.5011 28.506 29.6944L28.6214 29.9559L28.6161 30.8081C28.6117 30.86 28.6074 30.9119 28.5803 30.9739L28.2553 31.3798C28.0531 31.6315 27.7776 31.8406 27.4605 31.9556L26.9837 32.141C26.8469 32.2013 26.7193 32.2827 26.6056 32.3953L26.4807 32.5754C26.2264 32.9252 25.8735 33.2059 25.4651 33.3611L24.8014 33.6166L30.7889 31.2864L29.5852 27.8183L25.5617 29.9066L25.9553 30.0578" stroke="#F7C7D9" stroke-miterlimit="10"/>
</g>
<path d="M13.3142 33.4243L13.7468 33.5709C15.0741 34.0474 16.566 34.0013 17.9345 33.4598L22.1382 31.7795C22.2864 31.7141 22.4346 31.6487 22.5828 31.5833L28.2122 28.8738L29.5967 27.8128L30.7205 30.7912L26.4027 32.9844L18.4808 36.0557L16.4512 36.4266L14.9398 36.7062L14.3941 36.2722L13.3142 33.4243Z" stroke="#F7C7D9" stroke-miterlimit="10"/>
<mask id="mask2_548_14" style="mask-type:luminance" maskUnits="userSpaceOnUse" x="15" y="32" width="28" height="42">
<path d="M15.0552 36.7803L16.1368 36.9778L16.5832 37.1557C16.8007 37.2472 16.9728 37.4212 17.0423 37.6404L18.4843 42.2657L22.9505 52.2925L24.8882 57.4238L26.231 61.8553L28.9717 68.2194L30.8829 71.5002L33.6681 73.5204L37.0146 73.8182C37.5381 73.8621 38.0767 73.7244 38.5301 73.4243L40.6008 72.0354C41.2524 71.5979 41.7844 71.0131 42.1104 70.3318L42.355 69.8365L41.8972 65.0643L35.8646 49.1424L31.792 39.2668L28.9427 32.6257L28.4803 32.4423C28.2675 32.3613 28.0207 32.3577 27.804 32.4533L26.2096 33.0696L22.6869 34.7493L19.1628 36.1172L17.9881 36.5731L17.9311 36.5983C17.5912 36.7233 17.3181 36.9688 17.1596 37.2887L17.0261 37.5726" fill="white"/>
</mask>
<g mask="url(#mask2_548_14)">
<path d="M17.7193 39.854L18.7091 41.4793C18.9415 41.8516 19.117 42.2491 19.2308 42.6613L20.0896 45.6567L17.7375 42.3955L17.7193 39.854L21.718 49.5623L23.4434 52.1752C23.6342 52.4534 23.7727 52.7672 23.877 53.0961L25.0691 57.0317L26.3674 59.6957C26.5127 59.994 26.617 60.3229 26.6825 60.6564L26.9142 61.8914L28.1421 65.1364L29.1686 67.8328L31.5665 70.6113L32.3695 71.8442L34.1434 73.5484L31.0091 72.6821L25.3417 61.2607L21.7361 49.5417" fill="#F7C7D9"/>
<path d="M17.7193 39.854L18.7091 41.4793C18.9415 41.8516 19.117 42.2491 19.2308 42.6613L20.0896 45.6567L17.7375 42.3955L17.7193 39.854ZM17.7193 39.854L21.718 49.5623L23.4434 52.1752C23.6342 52.4534 23.7727 52.7672 23.877 53.0961L25.0691 57.0317L26.3674 59.6957C26.5127 59.994 26.617 60.3229 26.6825 60.6564L26.9142 61.8914L28.1421 65.1364L29.1686 67.8328L31.5665 70.6113L32.3695 71.8442L34.1434 73.5484L31.0091 72.6821L25.3417 61.2607L21.7361 49.5417" stroke="#F7C7D9" stroke-miterlimit="10"/>
<path d="M39.2081 57.9534L40.1941 62.3174L41.1167 64.7472L42.4215 67.3333L42.28 64.2963L39.2081 57.9534Z" fill="#F7C7D9" stroke="#F7C7D9" stroke-miterlimit="10"/>
<path d="M27.6865 33.7299L28.1565 34.0849C28.4405 34.2345 28.6472 34.4558 28.7832 34.7332L30.6698 38.6373L32.1628 41.4027C32.4001 41.8479 32.5737 42.3337 32.6628 42.8443L32.9562 44.5895C33.0336 45.0427 33.2183 45.4611 33.4964 45.8133L35.5367 48.3373L29.2841 30.2503L21.9767 33.7879L23.4567 34.147C24.1615 33.861 24.8166 34.2342 25.1337 34.1193C25.4576 33.9888 25.734 33.9668 26.0424 33.9557C26.1863 33.9422 26.3209 33.9077 26.4532 33.8369C26.631 33.7459 26.818 33.6758 27.0032 33.6941L27.6912 33.7404" fill="#F7C7D9"/>
<path d="M27.6865 33.7299L28.1565 34.0849C28.4405 34.2345 28.6472 34.4558 28.7832 34.7332L30.6698 38.6373L32.1628 41.4027C32.4001 41.8479 32.5737 42.3337 32.6628 42.8443L32.9562 44.5895C33.0336 45.0427 33.2183 45.4611 33.4964 45.8133L35.5367 48.3373L29.2841 30.2503L21.9767 33.7879L23.4567 34.147C24.1615 33.861 24.8166 34.2342 25.1337 34.1193C25.4576 33.9888 25.734 33.9668 26.0424 33.9557C26.1863 33.9422 26.3209 33.9077 26.4532 33.8369C26.631 33.7459 26.818 33.6758 27.0032 33.6941L27.6912 33.7404" stroke="#F7C7D9" stroke-miterlimit="10"/>
</g>
<path d="M15.0552 36.7803L16.1368 36.9778L16.5832 37.1557C16.8007 37.2472 16.9728 37.4212 17.0423 37.6404L18.4843 42.2657L22.9505 52.2925L24.8882 57.4238L26.231 61.8553L28.9717 68.2194L30.8829 71.5002L33.6681 73.5204L37.0146 73.8182C37.5381 73.8621 38.0767 73.7244 38.5301 73.4243L40.6008 72.0354C41.2524 71.5979 41.7844 71.0131 42.1104 70.3318L42.355 69.8365L41.8972 65.0643L35.8646 49.1424L31.792 39.2668L28.9427 32.6257L28.4803 32.4423C28.2675 32.3613 28.0207 32.3577 27.804 32.4533L26.2096 33.0696L22.6869 34.7493L19.1628 36.1172L17.9881 36.5731L17.9311 36.5983C17.5912 36.7233 17.3181 36.9688 17.1596 37.2887L17.0261 37.5726" stroke="#F7C7D9" stroke-miterlimit="10"/>
<path d="M15.0543 36.7809L19.1734 36.1128L17.5106 36.7592C17.4421 36.7894 17.3737 36.8196 17.3306 36.8761L17.1077 37.1119C16.994 37.2246 16.8297 37.2846 16.6674 37.2563C16.3106 37.1888 15.9968 37.5273 16.1239 37.8461L16.3528 38.4574L17.5274 41.5509C17.6361 41.8279 17.7105 42.12 17.7461 42.4168L18.0393 44.6245L15.0476 36.7964" fill="#F7C7D9"/>
<path d="M15.0543 36.7809L19.1734 36.1128L17.5106 36.7592C17.4421 36.7894 17.3737 36.8196 17.3306 36.8761L17.1077 37.1119C16.994 37.2246 16.8297 37.2846 16.6674 37.2563C16.3106 37.1888 15.9968 37.5273 16.1239 37.8461L16.3528 38.4574L17.5274 41.5509C17.6361 41.8279 17.7105 42.12 17.7461 42.4168L18.0393 44.6245L15.0476 36.7964" stroke="#F7C7D9" stroke-miterlimit="10"/>
<path d="M29.4391 31.9314L29.355 32.0185C29.223 32.1517 29.185 32.3435 29.2429 32.5054L29.77 33.885C29.8393 34.0419 29.8789 34.2244 29.9026 34.4014L29.983 35.0158L29.0594 32.8613C28.9948 32.7149 28.8731 32.5936 28.7129 32.5393L28.1658 32.3184L29.7656 31.3748L30.3296 31.7883L29.8971 31.6418C29.7374 31.7122 29.5757 31.8086 29.4551 31.9368L29.4391 31.9314Z" fill="#F7C7D9" stroke="#F7C7D9" stroke-miterlimit="10"/>
<path d="M12.3116 2.38478L7.26378 5.36251C7.03819 5.49957 6.83323 5.65252 6.65814 5.84228L6.3579 6.14976C5.78702 6.73916 5.46132 7.48281 5.44648 8.25173L5.43703 8.69333C5.42814 9.25966 5.55174 9.81751 5.82356 10.3099L7.64135 13.657L8.55217 15.5046C8.88646 16.1694 9.10673 16.8846 9.23116 17.6295L9.66833 20.3486C9.75989 20.8956 9.90629 21.4434 10.0937 21.9606L11.3354 25.2369C11.6729 26.1252 11.8965 27.0639 12.015 28.0114L12.3618 30.9579L2.31205 5.81075L12.3162 2.39525" fill="#F7C7D9"/>
<path d="M12.3116 2.38478L7.26378 5.36251C7.03819 5.49957 6.83323 5.65252 6.65814 5.84228L6.3579 6.14976C5.78702 6.73916 5.46132 7.48281 5.44648 8.25173L5.43703 8.69333C5.42814 9.25966 5.55174 9.81751 5.82356 10.3099L7.64135 13.657L8.55217 15.5046C8.88646 16.1694 9.10673 16.8846 9.23116 17.6295L9.66833 20.3486C9.75989 20.8956 9.90629 21.4434 10.0937 21.9606L11.3354 25.2369C11.6729 26.1252 11.8965 27.0639 12.015 28.0114L12.3618 30.9579L2.31205 5.81075L12.3162 2.39525" stroke="#F7C7D9" stroke-miterlimit="10"/>
</g>
<path d="M3.85327 8.46759L29.4346 73.652L31.0456 77.7652C31.5564 79.077 32.8991 79.8966 34.4137 79.8405L35.5103 79.794C36.447 79.7555 37.3643 79.4882 38.1871 79.0375L45.0522 75.2077C46.2557 74.5391 46.8001 73.149 46.3265 71.9833L17.8524 2.18909C17.4643 1.24805 16.3359 0.821218 15.3095 1.21176L5.56516 5C4.10079 5.57131 3.33998 7.11939 3.86467 8.46256L3.85327 8.46759Z" stroke="#F7C7D9" stroke-miterlimit="10"/>
<path d="M43.5521 70.2949L43.6675 70.5564C43.781 70.9062 43.7325 71.2901 43.5237 71.6196L42.7976 72.7525L42.2797 73.431C42.1752 73.5646 42.1073 73.7195 42.0875 73.8907C42.0498 74.1448 42.1492 74.4009 42.3442 74.5648C42.4566 74.6652 42.6304 74.6885 42.7832 74.6335L42.8402 74.6084C43.2143 74.4683 43.5216 74.2077 43.735 73.8885L44.0821 73.3479C44.3408 72.9462 44.4874 72.5066 44.5036 72.0495L44.5453 71.1563L44.4622 70.968C44.3348 70.5868 43.9773 70.3322 43.5567 70.3053L43.5521 70.2949Z" fill="#F7C7D9" stroke="#F7C7D9" stroke-miterlimit="10"/>
<path d="M15.3836 2.36651L15.8038 4.36817L18.0701 9.90435L23.8339 22.9329L19.1792 10.6271L17.3895 5.89294L15.3836 2.36651Z" fill="#F7C7D9"/>
<mask id="mask3_548_14" style="mask-type:luminance" maskUnits="userSpaceOnUse" x="21" y="34" width="13" height="27">
<path d="M21.6332 35.3268L31.7002 59.7414C31.6128 59.605 31.8094 60.1431 31.8094 60.1431C31.8094 60.1431 32.174 59.9197 32.2788 59.8485C32.4474 59.7366 32.6412 59.651 32.8397 59.5759C33.1454 59.466 33.4627 59.4134 33.7302 59.4329L23.4603 34.6204C23.3911 34.4635 23.1828 34.3929 22.9844 34.468L21.9077 34.8682C21.6978 34.9483 21.5708 35.1544 21.6446 35.3217L21.6332 35.3268Z" fill="white"/>
</mask>
<g mask="url(#mask3_548_14)">
<path d="M22.6878 36.1741C22.8078 35.9212 23.0996 35.7799 23.3763 35.8202L24.8008 36.0539L23.9117 33.9467L21.04 35.0642L22.7567 39.8181L23.177 38.2703C23.2647 37.9442 23.1604 37.6152 22.9149 37.3986C22.5617 37.0921 22.4704 36.6075 22.6878 36.1741Z" fill="#F7C7D9" stroke="#F7C7D9" stroke-miterlimit="10"/>
<path d="M30.1813 56.7629L31.3465 58.2608C31.4361 58.3712 31.5189 58.4971 31.5857 58.6176L32.0416 59.4037C32.3121 59.5843 32.7019 59.3873 32.7233 59.0654C32.7507 58.5409 32.5907 58.0241 32.2575 57.6087L31.7359 56.9516C31.5474 56.7098 31.4114 56.4324 31.3209 56.1349L30.1533 52.0385L29.4976 49.5034L35.1564 61.0285L33.4813 61.4928L31.7104 61.987L30.1745 56.7783L30.1813 56.7629Z" fill="#F7C7D9" stroke="#F7C7D9" stroke-miterlimit="10"/>
</g>
<path d="M21.6332 35.3268L31.7002 59.7414C31.6128 59.605 31.8094 60.1431 31.8094 60.1431C31.8094 60.1431 32.174 59.9197 32.2788 59.8485C32.4474 59.7366 32.6412 59.651 32.8397 59.5759C33.1454 59.466 33.4627 59.4134 33.7302 59.4329L23.4603 34.6204C23.3911 34.4635 23.1828 34.3929 22.9844 34.468L21.9077 34.8682C21.6978 34.9483 21.5708 35.1544 21.6446 35.3217L21.6332 35.3268Z" stroke="#F7C7D9" stroke-miterlimit="10"/>
<path d="M32.373 63.8566L33.9916 68.1414C34.0772 68.3661 34.2197 68.5657 34.4033 68.7346L35.103 69.3631L36.0664 70.1877L36.4635 70.0999C36.915 69.8882 37.2033 69.461 37.2309 68.9989L37.2412 68.7444C37.3205 68.5844 37.3791 68.4086 37.4057 68.2219L37.6601 66.3599C37.6978 66.1058 37.6647 65.8454 37.5745 65.6103L36.3698 62.4176C36.1664 61.895 35.7031 61.5245 35.1132 61.4225L34.3494 61.2971C33.7046 61.1943 33.0248 61.4443 32.593 61.9474C32.1907 62.4249 32.0791 63.0365 32.2804 63.5851L32.4004 63.857L32.373 63.8566Z" fill="#F7C7D9" stroke="#F7C7D9" stroke-miterlimit="10"/>
<path d="M30.7201 75.0215L28.7318 71.8746L30.5538 76.682L31.5266 78.5773L32.8562 79.5528L34.4203 79.8248L36.8184 79.5787L38.6427 78.7736L43.3949 76.1138L41.9791 76.3012C41.6571 76.3434 41.3514 76.4533 41.0734 76.626L40.6679 76.88C40.3147 77.0983 39.9245 77.233 39.5089 77.279L38.3944 77.4084C38.0564 77.4451 37.7165 77.5701 37.4364 77.7688L37.1926 77.9263C36.9306 78.1044 36.6409 78.2198 36.3304 78.2569L35.3188 78.4034C34.652 78.4977 34.0134 78.2546 33.6205 77.7657L33.223 77.2662C33.0345 77.0245 32.7937 76.8183 32.5211 76.6637L31.646 76.1625L31.0212 75.4259C30.911 75.2996 30.8075 75.1578 30.7201 75.0215Z" fill="#F7C7D9" stroke="#F7C7D9" stroke-miterlimit="10"/>
</svg>
