<svg width="107" height="129" viewBox="0 0 107 129" fill="none" xmlns="http://www.w3.org/2000/svg">
<path d="M53.4464 18.5805L57.7183 4.84672C58.0329 3.83529 58.6018 2.92154 59.3706 2.1929C60.5018 1.12082 61.9958 0.514961 63.5542 0.496346L64.2827 0.487643C65.7752 0.469815 67.2432 0.86732 68.5228 1.63574L77.2528 6.87836C78.0912 7.38183 78.8915 7.94612 79.6473 8.56668L96.6017 22.4868C99.1428 24.5731 101.13 27.2537 102.388 30.2913L102.78 31.2355C104.576 35.5737 104.789 40.4058 103.381 44.8854L101.802 49.9106C101.139 52.0216 100.129 54.0079 98.8156 55.7884L93.89 62.4639C91.729 65.3926 90.4082 68.8554 90.0699 72.4792L89.3417 80.2778C89.0096 83.8348 87.7309 87.2379 85.6383 90.1334L79.9999 97.9353C78.1378 100.512 75.6884 102.607 72.8547 104.048L64.5647 108.263C63.1605 108.977 61.6107 109.359 60.0355 109.377L59.5693 109.383C55.8853 109.427 52.5061 107.343 50.8917 104.031C50.297 102.812 49.4487 101.733 48.4035 100.868L45.4353 98.4101C44.4804 97.6196 43.454 96.9195 42.3695 96.319L36.5241 93.0822C33.1491 91.2133 31.0366 87.6772 30.9905 83.8197C30.9644 81.6305 31.6083 79.4857 32.8358 77.6728L35.3211 74.0027C38.0188 69.154 37.9481 63.2394 35.1354 58.4565L33.4014 54.827C31.6164 51.0907 31.6502 46.7408 33.4928 43.0327C34.4291 41.1484 35.7941 39.5098 37.4782 38.2483L41.7539 35.0458C43.3906 33.8199 44.8295 32.3503 46.0206 30.6881L50.6056 24.2901C51.8518 22.5511 52.811 20.6234 53.4464 18.5805Z" fill="#F7C7D9"/>
<path d="M59.8525 19.2847L63.1623 11.1894C63.2089 11.0755 63.2653 10.966 63.331 10.862C64.0355 9.74655 65.5806 9.54657 66.5458 10.4459L80.6797 23.6145L92.8506 34.6099C94.6926 36.274 96.039 38.4147 96.7411 40.7958C98.0027 45.0745 97.0643 49.7003 94.235 53.1491L88.5286 60.1053L86.4063 63.1265C84.063 66.4625 83.3693 70.6852 84.5222 74.5955C85.3435 77.381 85.2358 80.3582 84.2153 83.077L83.0973 86.0554C82.0312 88.8957 80.3329 91.4563 78.1309 93.5433L72.7663 98.6277C71.4131 99.9102 69.8871 100.997 68.2328 101.857L61.2362 105.494C60.3998 105.929 59.4174 105.985 58.537 105.648C57.2747 105.165 56.4353 103.96 56.4191 102.608L56.4101 101.849C56.4013 101.116 56.2103 100.397 55.8542 99.7562L54.3765 97.0978L53.4654 95.8645C52.0743 93.9815 50.3635 92.3573 48.4107 91.066L45.4248 89.0915C44.4067 88.4182 43.4845 87.6101 42.6834 86.6891L41.3219 85.1239C39.4635 82.9875 38.6875 80.1167 39.2167 77.335L39.301 76.8916C39.6083 75.2761 40.4159 73.7982 41.6095 72.667L42.022 72.276C44.1884 70.2227 44.8236 67.0259 43.6066 64.3003L41.3471 59.9857C40.1728 57.7433 39.5449 55.2551 39.5147 52.7241C39.4703 49.0052 40.7174 45.3861 43.0434 42.484L48.6979 35.4292L57.4333 23.5903C58.4145 22.2605 59.2271 20.8143 59.8525 19.2847Z" fill="#FC4D5C"/>
<path d="M63.5891 26.5394L64.6192 22.7975C64.7664 22.2627 65.0804 21.7889 65.5156 21.445C66.7281 20.4867 68.5035 20.7885 69.3312 22.0937L69.5965 22.5121C69.7303 22.7231 69.8896 22.9169 70.0706 23.0891L79.2957 31.8625L85.0347 37.9624C86.8164 39.8562 87.8223 42.3498 87.8534 44.9498C87.8918 48.1672 86.4357 51.2205 83.9112 53.2157L83.5855 53.4732C82.5626 54.2816 81.6884 55.2621 81.0021 56.3707L80.5353 57.1249C78.3848 60.5988 77.6196 64.7544 78.3918 68.7664L79.0217 72.0388C79.5516 74.7921 79.4967 77.6262 78.8605 80.3569L78.6151 81.4101C77.8667 84.6227 76.3353 87.6002 74.1573 90.0775L71.1713 93.474C70.4997 94.2379 69.7532 94.9325 68.943 95.5474L63.82 99.4354C63.1881 99.915 62.3658 100.065 61.605 99.8407C60.5553 99.5306 59.8304 98.5725 59.8173 97.478L59.7979 95.8529C59.7892 95.1254 59.6116 94.4098 59.2791 93.7626L58.5651 92.373C57.3894 90.0847 55.4698 88.2646 53.1222 87.2123L49.7928 85.7199L48.1438 84.7296C45.5786 83.1891 44.331 80.1457 45.0769 77.248C45.183 76.8357 45.3278 76.4343 45.5094 76.0493L46.4524 74.05C48.4683 69.7754 48.9054 64.925 47.6861 60.3589L47.505 59.6807L45.8952 53.993C45.2649 51.766 45.3605 49.396 46.168 47.2269C46.9187 45.2106 48.2498 43.4617 49.9933 42.201L54.7725 38.7453C56.649 37.3885 58.2756 35.7161 59.5798 33.8027L61.5975 30.8425C62.4938 29.5276 63.1667 28.0737 63.5891 26.5394Z" fill="#F7C7D9" fill-opacity="0.68"/>
<path d="M65.8621 31.5469L66.8008 28.6538C66.8655 28.4543 66.9653 28.2679 67.0954 28.1034C67.7623 27.2602 69.0215 27.2035 69.7614 27.9834L73.2267 31.6359C73.9724 32.4219 74.4964 33.3915 74.7454 34.4459L76.1381 40.3428C77.0038 44.0086 76.4021 47.8677 74.4614 51.0959C73.8969 52.0351 73.4411 53.0354 73.1029 54.0777L73.0784 54.1532C71.8901 57.8156 72.1431 61.7933 73.7859 65.2757L74.237 66.232C75.9033 69.7643 76.3613 73.7466 75.5404 77.5649L75.4721 77.8826C75.1145 79.5459 74.5323 81.1528 73.7415 82.6591L69.8326 90.1047C69.3796 90.9675 68.6595 91.6606 67.78 92.0804C66.2065 92.8313 64.3413 92.6091 62.9883 91.5094L61.0114 89.9026C60.4812 89.4717 60.0045 88.9786 59.5917 88.4341L56.1895 83.9459C54.5382 81.7676 53.3562 79.2707 52.718 76.6128C51.9867 73.5671 51.989 70.3914 52.7246 67.3468L53.4891 64.1823L56.1704 57.1121C56.9221 55.1302 57.0848 52.9732 56.6391 50.9009C56.0681 48.2463 56.4996 45.4743 57.8504 43.1188L57.9368 42.9681C58.4149 42.1343 58.9962 41.3641 59.6668 40.6756L61.4708 38.8234C63.4736 36.7671 64.9762 34.2773 65.8621 31.5469Z" fill="#FC4D5C"/>
<path d="M63.5818 40.2818L67.668 35.5476C67.8593 35.326 68.1366 35.197 68.4294 35.1935C68.9938 35.1868 69.4568 35.6388 69.4635 36.2032L69.5443 42.9667C69.555 43.8662 69.4098 44.7607 69.1151 45.6107L67.1718 51.2143L67.066 51.6524C65.9228 56.3842 66.6011 61.3729 68.9662 65.6277L69.1271 65.9172C70.5853 68.5404 71.3676 71.4853 71.4034 74.4864L71.421 75.9634C71.4453 77.995 70.9635 80.0008 70.019 81.7997L67.3192 86.9423C66.8921 87.7557 66.0534 88.2695 65.1348 88.2805C64.5051 88.288 63.8957 88.0577 63.4285 87.6355L59.9721 84.513C58.4488 83.1368 57.2375 81.4506 56.4195 79.5676L56.3353 79.3738C54.8972 76.063 54.7182 72.3408 55.8323 68.9073C56.2663 67.5695 56.8888 66.3004 57.681 65.1382L58.0544 64.5903C60.455 61.0685 61.2312 56.6868 60.1865 52.5546L60.0973 52.202C59.8695 51.3009 59.7488 50.376 59.7377 49.4466C59.7061 46.7983 60.5649 44.2162 62.1765 42.1145L63.5818 40.2818Z" fill="#F7C7D9" fill-opacity="0.39"/>
<path d="M59.9589 69.9196L61.9986 73.2268L63.5223 69.9547C63.7849 69.3908 64.216 68.9224 64.7562 68.614L65.3718 68.2625C65.9892 67.91 66.7532 67.939 67.3419 68.3373C67.9663 68.7597 68.2751 69.5162 68.1247 70.2547L67.6035 72.8138C67.4947 73.348 67.3108 73.8641 67.0574 74.3467L65.4686 77.373C64.5329 79.1553 63.8716 81.0687 63.5072 83.0484L63.1288 85.1033L62.1242 83.7433L60.5756 81.5482C59.2715 79.6995 58.2904 77.6429 57.6743 75.4659L57.5733 75.1089L56.7767 72.2943C56.6243 71.7559 56.6588 71.1817 56.8747 70.6654L57.0925 70.1445C57.3412 69.5498 57.9196 69.1597 58.5642 69.152C59.1316 69.1453 59.661 69.4366 59.9589 69.9196Z" fill="#FC4D5C"/>
<path d="M63.6937 44.1805L64.1415 45.7628L66.794 43.6663C66.9692 43.5279 67.2067 43.4984 67.4104 43.5897C67.7538 43.7436 67.8718 44.1725 67.6555 44.4805L66.1289 46.6536L63.6911 49.4266L62.6677 44.9515C62.6547 44.8946 62.6478 44.8366 62.6471 44.7783L62.6418 44.3329C62.6372 43.9415 63.0399 43.6772 63.3971 43.8373C63.5419 43.9022 63.6505 44.0279 63.6937 44.1805Z" fill="#FC4D5C"/>
<path d="M8.85866 101.383L13.4061 91.1108L18.765 101.483L22.6256 108.745C24.088 111.812 24.887 115.17 24.9573 118.571C24.7912 123.068 21.4726 126.834 17.0298 127.567L14.7566 127.942C13.5227 128.146 12.2629 128.125 11.0382 127.88L9.62892 127.598C5.29308 126.73 2.3027 122.755 2.66673 118.344C2.71364 114.966 3.5053 111.608 4.98456 108.566L8.85866 101.383Z" fill="#FC4D5C"/>
</svg>
