<svg width="115" height="112" viewBox="0 0 115 112" fill="none" xmlns="http://www.w3.org/2000/svg">
<path d="M23.5213 20.0259L27.7933 6.29215C28.1079 5.28073 28.6768 4.36697 29.4456 3.63833C30.5768 2.56625 32.0707 1.9604 33.6291 1.94178L34.3576 1.93308C35.8501 1.91525 37.3182 2.31275 38.5977 3.08118L47.3277 8.32379C48.1661 8.82727 48.9664 9.39155 49.7223 10.0121L66.6767 23.9322C69.2178 26.0185 71.2053 28.6991 72.4634 31.7367L72.8545 32.6809C74.6513 37.0192 74.8644 41.8513 73.4564 46.3308L71.877 51.3561C71.2135 53.4671 70.2043 55.4533 68.8905 57.2338L63.9649 63.9093C61.804 66.838 60.4832 70.3008 60.1448 73.9246L59.4167 81.7233C59.0846 85.2802 57.8058 88.6833 55.7133 91.5788L50.0748 99.3808C48.2128 101.957 45.7634 104.053 42.9296 105.494L34.6396 109.709C33.2354 110.423 31.6857 110.804 30.1105 110.823L29.6442 110.828C25.9602 110.872 22.581 108.788 20.9666 105.477C20.372 104.257 19.5237 103.178 18.4784 102.313L15.5102 99.8556C14.5553 99.065 13.529 98.3649 12.4445 97.7644L6.59901 94.5276C3.22409 92.6588 1.11155 89.1227 1.06548 85.2651C1.03933 83.076 1.68321 80.9311 2.91077 79.1183L5.39601 75.4482C8.09373 70.5994 8.02308 64.6849 5.2103 59.9019L3.47635 56.2724C1.6914 52.5361 1.72511 48.1863 3.56776 44.4781C4.5041 42.5938 5.86907 40.9552 7.55316 39.6938L11.8289 36.4912C13.4655 35.2653 14.9045 33.7957 16.0956 32.1336L20.6806 25.7355C21.9268 23.9965 22.8859 22.0688 23.5213 20.0259Z" fill="#F7C7D9"/>
<path d="M29.9274 20.7301L33.2373 12.6348C33.2838 12.521 33.3403 12.4114 33.4059 12.3074C34.1104 11.192 35.6555 10.992 36.6208 11.8913L50.7547 25.0599L62.9256 36.0553C64.7676 37.7194 66.114 39.8602 66.816 42.2412C68.0776 46.52 67.1392 51.1457 64.31 54.5946L58.6036 61.5507L56.4813 64.5719C54.1379 67.9079 53.4442 72.1306 54.5972 76.0409C55.4185 78.8264 55.3107 81.8036 54.2902 84.5224L53.1723 87.5008C52.1061 90.3412 50.4078 92.9017 48.2058 94.9887L42.8413 100.073C41.488 101.356 39.9621 102.443 38.3078 103.303L31.3112 106.94C30.4748 107.374 29.4923 107.43 28.612 107.093C27.3497 106.61 26.5102 105.405 26.4941 104.054L26.485 103.294C26.4763 102.561 26.2852 101.842 25.9292 101.202L24.4515 98.5432L23.5403 97.3099C22.1493 95.4269 20.4384 93.8028 18.4857 92.5114L15.4998 90.5369C14.4816 89.8636 13.5594 89.0555 12.7583 88.1346L11.3968 86.5694C9.5384 84.4329 8.7625 81.5622 9.29165 78.7804L9.37598 78.3371C9.68328 76.7216 10.4909 75.2436 11.6844 74.1124L12.0969 73.7215C14.2634 71.6682 14.8985 68.4713 13.6815 65.7458L11.422 61.4311C10.2477 59.1887 9.61986 56.7006 9.58963 54.1695C9.54521 50.4506 10.7924 46.8315 13.1184 43.9294L18.7728 36.8746L27.5083 25.0357C28.4894 23.706 29.302 22.2597 29.9274 20.7301Z" fill="#FC4D5C"/>
<path d="M33.664 27.9848L34.6941 24.2429C34.8413 23.7081 35.1554 23.2343 35.5905 22.8904C36.803 21.9321 38.5785 22.2339 39.4061 23.5391L39.6714 23.9575C39.8053 24.1685 39.9645 24.3623 40.1456 24.5345L49.3706 33.3079L55.1096 39.4078C56.8914 41.3015 57.8973 43.7951 57.9284 46.3951C57.9668 49.6126 56.5106 52.6659 53.9862 54.6611L53.6605 54.9185C52.6376 55.727 51.7634 56.7075 51.0771 57.8161L50.6102 58.5703C48.4597 62.0442 47.6946 66.1998 48.4668 70.2118L49.0966 73.4842C49.6266 76.2375 49.5717 79.0715 48.9355 81.8023L48.6901 82.8555C47.9416 86.068 46.4102 89.0456 44.2323 91.5229L41.2462 94.9194C40.5746 95.6833 39.8282 96.3778 39.018 96.9927L33.8949 100.881C33.263 101.36 32.4407 101.511 31.68 101.286C30.6303 100.976 29.9053 100.018 29.8922 98.9234L29.8728 97.2983C29.8641 96.5707 29.6865 95.8552 29.354 95.208L28.6401 93.8184C27.4644 91.53 25.5448 89.71 23.1971 88.6576L19.8678 87.1652L18.2187 86.1749C15.6535 84.6345 14.406 81.5911 15.1519 78.6934C15.258 78.2811 15.4028 77.8797 15.5844 77.4947L16.5273 75.4953C18.5433 71.2208 18.9804 66.3704 17.7611 61.8043L17.5799 61.1261L15.9702 55.4384C15.3399 53.2113 15.4354 50.8414 16.2429 48.6723C16.9936 46.6559 18.3247 44.9071 20.0683 43.6464L24.8475 40.1907C26.7239 38.8339 28.3505 37.1615 29.6548 35.2481L31.6725 32.2879C32.5688 30.973 33.2417 29.5191 33.664 27.9848Z" fill="#F7C7D9" fill-opacity="0.68"/>
<path d="M35.9371 32.9923L36.8757 30.0992C36.9405 29.8997 37.0403 29.7133 37.1704 29.5488C37.8372 28.7056 39.0965 28.649 39.8364 29.4288L43.3016 33.0814C44.0473 33.8674 44.5714 34.8369 44.8204 35.8914L46.213 41.7882C47.0787 45.454 46.477 49.3131 44.5364 52.5414C43.9718 53.4805 43.516 54.4809 43.1779 55.5231L43.1534 55.5986C41.9651 59.261 42.2181 63.2388 43.8608 66.7211L44.312 67.6775C45.9782 71.2097 46.4362 75.192 45.6154 79.0103L45.5471 79.3281C45.1895 80.9914 44.6073 82.5982 43.8165 84.1046L39.9075 91.5501C39.4545 92.413 38.7345 93.1061 37.855 93.5258C36.2815 94.2768 34.4162 94.0545 33.0632 92.9548L31.0864 91.3481C30.5561 90.9171 30.0795 90.424 29.6667 89.8795L26.2645 85.3914C24.6132 83.213 23.4312 80.7162 22.793 78.0582C22.0617 75.0126 22.0639 71.8368 22.7995 68.7922L23.564 65.6277L26.2454 58.5575C26.997 56.5756 27.1598 54.4186 26.714 52.3464C26.1431 49.6917 26.5745 46.9197 27.9253 44.5642L28.0117 44.4136C28.4899 43.5798 29.0711 42.8095 29.7418 42.121L31.5458 40.2688C33.5486 38.2125 35.0512 35.7227 35.9371 32.9923Z" fill="#FC4D5C"/>
<path d="M33.6568 41.7272L37.7429 36.993C37.9343 36.7713 38.2115 36.6424 38.5044 36.6389C39.0687 36.6321 39.5317 37.0842 39.5385 37.6486L39.6192 44.412C39.63 45.3115 39.4848 46.2061 39.19 47.056L37.2468 52.6596L37.1409 53.0978C35.9977 57.8296 36.676 62.8183 39.0411 67.0731L39.2021 67.3626C40.6602 69.9858 41.4425 72.9307 41.4784 75.9318L41.496 77.4087C41.5203 79.4404 41.0384 81.4461 40.094 83.2451L37.3941 88.3877C36.9671 89.2011 36.1284 89.7149 35.2097 89.7259C34.5801 89.7334 33.9707 89.5031 33.5034 89.0809L30.0471 85.9584C28.5237 84.5822 27.3124 82.8959 26.4945 81.013L26.4103 80.8192C24.9721 77.5084 24.7932 73.7861 25.9072 70.3526C26.3413 69.0149 26.9638 67.7458 27.7559 66.5836L28.1294 66.0357C30.5299 62.5139 31.3061 58.1321 30.2614 54L30.1723 53.6474C29.9445 52.7462 29.8238 51.8214 29.8127 50.8919C29.781 48.2437 30.6399 45.6615 32.2515 43.5598L33.6568 41.7272Z" fill="#F7C7D9" fill-opacity="0.39"/>
<path d="M30.0339 71.3651L32.0735 74.6722L33.5973 71.4001C33.8599 70.8363 34.291 70.3678 34.8312 70.0594L35.4468 69.7079C36.0641 69.3554 36.8281 69.3845 37.4169 69.7828C38.0412 70.2051 38.35 70.9616 38.1996 71.7002L37.6784 74.2592C37.5696 74.7934 37.3858 75.3095 37.1324 75.7922L35.5436 78.8184C34.6079 80.6008 33.9466 82.5141 33.5821 84.4939L33.2038 86.5487L32.1991 85.1888L30.6506 82.9936C29.3464 81.1449 28.3654 79.0883 27.7493 76.9114L27.6482 76.5543L26.8516 73.7398C26.6992 73.2013 26.7338 72.6271 26.9497 72.1108L27.1675 71.5899C27.4162 70.9952 27.9945 70.6052 28.6391 70.5975C29.2066 70.5907 29.736 70.8821 30.0339 71.3651Z" fill="#FC4D5C"/>
<path d="M33.7686 45.6259L34.2165 47.2082L36.869 45.1118C37.0441 44.9734 37.2817 44.9438 37.4853 45.0351C37.8288 45.1891 37.9468 45.6179 37.7304 45.9259L36.2039 48.0991L33.766 50.872L32.7427 46.3969C32.7297 46.3401 32.7228 46.282 32.7221 46.2237L32.7168 45.7783C32.7121 45.3869 33.1149 45.1226 33.4721 45.2828C33.6169 45.3476 33.7254 45.4733 33.7686 45.6259Z" fill="#FC4D5C"/>
<path d="M96.8587 12.3825L101.406 2.11079L106.765 12.4833L110.626 19.7452C112.088 22.8117 112.887 26.1698 112.957 29.571C112.791 34.0683 109.473 37.8344 105.03 38.5674L102.757 38.9424C101.523 39.146 100.263 39.1247 99.0382 38.8796L97.6289 38.5975C93.2931 37.7297 90.3027 33.7552 90.6667 29.3442C90.7136 25.9661 91.5053 22.6084 92.9846 19.5657L96.8587 12.3825Z" fill="#FC4D5C"/>
</svg>
