<svg width="44" height="86" viewBox="0 0 44 86" fill="none" xmlns="http://www.w3.org/2000/svg">
<g clip-path="url(#clip0_159_38)">
<mask id="mask0_159_38" style="mask-type:luminance" maskUnits="userSpaceOnUse" x="0" y="1" width="43" height="85">
<path d="M42.606 75.0395L40.7463 10.0861C40.6 4.97407 36.3372 0.948577 31.2251 1.09494L9.49402 1.71713C4.38196 1.86349 0.356464 6.12629 0.502828 11.2384L2.36252 76.1917C2.50889 81.3038 6.77169 85.3293 11.8838 85.1829L33.6148 84.5607C38.7269 84.4144 42.7524 80.1516 42.606 75.0395Z" fill="white"/>
</mask>
<g mask="url(#mask0_159_38)">
<path d="M40.99 18.5L39.6 8.42001C39.49 7.64001 39.29 6.87001 39.01 6.13001L38.57 5.00001C38.23 4.11001 37.61 3.36001 36.8 2.86001L36.57 2.71001C35.82 2.25001 34.95 2.03001 34.07 2.10001L30.1 2.40001L28.58 2.74001C27.14 3.07001 25.65 3.15001 24.18 2.99001L21.39 2.69001L11.23 1.23001L40.47 0.390015L40.99 18.5Z" fill="#F7C7D9" stroke="#F7C7D9" stroke-miterlimit="10"/>
<path d="M35.34 84.51L29.21 83.35C28.39 83.19 27.56 83.15 26.73 83.21L22.71 83.51L18.61 83.71C17.06 83.78 15.51 83.71 13.97 83.5L12.45 83.29C11.13 83.11 9.79998 83.11 8.47998 83.29C7.08998 83.49 5.70998 82.93 4.84998 81.82C4.16998 80.93 3.74998 79.87 3.64998 78.76L2.85998 69.77C2.82998 69.44 2.75998 69.12 2.65998 68.8L2.09998 67.16L2.61998 85.45L35.33 84.51" fill="#F7C7D9"/>
<path d="M35.34 84.51L29.21 83.35C28.39 83.19 27.56 83.15 26.73 83.21L22.71 83.51L18.61 83.71C17.06 83.78 15.51 83.71 13.97 83.5L12.45 83.29C11.13 83.11 9.79998 83.11 8.47998 83.29C7.08998 83.49 5.70998 82.93 4.84998 81.82C4.16998 80.93 3.74998 79.87 3.64998 78.76L2.85998 69.77C2.82998 69.44 2.75998 69.12 2.65998 68.8L2.09998 67.16L2.61998 85.45L35.33 84.51" stroke="#F7C7D9" stroke-miterlimit="10"/>
</g>
<path d="M42.606 75.0395L40.7463 10.0861C40.6 4.97407 36.3372 0.948577 31.2251 1.09494L9.49402 1.71713C4.38196 1.86349 0.356464 6.12629 0.502828 11.2384L2.36252 76.1917C2.50889 81.3038 6.77169 85.3293 11.8838 85.1829L33.6148 84.5607C38.7269 84.4144 42.7524 80.1516 42.606 75.0395Z" stroke="#F7C7D9" stroke-miterlimit="10"/>
<mask id="mask1_159_38" style="mask-type:luminance" maskUnits="userSpaceOnUse" x="30" y="7" width="6" height="6">
<path d="M35.4159 10.0236C35.6095 8.56732 34.5858 7.22989 33.1295 7.03635C31.6733 6.84282 30.3358 7.86647 30.1423 9.32275C29.9488 10.779 30.9724 12.1165 32.4287 12.31C33.885 12.5035 35.2224 11.4799 35.4159 10.0236Z" fill="white"/>
</mask>
<g mask="url(#mask1_159_38)">
<path d="M34.62 9.37001C34.73 9.53001 34.79 9.72001 34.8 9.91001L34.97 12.22L35.46 6.26001L30.74 6.45001L30.09 9.16001L30.86 8.35001C31.23 7.96001 31.71 7.69001 32.24 7.56001C32.66 7.46001 33.04 7.47001 33.41 7.69001L34.09 8.33001C34.05 8.57001 34.42 9.08001 34.62 9.36001V9.37001Z" fill="#F7C7D9" stroke="#F7C7D9" stroke-miterlimit="10"/>
</g>
<path d="M35.4159 10.0236C35.6095 8.56735 34.5858 7.22992 33.1295 7.03638C31.6733 6.84285 30.3358 7.86651 30.1423 9.32278C29.9488 10.7791 30.9724 12.1165 32.4287 12.31C33.885 12.5035 35.2224 11.4799 35.4159 10.0236Z" stroke="#F7C7D9" stroke-miterlimit="10"/>
<mask id="mask2_159_38" style="mask-type:luminance" maskUnits="userSpaceOnUse" x="30" y="16" width="6" height="6">
<path d="M33.2299 21.37C34.699 21.37 35.8899 20.1791 35.8899 18.71C35.8899 17.2409 34.699 16.05 33.2299 16.05C31.7609 16.05 30.5699 17.2409 30.5699 18.71C30.5699 20.1791 31.7609 21.37 33.2299 21.37Z" fill="white"/>
</mask>
<g mask="url(#mask2_159_38)">
<path d="M32.5 21.53L33.92 21.05C34.17 20.97 34.36 20.77 34.45 20.52C34.57 20.21 34.8 19.95 35.1 19.79C35.49 19.58 35.73 19.17 35.72 18.72V18.61C35.71 18.3 35.58 18.01 35.35 17.79L35.02 17.48L34.85 17.32C34.52 17.01 34.09 16.85 33.64 16.86C33.24 16.87 32.84 16.76 32.49 16.55L31 15.62L36.94 15.45L37.11 21.39L34.31 21.34" fill="#F7C7D9"/>
<path d="M32.5 21.53L33.92 21.05C34.17 20.97 34.36 20.77 34.45 20.52C34.57 20.21 34.8 19.95 35.1 19.79C35.49 19.58 35.73 19.17 35.72 18.72V18.61C35.71 18.3 35.58 18.01 35.35 17.79L35.02 17.48L34.85 17.32C34.52 17.01 34.09 16.85 33.64 16.86C33.24 16.87 32.84 16.76 32.49 16.55L31 15.62L36.94 15.45L37.11 21.39L34.31 21.34" stroke="#F7C7D9" stroke-miterlimit="10"/>
</g>
<path d="M33.2299 21.37C34.699 21.37 35.8899 20.1791 35.8899 18.71C35.8899 17.2409 34.699 16.05 33.2299 16.05C31.7609 16.05 30.5699 17.2409 30.5699 18.71C30.5699 20.1791 31.7609 21.37 33.2299 21.37Z" stroke="#F7C7D9" stroke-miterlimit="10"/>
<path d="M37.51 12.14L37.59 14.82L38.55 14.79L38.12 15.54L37.62 16.43L37.06 15.56L36.6 14.85L37.59 14.82L37.5 12.14H37.51Z" fill="#F7C7D9" stroke="#F7C7D9" stroke-width="0.75" stroke-miterlimit="10"/>
<path d="M37.6999 20.46L37.7799 23.14L38.7399 23.11L38.3199 23.85L37.8099 24.75L37.2499 23.88L36.7899 23.17L37.7799 23.14L37.6899 20.46H37.6999Z" fill="#F7C7D9" stroke="#F7C7D9" stroke-width="0.75" stroke-miterlimit="10"/>
<path d="M37.9499 29.03L38.0199 31.72L38.9799 31.69L38.5599 32.43L38.0599 33.32L37.4899 32.45L37.0299 31.74L38.0199 31.72L37.9399 29.04L37.9499 29.03Z" fill="#F7C7D9" stroke="#F7C7D9" stroke-width="0.75" stroke-miterlimit="10"/>
<path d="M38.28 37.15L38.36 39.83L39.32 39.8L38.9 40.54L38.39 41.44L37.83 40.57L37.37 39.86L38.36 39.83L38.27 37.15H38.28Z" fill="#F7C7D9" stroke="#F7C7D9" stroke-width="0.75" stroke-miterlimit="10"/>
<path d="M38.28 45.33L38.36 48.01L39.32 47.98L38.9 48.73L38.39 49.62L37.83 48.75L37.37 48.04L38.36 48.01L38.27 45.33H38.28Z" fill="#F7C7D9" stroke="#F7C7D9" stroke-width="0.75" stroke-miterlimit="10"/>
<path d="M38.8299 53.25L38.9099 55.93L39.8699 55.91L39.4499 56.65L38.9399 57.54L38.3799 56.67L37.9199 55.96L38.9099 55.93L38.8199 53.25H38.8299Z" fill="#F7C7D9" stroke="#F7C7D9" stroke-width="0.75" stroke-miterlimit="10"/>
<path d="M38.8299 61.81L38.9099 64.49L39.8699 64.46L39.4499 65.21L38.9399 66.1L38.3799 65.23L37.9199 64.52L38.9099 64.49L38.8299 61.81Z" fill="#F7C7D9" stroke="#F7C7D9" stroke-width="0.75" stroke-miterlimit="10"/>
<path d="M39.03 70.13L39.1 72.81L40.06 72.78L39.64 73.52L39.13 74.42L38.57 73.55L38.11 72.84L39.1 72.81L39.02 70.13H39.03Z" fill="#F7C7D9" stroke="#F7C7D9" stroke-width="0.75" stroke-miterlimit="10"/>
<path d="M30.19 78.65L28.1 76.98L27.5 77.73L27.21 76.93L26.85 75.96L27.88 76.1L28.72 76.2L28.1 76.98L30.2 78.65H30.19Z" fill="#F7C7D9" stroke="#F7C7D9" stroke-width="0.75" stroke-miterlimit="10"/>
<path d="M24.6799 75.45L21.9999 75.52L22.0299 76.48L21.2799 76.06L20.3899 75.55L21.2599 74.99L21.9699 74.53L21.9999 75.52L24.6799 75.44V75.45Z" fill="#F7C7D9" stroke="#F7C7D9" stroke-width="0.75" stroke-miterlimit="10"/>
<path d="M17.8299 76.49L15.6899 78.11L16.2699 78.87L15.4199 78.96L14.3999 79.06L14.7799 78.1L15.0999 77.32L15.6899 78.11L17.8299 76.49Z" fill="#F7C7D9" stroke="#F7C7D9" stroke-width="0.75" stroke-miterlimit="10"/>
<path d="M5.98992 76.11L5.90992 73.41L6.86992 73.38L6.40992 72.66L5.84992 71.79L5.33992 72.7L4.91992 73.44L5.90992 73.41L5.97992 76.11H5.98992Z" fill="#F7C7D9" stroke="#F7C7D9" stroke-width="0.75" stroke-miterlimit="10"/>
<path d="M5.7 67.74L5.62 65.04L6.58 65.01L6.12 64.29L5.56 63.42L5.05 64.33L4.63 65.07L5.62 65.04L5.69 67.74H5.7Z" fill="#F7C7D9" stroke="#F7C7D9" stroke-width="0.75" stroke-miterlimit="10"/>
<path d="M5.45 59.1L5.37 56.41L6.33 56.38L5.87 55.66L5.31 54.79L4.8 55.7L4.38 56.43L5.37 56.41L5.44 59.1H5.45Z" fill="#F7C7D9" stroke="#F7C7D9" stroke-width="0.75" stroke-miterlimit="10"/>
<path d="M5.32 50.93L5.24 48.24L6.2 48.21L5.74 47.49L5.18 46.62L4.67 47.52L4.25 48.26L5.24 48.24L5.31 50.93H5.32Z" fill="#F7C7D9" stroke="#F7C7D9" stroke-width="0.75" stroke-miterlimit="10"/>
<path d="M4.84991 42.71L4.76991 40.01L5.72991 39.98L5.26991 39.26L4.70991 38.39L4.19991 39.3L3.77991 40.04L4.76991 40.01L4.83991 42.71H4.84991Z" fill="#F7C7D9" stroke="#F7C7D9" stroke-width="0.75" stroke-miterlimit="10"/>
<path d="M4.94 34.72L4.86 32.02L5.82 31.99L5.36 31.27L4.8 30.4L4.29 31.31L3.87 32.05L4.86 32.02L4.93 34.72H4.94Z" fill="#F7C7D9" stroke="#F7C7D9" stroke-width="0.75" stroke-miterlimit="10"/>
<path d="M4.45 26.12L4.37 23.42L5.33 23.39L4.87 22.67L4.31 21.8L3.8 22.71L3.38 23.45L4.37 23.42L4.44 26.12H4.45Z" fill="#F7C7D9" stroke="#F7C7D9" stroke-width="0.75" stroke-miterlimit="10"/>
<path d="M4.15998 17.75L4.08998 15.05L5.04998 15.02L4.57998 14.3L4.02998 13.43L3.50998 14.34L3.09998 15.08L4.08998 15.05L4.15998 17.75Z" fill="#F7C7D9" stroke="#F7C7D9" stroke-width="0.75" stroke-miterlimit="10"/>
<path d="M12.63 7.81L14.83 9.34L15.38 8.55L15.73 9.33L16.14 10.27L15.11 10.21L14.26 10.15L14.83 9.34L12.62 7.82L12.63 7.81Z" fill="#F7C7D9" stroke="#F7C7D9" stroke-width="0.75" stroke-miterlimit="10"/>
<path d="M18.7799 11.23L21.4599 11.15L21.4299 10.19L22.1699 10.62L23.0699 11.12L22.1999 11.69L21.4899 12.14L21.4599 11.15L18.7799 11.24V11.23Z" fill="#F7C7D9" stroke="#F7C7D9" stroke-width="0.75" stroke-miterlimit="10"/>
<path d="M25.8999 10.48L27.8399 8.63001L27.1799 7.94001L28.0099 7.76001L29.0199 7.54001L28.7499 8.54001L28.5299 9.35001L27.8399 8.63001L25.9099 10.49L25.8999 10.48Z" fill="#F7C7D9" stroke="#F7C7D9" stroke-width="0.75" stroke-miterlimit="10"/>
<mask id="mask3_159_38" style="mask-type:luminance" maskUnits="userSpaceOnUse" x="31" y="24" width="6" height="6">
<path d="M33.6999 29.71C35.169 29.71 36.3599 28.5191 36.3599 27.05C36.3599 25.5809 35.169 24.39 33.6999 24.39C32.2308 24.39 31.0399 25.5809 31.0399 27.05C31.0399 28.5191 32.2308 29.71 33.6999 29.71Z" fill="white"/>
</mask>
<g mask="url(#mask3_159_38)">
<path d="M30.7799 26.94L31.5599 28.23C31.6999 28.45 31.9299 28.59 32.1899 28.64C32.5199 28.69 32.8199 28.86 33.0399 29.11C33.3299 29.45 33.7799 29.59 34.2099 29.48L34.3199 29.45C34.6199 29.37 34.8799 29.18 35.0399 28.92L35.2699 28.53L35.3899 28.33C35.6199 27.94 35.6899 27.48 35.5799 27.05C35.4799 26.66 35.4999 26.25 35.6299 25.86L36.2199 24.2L37.6799 29.96L31.9199 31.42L31.3599 28.68" fill="#F7C7D9"/>
<path d="M30.7799 26.94L31.5599 28.23C31.6999 28.45 31.9299 28.59 32.1899 28.64C32.5199 28.69 32.8199 28.86 33.0399 29.11C33.3299 29.45 33.7799 29.59 34.2099 29.48L34.3199 29.45C34.6199 29.37 34.8799 29.18 35.0399 28.92L35.2699 28.53L35.3899 28.33C35.6199 27.94 35.6899 27.48 35.5799 27.05C35.4799 26.66 35.4999 26.25 35.6299 25.86L36.2199 24.2L37.6799 29.96L31.9199 31.42L31.3599 28.68" stroke="#F7C7D9" stroke-miterlimit="10"/>
</g>
<path d="M33.6999 29.71C35.169 29.71 36.3599 28.5191 36.3599 27.05C36.3599 25.5809 35.169 24.39 33.6999 24.39C32.2308 24.39 31.0399 25.5809 31.0399 27.05C31.0399 28.5191 32.2308 29.71 33.6999 29.71Z" stroke="#F7C7D9" stroke-miterlimit="10"/>
<mask id="mask4_159_38" style="mask-type:luminance" maskUnits="userSpaceOnUse" x="31" y="32" width="6" height="6">
<path d="M36.3493 35.3248C36.5428 33.8685 35.5192 32.531 34.0629 32.3375C32.6066 32.144 31.2692 33.1676 31.0756 34.6239C30.8821 36.0802 31.9058 37.4176 33.362 37.6111C34.8183 37.8047 36.1557 36.781 36.3493 35.3248Z" fill="white"/>
</mask>
<g mask="url(#mask4_159_38)">
<path d="M35.57 34.67C35.68 34.83 35.74 35.02 35.75 35.21L35.92 37.52L36.41 31.56L31.69 31.75L31.04 34.46L31.81 33.65C32.18 33.26 32.66 32.99 33.19 32.86C33.61 32.76 33.99 32.77 34.36 32.99L35.04 33.63C35 33.87 35.37 34.38 35.57 34.66V34.67Z" fill="#F7C7D9" stroke="#F7C7D9" stroke-miterlimit="10"/>
</g>
<path d="M36.3493 35.3248C36.5428 33.8685 35.5192 32.5311 34.0629 32.3375C32.6066 32.144 31.2692 33.1676 31.0756 34.6239C30.8821 36.0802 31.9058 37.4176 33.362 37.6112C34.8183 37.8047 36.1557 36.781 36.3493 35.3248Z" stroke="#F7C7D9" stroke-miterlimit="10"/>
<mask id="mask5_159_38" style="mask-type:luminance" maskUnits="userSpaceOnUse" x="31" y="40" width="6" height="6">
<path d="M36.5805 43.2401C36.774 41.7839 35.7504 40.4464 34.2941 40.2529C32.8378 40.0594 31.5004 41.083 31.3068 42.5393C31.1133 43.9956 32.137 45.333 33.5932 45.5265C35.0495 45.7201 36.3869 44.6964 36.5805 43.2401Z" fill="white"/>
</mask>
<g mask="url(#mask5_159_38)">
<path d="M35.7899 42.58C35.8999 42.74 35.9599 42.93 35.9699 43.12L36.1399 45.43L36.6299 39.47L31.9099 39.66L31.2599 42.37L32.0299 41.56C32.3999 41.17 32.8799 40.9 33.4099 40.77C33.8299 40.67 34.2099 40.68 34.5799 40.9L35.2599 41.54C35.2199 41.78 35.5899 42.29 35.7899 42.57V42.58Z" fill="#F7C7D9" stroke="#F7C7D9" stroke-miterlimit="10"/>
</g>
<path d="M36.5805 43.2401C36.774 41.7839 35.7504 40.4464 34.2941 40.2529C32.8378 40.0594 31.5004 41.083 31.3068 42.5393C31.1133 43.9956 32.137 45.333 33.5932 45.5265C35.0495 45.7201 36.3869 44.6964 36.5805 43.2401Z" stroke="#F7C7D9" stroke-miterlimit="10"/>
<mask id="mask6_159_38" style="mask-type:luminance" maskUnits="userSpaceOnUse" x="31" y="48" width="6" height="6">
<path d="M36.7502 51.5903C36.9437 50.134 35.92 48.7966 34.4638 48.6031C33.0075 48.4095 31.6701 49.4332 31.4765 50.8895C31.283 52.3457 32.3066 53.6832 33.7629 53.8767C35.2192 54.0702 36.5566 53.0466 36.7502 51.5903Z" fill="white"/>
</mask>
<g mask="url(#mask6_159_38)">
<path d="M35.9599 50.93C36.0699 51.09 36.1299 51.28 36.1399 51.47L36.3099 53.78L36.7999 47.82L32.0799 48.01L31.4299 50.72L32.1999 49.91C32.5699 49.52 33.0499 49.25 33.5799 49.12C33.9999 49.02 34.3799 49.03 34.7499 49.25L35.4299 49.89C35.3899 50.13 35.7599 50.64 35.9599 50.92V50.93Z" fill="#F7C7D9" stroke="#F7C7D9" stroke-miterlimit="10"/>
</g>
<path d="M36.7502 51.5903C36.9437 50.134 35.92 48.7966 34.4638 48.6031C33.0075 48.4095 31.6701 49.4332 31.4765 50.8895C31.283 52.3457 32.3066 53.6832 33.7629 53.8767C35.2192 54.0702 36.5566 53.0466 36.7502 51.5903Z" stroke="#F7C7D9" stroke-miterlimit="10"/>
<mask id="mask7_159_38" style="mask-type:luminance" maskUnits="userSpaceOnUse" x="31" y="56" width="7" height="6">
<path d="M36.9801 59.5056C37.1737 58.0493 36.15 56.7119 34.6937 56.5183C33.2375 56.3248 31.9 57.3485 31.7065 58.8047C31.513 60.261 32.5366 61.5984 33.9929 61.792C35.4492 61.9855 36.7866 60.9618 36.9801 59.5056Z" fill="white"/>
</mask>
<g mask="url(#mask7_159_38)">
<path d="M36.1899 58.85C36.2999 59.01 36.3599 59.2 36.3699 59.39L36.5399 61.7L37.0299 55.74L32.3099 55.93L31.6599 58.64L32.4299 57.83C32.7999 57.44 33.2799 57.17 33.8099 57.04C34.2299 56.94 34.6099 56.95 34.9799 57.17L35.6599 57.81C35.6199 58.05 35.9899 58.56 36.1899 58.84V58.85Z" fill="#F7C7D9" stroke="#F7C7D9" stroke-miterlimit="10"/>
</g>
<path d="M36.9801 59.5056C37.1737 58.0493 36.15 56.7119 34.6937 56.5183C33.2375 56.3248 31.9 57.3485 31.7065 58.8047C31.513 60.261 32.5366 61.5984 33.9929 61.792C35.4492 61.9855 36.7866 60.9618 36.9801 59.5056Z" stroke="#F7C7D9" stroke-miterlimit="10"/>
<mask id="mask8_159_38" style="mask-type:luminance" maskUnits="userSpaceOnUse" x="31" y="64" width="7" height="6">
<path d="M37.1772 67.6369C37.4879 66.2011 36.5757 64.7852 35.1399 64.4745C33.7041 64.1638 32.2882 65.0759 31.9775 66.5118C31.6668 67.9476 32.5789 69.3635 34.0147 69.6742C35.4506 69.9849 36.8664 69.0728 37.1772 67.6369Z" fill="white"/>
</mask>
<g mask="url(#mask8_159_38)">
<path d="M34.73 68.94C34.56 69.04 34.37 69.09 34.18 69.08L31.87 69.06L37.77 70.03L37.96 65.31L35.32 64.45L36.06 65.29C36.42 65.69 36.65 66.19 36.73 66.73C36.8 67.16 36.76 67.54 36.5 67.89L35.81 68.51C35.58 68.45 35.03 68.77 34.74 68.95L34.73 68.94Z" fill="#F7C7D9" stroke="#F7C7D9" stroke-miterlimit="10"/>
</g>
<path d="M37.1772 67.6369C37.4879 66.2011 36.5757 64.7852 35.1399 64.4745C33.7041 64.1638 32.2882 65.0759 31.9775 66.5118C31.6668 67.9476 32.5789 69.3635 34.0147 69.6742C35.4506 69.9849 36.8664 69.0728 37.1772 67.6369Z" stroke="#F7C7D9" stroke-miterlimit="10"/>
<mask id="mask9_159_38" style="mask-type:luminance" maskUnits="userSpaceOnUse" x="31" y="73" width="7" height="6">
<path d="M37.2945 76.4726C37.488 75.0164 36.4643 73.6789 35.0081 73.4854C33.5518 73.2919 32.2144 74.3155 32.0208 75.7718C31.8273 77.2281 32.8509 78.5655 34.3072 78.759C35.7635 78.9526 37.1009 77.9289 37.2945 76.4726Z" fill="white"/>
</mask>
<g mask="url(#mask9_159_38)">
<path d="M36.5099 75.81C36.6199 75.97 36.6799 76.16 36.6899 76.35L36.8599 78.66L37.3499 72.7L32.6299 72.89L31.9799 75.6L32.7499 74.79C33.1199 74.4 33.5999 74.13 34.1299 74C34.5499 73.9 34.9299 73.91 35.2999 74.13L35.9799 74.77C35.9399 75.01 36.3099 75.52 36.5099 75.8V75.81Z" fill="#F7C7D9" stroke="#F7C7D9" stroke-miterlimit="10"/>
</g>
<path d="M37.2945 76.4726C37.488 75.0164 36.4643 73.6789 35.0081 73.4854C33.5518 73.2919 32.2144 74.3155 32.0208 75.7718C31.8273 77.2281 32.8509 78.5655 34.3072 78.759C35.7635 78.9526 37.1009 77.9289 37.2945 76.4726Z" stroke="#F7C7D9" stroke-miterlimit="10"/>
<mask id="mask10_159_38" style="mask-type:luminance" maskUnits="userSpaceOnUse" x="22" y="12" width="6" height="6">
<path d="M26.8168 17.0467C27.787 15.9435 27.6792 14.2627 26.5761 13.2926C25.4729 12.3224 23.7921 12.4302 22.822 13.5333C21.8518 14.6365 21.9596 16.3173 23.0628 17.2874C24.1659 18.2576 25.8467 18.1498 26.8168 17.0467Z" fill="white"/>
</mask>
<g mask="url(#mask10_159_38)">
<path d="M24.0599 17C23.8699 17 23.6799 16.95 23.5099 16.85L21.4999 15.71L26.1799 19.43L28.6399 15.4L26.7499 13.36L26.9899 14.45C27.1099 14.98 27.0699 15.53 26.8799 16.03C26.7299 16.44 26.5099 16.75 26.1199 16.93L25.2099 17.14C25.0399 16.98 24.3999 16.99 24.0599 17Z" fill="#F7C7D9" stroke="#F7C7D9" stroke-miterlimit="10"/>
</g>
<path d="M26.8168 17.0467C27.787 15.9435 27.6792 14.2628 26.5761 13.2926C25.4729 12.3224 23.7921 12.4302 22.822 13.5334C21.8518 14.6365 21.9596 16.3173 23.0628 17.2875C24.1659 18.2576 25.8467 18.1498 26.8168 17.0467Z" stroke="#F7C7D9" stroke-miterlimit="10"/>
<mask id="mask11_159_38" style="mask-type:luminance" maskUnits="userSpaceOnUse" x="5" y="7" width="7" height="7">
<path d="M11.0392 10.7448C11.2327 9.28848 10.2091 7.95104 8.75282 7.75751C7.29655 7.56398 5.95911 8.58763 5.76558 10.0439C5.57205 11.5002 6.5957 12.8376 8.05198 13.0311C9.50825 13.2247 10.8457 12.201 11.0392 10.7448Z" fill="white"/>
</mask>
<g mask="url(#mask11_159_38)">
<path d="M10.2599 10.08C10.3699 10.24 10.4299 10.43 10.4399 10.62L10.6099 12.93L11.0999 6.97003L6.37986 7.16003L5.72986 9.87003L6.49986 9.06003C6.86986 8.67003 7.34986 8.40003 7.87986 8.27003C8.29986 8.17003 8.67986 8.18003 9.04986 8.40003L9.72986 9.04003C9.68986 9.28003 10.0599 9.79003 10.2599 10.07V10.08Z" fill="#F7C7D9" stroke="#F7C7D9" stroke-miterlimit="10"/>
</g>
<path d="M11.0392 10.7448C11.2327 9.28848 10.2091 7.95104 8.75282 7.75751C7.29655 7.56398 5.95911 8.58763 5.76558 10.0439C5.57205 11.5002 6.5957 12.8376 8.05198 13.0311C9.50825 13.2247 10.8457 12.201 11.0392 10.7448Z" stroke="#F7C7D9" stroke-miterlimit="10"/>
<mask id="mask12_159_38" style="mask-type:luminance" maskUnits="userSpaceOnUse" x="6" y="16" width="6" height="7">
<path d="M8.86996 22.08C10.339 22.08 11.53 20.8891 11.53 19.42C11.53 17.9509 10.339 16.76 8.86996 16.76C7.40088 16.76 6.20996 17.9509 6.20996 19.42C6.20996 20.8891 7.40088 22.08 8.86996 22.08Z" fill="white"/>
</mask>
<g mask="url(#mask12_159_38)">
<path d="M8.13 22.24L9.55 21.76C9.8 21.68 9.99 21.48 10.08 21.23C10.2 20.92 10.43 20.66 10.73 20.5C11.12 20.29 11.36 19.88 11.35 19.43V19.32C11.34 19.01 11.21 18.72 10.98 18.5L10.65 18.19L10.48 18.03C10.15 17.72 9.72001 17.56 9.27001 17.57C8.87001 17.58 8.47 17.47 8.12 17.26L6.63 16.33L12.57 16.16L12.74 22.1L9.94 22.05" fill="#F7C7D9"/>
<path d="M8.13 22.24L9.55 21.76C9.8 21.68 9.99 21.48 10.08 21.23C10.2 20.92 10.43 20.66 10.73 20.5C11.12 20.29 11.36 19.88 11.35 19.43V19.32C11.34 19.01 11.21 18.72 10.98 18.5L10.65 18.19L10.48 18.03C10.15 17.72 9.72001 17.56 9.27001 17.57C8.87001 17.58 8.47 17.47 8.12 17.26L6.63 16.33L12.57 16.16L12.74 22.1L9.94 22.05" stroke="#F7C7D9" stroke-miterlimit="10"/>
</g>
<path d="M8.86996 22.08C10.339 22.08 11.53 20.8891 11.53 19.42C11.53 17.9509 10.339 16.76 8.86996 16.76C7.40088 16.76 6.20996 17.9509 6.20996 19.42C6.20996 20.8891 7.40088 22.08 8.86996 22.08Z" stroke="#F7C7D9" stroke-miterlimit="10"/>
<mask id="mask13_159_38" style="mask-type:luminance" maskUnits="userSpaceOnUse" x="6" y="24" width="6" height="6">
<path d="M9.3099 29.76C10.779 29.76 11.9699 28.5691 11.9699 27.1C11.9699 25.6309 10.779 24.44 9.3099 24.44C7.84083 24.44 6.6499 25.6309 6.6499 27.1C6.6499 28.5691 7.84083 29.76 9.3099 29.76Z" fill="white"/>
</mask>
<g mask="url(#mask13_159_38)">
<path d="M6.3999 26.99L7.1799 28.28C7.3199 28.5 7.5499 28.64 7.8099 28.69C8.1399 28.74 8.4399 28.91 8.6599 29.16C8.9499 29.5 9.3999 29.64 9.8299 29.53L9.9399 29.5C10.2399 29.42 10.4999 29.23 10.6599 28.97L10.8899 28.58L11.0099 28.38C11.2399 27.99 11.3099 27.53 11.1999 27.1C11.0999 26.71 11.1199 26.3 11.2499 25.91L11.8399 24.25L13.2999 30.01L7.5399 31.47L6.9799 28.73" fill="#F7C7D9"/>
<path d="M6.3999 26.99L7.1799 28.28C7.3199 28.5 7.5499 28.64 7.8099 28.69C8.1399 28.74 8.4399 28.91 8.6599 29.16C8.9499 29.5 9.3999 29.64 9.8299 29.53L9.9399 29.5C10.2399 29.42 10.4999 29.23 10.6599 28.97L10.8899 28.58L11.0099 28.38C11.2399 27.99 11.3099 27.53 11.1999 27.1C11.0999 26.71 11.1199 26.3 11.2499 25.91L11.8399 24.25L13.2999 30.01L7.5399 31.47L6.9799 28.73" stroke="#F7C7D9" stroke-miterlimit="10"/>
</g>
<path d="M9.3099 29.76C10.779 29.76 11.9699 28.5691 11.9699 27.1C11.9699 25.6309 10.779 24.44 9.3099 24.44C7.84083 24.44 6.6499 25.6309 6.6499 27.1C6.6499 28.5691 7.84083 29.76 9.3099 29.76Z" stroke="#F7C7D9" stroke-miterlimit="10"/>
<mask id="mask14_159_38" style="mask-type:luminance" maskUnits="userSpaceOnUse" x="6" y="33" width="7" height="6">
<path d="M11.9826 36.0459C12.1761 34.5896 11.1525 33.2522 9.69618 33.0586C8.23991 32.8651 6.90247 33.8888 6.70894 35.345C6.51541 36.8013 7.53906 38.1387 8.99534 38.3323C10.4516 38.5258 11.789 37.5022 11.9826 36.0459Z" fill="white"/>
</mask>
<g mask="url(#mask14_159_38)">
<path d="M11.1999 35.38C11.3099 35.54 11.3699 35.73 11.3799 35.92L11.5499 38.23L12.0399 32.27L7.31992 32.46L6.66992 35.17L7.43992 34.36C7.80992 33.97 8.28992 33.7 8.81992 33.57C9.23992 33.47 9.61992 33.48 9.98992 33.7L10.6699 34.34C10.6299 34.58 10.9999 35.09 11.1999 35.37V35.38Z" fill="#F7C7D9" stroke="#F7C7D9" stroke-miterlimit="10"/>
</g>
<path d="M11.9826 36.0459C12.1761 34.5896 11.1525 33.2522 9.69618 33.0587C8.23991 32.8651 6.90247 33.8888 6.70894 35.3451C6.51541 36.8013 7.53906 38.1388 8.99534 38.3323C10.4516 38.5258 11.789 37.5022 11.9826 36.0459Z" stroke="#F7C7D9" stroke-miterlimit="10"/>
<mask id="mask15_159_38" style="mask-type:luminance" maskUnits="userSpaceOnUse" x="6" y="41" width="7" height="6">
<path d="M12.2307 44.6184C12.4243 43.1621 11.4006 41.8247 9.94435 41.6312C8.48808 41.4376 7.15064 42.4613 6.95711 43.9175C6.76358 45.3738 7.78723 46.7113 9.24351 46.9048C10.6998 47.0983 12.0372 46.0747 12.2307 44.6184Z" fill="white"/>
</mask>
<g mask="url(#mask15_159_38)">
<path d="M11.4499 43.96C11.5599 44.12 11.6199 44.31 11.6299 44.5L11.7999 46.81L12.2899 40.85L7.56992 41.04L6.91992 43.75L7.68992 42.94C8.05992 42.55 8.53992 42.28 9.06992 42.15C9.48992 42.05 9.86992 42.06 10.2399 42.28L10.9199 42.92C10.8799 43.16 11.2499 43.67 11.4499 43.95V43.96Z" fill="#F7C7D9" stroke="#F7C7D9" stroke-miterlimit="10"/>
</g>
<path d="M12.2307 44.6184C12.4243 43.1621 11.4006 41.8247 9.94435 41.6311C8.48808 41.4376 7.15064 42.4613 6.95711 43.9175C6.76358 45.3738 7.78723 46.7112 9.24351 46.9048C10.6998 47.0983 12.0372 46.0747 12.2307 44.6184Z" stroke="#F7C7D9" stroke-miterlimit="10"/>
<mask id="mask16_159_38" style="mask-type:luminance" maskUnits="userSpaceOnUse" x="7" y="49" width="6" height="7">
<path d="M12.4004 52.9586C12.594 51.5023 11.5703 50.1649 10.114 49.9713C8.65775 49.7778 7.32032 50.8014 7.12679 52.2577C6.93326 53.714 7.95691 55.0514 9.41318 55.245C10.8695 55.4385 12.2069 54.4148 12.4004 52.9586Z" fill="white"/>
</mask>
<g mask="url(#mask16_159_38)">
<path d="M11.6198 52.3C11.7298 52.46 11.7898 52.65 11.7998 52.84L11.9698 55.15L12.4598 49.19L7.73984 49.38L7.08984 52.09L7.85984 51.28C8.22984 50.89 8.70984 50.62 9.23984 50.49C9.65984 50.39 10.0398 50.4 10.4098 50.62L11.0898 51.26C11.0498 51.5 11.4198 52.01 11.6198 52.29V52.3Z" fill="#F7C7D9" stroke="#F7C7D9" stroke-miterlimit="10"/>
</g>
<path d="M12.4004 52.9586C12.594 51.5023 11.5703 50.1649 10.114 49.9713C8.65775 49.7778 7.32032 50.8014 7.12679 52.2577C6.93326 53.714 7.95691 55.0514 9.41318 55.245C10.8695 55.4385 12.2069 54.4148 12.4004 52.9586Z" stroke="#F7C7D9" stroke-miterlimit="10"/>
<mask id="mask17_159_38" style="mask-type:luminance" maskUnits="userSpaceOnUse" x="7" y="57" width="6" height="7">
<path d="M12.6317 60.8739C12.8253 59.4176 11.8016 58.0802 10.3454 57.8867C8.88908 57.6931 7.55164 58.7168 7.35811 60.1731C7.16458 61.6293 8.18823 62.9668 9.64451 63.1603C11.1008 63.3538 12.4382 62.3302 12.6317 60.8739Z" fill="white"/>
</mask>
<g mask="url(#mask17_159_38)">
<path d="M11.8399 60.22C11.9499 60.38 12.0099 60.57 12.0199 60.76L12.1899 63.07L12.6799 57.11L7.95994 57.3L7.30994 60.01L8.07994 59.2C8.44994 58.81 8.92994 58.54 9.45994 58.41C9.87994 58.31 10.2599 58.32 10.6299 58.54L11.3099 59.18C11.2699 59.42 11.6399 59.93 11.8399 60.21V60.22Z" fill="#F7C7D9" stroke="#F7C7D9" stroke-miterlimit="10"/>
</g>
<path d="M12.6317 60.8739C12.8253 59.4176 11.8016 58.0802 10.3454 57.8867C8.88908 57.6931 7.55164 58.7168 7.35811 60.1731C7.16458 61.6293 8.18823 62.9668 9.64451 63.1603C11.1008 63.3538 12.4382 62.3302 12.6317 60.8739Z" stroke="#F7C7D9" stroke-miterlimit="10"/>
<mask id="mask18_159_38" style="mask-type:luminance" maskUnits="userSpaceOnUse" x="7" y="65" width="6" height="7">
<path d="M12.8262 69.0159C13.1369 67.58 12.2248 66.1641 10.789 65.8534C9.35311 65.5427 7.93725 66.4549 7.62654 67.8907C7.31584 69.3265 8.22795 70.7424 9.6638 71.0531C11.0996 71.3638 12.5155 70.4517 12.8262 69.0159Z" fill="white"/>
</mask>
<g mask="url(#mask18_159_38)">
<path d="M10.3899 70.32C10.2199 70.42 10.0299 70.47 9.83991 70.46L7.52991 70.44L13.4299 71.41L13.6199 66.69L10.9799 65.83L11.7199 66.67C12.0799 67.07 12.3099 67.57 12.3899 68.11C12.4599 68.54 12.4199 68.92 12.1599 69.27L11.4699 69.89C11.2399 69.83 10.6899 70.15 10.3999 70.33L10.3899 70.32Z" fill="#F7C7D9" stroke="#F7C7D9" stroke-miterlimit="10"/>
</g>
<path d="M12.8262 69.0158C13.1369 67.58 12.2248 66.1641 10.789 65.8534C9.35311 65.5427 7.93725 66.4548 7.62654 67.8907C7.31584 69.3265 8.22795 70.7424 9.6638 71.0531C11.0996 71.3638 12.5155 70.4517 12.8262 69.0158Z" stroke="#F7C7D9" stroke-miterlimit="10"/>
<mask id="mask19_159_38" style="mask-type:luminance" maskUnits="userSpaceOnUse" x="7" y="74" width="6" height="6">
<path d="M12.9378 77.1851C13.1313 75.7288 12.1077 74.3914 10.6514 74.1978C9.19511 74.0043 7.85767 75.028 7.66414 76.4842C7.47061 77.9405 8.49427 79.2779 9.95054 79.4715C11.4068 79.665 12.7443 78.6413 12.9378 77.1851Z" fill="white"/>
</mask>
<g mask="url(#mask19_159_38)">
<path d="M12.14 76.52C12.25 76.68 12.31 76.87 12.32 77.06L12.49 79.37L12.98 73.41L8.25999 73.6L7.60999 76.31L8.37999 75.5C8.74999 75.11 9.22999 74.84 9.75999 74.71C10.18 74.61 10.56 74.62 10.93 74.84L11.61 75.48C11.57 75.72 11.94 76.23 12.14 76.51V76.52Z" fill="#F7C7D9" stroke="#F7C7D9" stroke-miterlimit="10"/>
</g>
<path d="M12.9378 77.1851C13.1313 75.7288 12.1077 74.3914 10.6514 74.1979C9.19511 74.0043 7.85767 75.028 7.66414 76.4842C7.47061 77.9405 8.49427 79.278 9.95054 79.4715C11.4068 79.665 12.7443 78.6414 12.9378 77.1851Z" stroke="#F7C7D9" stroke-miterlimit="10"/>
<mask id="mask20_159_38" style="mask-type:luminance" maskUnits="userSpaceOnUse" x="13" y="12" width="6" height="7">
<path d="M17.8509 17.2975C18.8211 16.1943 18.7133 14.5136 17.6101 13.5434C16.507 12.5732 14.8262 12.681 13.856 13.7842C12.8858 14.8874 12.9937 16.5681 14.0968 17.5383C15.2 18.5085 16.8807 18.4007 17.8509 17.2975Z" fill="white"/>
</mask>
<g mask="url(#mask20_159_38)">
<path d="M15.08 17.25C14.89 17.25 14.7 17.2 14.53 17.1L12.52 15.96L17.2 19.68L19.66 15.65L17.77 13.61L18.01 14.7C18.13 15.23 18.09 15.78 17.9 16.28C17.75 16.69 17.53 17 17.14 17.18L16.23 17.39C16.06 17.23 15.42 17.24 15.08 17.25Z" fill="#F7C7D9" stroke="#F7C7D9" stroke-miterlimit="10"/>
</g>
<path d="M17.8509 17.2975C18.8211 16.1943 18.7133 14.5136 17.6101 13.5434C16.507 12.5732 14.8262 12.681 13.856 13.7842C12.8858 14.8874 12.9937 16.5681 14.0968 17.5383C15.2 18.5085 16.8807 18.4007 17.8509 17.2975Z" stroke="#F7C7D9" stroke-miterlimit="10"/>
<mask id="mask21_159_38" style="mask-type:luminance" maskUnits="userSpaceOnUse" x="24" y="67" width="6" height="7">
<path d="M28.8638 72.2345C29.834 71.1313 29.7262 69.4505 28.623 68.4804C27.5199 67.5102 25.8391 67.618 24.869 68.7212C23.8988 69.8243 24.0066 71.5051 25.1097 72.4753C26.2129 73.4454 27.8937 73.3376 28.8638 72.2345Z" fill="white"/>
</mask>
<g mask="url(#mask21_159_38)">
<path d="M26.0999 72.19C25.9099 72.19 25.7199 72.14 25.5499 72.04L23.5399 70.9L28.2199 74.62L30.6799 70.59L28.7899 68.55L29.0299 69.64C29.1499 70.17 29.1099 70.72 28.9199 71.22C28.7699 71.63 28.5499 71.94 28.1599 72.12L27.2499 72.33C27.0799 72.17 26.4399 72.18 26.0999 72.19Z" fill="#F7C7D9" stroke="#F7C7D9" stroke-miterlimit="10"/>
</g>
<path d="M28.8638 72.2345C29.834 71.1313 29.7262 69.4506 28.623 68.4804C27.5199 67.5102 25.8391 67.618 24.869 68.7212C23.8988 69.8243 24.0066 71.5051 25.1097 72.4753C26.2129 73.4454 27.8937 73.3376 28.8638 72.2345Z" stroke="#F7C7D9" stroke-miterlimit="10"/>
<mask id="mask22_159_38" style="mask-type:luminance" maskUnits="userSpaceOnUse" x="15" y="68" width="7" height="7">
<path d="M20.9967 72.0802C21.3074 70.6443 20.3953 69.2285 18.9595 68.9178C17.5236 68.6071 16.1078 69.5192 15.7971 70.955C15.4864 72.3909 16.3985 73.8067 17.8343 74.1174C19.2702 74.4281 20.686 73.516 20.9967 72.0802Z" fill="white"/>
</mask>
<g mask="url(#mask22_159_38)">
<path d="M18.56 73.39C18.39 73.49 18.2 73.54 18.01 73.53L15.7 73.51L21.6 74.48L21.79 69.76L19.15 68.9L19.89 69.74C20.25 70.14 20.48 70.64 20.56 71.18C20.63 71.61 20.59 71.99 20.33 72.34L19.64 72.96C19.41 72.9 18.86 73.22 18.57 73.4L18.56 73.39Z" fill="#F7C7D9" stroke="#F7C7D9" stroke-miterlimit="10"/>
</g>
<path d="M20.9967 72.0802C21.3074 70.6443 20.3953 69.2285 18.9595 68.9178C17.5236 68.6071 16.1078 69.5192 15.7971 70.955C15.4864 72.3909 16.3985 73.8067 17.8343 74.1174C19.2702 74.4281 20.686 73.516 20.9967 72.0802Z" stroke="#F7C7D9" stroke-miterlimit="10"/>
</g>
<defs>
<clipPath id="clip0_159_38">
<rect width="43.12" height="85.1" fill="white" transform="translate(0 0.589996)"/>
</clipPath>
</defs>
</svg>
