<svg width="258" height="73" viewBox="0 0 258 73" fill="none" xmlns="http://www.w3.org/2000/svg">
<g clip-path="url(#clip0_584_902)">
<mask id="mask0_584_902" style="mask-type:luminance" maskUnits="userSpaceOnUse" x="165" y="8" width="82" height="61">
<path d="M227.018 67.7154L170.912 44.412C166.497 42.578 164.402 37.5072 166.234 33.0862L174.021 14.2929C175.853 9.87189 180.918 7.77477 185.333 9.60883L241.439 32.9122C245.855 34.7463 247.949 39.817 246.118 44.238L238.33 63.0314C236.499 67.4524 231.434 69.5495 227.018 67.7154Z" fill="white"/>
</mask>
<g mask="url(#mask0_584_902)">
<path d="M178.179 47.4331L169.84 42.8536C169.195 42.4971 168.589 42.0653 168.036 41.5735L167.196 40.8116C166.532 40.2173 166.084 39.4249 165.917 38.5498L165.863 38.2986C165.711 37.4893 165.809 36.6552 166.163 35.9091L167.749 32.538L168.552 31.3224C169.321 30.1735 169.887 28.8974 170.237 27.5586L170.905 25.019L173.017 15.6482L162.537 40.9344L178.179 47.4331Z" fill="#F7C7D9" stroke="#F7C7D9" stroke-miterlimit="10"/>
<path d="M237.711 64.5229L238.741 58.7758C238.875 58.0055 239.117 57.2664 239.446 56.5607L241.048 53.1458L242.589 49.6277C243.167 48.2958 243.623 46.9171 243.952 45.5005L244.276 44.1014C244.559 42.8871 245.002 41.7242 245.599 40.6301C246.237 39.4815 246.208 38.088 245.525 36.9656C244.975 36.074 244.189 35.353 243.253 34.8951L235.665 31.204C235.387 31.0677 235.131 30.8997 234.885 30.7054L233.639 29.6685L249.439 36.2272L237.714 64.5141" fill="#F7C7D9"/>
<path d="M237.711 64.5229L238.741 58.7758C238.875 58.0055 239.117 57.2664 239.446 56.5607L241.048 53.1458L242.589 49.6277C243.167 48.2958 243.623 46.9171 243.952 45.5005L244.276 44.1014C244.559 42.8871 245.002 41.7242 245.599 40.6301C246.237 39.4815 246.208 38.088 245.525 36.9656C244.975 36.074 244.189 35.353 243.253 34.8951L235.665 31.204C235.387 31.0677 235.131 30.8997 234.885 30.7054L233.639 29.6685L249.439 36.2272L237.714 64.5141" stroke="#F7C7D9" stroke-miterlimit="10"/>
</g>
<path d="M227.018 67.7154L170.912 44.412C166.497 42.578 164.402 37.5072 166.234 33.0862L174.021 14.2929C175.853 9.87189 180.918 7.77477 185.333 9.60883L241.439 32.9122C245.855 34.7463 247.949 39.817 246.118 44.238L238.33 63.0314C236.499 67.4524 231.434 69.5495 227.018 67.7154Z" stroke="#F7C7D9" stroke-miterlimit="10"/>
<mask id="mask1_584_902" style="mask-type:luminance" maskUnits="userSpaceOnUse" x="170" y="34" width="6" height="6">
<path d="M172.635 39.7304C171.298 39.4136 170.472 38.0722 170.788 36.7343C171.104 35.3964 172.444 34.5686 173.78 34.8854C175.117 35.2022 175.944 36.5436 175.627 37.8815C175.311 39.2194 173.971 40.0472 172.635 39.7304Z" fill="white"/>
</mask>
<g mask="url(#mask1_584_902)">
<path d="M172.329 38.8163C172.432 38.9659 172.578 39.0817 172.741 39.1539L174.702 40.0735L169.333 38.5128L171.072 34.4492L173.656 34.7853L172.692 35.1883C172.228 35.3816 171.832 35.7112 171.542 36.1312C171.314 36.4651 171.197 36.8007 171.265 37.1976L171.598 38.0058C171.821 38.0509 172.143 38.5446 172.32 38.813L172.329 38.8163Z" fill="#F7C7D9" stroke="#F7C7D9" stroke-miterlimit="10"/>
</g>
<path d="M172.635 39.7304C171.298 39.4136 170.472 38.0722 170.788 36.7343C171.104 35.3964 172.444 34.5686 173.78 34.8854C175.117 35.2022 175.944 36.5436 175.627 37.8815C175.311 39.2194 173.971 40.0472 172.635 39.7304Z" fill="#F7C7D9" stroke="#F7C7D9" stroke-miterlimit="10"/>
<mask id="mask2_584_902" style="mask-type:luminance" maskUnits="userSpaceOnUse" x="178" y="38" width="6" height="6">
<path d="M183.272 41.6058C182.783 42.8903 181.346 43.5341 180.063 43.0439C178.78 42.5536 178.137 41.1148 178.626 39.8303C179.116 38.5458 180.553 37.9019 181.836 38.3922C183.119 38.8825 183.762 40.3213 183.272 41.6058Z" fill="white"/>
</mask>
<g mask="url(#mask2_584_902)">
<path d="M183.656 41.0209L182.763 42.1023C182.61 42.2942 182.372 42.3936 182.123 42.3888C181.813 42.3903 181.509 42.5046 181.269 42.7135C180.956 42.9845 180.518 43.0575 180.128 42.8986L180.032 42.8618C179.765 42.7496 179.555 42.5392 179.439 42.2647L179.279 41.8727L179.195 41.6706C179.035 41.2786 179.038 40.8492 179.197 40.4591C179.339 40.1127 179.376 39.7262 179.31 39.3501L178.994 37.7369L176.866 42.874L181.997 45.005L182.886 42.5401" fill="#F7C7D9"/>
<path d="M183.656 41.0209L182.763 42.1023C182.61 42.2942 182.372 42.3936 182.123 42.3888C181.813 42.3903 181.509 42.5046 181.269 42.7135C180.956 42.9845 180.518 43.0575 180.128 42.8986L180.032 42.8618C179.765 42.7496 179.555 42.5392 179.439 42.2647L179.279 41.8727L179.195 41.6706C179.035 41.2786 179.038 40.8492 179.197 40.4591C179.339 40.1127 179.376 39.7262 179.31 39.3501L178.994 37.7369L176.866 42.874L181.997 45.005L182.886 42.5401" stroke="#F7C7D9" stroke-miterlimit="10"/>
</g>
<path d="M183.272 41.6058C182.783 42.8903 181.346 43.5341 180.063 43.0439C178.78 42.5536 178.137 41.1148 178.626 39.8303C179.116 38.5458 180.553 37.9019 181.836 38.3922C183.119 38.8825 183.762 40.3213 183.272 41.6058Z" stroke="#F7C7D9" stroke-miterlimit="10"/>
<path d="M173.785 42.2677L176.099 43.232L175.753 44.0614L176.551 43.9357L177.495 43.7956L176.922 43.0156L176.455 42.3764L176.099 43.232L173.788 42.2589L173.785 42.2677Z" fill="#F7C7D9" stroke="#F7C7D9" stroke-width="0.75" stroke-miterlimit="10"/>
<path d="M180.988 45.2105L183.302 46.1749L182.955 47.0043L183.742 46.884L184.698 46.7384L184.124 45.9584L183.658 45.3193L183.302 46.1749L180.991 45.2018L180.988 45.2105Z" fill="#F7C7D9" stroke="#F7C7D9" stroke-width="0.75" stroke-miterlimit="10"/>
<path d="M188.389 48.2892L190.715 49.2482L190.368 50.0776L191.155 49.9573L192.099 49.8172L191.529 49.0284L191.062 48.3892L190.715 49.2482L188.401 48.2838L188.389 48.2892Z" fill="#F7C7D9" stroke="#F7C7D9" stroke-width="0.75" stroke-miterlimit="10"/>
<path d="M195.37 51.2877L197.684 52.2521L197.338 53.0815L198.124 52.9612L199.08 52.8156L198.507 52.0356L198.04 51.3965L197.684 52.2521L195.374 51.279L195.37 51.2877Z" fill="#F7C7D9" stroke="#F7C7D9" stroke-width="0.75" stroke-miterlimit="10"/>
<path d="M202.514 54.0177L204.828 54.9821L204.482 55.8114L205.277 55.6945L206.224 55.5456L205.651 54.7656L205.184 54.1264L204.828 54.9821L202.517 54.0089L202.514 54.0177Z" fill="#F7C7D9" stroke="#F7C7D9" stroke-width="0.75" stroke-miterlimit="10"/>
<path d="M209.247 57.1418L211.561 58.1062L211.224 58.9389L212.01 58.8186L212.957 58.6697L212.384 57.8897L211.918 57.2505L211.561 58.1062L209.251 57.133L209.247 57.1418Z" fill="#F7C7D9" stroke="#F7C7D9" stroke-width="0.75" stroke-miterlimit="10"/>
<path d="M216.723 59.9986L219.037 60.963L218.691 61.7923L219.486 61.6754L220.433 61.5265L219.86 60.7465L219.393 60.1073L219.037 60.963L216.723 59.9986Z" fill="#F7C7D9" stroke="#F7C7D9" stroke-width="0.75" stroke-miterlimit="10"/>
<path d="M223.923 62.9502L226.24 63.9058L225.894 64.7352L226.68 64.6149L227.636 64.4693L227.063 63.6893L226.596 63.0502L226.24 63.9058L223.926 62.9414L223.923 62.9502Z" fill="#F7C7D9" stroke="#F7C7D9" stroke-width="0.75" stroke-miterlimit="10"/>
<path d="M234.31 58.0642L233.548 55.6794L234.403 55.4051L233.801 54.8845L233.074 54.246L232.853 55.1933L232.66 55.9612L233.548 55.6794L234.307 58.0729L234.31 58.0642Z" fill="#F7C7D9" stroke="#F7C7D9" stroke-width="0.75" stroke-miterlimit="10"/>
<path d="M233.352 52.1784L234.307 49.8585L235.135 50.2051L235.018 49.4091L234.869 48.4607L234.09 49.0346L233.452 49.5018L234.307 49.8585L233.343 52.1751L233.352 52.1784Z" fill="#F7C7D9" stroke="#F7C7D9" stroke-width="0.75" stroke-miterlimit="10"/>
<path d="M236.544 46.5361L238.672 45.2056L239.142 45.9664L239.504 45.2532L239.932 44.3947L238.967 44.4066L238.179 44.426L238.672 45.2056L236.544 46.5361Z" fill="#F7C7D9" stroke="#F7C7D9" stroke-width="0.75" stroke-miterlimit="10"/>
<path d="M240.159 36.0567L237.827 35.0857L237.481 35.915L237.006 35.2725L236.433 34.4925L237.397 34.3503L238.184 34.23L237.827 35.0857L240.162 36.048L240.159 36.0567Z" fill="#F7C7D9" stroke="#F7C7D9" stroke-width="0.75" stroke-miterlimit="10"/>
<path d="M232.946 33.0098L230.614 32.0387L230.268 32.8681L229.793 32.2256L229.219 31.4456L230.184 31.3034L230.97 31.1831L230.614 32.0387L232.949 33.001L232.946 33.0098Z" fill="#F7C7D9" stroke="#F7C7D9" stroke-width="0.75" stroke-miterlimit="10"/>
<path d="M225.483 29.9077L223.161 28.94L222.815 29.7694L222.339 29.1269L221.766 28.3469L222.731 28.2046L223.508 28.081L223.161 28.94L225.487 29.8989L225.483 29.9077Z" fill="#F7C7D9" stroke="#F7C7D9" stroke-width="0.75" stroke-miterlimit="10"/>
<path d="M218.392 27.0674L216.069 26.0997L215.723 26.9291L215.247 26.2866L214.674 25.5066L215.63 25.361L216.416 25.2407L216.069 26.0997L218.395 27.0586L218.392 27.0674Z" fill="#F7C7D9" stroke="#F7C7D9" stroke-width="0.75" stroke-miterlimit="10"/>
<path d="M211.369 23.9131L209.038 22.9421L208.692 23.7714L208.216 23.1289L207.643 22.3489L208.608 22.2067L209.394 22.0864L209.038 22.9421L211.373 23.9044L211.369 23.9131Z" fill="#F7C7D9" stroke="#F7C7D9" stroke-width="0.75" stroke-miterlimit="10"/>
<path d="M204.362 21.3252L202.03 20.3542L201.684 21.1836L201.209 20.5411L200.635 19.7611L201.6 19.6188L202.386 19.4986L202.03 20.3542L204.365 21.3165L204.362 21.3252Z" fill="#F7C7D9" stroke="#F7C7D9" stroke-width="0.75" stroke-miterlimit="10"/>
<path d="M197.014 18.0266L194.683 17.0556L194.337 17.885L193.861 17.2425L193.288 16.4625L194.253 16.3203L195.039 16.2L194.683 17.0556L197.018 18.0179L197.014 18.0266Z" fill="#F7C7D9" stroke="#F7C7D9" stroke-width="0.75" stroke-miterlimit="10"/>
<path d="M189.801 14.9797L187.466 14.0174L187.12 14.8468L186.648 14.1955L186.072 13.4243L187.04 13.2733L187.823 13.1618L187.466 14.0174L189.801 14.9797Z" fill="#F7C7D9" stroke="#F7C7D9" stroke-width="0.75" stroke-miterlimit="10"/>
<path d="M178.297 19.0683L178.9 21.5025L178.026 21.7198L178.591 22.2861L179.275 22.9583L179.566 22.0377L179.797 21.2744L178.9 21.5025L178.309 19.0629L178.297 19.0683Z" fill="#F7C7D9" stroke="#F7C7D9" stroke-width="0.75" stroke-miterlimit="10"/>
<path d="M179.234 25.587L178.27 27.9036L177.442 27.557L177.571 28.3476L177.708 29.3014L178.495 28.7309L179.125 28.2603L178.27 27.9036L179.242 25.5904L179.234 25.587Z" fill="#F7C7D9" stroke="#F7C7D9" stroke-width="0.75" stroke-miterlimit="10"/>
<path d="M176.205 31.5622L173.943 32.6411L173.56 31.8337L173.126 32.4994L172.598 33.3091L173.561 33.4067L174.342 33.4847L173.943 32.6411L176.211 31.5743L176.205 31.5622Z" fill="#F7C7D9" stroke="#F7C7D9" stroke-width="0.75" stroke-miterlimit="10"/>
<mask id="mask3_584_902" style="mask-type:luminance" maskUnits="userSpaceOnUse" x="185" y="41" width="6" height="6">
<path d="M190.399 44.8001C189.91 46.0846 188.473 46.7285 187.19 46.2382C185.907 45.7479 185.264 44.3091 185.753 43.0246C186.243 41.7401 187.68 41.0962 188.963 41.5865C190.246 42.0768 190.889 43.5156 190.399 44.8001Z" fill="white"/>
</mask>
<g mask="url(#mask3_584_902)">
<path d="M188.954 41.3225L189.82 42.435C189.966 42.6309 190.011 42.8787 189.968 43.1227C189.902 43.4279 189.95 43.747 190.095 44.0228C190.296 44.3898 190.268 44.83 190.028 45.1693L189.966 45.2554C189.796 45.4911 189.543 45.655 189.263 45.7081L188.845 45.7791L188.631 45.8172C188.214 45.8882 187.788 45.7959 187.45 45.5562C187.142 45.3386 186.778 45.2192 186.394 45.2028L184.747 45.1646L189.291 48.3635L192.486 43.8144L190.28 42.4103" fill="#F7C7D9"/>
<path d="M188.954 41.3225L189.82 42.435C189.966 42.6309 190.011 42.8787 189.968 43.1227C189.902 43.4279 189.95 43.747 190.095 44.0228C190.296 44.3898 190.268 44.83 190.028 45.1693L189.966 45.2554C189.796 45.4911 189.543 45.655 189.263 45.7081L188.845 45.7791L188.631 45.8172C188.214 45.8882 187.788 45.7959 187.45 45.5562C187.142 45.3386 186.778 45.2192 186.394 45.2028L184.747 45.1646L189.291 48.3635L192.486 43.8144L190.28 42.4103" stroke="#F7C7D9" stroke-miterlimit="10"/>
</g>
<path d="M190.399 44.8001C189.91 46.0846 188.473 46.7285 187.19 46.2382C185.907 45.7479 185.264 44.3091 185.753 43.0246C186.243 41.7401 187.68 41.0962 188.963 41.5865C190.246 42.0768 190.889 43.5156 190.399 44.8001Z" stroke="#F7C7D9" stroke-miterlimit="10"/>
<mask id="mask4_584_902" style="mask-type:luminance" maskUnits="userSpaceOnUse" x="192" y="44" width="6" height="6">
<path d="M194.42 48.9904C193.083 48.6736 192.257 47.3322 192.573 45.9943C192.889 44.6564 194.229 43.8286 195.566 44.1454C196.902 44.4622 197.729 45.8036 197.412 47.1415C197.096 48.4794 195.756 49.3072 194.42 48.9904Z" fill="white"/>
</mask>
<g mask="url(#mask4_584_902)">
<path d="M194.108 48.0905C194.211 48.2401 194.357 48.356 194.519 48.4281L196.48 49.3477L191.112 47.7871L192.851 43.7234L195.434 44.0595L194.47 44.4625C194.006 44.6558 193.611 44.9854 193.32 45.4054C193.093 45.7393 192.975 46.0749 193.044 46.4718L193.376 47.28C193.599 47.3251 193.921 47.8189 194.099 48.0872L194.108 48.0905Z" fill="#F7C7D9" stroke="#F7C7D9" stroke-miterlimit="10"/>
</g>
<path d="M194.42 48.9904C193.083 48.6736 192.257 47.3322 192.573 45.9943C192.889 44.6564 194.229 43.8286 195.566 44.1454C196.902 44.4622 197.729 45.8036 197.412 47.1415C197.096 48.4794 195.756 49.3072 194.42 48.9904Z" stroke="#F7C7D9" stroke-miterlimit="10"/>
<mask id="mask5_584_902" style="mask-type:luminance" maskUnits="userSpaceOnUse" x="199" y="46" width="6" height="6">
<path d="M201.255 51.8343C199.919 51.5175 199.092 50.1761 199.409 48.8382C199.725 47.5003 201.065 46.6725 202.401 46.9893C203.738 47.3061 204.564 48.6475 204.248 49.9854C203.931 51.3233 202.592 52.1511 201.255 51.8343Z" fill="white"/>
</mask>
<g mask="url(#mask5_584_902)">
<path d="M200.942 50.9227C201.045 51.0723 201.191 51.1882 201.354 51.2603L203.315 52.1799L197.946 50.6193L199.686 46.5557L202.269 46.8918L201.305 47.2947C200.841 47.4881 200.445 47.8176 200.155 48.2377C199.928 48.5715 199.81 48.9071 199.879 49.3041L200.211 50.1122C200.434 50.1574 200.756 50.6511 200.934 50.9194L200.942 50.9227Z" fill="#F7C7D9" stroke="#F7C7D9" stroke-miterlimit="10"/>
</g>
<path d="M201.255 51.8343C199.919 51.5175 199.092 50.1761 199.409 48.8382C199.725 47.5003 201.065 46.6725 202.401 46.9893C203.738 47.3061 204.564 48.6475 204.248 49.9854C203.931 51.3233 202.592 52.1511 201.255 51.8343Z" stroke="#F7C7D9" stroke-miterlimit="10"/>
<mask id="mask6_584_902" style="mask-type:luminance" maskUnits="userSpaceOnUse" x="206" y="49" width="6" height="6">
<path d="M208.491 54.7694C207.155 54.4526 206.328 53.1112 206.644 51.7733C206.961 50.4354 208.301 49.6076 209.637 49.9244C210.973 50.2412 211.8 51.5826 211.484 52.9205C211.167 54.2584 209.827 55.0862 208.491 54.7694Z" fill="white"/>
</mask>
<g mask="url(#mask6_584_902)">
<path d="M208.178 53.8581C208.281 54.0077 208.427 54.1235 208.59 54.1957L210.55 55.1153L205.182 53.5546L206.921 49.491L209.505 49.8271L208.541 50.23C208.077 50.4234 207.681 50.753 207.391 51.173C207.163 51.5069 207.045 51.8425 207.114 52.2394L207.446 53.0476C207.669 53.0927 207.991 53.5864 208.169 53.8548L208.178 53.8581Z" fill="#F7C7D9" stroke="#F7C7D9" stroke-miterlimit="10"/>
</g>
<path d="M208.491 54.7694C207.155 54.4526 206.328 53.1112 206.645 51.7733C206.961 50.4354 208.301 49.6076 209.637 49.9244C210.973 50.2412 211.8 51.5826 211.484 52.9205C211.167 54.2584 209.828 55.0862 208.491 54.7694Z" stroke="#F7C7D9" stroke-miterlimit="10"/>
<mask id="mask7_584_902" style="mask-type:luminance" maskUnits="userSpaceOnUse" x="213" y="52" width="6" height="6">
<path d="M215.327 57.6121C213.991 57.2953 213.164 55.9539 213.481 54.616C213.797 53.2781 215.137 52.4503 216.473 52.7671C217.809 53.0839 218.636 54.4253 218.32 55.7632C218.003 57.1011 216.664 57.9289 215.327 57.6121Z" fill="white"/>
</mask>
<g mask="url(#mask7_584_902)">
<path d="M215.018 56.7024C215.121 56.852 215.267 56.9678 215.43 57.04L217.39 57.9596L212.022 56.3989L213.761 52.3353L216.345 52.6714L215.381 53.0743C214.917 53.2677 214.521 53.5973 214.231 54.0173C214.003 54.3512 213.886 54.6868 213.954 55.0837L214.287 55.8919C214.509 55.937 214.832 56.4307 215.009 56.699L215.018 56.7024Z" fill="#F7C7D9" stroke="#F7C7D9" stroke-miterlimit="10"/>
</g>
<path d="M215.327 57.6121C213.991 57.2953 213.164 55.9539 213.481 54.616C213.797 53.2781 215.137 52.4503 216.473 52.7671C217.809 53.0839 218.636 54.4253 218.32 55.7632C218.003 57.1011 216.664 57.9289 215.327 57.6121Z" stroke="#F7C7D9" stroke-miterlimit="10"/>
<mask id="mask8_584_902" style="mask-type:luminance" maskUnits="userSpaceOnUse" x="220" y="55" width="6" height="6">
<path d="M222.363 60.498C221.005 60.2905 220.073 59.0205 220.28 57.6613C220.487 56.3022 221.756 55.3686 223.113 55.5761C224.471 55.7836 225.404 57.0537 225.196 58.4128C224.989 59.772 223.72 60.7056 222.363 60.498Z" fill="white"/>
</mask>
<g mask="url(#mask8_584_902)">
<path d="M224.317 58.7932C224.461 58.6779 224.568 58.5285 224.622 58.359L225.375 56.3326L224.255 61.8151L220.07 60.406L220.199 57.8106L220.686 58.738C220.915 59.1863 221.275 59.5542 221.72 59.8044C222.072 60.0091 222.417 60.101 222.81 59.9904L223.581 59.594C223.605 59.3729 224.068 58.9988 224.322 58.8053L224.317 58.7932Z" fill="#F7C7D9" stroke="#F7C7D9" stroke-miterlimit="10"/>
</g>
<path d="M222.363 60.498C221.005 60.2905 220.073 59.0205 220.28 57.6613C220.487 56.3022 221.756 55.3686 223.113 55.5761C224.471 55.7836 225.404 57.0537 225.196 58.4128C224.989 59.772 223.72 60.7056 222.363 60.498Z" stroke="#F7C7D9" stroke-miterlimit="10"/>
<mask id="mask9_584_902" style="mask-type:luminance" maskUnits="userSpaceOnUse" x="228" y="58" width="6" height="6">
<path d="M230.04 63.5495C228.704 63.2327 227.877 61.8913 228.194 60.5534C228.51 59.2155 229.85 58.3877 231.186 58.7045C232.522 59.0213 233.349 60.3627 233.033 61.7006C232.716 63.0385 231.377 63.8663 230.04 63.5495Z" fill="white"/>
</mask>
<g mask="url(#mask9_584_902)">
<path d="M229.723 62.6424C229.826 62.7919 229.972 62.9078 230.135 62.98L232.095 63.8995L226.727 62.3389L228.466 58.2753L231.05 58.6114L230.086 59.0143C229.622 59.2077 229.226 59.5373 228.936 59.9573C228.708 60.2912 228.59 60.6268 228.659 61.0237L228.992 61.8319C229.214 61.877 229.537 62.3707 229.714 62.639L229.723 62.6424Z" fill="#F7C7D9" stroke="#F7C7D9" stroke-miterlimit="10"/>
</g>
<path d="M181.634 34.5555C180.348 35.0357 178.916 34.3805 178.436 33.0921C177.957 31.8038 178.611 30.3701 179.898 29.89C181.185 29.4099 182.617 30.0651 183.096 31.3534C183.576 32.6418 182.921 34.0754 181.634 34.5555Z" fill="#F7C7D9" stroke="#F7C7D9" stroke-miterlimit="10"/>
<path d="M230.04 63.5495C228.704 63.2327 227.877 61.8913 228.194 60.5534C228.51 59.2155 229.85 58.3877 231.186 58.7045C232.522 59.0213 233.349 60.3627 233.033 61.7006C232.716 63.0385 231.377 63.8663 230.04 63.5495Z" stroke="#F7C7D9" stroke-miterlimit="10"/>
<mask id="mask10_584_902" style="mask-type:luminance" maskUnits="userSpaceOnUse" x="178" y="29" width="6" height="6">
<path d="M181.635 34.5555C180.348 35.0357 178.916 34.3805 178.436 33.0921C177.957 31.8038 178.611 30.3701 179.898 29.89C181.185 29.4099 182.617 30.0651 183.096 31.3534C183.576 32.6418 182.921 34.0754 181.635 34.5555Z" fill="white"/>
</mask>
<g mask="url(#mask10_584_902)">
<path d="M182.513 32.1294C182.576 31.9632 182.596 31.7804 182.565 31.5984L182.239 29.4605L183.928 34.794L179.589 35.6L178.437 33.2666L179.309 33.8402C179.732 34.122 180.226 34.2706 180.726 34.2714C181.134 34.277 181.478 34.1881 181.765 33.9072L182.252 33.1816C182.169 32.9796 182.391 32.4233 182.513 32.1294Z" fill="#F7C7D9" stroke="#F7C7D9" stroke-miterlimit="10"/>
</g>
<mask id="mask11_584_902" style="mask-type:luminance" maskUnits="userSpaceOnUse" x="179" y="13" width="6" height="6">
<path d="M181.39 18.6569C180.054 18.3401 179.227 16.9987 179.543 15.6608C179.86 14.3228 181.2 13.4951 182.536 13.8119C183.872 14.1287 184.699 15.4701 184.383 16.808C184.066 18.1459 182.726 18.9737 181.39 18.6569Z" fill="white"/>
</mask>
<g mask="url(#mask11_584_902)">
<path d="M181.069 17.7536C181.172 17.9032 181.318 18.019 181.481 18.0912L183.442 19.0108L178.073 17.4501L179.813 13.3865L182.396 13.7226L181.432 14.1256C180.968 14.3189 180.572 14.6485 180.282 15.0685C180.055 15.4024 179.937 15.738 180.006 16.1349L180.338 16.9431C180.561 16.9882 180.883 17.4819 181.061 17.7503L181.069 17.7536Z" fill="#F7C7D9" stroke="#F7C7D9" stroke-miterlimit="10"/>
</g>
<path d="M181.39 18.6569C180.054 18.3401 179.227 16.9987 179.543 15.6607C179.86 14.3228 181.2 13.4951 182.536 13.8118C183.872 14.1286 184.699 15.47 184.383 16.808C184.066 18.1459 182.726 18.9736 181.39 18.6569Z" stroke="#F7C7D9" stroke-miterlimit="10"/>
<mask id="mask12_584_902" style="mask-type:luminance" maskUnits="userSpaceOnUse" x="187" y="17" width="6" height="6">
<path d="M192.013 20.5431C191.523 21.8276 190.086 22.4714 188.803 21.9811C187.52 21.4909 186.877 20.0521 187.366 18.7676C187.856 17.4831 189.293 16.8392 190.576 17.3295C191.859 17.8198 192.502 19.2585 192.013 20.5431Z" fill="white"/>
</mask>
<g mask="url(#mask12_584_902)">
<path d="M192.399 19.9494L191.507 21.0308C191.353 21.2227 191.115 21.3221 190.867 21.3174C190.556 21.3188 190.253 21.4332 190.013 21.6421C189.699 21.913 189.261 21.986 188.872 21.8271L188.776 21.7904C188.508 21.6782 188.298 21.4677 188.183 21.1932L188.022 20.8012L187.939 20.5992C187.778 20.2072 187.782 19.7778 187.941 19.3877C188.083 19.0412 188.12 18.6548 188.053 18.2787L187.738 16.6655L185.609 21.8025L190.74 23.9336L191.63 21.4686" fill="#F7C7D9"/>
<path d="M192.399 19.9494L191.507 21.0308C191.353 21.2227 191.115 21.3221 190.867 21.3174C190.556 21.3188 190.253 21.4332 190.013 21.6421C189.699 21.913 189.261 21.986 188.872 21.8271L188.776 21.7904C188.508 21.6782 188.298 21.4677 188.183 21.1932L188.022 20.8012L187.939 20.5992C187.778 20.2072 187.782 19.7778 187.941 19.3877C188.083 19.0412 188.12 18.6548 188.053 18.2787L187.738 16.6655L185.609 21.8025L190.74 23.9336L191.63 21.4686" stroke="#F7C7D9" stroke-miterlimit="10"/>
</g>
<path d="M192.013 20.5431C191.523 21.8276 190.086 22.4714 188.803 21.9811C187.52 21.4909 186.877 20.0521 187.366 18.7676C187.856 17.4831 189.293 16.8392 190.576 17.3295C191.859 17.8198 192.502 19.2585 192.013 20.5431Z" stroke="#F7C7D9" stroke-miterlimit="10"/>
<mask id="mask13_584_902" style="mask-type:luminance" maskUnits="userSpaceOnUse" x="193" y="20" width="6" height="6">
<path d="M198.573 23.4909C198.083 24.7754 196.646 25.4193 195.363 24.929C194.08 24.4387 193.437 22.9999 193.927 21.7154C194.417 20.4309 195.854 19.787 197.137 20.2773C198.42 20.7676 199.063 22.2064 198.573 23.4909Z" fill="white"/>
</mask>
<g mask="url(#mask13_584_902)">
<path d="M197.124 20.022L197.991 21.1346C198.136 21.3304 198.182 21.5782 198.139 21.8222C198.072 22.1275 198.121 22.4465 198.266 22.7223C198.466 23.0894 198.438 23.5295 198.199 23.8688L198.136 23.955C197.966 24.1906 197.714 24.3545 197.433 24.4076L197.016 24.4786L196.801 24.5168C196.384 24.5877 195.959 24.4954 195.62 24.2557C195.313 24.0381 194.948 23.9188 194.564 23.9023L192.918 23.8642L197.461 27.0631L200.657 22.514L198.45 21.1099" fill="#F7C7D9"/>
<path d="M197.124 20.022L197.991 21.1346C198.136 21.3304 198.182 21.5782 198.139 21.8222C198.072 22.1275 198.121 22.4465 198.266 22.7223C198.466 23.0894 198.438 23.5295 198.199 23.8688L198.136 23.955C197.966 24.1906 197.714 24.3545 197.433 24.4076L197.016 24.4786L196.801 24.5168C196.384 24.5877 195.959 24.4954 195.62 24.2557C195.313 24.0381 194.948 23.9188 194.564 23.9023L192.918 23.8642L197.461 27.0631L200.657 22.514L198.45 21.1099" stroke="#F7C7D9" stroke-miterlimit="10"/>
</g>
<path d="M198.573 23.4909C198.083 24.7754 196.646 25.4193 195.363 24.929C194.08 24.4387 193.437 22.9999 193.927 21.7154C194.417 20.4309 195.854 19.787 197.137 20.2773C198.42 20.7676 199.063 22.2064 198.573 23.4909Z" stroke="#F7C7D9" stroke-miterlimit="10"/>
<mask id="mask14_584_902" style="mask-type:luminance" maskUnits="userSpaceOnUse" x="201" y="23" width="6" height="5">
<path d="M203.172 27.9256C201.836 27.6088 201.009 26.2674 201.325 24.9295C201.642 23.5916 202.981 22.7638 204.318 23.0806C205.654 23.3974 206.481 24.7388 206.164 26.0767C205.848 27.4146 204.508 28.2424 203.172 27.9256Z" fill="white"/>
</mask>
<g mask="url(#mask14_584_902)">
<path d="M202.851 27.0191C202.954 27.1686 203.1 27.2845 203.263 27.3567L205.223 28.2762L199.855 26.7156L201.594 22.652L204.178 22.9881L203.214 23.391C202.75 23.5844 202.354 23.914 202.064 24.334C201.836 24.6678 201.719 25.0034 201.787 25.4004L202.12 26.2086C202.343 26.2537 202.665 26.7474 202.842 27.0157L202.851 27.0191Z" fill="#F7C7D9" stroke="#F7C7D9" stroke-miterlimit="10"/>
</g>
<path d="M203.172 27.9256C201.836 27.6088 201.009 26.2674 201.325 24.9295C201.642 23.5916 202.981 22.7638 204.318 23.0806C205.654 23.3974 206.481 24.7388 206.164 26.0767C205.848 27.4146 204.508 28.2424 203.172 27.9256Z" stroke="#F7C7D9" stroke-miterlimit="10"/>
<mask id="mask15_584_902" style="mask-type:luminance" maskUnits="userSpaceOnUse" x="208" y="26" width="6" height="6">
<path d="M210.576 31.0036C209.239 30.6868 208.413 29.3454 208.729 28.0075C209.045 26.6695 210.385 25.8418 211.722 26.1586C213.058 26.4754 213.885 27.8168 213.568 29.1547C213.252 30.4926 211.912 31.3204 210.576 31.0036Z" fill="white"/>
</mask>
<g mask="url(#mask15_584_902)">
<path d="M210.261 30.1011C210.364 30.2507 210.51 30.3666 210.673 30.4387L212.633 31.3583L207.265 29.7977L209.004 25.734L211.588 26.0701L210.624 26.4731C210.16 26.6664 209.764 26.996 209.474 27.4161C209.246 27.7499 209.128 28.0855 209.197 28.4824L209.529 29.2906C209.752 29.3357 210.074 29.8295 210.252 30.0978L210.261 30.1011Z" fill="#F7C7D9" stroke="#F7C7D9" stroke-miterlimit="10"/>
</g>
<path d="M210.576 31.0036C209.239 30.6868 208.413 29.3454 208.729 28.0075C209.045 26.6695 210.385 25.8418 211.722 26.1586C213.058 26.4754 213.885 27.8168 213.568 29.1547C213.252 30.4926 211.912 31.3204 210.576 31.0036Z" stroke="#F7C7D9" stroke-miterlimit="10"/>
<mask id="mask16_584_902" style="mask-type:luminance" maskUnits="userSpaceOnUse" x="215" y="29" width="6" height="6">
<path d="M217.803 33.9354C216.467 33.6186 215.64 32.2772 215.956 30.9393C216.273 29.6014 217.612 28.7736 218.949 29.0904C220.285 29.4072 221.112 30.7486 220.795 32.0865C220.479 33.4244 219.139 34.2522 217.803 33.9354Z" fill="white"/>
</mask>
<g mask="url(#mask16_584_902)">
<path d="M217.488 33.0331C217.591 33.1827 217.737 33.2986 217.9 33.3707L219.86 34.2903L214.492 32.7297L216.231 28.6661L218.815 29.0021L217.851 29.4051C217.387 29.5984 216.991 29.928 216.701 30.3481C216.473 30.6819 216.355 31.0175 216.424 31.4145L216.756 32.2226C216.979 32.2677 217.301 32.7615 217.479 33.0298L217.488 33.0331Z" fill="#F7C7D9" stroke="#F7C7D9" stroke-miterlimit="10"/>
</g>
<path d="M217.803 33.9354C216.467 33.6186 215.64 32.2772 215.956 30.9393C216.273 29.6014 217.612 28.7736 218.949 29.0904C220.285 29.4072 221.112 30.7486 220.795 32.0865C220.479 33.4244 219.139 34.2522 217.803 33.9354Z" stroke="#F7C7D9" stroke-miterlimit="10"/>
<mask id="mask17_584_902" style="mask-type:luminance" maskUnits="userSpaceOnUse" x="222" y="31" width="6" height="6">
<path d="M224.639 36.7792C223.302 36.4624 222.475 35.121 222.792 33.7831C223.108 32.4452 224.448 31.6174 225.784 31.9342C227.121 32.251 227.947 33.5924 227.631 34.9303C227.315 36.2683 225.975 37.096 224.639 36.7792Z" fill="white"/>
</mask>
<g mask="url(#mask17_584_902)">
<path d="M224.331 35.8687C224.434 36.0183 224.58 36.1341 224.743 36.2063L226.704 37.1259L221.335 35.5652L223.075 31.5016L225.658 31.8377L224.694 32.2406C224.23 32.434 223.834 32.7636 223.544 33.1836C223.317 33.5175 223.199 33.8531 223.268 34.25L223.6 35.0582C223.823 35.1033 224.145 35.597 224.323 35.8654L224.331 35.8687Z" fill="#F7C7D9" stroke="#F7C7D9" stroke-miterlimit="10"/>
</g>
<path d="M224.639 36.7792C223.302 36.4624 222.475 35.121 222.792 33.7831C223.108 32.4452 224.448 31.6174 225.784 31.9342C227.121 32.251 227.947 33.5924 227.631 34.9303C227.315 36.2683 225.975 37.096 224.639 36.7792Z" stroke="#F7C7D9" stroke-miterlimit="10"/>
<mask id="mask18_584_902" style="mask-type:luminance" maskUnits="userSpaceOnUse" x="229" y="34" width="6" height="6">
<path d="M231.684 39.6665C230.327 39.459 229.394 38.189 229.602 36.8298C229.809 35.4707 231.077 34.5371 232.435 34.7446C233.792 34.9521 234.725 36.2222 234.518 37.5813C234.31 38.9405 233.042 39.8741 231.684 39.6665Z" fill="white"/>
</mask>
<g mask="url(#mask18_584_902)">
<path d="M233.635 37.9716C233.779 37.8563 233.886 37.7069 233.941 37.5374L234.694 35.5109L233.574 40.9935L229.389 39.5843L229.517 36.989L230.004 37.9164C230.234 38.3646 230.594 38.7326 231.039 38.9828C231.391 39.1875 231.736 39.2793 232.128 39.1688L232.9 38.7724C232.924 38.5513 233.387 38.1772 233.641 37.9837L233.635 37.9716Z" fill="#F7C7D9" stroke="#F7C7D9" stroke-miterlimit="10"/>
</g>
<path d="M231.684 39.6665C230.327 39.459 229.394 38.189 229.602 36.8298C229.809 35.4707 231.077 34.5371 232.435 34.7446C233.792 34.9521 234.725 36.2222 234.518 37.5813C234.31 38.9405 233.042 39.8741 231.684 39.6665Z" stroke="#F7C7D9" stroke-miterlimit="10"/>
<mask id="mask19_584_902" style="mask-type:luminance" maskUnits="userSpaceOnUse" x="236" y="37" width="6" height="6">
<path d="M238.781 42.4905C237.445 42.1737 236.618 40.8323 236.935 39.4944C237.251 38.1565 238.591 37.3287 239.927 37.6455C241.264 37.9623 242.09 39.3037 241.774 40.6416C241.458 41.9795 240.118 42.8073 238.781 42.4905Z" fill="white"/>
</mask>
<g mask="url(#mask19_584_902)">
<path d="M238.467 41.5709C238.57 41.7205 238.716 41.8364 238.878 41.9085L240.839 42.8281L235.471 41.2675L237.21 37.2038L239.793 37.5399L238.829 37.9429C238.365 38.1362 237.969 38.4658 237.679 38.8859C237.452 39.2197 237.334 39.5553 237.403 39.9523L237.735 40.7604C237.958 40.8055 238.28 41.2993 238.458 41.5676L238.467 41.5709Z" fill="#F7C7D9" stroke="#F7C7D9" stroke-miterlimit="10"/>
</g>
<path d="M238.782 42.4905C237.445 42.1737 236.618 40.8323 236.935 39.4944C237.251 38.1565 238.591 37.3287 239.927 37.6455C241.264 37.9623 242.091 39.3037 241.774 40.6416C241.458 41.9795 240.118 42.8073 238.782 42.4905Z" stroke="#F7C7D9" stroke-miterlimit="10"/>
<mask id="mask20_584_902" style="mask-type:luminance" maskUnits="userSpaceOnUse" x="181" y="21" width="6" height="6">
<path d="M184.842 26.7996C183.555 27.2798 182.124 26.6246 181.644 25.3362C181.164 24.0479 181.819 22.6142 183.106 22.1341C184.392 21.654 185.824 22.3092 186.304 23.5975C186.784 24.8859 186.129 26.3195 184.842 26.7996Z" fill="white"/>
</mask>
<g mask="url(#mask20_584_902)">
<path d="M185.724 24.361C185.788 24.1948 185.807 24.012 185.777 23.83L185.451 21.692L187.14 27.0256L182.8 27.8316L181.649 25.4982L182.521 26.0718C182.944 26.3536 183.437 26.5022 183.937 26.503C184.345 26.5086 184.689 26.4197 184.977 26.1388L185.463 25.4132C185.38 25.2112 185.602 24.6549 185.724 24.361Z" fill="#F7C7D9" stroke="#F7C7D9" stroke-miterlimit="10"/>
</g>
<path d="M184.842 26.7996C183.555 27.2798 182.124 26.6246 181.644 25.3362C181.164 24.0479 181.819 22.6142 183.106 22.1341C184.392 21.654 185.824 22.3092 186.304 23.5975C186.784 24.8859 186.129 26.3195 184.842 26.7996Z" stroke="#F7C7D9" stroke-miterlimit="10"/>
<mask id="mask21_584_902" style="mask-type:luminance" maskUnits="userSpaceOnUse" x="225" y="49" width="6" height="6">
<path d="M229.149 54.7636C227.862 55.2437 226.431 54.5885 225.951 53.3002C225.471 52.0118 226.126 50.5782 227.413 50.0981C228.7 49.6179 230.131 50.2731 230.611 51.5615C231.091 52.8498 230.436 54.2835 229.149 54.7636Z" fill="white"/>
</mask>
<g mask="url(#mask21_584_902)">
<path d="M230.032 52.3321C230.095 52.1659 230.115 51.9831 230.084 51.8011L229.758 49.6631L231.447 54.9967L227.108 55.8027L225.956 53.4693L226.828 54.0429C227.251 54.3247 227.745 54.4733 228.245 54.474C228.653 54.4797 228.997 54.3908 229.284 54.1099L229.771 53.3843C229.688 53.1823 229.91 52.626 230.032 52.3321Z" fill="#F7C7D9" stroke="#F7C7D9" stroke-miterlimit="10"/>
</g>
<path d="M229.149 54.7636C227.862 55.2437 226.43 54.5885 225.951 53.3002C225.471 52.0118 226.126 50.5782 227.413 50.0981C228.699 49.6179 230.131 50.2731 230.611 51.5615C231.09 52.8498 230.436 54.2835 229.149 54.7636Z" stroke="#F7C7D9" stroke-miterlimit="10"/>
<mask id="mask22_584_902" style="mask-type:luminance" maskUnits="userSpaceOnUse" x="229" y="42" width="6" height="6">
<path d="M231.637 47.8333C230.279 47.6258 229.347 46.3558 229.554 44.9966C229.761 43.6375 231.03 42.7039 232.388 42.9114C233.745 43.1189 234.678 44.389 234.47 45.7481C234.263 47.1073 232.994 48.0409 231.637 47.8333Z" fill="white"/>
</mask>
<g mask="url(#mask22_584_902)">
<path d="M233.593 46.1398C233.737 46.0245 233.844 45.8751 233.899 45.7056L234.651 43.6791L233.532 49.1616L229.346 47.7525L229.475 45.1572L229.962 46.0845C230.191 46.5328 230.551 46.9008 230.996 47.151C231.349 47.3557 231.694 47.4475 232.086 47.337L232.858 46.9406C232.882 46.7195 233.345 46.3453 233.599 46.1519L233.593 46.1398Z" fill="#F7C7D9" stroke="#F7C7D9" stroke-miterlimit="10"/>
</g>
<path d="M231.637 47.8333C230.279 47.6258 229.347 46.3558 229.554 44.9966C229.761 43.6375 231.03 42.7039 232.388 42.9114C233.745 43.1189 234.678 44.389 234.47 45.7481C234.263 47.1073 232.994 48.0409 231.637 47.8333Z" stroke="#F7C7D9" stroke-miterlimit="10"/>
</g>
<mask id="mask23_584_902" style="mask-type:luminance" maskUnits="userSpaceOnUse" x="149" y="13" width="6" height="6">
<path d="M154.288 17.2046C153.799 18.4887 152.362 19.1319 151.078 18.6412C149.795 18.1505 149.151 16.7117 149.64 15.4276C150.13 14.1435 151.567 13.5004 152.85 13.9911C154.133 14.4818 154.777 15.9205 154.288 17.2046Z" fill="white"/>
</mask>
<g mask="url(#mask23_584_902)">
<path d="M154.674 16.6115L153.782 17.6924C153.629 17.8842 153.391 17.9835 153.142 17.9786C152.831 17.98 152.528 18.0942 152.288 18.303C151.975 18.5737 151.537 18.6465 151.147 18.4875L151.051 18.4507C150.783 18.3385 150.573 18.128 150.458 17.8534L150.297 17.4614L150.213 17.2594C150.053 16.8674 150.056 16.4381 150.215 16.0481C150.357 15.7018 150.394 15.3154 150.327 14.9394L150.011 13.3263L147.884 18.4616L153.016 20.5943L153.905 18.1302" fill="#F7C7D9"/>
<path d="M154.674 16.6115L153.782 17.6924C153.629 17.8842 153.391 17.9835 153.142 17.9786C152.831 17.98 152.528 18.0942 152.288 18.303C151.975 18.5737 151.537 18.6465 151.147 18.4875L151.051 18.4507C150.783 18.3385 150.573 18.128 150.458 17.8534L150.297 17.4614L150.213 17.2594C150.053 16.8674 150.056 16.4381 150.215 16.0481C150.357 15.7018 150.394 15.3154 150.327 14.9394L150.011 13.3263L147.884 18.4616L153.016 20.5943L153.905 18.1302" stroke="#F7C7D9" stroke-miterlimit="10"/>
</g>
<path d="M154.287 17.2039C153.798 18.4884 152.361 19.1322 151.078 18.6419C149.795 18.1517 149.151 16.7129 149.641 15.4284C150.131 14.1439 151.568 13.5 152.851 13.9903C154.134 14.4806 154.777 15.9193 154.287 17.2039Z" stroke="#F7C7D9" stroke-miterlimit="10"/>
<mask id="mask24_584_902" style="mask-type:luminance" maskUnits="userSpaceOnUse" x="139" y="59" width="6" height="6">
<path d="M144.005 63.0636C143.516 64.3477 142.079 64.9909 140.796 64.5002C139.512 64.0095 138.868 62.5707 139.358 61.2866C139.847 60.0025 141.284 59.3593 142.567 59.85C143.851 60.3407 144.495 61.7795 144.005 63.0636Z" fill="white"/>
</mask>
<g mask="url(#mask24_584_902)">
<path d="M144.391 62.4705L143.499 63.5514C143.346 63.7432 143.108 63.8425 142.86 63.8376C142.549 63.839 142.245 63.9532 142.005 64.1619C141.692 64.4327 141.254 64.5055 140.864 64.3465L140.768 64.3097C140.501 64.1974 140.291 63.9869 140.175 63.7124L140.014 63.3204L139.931 63.1184C139.77 62.7264 139.773 62.2971 139.932 61.9071C140.074 61.5608 140.111 61.1744 140.044 60.7983L139.728 59.1853L137.601 64.3206L142.734 66.4533L143.623 63.9891" fill="#F7C7D9"/>
<path d="M144.391 62.4705L143.499 63.5514C143.346 63.7432 143.108 63.8425 142.86 63.8376C142.549 63.839 142.245 63.9532 142.005 64.1619C141.692 64.4327 141.254 64.5055 140.864 64.3465L140.768 64.3097C140.501 64.1974 140.291 63.9869 140.175 63.7124L140.014 63.3204L139.931 63.1184C139.77 62.7264 139.773 62.2971 139.932 61.9071C140.074 61.5608 140.111 61.1744 140.044 60.7983L139.728 59.1853L137.601 64.3206L142.734 66.4533L143.623 63.9891" stroke="#F7C7D9" stroke-miterlimit="10"/>
</g>
<path d="M144.005 63.0628C143.515 64.3474 142.078 64.9912 140.795 64.5009C139.512 64.0106 138.869 62.5719 139.359 61.2874C139.848 60.0028 141.285 59.359 142.568 59.8493C143.851 60.3396 144.494 61.7783 144.005 63.0628Z" stroke="#F7C7D9" stroke-miterlimit="10"/>
<mask id="mask25_584_902" style="mask-type:luminance" maskUnits="userSpaceOnUse" x="95" y="39" width="6" height="6">
<path d="M100.071 42.4739C99.5813 43.758 98.1442 44.4011 96.8608 43.9104C95.5774 43.4197 94.9336 41.981 95.4229 40.6969C95.9122 39.4128 97.3492 38.7696 98.6327 39.2603C99.9161 39.751 100.56 41.1898 100.071 42.4739Z" fill="white"/>
</mask>
<g mask="url(#mask25_584_902)">
<path d="M100.457 41.8808L99.5644 42.9617C99.4112 43.1535 99.1732 43.2527 98.9248 43.2479C98.6141 43.2492 98.3103 43.3634 98.0706 43.5722C97.7573 43.8429 97.3192 43.9158 96.9294 43.7567L96.8333 43.72C96.5658 43.6077 96.3557 43.3972 96.2401 43.1227L96.0792 42.7307L95.9961 42.5286C95.8351 42.1366 95.8386 41.7073 95.9972 41.3173C96.1391 40.9711 96.1763 40.5847 96.1094 40.2086L95.7932 38.5956L93.6663 43.7309L98.799 45.8635L99.6878 43.3994" fill="#F7C7D9"/>
<path d="M100.457 41.8808L99.5644 42.9617C99.4112 43.1535 99.1732 43.2527 98.9248 43.2479C98.6141 43.2492 98.3103 43.3634 98.0706 43.5722C97.7573 43.8429 97.3192 43.9158 96.9294 43.7567L96.8333 43.72C96.5658 43.6077 96.3557 43.3972 96.2401 43.1227L96.0792 42.7307L95.9961 42.5286C95.8351 42.1366 95.8386 41.7073 95.9972 41.3173C96.1391 40.9711 96.1763 40.5847 96.1094 40.2086L95.7932 38.5956L93.6663 43.7309L98.799 45.8635L99.6878 43.3994" stroke="#F7C7D9" stroke-miterlimit="10"/>
</g>
<path d="M100.07 42.4731C99.5801 43.7576 98.1431 44.4015 96.8601 43.9112C95.5771 43.4209 94.934 41.9821 95.4237 40.6976C95.9134 39.4131 97.3505 38.7693 98.6335 39.2595C99.9165 39.7498 100.56 41.1886 100.07 42.4731Z" stroke="#F7C7D9" stroke-miterlimit="10"/>
<mask id="mask26_584_902" style="mask-type:luminance" maskUnits="userSpaceOnUse" x="49" y="22" width="6" height="6">
<path d="M54.2662 25.6277C53.7769 26.9118 52.3399 27.555 51.0565 27.0643C49.7731 26.5736 49.1293 25.1348 49.6186 23.8507C50.1079 22.5666 51.5449 21.9234 52.8283 22.4141C54.1117 22.9048 54.7555 24.3436 54.2662 25.6277Z" fill="white"/>
</mask>
<g mask="url(#mask26_584_902)">
<path d="M54.6523 25.0346L53.7601 26.1155C53.6069 26.3073 53.3689 26.4066 53.1205 26.4017C52.8097 26.4031 52.506 26.5173 52.2663 26.726C51.953 26.9968 51.5148 27.0696 51.125 26.9106L51.0289 26.8738C50.7615 26.7615 50.5514 26.551 50.4358 26.2765L50.2749 25.8845L50.1917 25.6825C50.0308 25.2905 50.0343 24.8612 50.1929 24.4712C50.3348 24.1249 50.3719 23.7385 50.3051 23.3624L49.9888 21.7494L47.862 26.8847L52.9946 29.0174L53.8835 26.5532" fill="#F7C7D9"/>
<path d="M54.6523 25.0346L53.7601 26.1155C53.6069 26.3073 53.3689 26.4066 53.1205 26.4017C52.8097 26.4031 52.506 26.5173 52.2663 26.726C51.953 26.9968 51.5148 27.0696 51.125 26.9106L51.0289 26.8738C50.7615 26.7615 50.5514 26.551 50.4358 26.2765L50.2749 25.8845L50.1917 25.6825C50.0308 25.2905 50.0343 24.8612 50.1929 24.4712C50.3348 24.1249 50.3719 23.7385 50.3051 23.3624L49.9888 21.7494L47.862 26.8847L52.9946 29.0174L53.8835 26.5532" stroke="#F7C7D9" stroke-miterlimit="10"/>
</g>
<path d="M54.2655 25.6269C53.7758 26.9115 52.3388 27.5553 51.0558 27.065C49.7728 26.5747 49.1297 25.136 49.6194 23.8515C50.1091 22.5669 51.5462 21.9231 52.8292 22.4134C54.1121 22.9037 54.7552 24.3424 54.2655 25.6269Z" stroke="#F7C7D9" stroke-miterlimit="10"/>
<mask id="mask27_584_902" style="mask-type:luminance" maskUnits="userSpaceOnUse" x="163" y="54" width="6" height="6">
<path d="M168.31 57.4482C167.82 58.7323 166.383 59.3755 165.1 58.8848C163.817 58.3941 163.173 56.9553 163.662 55.6712C164.151 54.3871 165.588 53.7439 166.872 54.2346C168.155 54.7254 168.799 56.1641 168.31 57.4482Z" fill="white"/>
</mask>
<g mask="url(#mask27_584_902)">
<path d="M168.696 56.8551L167.804 57.936C167.65 58.1278 167.412 58.2271 167.164 58.2222C166.853 58.2236 166.549 58.3378 166.31 58.5466C165.996 58.8173 165.558 58.8901 165.168 58.7311L165.072 58.6943C164.805 58.582 164.595 58.3715 164.479 58.097L164.318 57.705L164.235 57.503C164.074 57.111 164.078 56.6817 164.236 56.2917C164.378 55.9454 164.415 55.559 164.349 55.183L164.032 53.5699L161.905 58.7052L167.038 60.8379L167.927 58.3738" fill="#F7C7D9"/>
<path d="M168.696 56.8551L167.804 57.936C167.65 58.1278 167.412 58.2271 167.164 58.2222C166.853 58.2236 166.549 58.3378 166.31 58.5466C165.996 58.8173 165.558 58.8901 165.168 58.7311L165.072 58.6943C164.805 58.582 164.595 58.3715 164.479 58.097L164.318 57.705L164.235 57.503C164.074 57.111 164.078 56.6817 164.236 56.2917C164.378 55.9454 164.415 55.559 164.349 55.183L164.032 53.5699L161.905 58.7052L167.038 60.8379L167.927 58.3738" stroke="#F7C7D9" stroke-miterlimit="10"/>
</g>
<path d="M168.309 57.4475C167.819 58.732 166.382 59.3758 165.099 58.8855C163.816 58.3953 163.173 56.9565 163.663 55.672C164.153 54.3875 165.59 53.7436 166.873 54.2339C168.156 54.7242 168.799 56.1629 168.309 57.4475Z" stroke="#F7C7D9" stroke-miterlimit="10"/>
<mask id="mask28_584_902" style="mask-type:luminance" maskUnits="userSpaceOnUse" x="21" y="50" width="6" height="6">
<path d="M26.2226 53.7046C25.7334 54.9887 24.2963 55.6319 23.0129 55.1412C21.7295 54.6505 21.0857 53.2117 21.575 51.9276C22.0643 50.6435 23.5013 50.0004 24.7848 50.4911C26.0682 50.9818 26.7119 52.4205 26.2226 53.7046Z" fill="white"/>
</mask>
<g mask="url(#mask28_584_902)">
<path d="M26.6088 53.1115L25.7165 54.1924C25.5633 54.3842 25.3253 54.4835 25.0769 54.4786C24.7662 54.48 24.4624 54.5942 24.2227 54.803C23.9094 55.0737 23.4713 55.1465 23.0815 54.9875L22.9854 54.9507C22.7179 54.8385 22.5078 54.628 22.3922 54.3534L22.2313 53.9614L22.1482 53.7594C21.9872 53.3674 21.9907 52.9381 22.1493 52.5481C22.2912 52.2018 22.3284 51.8154 22.2615 51.4394L21.9453 49.8263L19.8184 54.9616L24.9511 57.0943L25.8399 54.6302" fill="#F7C7D9"/>
<path d="M26.6088 53.1115L25.7165 54.1924C25.5633 54.3842 25.3253 54.4835 25.0769 54.4786C24.7662 54.48 24.4624 54.5942 24.2227 54.803C23.9094 55.0737 23.4713 55.1465 23.0815 54.9875L22.9854 54.9507C22.7179 54.8385 22.5078 54.628 22.3922 54.3534L22.2313 53.9614L22.1482 53.7594C21.9872 53.3674 21.9907 52.9381 22.1493 52.5481C22.2912 52.2018 22.3284 51.8154 22.2615 51.4394L21.9453 49.8263L19.8184 54.9616L24.9511 57.0943L25.8399 54.6302" stroke="#F7C7D9" stroke-miterlimit="10"/>
</g>
<path d="M26.2219 53.7039C25.7322 54.9884 24.2952 55.6322 23.0122 55.1419C21.7292 54.6517 21.0861 53.2129 21.5758 51.9284C22.0655 50.6439 23.5026 50 24.7856 50.4903C26.0686 50.9806 26.7117 52.4193 26.2219 53.7039Z" stroke="#F7C7D9" stroke-miterlimit="10"/>
<defs>
<clipPath id="clip0_584_902">
<rect width="40.3498" height="79.5621" fill="white" transform="matrix(-0.356225 0.9344 0.934117 0.356967 176.202 5.61539)"/>
</clipPath>
</defs>
</svg>
