<svg width="265" height="265" viewBox="0 0 265 265" fill="none" xmlns="http://www.w3.org/2000/svg">
<circle cx="132.5" cy="132.5" r="132.5" fill="#FC4D5C"/>
<path d="M132.5 0C160.481 3.33673e-07 187.744 8.85828 210.382 25.3053C233.019 41.7522 249.868 64.9435 258.515 91.5553C267.162 118.167 267.162 146.833 258.515 173.445C249.868 200.057 233.019 223.248 210.382 239.695C187.744 256.142 160.481 265 132.5 265C104.519 265 77.2557 256.142 54.6184 239.695C31.9811 223.248 15.1317 200.056 6.48501 173.445C-2.16167 146.833 -2.16167 118.167 6.48502 91.5552L132.5 132.5L132.5 0Z" fill="#F7C7D9"/>
</svg>
