<svg width="265" height="265" viewBox="0 0 265 265" fill="none" xmlns="http://www.w3.org/2000/svg">
<circle cx="132.5" cy="132.5" r="132.5" fill="#273AAA"/>
<path d="M132.5 0C154.29 2.5984e-07 175.743 5.37381 194.96 15.6454C214.177 25.917 230.564 40.7694 242.67 58.8869C254.775 77.0045 262.226 97.8279 264.362 119.513C266.498 141.198 263.253 163.074 254.914 183.206C246.575 203.337 233.401 221.101 216.557 234.924C199.713 248.747 179.721 258.203 158.349 262.454C136.978 266.705 114.889 265.62 94.0373 259.295C73.1858 252.969 54.2161 241.599 38.8084 226.192L132.5 132.5L132.5 0Z" fill="#D1ECEF"/>
</svg>
