<svg width="319" height="322" viewBox="0 0 319 322" fill="none" xmlns="http://www.w3.org/2000/svg">
<path d="M89.5 173.5L101 172.5L92.5 173.5L88 175L82 177.5L77 181L72.5 184.5L68 189.5L64 195L67.5 189L71.5 184L76 180L82 176L89.5 173.5Z" fill="#F7C7D9"/>
<path d="M98 195L102 193L101 194.5L99 196.5L101 197H108L112 196.5L116.5 195L119.5 194L120.5 192.5L120 191L116 189.5L120 190L123.5 192L122.5 194.5L116.5 196.5L108 198L100.5 198.5L97.5 197L98 195Z" fill="#F7C7D9"/>
<path d="M183 132.5L188 129L183 133L180.5 135L180 137.5L181.5 138.5L184.5 138L187 137.5L185 138.5L181.5 139H183L186 141L186.474 142.421C187.153 144.46 187.5 146.596 187.5 148.746V150V151.482C187.5 152.802 187.859 154.098 188.538 155.231C188.845 155.742 189.213 156.213 189.634 156.634L191.5 158.5L193 160H197L193 160.5L191.5 160L188.5 156L188.252 155.69C187.105 154.256 186.363 152.541 186.103 150.723C186.035 150.242 186 149.756 186 149.27V148.654C186 146.893 185.755 145.141 185.271 143.449L185 142.5L183 140.5H181L179.5 143L180 140.5L181 139H181.5L179.5 137.5L180 134.5L183 132.5Z" fill="#F7C7D9"/>
<path d="M195 127.5L198.5 128.5L194.5 127L191.5 128L190 130.5L188.5 134L187.5 137.5L187.139 139.304C187.049 139.755 187.112 140.223 187.317 140.634C187.723 141.446 188.611 141.898 189.506 141.749L190.712 141.548C190.904 141.516 191.093 141.469 191.277 141.408L191.374 141.375C192.115 141.128 192.787 140.713 193.339 140.161L194.5 139L195 136.5L196 134L196.5 133H197.5L198.5 133.5L198 133L196.5 132.5L195.5 133.5L194.5 136.5L193.941 137.617C193.649 138.202 193.264 138.736 192.802 139.198L192.151 139.849C191.727 140.273 191.186 140.563 190.597 140.681L189.391 140.922C189.147 140.971 188.894 140.894 188.718 140.718C188.578 140.578 188.5 140.389 188.5 140.191V138.5L189 134.5L190.5 130.5L192 128.5L195 127.5Z" fill="#F7C7D9"/>
<path d="M202 129L200.5 130L199 132L199.5 130.5L201 129L202 128H202.925C203.947 128 204.942 128.332 205.76 128.945C206.249 129.311 206.662 129.769 206.976 130.293L207.021 130.368C207.653 131.421 207.887 132.677 207.685 133.888C207.564 134.617 207.288 135.318 206.879 135.932L205.727 137.659C205.576 137.886 205.403 138.097 205.211 138.289C204.435 139.065 204 140.116 204 141.212V142.5V148L203.608 151.139C203.537 151.703 203.321 152.239 202.98 152.694L202.561 153.253C202.208 153.723 201.654 154 201.066 154C200.697 154 200.336 153.891 200.029 153.686L199.597 153.398C199.203 153.135 198.865 152.797 198.602 152.403L198.563 152.345C198.194 151.791 197.971 151.152 197.916 150.488L197.5 145.5L198.282 149.804C198.424 150.583 198.8 151.3 199.36 151.86L200.146 152.646C200.373 152.873 200.68 153 201 153C201.32 153 201.627 152.873 201.854 152.646L202.25 152.25C202.73 151.77 203 151.118 203 150.439V148L203.5 142.5V142C203.5 140.377 204.026 138.798 205 137.5L206.221 135.669C206.729 134.907 207 134.011 207 133.095C207 132.375 206.832 131.665 206.51 131.02L206.371 130.741C206.127 130.254 205.773 129.83 205.337 129.503C204.491 128.868 203.404 128.649 202.379 128.905L202 129Z" fill="#F7C7D9"/>
<path d="M197.5 138L199 135L198 138L197.5 140V141.5V143.5L197 141.5V140L197.5 138Z" fill="#F7C7D9"/>
<path d="M213.5 141.5L215 138L215.5 137.5L215 140.5L213.5 142.5L212.5 144L213 148L213.402 150.814C213.467 151.267 213.443 151.728 213.332 152.173L213.14 152.94C213.05 153.3 212.829 153.614 212.519 153.82C211.927 154.216 211.137 154.137 210.634 153.634L210.592 153.592C210.531 153.531 210.475 153.465 210.425 153.394L208 150L206 146.5V142L207.5 139L208.5 136.5L209.103 134.994C209.359 134.354 209.841 133.83 210.457 133.521C211.125 133.188 211.898 133.133 212.606 133.369L212.711 133.404C212.903 133.468 213.089 133.551 213.265 133.651L216.5 135.5L220 138.5L222.5 141.5L223.098 142.297C223.697 143.096 224.388 143.823 225.155 144.462C226.374 145.479 227.405 146.729 228.176 148.117C229.042 149.676 229.592 151.416 229.769 153.191L229.837 153.869C229.945 154.954 229.945 156.046 229.837 157.131L229.5 160.5V157.293C229.5 156.101 229.382 154.911 229.148 153.742C228.72 151.598 227.906 149.55 226.748 147.696L226 146.5L222 141.5L218 138L213.713 134.666C213.571 134.556 213.419 134.46 213.258 134.379L213.049 134.274C212.124 133.812 211.007 133.993 210.276 134.724C210.093 134.907 209.941 135.118 209.826 135.349L208.5 138L206.5 142.5V146.5L208.5 149.5L211.115 152.986C211.338 153.284 211.742 153.379 212.075 153.213C212.335 153.082 212.5 152.816 212.5 152.524V149.861C212.5 149.621 212.483 149.381 212.449 149.143L212 146V143.5L213.5 141.5Z" fill="#F7C7D9"/>
<path d="M192.5 149L189 142.5L191 144L193.5 148.5C194.469 150.761 194.613 153.291 193.906 155.647L193.5 157L193.666 155.337C193.884 153.157 193.48 150.96 192.5 149Z" fill="#F7C7D9"/>
<path d="M204 156L197.5 156.5L204 155.5L208.5 156L211.5 157.5L208.5 156.5L204 156Z" fill="#F7C7D9"/>
<path d="M123.5 211.5L135.5 207.5L124.5 214.5L116.5 220L109 227L103.5 234L91 254L97.5 242.5L102 233.5L107 226L113 219L123.5 211.5Z" fill="#F7C7D9"/>
<path d="M123.403 219.366L121.5 220L123.699 217.801C124.212 217.288 124.907 217 125.633 217H125.814C126.561 217 127.264 217.351 127.711 217.949C128.202 218.603 128.321 219.463 128.026 220.226L120 241L112 261.5L118 241L124.215 225.701C124.405 225.234 124.555 224.753 124.664 224.261L125.36 221.131C125.449 220.728 125.371 220.306 125.142 219.962C124.763 219.394 124.051 219.15 123.403 219.366Z" fill="#F7C7D9"/>
<path d="M76 222.5L73.5 239V231L74.5 222.5L76 217L81 207.5L76 222.5Z" fill="#F7C7D9"/>
<path d="M83.5 214.5V208.186C83.5 207.747 83.3256 207.326 83.0152 207.015C82.4327 206.433 82.3671 205.51 82.8614 204.851L83.1 204.533C83.3518 204.198 83.747 204 84.1667 204C84.903 204 85.5 204.597 85.5 205.333V206.5L85 214.5L84.5 225L83 232.5L83.5 237.5L82 232.5L83 225L83.5 214.5Z" fill="#F7C7D9"/>
<path d="M60 214.5L55 209V211.5L59 214.5L60 219V214.5Z" fill="#F7C7D9"/>
<path d="M60.5 222.474V219L61.2475 221.242C61.7474 222.742 62.4234 224.177 63.2612 225.518L67 231.5L73 242.5L63 230.5L61.3951 228.093C60.4988 226.748 60.1478 225.113 60.4135 223.519C60.4711 223.174 60.5 222.824 60.5 222.474Z" fill="#F7C7D9"/>
<path d="M74.5 247.5L73.5 243L94 276L100.459 285.285C101.482 286.755 102.697 288.081 104.073 289.228L106.217 291.014C107.402 292.001 108.697 292.848 110.076 293.538L110.729 293.865C112.237 294.618 113.834 295.179 115.483 295.532L118.376 296.152C119.457 296.384 120.555 296.525 121.659 296.575L131 297H141L152.576 296.143C153.856 296.048 155.123 295.83 156.361 295.492L165.5 293L179 288L193.5 280.5L179.5 289L166.5 294.5L157.411 296.979C156.14 297.325 154.838 297.546 153.524 297.636L142.685 298.384C141.564 298.461 140.438 298.444 139.319 298.332L131 297.5L120 297H113.506C110.547 297 107.633 296.276 105.018 294.892C102.063 293.328 99.5987 290.978 97.8956 288.101L78 254.5L74.5 247.5Z" fill="#F7C7D9"/>
<path d="M141 249.5L143 239V249.5L144.5 261.5L148 271L155.5 274H164L175.5 281.5L164 275H155.5L147 272L143 261.5L141 249.5Z" fill="#F7C7D9"/>
<path d="M153.775 262.696L147 261.5H155.5H159.668C161.515 261.5 163.32 260.953 164.856 259.929C165.285 259.644 165.736 259.394 166.206 259.182L175.5 255L173.709 256.535C172.573 257.509 171.332 258.352 170.008 259.048L166.873 260.698C164.001 262.21 160.804 263 157.558 263H157.251C156.086 263 154.923 262.898 153.775 262.696Z" fill="#F7C7D9"/>
<path d="M183.455 279.404L179 281.5L182.541 279.209C185.778 277.114 189.551 276 193.406 276H196.5H201.189C202.385 276 203.571 275.772 204.681 275.328C206.819 274.472 208.569 272.862 209.599 270.803L211.774 266.452C212.587 264.825 213.175 263.094 213.521 261.308L215.526 250.95C215.841 249.323 215.952 247.663 215.858 246.009L215 231L216.733 246.16C216.91 247.715 216.905 249.285 216.717 250.838L215.471 261.115C215.16 263.681 214.355 266.162 213.099 268.421L211.699 270.941C210.587 272.943 208.956 274.609 206.978 275.763C205.028 276.901 202.81 277.5 200.553 277.5H196.5H191.971C189.027 277.5 186.119 278.15 183.455 279.404Z" fill="#F7C7D9"/>
<path d="M204 296.5L203 280.5L208 308L206.5 322V308L204 296.5Z" fill="#F7C7D9"/>
<path d="M219.5 321L210 318L219.5 320H227.754C229.904 320 232.04 319.653 234.079 318.974L237 318L242.974 315.891C244.651 315.3 246.241 314.487 247.702 313.475L249.332 312.347C251.099 311.124 252.658 309.623 253.947 307.904L255.418 305.943C256.138 304.983 256.77 303.96 257.307 302.887L261.5 294.5L265 289L264 284L260.5 279L265 284L266 289L263.33 293.195C262.778 294.064 262.293 294.974 261.88 295.917L259 302.5L257.894 305.027C256.332 308.598 253.761 311.634 250.497 313.763L246.971 316.062C245.006 317.344 242.83 318.27 240.543 318.798L233.219 320.488C231.745 320.828 230.236 321 228.722 321H219.5Z" fill="#F7C7D9"/>
<path d="M241 290.5H233L241 289L247 287L253 284L260.5 276L254.5 284L248.5 288L241 290.5Z" fill="#F7C7D9"/>
<path d="M57.5 267.897V249.5L60 269.5L64.1439 296.205C64.3805 297.73 64.7928 299.222 65.3726 300.652L72 317L64.6178 303.876C63.5465 301.972 62.7946 299.904 62.3919 297.757L60 285L57.7552 271.082C57.5853 270.029 57.5 268.964 57.5 267.897Z" fill="#F7C7D9"/>
<path d="M18 152L25 145L26.5 143.5L22 145L15.5 152L10.5 160.5L8.5 169V184.5L14 198.5L20 207.5L15.5 198.5L10.5 184.5V169L13 160.5L18 152Z" fill="#F7C7D9"/>
<path d="M180.669 258H187.5L185 257.5L182.686 257.114C182.23 257.038 181.784 256.913 181.355 256.742L180.15 256.26C179.727 256.091 179.365 255.797 179.112 255.417C178.726 254.839 178.629 254.114 178.849 253.454L178.937 253.19C178.979 253.064 179.03 252.94 179.09 252.821L179.231 252.537C179.737 251.526 180 250.412 180 249.281V246.386C180 244.145 179.615 241.921 178.861 239.812L177.5 236L176.5 230V223.5L178 215.5L180.5 207L183 201L184.5 200L203 186.5L222.5 171.5L230.5 165.5L239.5 150.5L252 126L264.5 98.5L265.5 96.5L271 92H270L265 96L263.5 97L251 125L237.5 149.5L229.5 164.5L222.5 169.5L215.5 175L205.5 183L200.5 187L182.5 200.5L177.5 210.5L175 223V228.5L176 236.5L177.5 242.5L178.357 248.5C178.452 249.166 178.5 249.837 178.5 250.51V251.8C178.5 252.264 178.435 252.726 178.308 253.173L177.956 254.404C177.675 255.389 177.949 256.449 178.674 257.174C179.203 257.703 179.92 258 180.669 258Z" fill="#F7C7D9"/>
<path d="M200.5 262L195 258.5L197.5 259.5L201 261.5L204.5 265V267.5L204 265L200.5 262Z" fill="#F7C7D9"/>
<path d="M201.5 256.5L194.5 255.5L201.5 256L207 257.5L210.5 260.5L211 263L208.5 264.5L210 263L209.5 260.5L206.5 258L201.5 256.5Z" fill="#F7C7D9"/>
<path d="M225 262L220 256.5L225.5 261.5L231.5 264.5L238.5 266L243 268.5L244 272L243.5 270.5L242.5 269.5L238 266.5L231 265.5L225 262Z" fill="#F7C7D9"/>
<path d="M242 276V280.5L242.5 276L245.5 272.5L250.5 270H255.5L260.5 271.5L265 275.5L267 276.5L268 277L268.5 275.5V271.5L266.5 268L260 256L251.5 241.5L248 238L244 235L241.5 234L243.5 235.5L247 238.5L250.5 243L262.5 264.5L267 272.5L267.5 275.5L266 275L262.5 272L256.5 269H249.5L245 272L242 276Z" fill="#F7C7D9"/>
<path d="M244.5 257.5V267.5V269.5L245 266L246 259.5L246.304 256.766C246.434 255.591 246.46 254.407 246.382 253.227L246.253 251.294C246.086 248.787 245.448 246.334 244.372 244.063L241.5 238L238.5 229.5L236.5 219.5V210L235 219.5L238 229.5L241 238L243.512 247.629C243.837 248.873 244.04 250.146 244.121 251.43L244.5 257.5Z" fill="#F7C7D9"/>
<path d="M218 225.5L189.5 258.5L198.5 245L207 233.5L214.5 225L224 214.5L233 207L240.5 200.5L258 188L273.5 178L289 168.5L296 164L306 157.5L313.5 151.5L315.5 148L316.5 144.5L316 141.5L315 139.5H314L313.5 140L313 142L312 144.255L307.5 146.5L301 149.5L297 151.5L296.5 151L298.5 148L302.5 143L306 137.5L308.5 135.5L312 133.5L315.5 132.849L317.5 131L318 128.5L317.5 126L315 123L312.5 122.5L309 124L303.5 127L299.5 130.5L290.5 138.5L284.5 143.5L285.5 141.5L292 133L297.5 125L301 120.5L304 118L310.5 115.5L314 113.5L314.5 111.5L314 108L312.5 105.5L311 104L308 104.5L311 103.5L312.5 104L315 107.5L316 111.5L315 114L313 116V121.5L315.5 122L318.5 125.5L319 128.5L318.5 131.5L316.5 133.5L314 134.5V138.5H315L317 141L317.5 144.5L316 150.5L308.5 157L297 165.5L268 184.5L249.5 197L233 210.5L218 225.5Z" fill="#F7C7D9"/>
<path d="M110.5 74.5L113.5 73L117 71.5L121 70L126 70.5L130 74.5L131 76L129.5 74.5L126.869 71.8691L127 73.5L126.5 75L125.5 76.5H125L123 76L119.5 75.5H116.5L119.5 75L119 74V72.5L119.5 71L116.5 72L110.5 74.5Z" fill="#F7C7D9"/>
<path d="M136 62.5L135.5 69.5L130.5 67.5L123 66.5H115.5H110.5L107.5 67L105.5 67.5L103 74.5L96.5 83.5L86.5 88L78.5 90H73.5L76.5 97.5L81.5 101L85.5 101.5L88 100L87 106V111L91 118L92.9936 122.842C93.9882 125.257 94.5 127.844 94.5 130.456V132.52C94.5 133.837 94.3699 135.15 94.1116 136.442L93.5 139.5L92.4422 139.394C89.8394 139.134 87.2107 139.387 84.7052 140.138L83.5 140.5C80.2332 141.807 77.402 144.01 75.3326 146.855L74.5 148L71.8184 152.98C71.2738 153.992 70.8174 155.048 70.4541 156.138L68.5 162L66.5 168.5L65 173L68.5 168.5L71 166L75.5 163.5L77.5 163L75.5 164L72.5 166.5L71 168.5L68 172L66.5626 174.3C65.856 175.43 65.2642 176.629 64.796 177.877L64 180L62 185L60.4661 188.988C59.8249 190.655 59.4099 192.401 59.2322 194.178L59 196.5L58.5 200.5L51.9228 231.976C51.6417 233.322 51.5 234.693 51.5 236.067V241.5L50.5 262.5L51.4143 288.557C51.4712 290.18 51.7255 291.789 52.1715 293.35L56.5 308.5L51.5 295L50.5 291L49 278.5L48.5 262L47.1509 262.6C45.0657 263.526 42.8372 264.089 40.5621 264.264L39.5121 264.345C38.1741 264.448 36.8291 264.416 35.4975 264.25L29.5 263.5L25.5 261L28 264.5L29.37 265.459C31.761 267.133 34.4894 268.263 37.3635 268.77L38.7813 269.02C40.5852 269.339 42.4243 269.408 44.247 269.225L46.5 269L45.9511 269.165C43.0227 270.043 39.9319 270.239 36.9162 269.736L35.4664 269.494C33.4999 269.167 31.5934 268.547 29.8101 267.655L25.5 265.5L21 262L17.7387 260.495C15.5965 259.506 13.6461 258.146 11.9777 256.478L11.9003 256.4C10.9691 255.469 10.132 254.448 9.40148 253.352L8.18777 251.532C7.06902 249.854 6.21055 248.016 5.64146 246.081L4.98269 243.841C4.33245 241.63 4.06919 239.324 4.20451 237.023L4.5 232L4.85593 238.051C4.95162 239.677 5.24576 241.286 5.73181 242.842L6.59029 245.589C7.19328 247.518 8.08533 249.345 9.23604 251.008L9.72835 251.719C11.228 253.885 13.1409 255.733 15.357 257.158L19 259.5L13.0283 251.822C12.344 250.942 11.7344 250.007 11.2059 249.025L9.97476 246.739C8.99746 244.924 8.30663 242.969 7.92674 240.943L7.4756 238.537C7.15984 236.852 7.0618 235.135 7.18387 233.426L7.36067 230.951C7.45333 229.653 7.67234 228.368 8.01456 227.113L9 223.5L10 222L8 221.5L6.5 224L5 228L6 223.5L7 221L4 217.5C2.05075 215.226 0.876168 212.39 0.646447 209.404L0.638382 209.299C0.546508 208.105 0.608475 206.903 0.822759 205.725C1.26627 203.286 2.35032 201.008 3.96382 199.126L4.5 198.5C3.18474 201.131 2.5 204.031 2.5 206.972V207.702C2.5 208.233 2.53771 208.764 2.61284 209.29L2.71281 209.99C2.90151 211.311 3.40481 212.567 4.18033 213.652C5.04434 214.862 6.21638 215.818 7.57476 216.422L7.6898 216.473C9.19933 217.144 10.8674 217.376 12.5027 217.142L13.5 217L10.5581 215.693C9.53311 215.237 8.62653 214.552 7.90843 213.69C6.98978 212.588 6.41551 211.24 6.25705 209.813L6.19792 209.281C6.06723 208.105 6.16724 206.915 6.49236 205.777L7 204V206.231C7 207.074 7.10334 207.913 7.3077 208.731C7.7607 210.543 8.69766 212.198 10.0184 213.518L11 214.5L15 215.5L17 214.5L18.5 210.5V206.5L16.5 197.5L14.1356 190.801C13.7128 189.603 13.4051 188.368 13.2167 187.111L12.2213 180.475C12.074 179.493 12 178.501 12 177.508V171.801C12 169.943 12.259 168.094 12.7695 166.307L13.4053 164.082C13.8006 162.698 14.3441 161.361 15.0263 160.094L16.338 157.658C17.1098 156.225 18.0536 154.891 19.1487 153.686L21.158 151.476C22.0485 150.497 22.8002 149.4 23.3922 148.216C24.1254 146.749 24.6039 145.169 24.8073 143.542L25 142L26.5 126.5L26 114L25 98.5L26.5 87.5L29.5 79L32 74.5L37 68.5L45.5 61L49.8557 55.0604C50.6168 54.0226 51.2759 52.9137 51.8239 51.7491L53.9971 47.1311C54.6634 45.7153 55.1612 44.2261 55.4804 42.6942L57.1759 34.5558C57.3916 33.5202 57.6892 32.5034 58.0657 31.5149L60.5374 25.0268C61.1762 23.3499 62.0378 21.7666 63.099 20.3195L65.8573 16.5582C66.6173 15.5218 67.4755 14.5611 68.4198 13.6894L73.5 9L76.7381 6.84129C77.5781 6.28123 78.4594 5.7856 79.3744 5.35863L83.6309 3.37226C84.8737 2.79229 86.1728 2.34169 87.5078 2.02758L91.3286 1.12857C93.1012 0.711476 94.9225 0.538438 96.742 0.614249L102.434 0.851435C104.793 0.949702 107.115 1.46469 109.294 2.37256L112 3.5L109.079 2.52633C107.04 1.84656 104.904 1.5 102.754 1.5H96.3212C94.7789 1.5 93.2418 1.6784 91.7405 2.03166L88.2564 2.85143C86.4279 3.28167 84.6692 3.96735 83.032 4.88827L79.589 6.82496C78.2013 7.60553 76.9118 8.54901 75.7478 9.63536L71.4011 13.6923C70.4692 14.5621 69.6225 15.519 68.8727 16.55L66 20.5L64.616 22.9912C63.8744 24.326 63.2882 25.7414 62.8687 27.2096L61.5 32L59.5 39L58 44L56.5631 48.3107C56.1884 49.4347 55.7147 50.5231 55.1473 51.5632L53.842 53.9563C53.2818 54.9834 52.6324 55.9595 51.9015 56.8731L49.9906 59.2618C49.3312 60.086 48.6077 60.8567 47.8267 61.5667L43.5 65.5L39.5 68.5L33.5 75.5L29.5 84.5L28 91L27 101.5L28 115.5L29.5 126L29 135L31.5 127L32 118.5V108.5L31.5 95.5L32.5 86L36 79L42.5 71.5L49.6742 63.4817C50.5559 62.4963 51.3377 61.4259 52.0081 60.2862L54.8121 55.5194C55.6013 54.1777 56.2312 52.7485 56.689 51.2607L58 47L63.5 32L66.2895 25.7236C67.0921 23.9178 68.1578 22.241 69.452 20.7477L74 15.5L81.0564 11.1877C82.348 10.3985 83.7249 9.75836 85.1609 9.27971L92 7L98.8568 5.47626C100.281 5.1597 101.736 5 103.195 5H108.5L117 6L123 8L127 7H132L135.649 8.1227C137.533 8.70236 139.29 9.63224 140.829 10.8635C142.589 12.2713 144.632 13.2829 146.818 13.8295L149.5 14.5L153.747 15.2494C156.55 15.7441 159.215 16.8315 161.565 18.4389L163.603 19.8339C166.166 21.5872 168.285 23.913 169.793 26.6272L170 27L169.882 25.935C169.633 23.7002 168.698 21.5975 167.204 19.9169C166.083 18.6563 164.685 17.6739 163.119 17.0475L160.5 16L156 14.5L150.299 13.4311C148.772 13.1447 147.283 12.6811 145.862 12.0499L145.055 11.6912C144.02 11.2312 143.026 10.6842 142.084 10.056L142 10L135.5 6L127.5 5.5L123 6H121C122.636 5.01848 124.508 4.5 126.415 4.5H127.5L136 5.5L143 9L145.608 10.4487C146.866 11.1475 148.195 11.7086 149.574 12.1221L152.5 13L158.613 14.3585C160.527 14.7837 162.366 15.4946 164.068 16.4672L165.135 17.077C167.341 18.3378 169.187 20.1445 170.494 22.3236C171.162 23.4364 171.681 24.632 172.037 25.8798L173.5 31L176 43.5L177.5 57L180.5 65.5L189 77.5L195 85.5L199 94L200 104L197.5 113L189 127.5L196.5 112.5L199 104L197.5 94L196 91L196.5 100L196 107L195 113.5L192 119L188 125.5L184.5 130.5L183 132.5L180 135V137.5L181.5 139L179.5 144.5L178 154L179.5 161.5L186 171L196 179.5L200.5 186L201 187L198 189L194 186L188 187L181 190L173.5 197.5L167.5 202.5L157 205.5L153.961 207.323C152.659 208.105 151.457 209.043 150.383 210.117C148.807 211.693 147.528 213.539 146.606 215.567L146.115 216.647C145.706 217.548 145.364 218.478 145.092 219.429L145.038 219.618C144.68 220.87 144.446 222.153 144.337 223.451L144 227.5L143.65 223.296C143.55 222.102 143.575 220.901 143.724 219.712L143.742 219.56C143.913 218.192 144.259 216.852 144.771 215.572C145.582 213.545 146.796 211.704 148.34 210.16L149 209.5L152 207L151.5 194.5L152.5 189L154 185L147.5 181L143 182L142.018 182.701C140.349 183.893 138.874 185.335 137.643 186.976L136.5 188.5L136.447 188.562C134.553 190.771 131.892 192.179 129 192.5L131.5 195.5L134.5 198.5L130.5 196L127.5 193L123 187L117 178L112.404 171.733C111.802 170.912 111.138 170.138 110.419 169.419L107.67 166.67C106.891 165.891 106.049 165.178 105.153 164.538L101.342 161.816C100.118 160.941 98.7989 160.208 97.41 159.629L93.5 158H86L94 157.5L98.0066 159.041C99.6615 159.678 101.224 160.531 102.654 161.58L106.767 164.596C107.588 165.198 108.362 165.862 109.081 166.581L111.919 169.419C112.638 170.138 113.302 170.912 113.904 171.733L118.5 178L126 188.5L127.5 191H129L130.159 190.807C131.373 190.605 132.529 190.147 133.553 189.465C134.508 188.828 135.328 188.008 135.965 187.053L137.007 185.49C137.667 184.499 138.424 183.576 139.266 182.734L140 182L143.5 180.5L145 180L138 175.5L131.5 171.5L117 159.5L101.5 146L94.5 142.5L98.5 144L102 145.5L107 149.5L118.5 158.5L126 165L133 170L135 141V140H139.5H143L147 137.5L153 131.5L163 115.5L168 103.5L169.5 95.5V87L167.5 80.5L166 72.5L165.5 68L159.5 65L155.5 64.5L151 65.5L148 67.5L145.5 70.5L144.5 74L144 77.5V83L145 88L146.5 92L148 95.5L147.5 97.5L143.5 99.5L138 101L141 100L143.5 99L147 97.5L147.5 95.5L146.5 93L144.5 88L143.5 83.5V78L144 74L145.5 70.5L147 67.5L148.5 65.5L151 62.5L155.5 60.5H161L165 62L163.5 57L160.5 48.5L156 42L149 34.5L144.5 31L141 29.5L129.5 32L117.5 43.5L113.5 53L108 62L112 60.5L117.5 59H124.5L131 60.5L136 62.5Z" fill="#F7C7D9"/>
<path d="M152.5 73.5L148.5 76.5L154 72L156.5 71.5H160.5L163.5 73L165 75L166 77.5L163.5 74L162 73.25V74.5L161 76L158 77H155.5L154.25 75.5L154 74L154.25 72.75L152.5 73.5Z" fill="#F7C7D9"/>
<path d="M124.32 114.352L123.5 114H125.677C126.557 114 127.435 113.913 128.297 113.741L128.49 113.702C129.162 113.568 129.82 113.372 130.456 113.117L130.798 112.981C131.595 112.662 132.341 112.227 133.011 111.691L133.75 111.1C134.244 110.705 134.818 110.421 135.432 110.267C136.133 110.092 136.867 110.092 137.568 110.267L138.5 110.5L139.701 110.74C140.543 110.909 141.417 110.792 142.185 110.408L142.258 110.371C142.746 110.127 143.284 110 143.829 110C144.589 110 145.329 110.246 145.937 110.702L147 111.5C148.65 112.49 150.481 113.14 152.386 113.412L153 113.5L152.193 113.73C150.406 114.241 148.557 114.5 146.699 114.5H146.5L141.5 114H139.61C137.879 114 136.158 114.253 134.5 114.75L133.997 114.901C132.673 115.298 131.298 115.5 129.915 115.5C127.992 115.5 126.088 115.109 124.32 114.352Z" fill="#F7C7D9"/>
<path d="M137.5 122.5L134 121.5L137.5 122L141 122.5L144.5 121.5L147 120.5L144.5 122L141 123L137.5 122.5Z" fill="#F7C7D9"/>
<path d="M86.5 110.5L93 118.5L100 125L115 133L129 139L136 140.5H139" stroke="#F7C7D9"/>
<path d="M264.5 45.5L264.318 42.399C264.121 39.0552 265.713 35.858 268.5 34L274.037 39.1412C274.869 39.9136 274.983 41.1894 274.302 42.0975C274.103 42.3625 273.966 42.6686 273.901 42.9934L273.219 46.4056C273.074 47.1323 273.021 47.8744 273.062 48.6144L273.46 55.785C273.486 56.2567 273.609 56.718 273.82 57.1405L274.134 57.7682C274.375 58.2503 274.718 58.6744 275.139 59.0111L275.815 59.5518C276.537 60.1298 277.53 60.235 278.358 59.8212C278.776 59.6118 279.124 59.283 279.356 58.8764L280.39 57.067C280.79 56.3678 281 55.5764 281 54.7711V52L280.566 46.3517C280.522 45.7877 280.386 45.2348 280.164 44.7149C279.403 42.9406 279.156 40.9886 279.449 39.0807L280 35.5L304.5 40.5L308 44L311.5 104L305 106.5L296.704 110.056C295.24 110.683 293.856 111.483 292.582 112.438L288.5 115.5L280 123L272.411 129.64C272.146 129.872 271.806 130 271.454 130C270.651 130 270 129.349 270 128.546V127.79C270 127.597 270.025 127.406 270.075 127.22L272 120L274.5 110L276 105L276.721 101.032C276.905 100.025 277.32 99.0734 277.934 98.254C278.31 97.7539 278.754 97.3096 279.254 96.9345L284.5 93L292 86.5V84L290 83.5L280 86.5L272 91.5L265 97L264.5 70.5V45.5Z" fill="#F7C7D9"/>
<path d="M275.768 48.6967L275.84 48.4806C275.942 48.1729 276.163 47.9185 276.453 47.7735C276.797 47.6013 277.203 47.6013 277.547 47.7735C277.837 47.9185 278.058 48.1729 278.16 48.4806L278.358 49.0744C278.449 49.3469 278.428 49.6443 278.299 49.9013C278.116 50.2682 277.741 50.5 277.331 50.5H277.067C276.704 50.5 276.356 50.3557 276.099 50.0987C275.732 49.7318 275.604 49.189 275.768 48.6967Z" fill="#F7C7D9"/>
<path d="M275.777 53.4459L275.818 53.3648C275.936 53.128 276.128 52.936 276.365 52.8176C276.758 52.6212 277.225 52.6503 277.591 52.8939L277.796 53.031C278.236 53.324 278.5 53.8173 278.5 54.3456V54.4325C278.5 54.7959 278.356 55.1443 278.099 55.4013C277.732 55.7682 277.189 55.8963 276.697 55.7322L276.671 55.7236C276.249 55.5828 275.917 55.2515 275.776 54.8292L275.696 54.5877C275.57 54.2114 275.6 53.8007 275.777 53.4459Z" fill="#F7C7D9"/>
<path d="M274.753 41.4965L274 42.5L266.5 36L266.7 35.667C267.506 34.3226 268.959 33.5 270.527 33.5C270.842 33.5 271.155 33.5332 271.462 33.5991L285 36.5L280 43L279.398 42.0967C279.135 41.7028 278.797 41.3648 278.403 41.1022L278.128 40.9184C277.718 40.6456 277.238 40.5 276.746 40.5C275.962 40.5 275.223 40.8692 274.753 41.4965Z" fill="#F7C7D9"/>
</svg>
