<svg width="750" height="830" viewBox="0 0 750 830" fill="none" xmlns="http://www.w3.org/2000/svg">
<path d="M398.872 527.522L433.274 506.346L446.057 498.9L463.698 496.622L468.037 505.881L463.859 517.469L457.357 524.643L465.748 517.671L476.699 518.843L486.385 527.749L488.459 536.766L481.14 549.87L485.815 536.483L483.969 529.805L474.978 521.899L465.538 520.889L457.207 526.941L448.927 530.707L452.249 526.411L461.971 517.267L466.527 505.719L463.11 499.799L447.017 501.954L436.38 509.888L406.419 526.159L384.006 541.067L376.878 546.121L384.948 541.958L376.402 549.393L374.916 550.873C371.977 553.798 370.645 557.971 371.346 562.058C371.645 563.796 372.3 565.452 373.271 566.924L374.1 568.18C374.647 569.007 375.371 569.701 376.221 570.211C378.405 571.522 381.147 571.465 383.275 570.065L384.031 569.568L390.403 565.921L392.668 564.625C395.367 563.08 397.658 560.911 399.348 558.301L400.732 556.164C401.565 554.877 402.068 553.404 402.196 551.877L402.313 550.489C402.551 547.66 401.1 544.956 398.611 543.59C397.921 543.212 397.174 542.949 396.398 542.813L388.712 541.463L395.377 541.18C396.919 541.115 398.45 541.463 399.812 542.189C402.867 543.815 404.659 547.105 404.369 550.553L404.048 554.375L402.958 559.209L410.65 552.049L421.975 545.07L433.99 540.004L444.912 533.958L429.625 548.515L417.764 560.793L407.297 568.491L397.44 573.855L393.763 576.282L396.159 576.344C399.409 576.427 402.525 577.659 404.953 579.821L405.741 580.522C406.977 581.622 407.91 583.02 408.453 584.583C409.294 587.003 409.144 589.658 408.034 591.968L407.016 594.087C405.461 597.325 402.823 599.917 399.559 601.416L393.242 604.316L399.486 600.495C402.197 598.836 404.359 596.416 405.703 593.537L406.9 590.975C407.728 589.2 407.909 587.191 407.409 585.298C406.869 583.25 405.573 581.483 403.782 580.352L402.744 579.697C400.952 578.567 398.882 577.953 396.763 577.926L392.508 577.87L378.902 586.036L372.938 590.61L371.551 596.652L373.194 602.631L380.69 609.318L386.392 608.547L391.734 605.708L387.332 609.877L383.432 610.613L387.243 610.933L399.045 606.891L415.553 599.324L427.491 590.652L454.345 570.838L477.729 555.522L496.802 548.769L506.338 554.156L510.619 570.151L502.406 579.457L489.861 591.075L499.267 592.619L504.109 600.007L500.667 617.8L480.334 634.453L467.582 645.654L465.584 669.419L450.679 694.226L439.211 704.962L434.813 700.338L446.308 690.135L459.325 668.892L462.934 645.263L444.938 655.321C439.731 658.231 433.498 658.665 427.939 656.506L425.203 655.443L419.568 648.56L419.447 646.495L420.701 648.681L424.581 653.311L428.284 654.847C431.239 655.096 434.186 654.275 436.587 652.535L444.758 646.613L446.572 645.08C448.756 643.235 450.398 640.83 451.322 638.124C451.067 641.149 449.541 643.925 447.122 645.759L445.242 647.186L435.227 655.356C434.679 655.803 434.649 656.629 435.163 657.114C435.516 657.448 436.038 657.528 436.476 657.317L453.04 649.319L461.438 643.761L475.528 635.941L498.816 617.03L502.538 600.764L499.152 594.383L493.389 593.767L486.253 593.929L480.636 598.421L505.332 569.586L503.785 558.31L496.413 554.745L477.28 562.418L449.168 585.332L432.666 599.305L417.847 612.442L422.481 613.895L426.414 617.948L426.059 622.173L424.313 617.771L419.717 615.502L413.178 615.355L403.622 619.785C402.366 620.367 401.174 621.078 400.066 621.906L395.41 625.383C393.901 626.51 392.799 628.098 392.271 629.907C391.878 631.256 391.818 632.68 392.096 634.058L392.759 637.34C393.158 639.314 394.017 641.166 395.265 642.747L395.842 643.478C397.264 645.277 399.253 646.542 401.485 647.066L408.274 644.079L416.729 638.407L424.007 632.105L419.712 638.658L409.207 645.635L413.785 643.578L418.819 641.556L436.451 629.337L469.771 607.591L445.433 625.929L441.425 629.315L448.113 632.004L442.304 631.516L437.914 631.916L419.562 644.734L402.684 650.968C399.702 650.247 396.996 648.672 394.896 646.436L393.336 644.775C391.376 642.689 389.887 640.207 388.969 637.496L387.128 632.057L388.133 629.953C389.383 627.337 391.185 625.024 393.417 623.175L395.986 621.045L402.917 617.172L410.321 612.839L421.175 606.409L430.342 595.941L465.501 568.101L428.524 592.845L417.282 601.975L399.669 609.662L387.056 613.159L379.457 612.118L370.19 603.897L368.522 596.717L369.883 589.472L375.839 584.535L384.096 580.222L396.017 571.304L405.078 567.523L415.457 559.97L432.606 541.9L423.798 548.695L410.231 558.484L392.111 568.118L384.601 572.481L381.395 574.165C381.171 574.282 380.935 574.378 380.691 574.448C379.468 574.805 378.147 574.523 377.175 573.7L375.755 572.496C375.242 572.061 374.791 571.557 374.417 570.998L371.01 565.914C370.04 564.466 369.363 562.842 369.018 561.134C368.272 557.444 369.122 553.611 371.357 550.581L376.484 543.633L398.872 527.522Z" fill="#F7C7D9"/>
<path d="M324.845 497.726L338.111 472.781L345.597 465.965L356.43 457.302L368.616 464.177L374.328 478.484L375.637 494.549L374.483 508.28L364.124 530.278L356.273 554.083L350.347 569.124C347.738 575.748 348.846 583.259 353.257 588.847L358.146 595.041C359.422 596.658 360.441 598.462 361.166 600.389L370.423 624.989C371.89 628.887 372.104 633.146 371.034 637.171L360.234 677.801L366.219 635.135C366.647 632.082 366.363 628.972 365.391 626.046L359.526 608.411C358.494 605.308 356.717 602.504 354.349 600.247L347.025 593.265C341.381 587.883 339.38 579.712 341.898 572.331L348.352 553.417L355.146 529.524L366.033 507.57L368.594 496.085L368.519 477.996L365.798 466.067L356.031 462.055L347.532 468.255L341.585 475.732L334.844 486.334L327.925 499.049L333.115 501.277C334.777 501.991 336.544 502.432 338.346 502.584L338.734 502.616C342.519 502.934 346.292 501.877 349.36 499.639C351.803 497.857 353.682 495.412 354.775 492.593L356.496 488.154L359.053 483.051L358.609 488.332L357.572 491.918C356.308 496.296 353.474 500.054 349.612 502.473C346.216 504.6 342.222 505.569 338.229 505.233L337.376 505.161C336.064 505.051 334.766 504.811 333.5 504.446L327.615 502.745L316.372 541.306C315.898 542.932 315.219 544.492 314.352 545.947L291.511 584.272L278.23 622.801C278.176 622.958 278.141 623.12 278.127 623.285L273.399 679.544L273.921 622.986C273.923 622.784 273.955 622.584 274.017 622.392L287.597 580.221L309.859 543.274C310.672 541.925 311.323 540.485 311.798 538.983L324.845 497.726Z" fill="#F7C7D9"/>
<path d="M394.929 720.605L367.823 650.784L368.356 644.446L383.076 678.126L398.097 720.871L408.175 784.474L436.772 798.578L469.434 789.623L479.966 771.894L468.454 744.335L440.128 720.681L429.549 682.032L427.672 660.069L432.189 682.253L443.474 718.835L471.228 742.973L484.013 774.362L470.797 792.397L436.461 802.275L404.784 786.849L394.929 720.605Z" fill="#F7C7D9"/>
<path d="M388.804 483.424L395.238 533.425L391.541 533.115L386.851 506.661L385.635 483.158L397.933 457.068L444.404 377.969C447.732 372.305 449.911 366.042 450.816 359.536L457.496 311.565L461.298 266.325C461.544 263.396 461.532 260.452 461.26 257.525L458.043 222.795L449.783 157.34C448.122 144.182 441.302 132.222 430.823 124.093L382.002 86.2208C374.365 80.2965 365.174 76.7127 355.542 75.9031L285.475 70.014C277.367 69.3325 269.215 70.6401 261.727 73.8232L204.187 98.2827L125.5 132.491C116 136.621 108.018 143.599 102.656 152.461L82.7521 185.356C77.3579 194.272 74.8837 204.649 75.6755 215.039L80.9334 284.034C81.6594 293.56 85.0995 302.679 90.8466 310.311L142.328 378.678L192.924 438.067C198.778 444.938 206.383 450.096 214.932 452.994L262.37 469.074L306.366 489.791L322.768 509.784L322.191 516.649L302.448 492.121L259.947 472.594L210.782 456.677C202.294 453.929 194.695 448.96 188.775 442.285L135.635 382.37L82.1016 312.983C76.6459 305.911 73.184 297.508 72.0756 288.645L62.5842 212.757C61.3729 203.071 63.023 193.243 67.331 184.484L87.9605 142.541C93.5439 131.189 103.223 122.376 115.047 117.877L263.473 61.4034C270.472 58.7405 277.98 57.6837 285.442 58.3108L356.837 64.3116C366.269 65.1044 375.283 68.5583 382.83 74.2719L441.715 118.853C453.196 127.545 460.372 140.765 461.405 155.129L468.045 247.399C468.258 250.36 468.207 253.334 467.892 256.286L456.805 360.32C456.129 366.663 454.245 372.819 451.255 378.454L422.288 433.055L388.804 483.424Z" fill="#F7C7D9"/>
<path d="M100.022 255.413L99.3748 244.742C98.0019 222.11 103.934 199.634 116.297 180.627C127.836 162.887 144.429 149.013 163.932 140.798L240.946 108.359C265.365 98.0734 291.912 93.8599 318.314 96.079L331.841 97.2159C353.302 99.0197 373.838 106.757 391.154 119.564C416.692 138.452 433.376 166.98 437.318 198.499L441.342 230.67C443.551 248.336 443.29 266.223 440.566 283.816L434.08 325.7C430.733 347.314 422.3 367.823 409.474 385.54C391.385 410.528 365.002 428.867 335.356 437.396C318.969 442.111 301.617 443.865 284.625 442.437L281.789 442.198C240.778 438.751 202.802 419.199 176.172 387.821L132.61 336.493C113.266 313.701 101.832 285.252 100.022 255.413Z" fill="#F7C7D9"/>
<path d="M100.022 255.413L99.3748 244.742C98.0019 222.11 103.934 199.634 116.297 180.627C127.836 162.887 144.429 149.013 163.932 140.798L240.946 108.359C265.365 98.0734 291.912 93.8599 318.314 96.079L331.841 97.2159C353.302 99.0197 373.838 106.757 391.154 119.564C416.692 138.452 433.376 166.98 437.318 198.499L441.342 230.67C443.551 248.336 443.29 266.223 440.566 283.816L434.08 325.7C430.733 347.314 422.3 367.823 409.474 385.54C391.385 410.528 365.002 428.867 335.356 437.396C318.969 442.111 301.617 443.865 284.625 442.437L281.789 442.198C240.778 438.751 202.802 419.199 176.172 387.821L132.61 336.493C113.266 313.701 101.832 285.252 100.022 255.413Z" fill="#F7C7D9"/>
<path d="M100.022 255.413L99.3748 244.742C98.0019 222.11 103.934 199.634 116.297 180.627C127.836 162.887 144.429 149.013 163.932 140.798L240.946 108.359C265.365 98.0734 291.912 93.8599 318.314 96.079L331.841 97.2159C353.302 99.0197 373.838 106.757 391.154 119.564C416.692 138.452 433.376 166.98 437.318 198.499L441.342 230.67C443.551 248.336 443.29 266.223 440.566 283.816L434.08 325.7C430.733 347.314 422.3 367.823 409.474 385.54C391.385 410.528 365.002 428.867 335.356 437.396C318.969 442.111 301.617 443.865 284.625 442.437L281.789 442.198C240.778 438.751 202.802 419.199 176.172 387.821L132.61 336.493C113.266 313.701 101.832 285.252 100.022 255.413Z" fill="#F7C7D9"/>
<mask id="mask0_573_438" style="mask-type:alpha" maskUnits="userSpaceOnUse" x="120" y="106" width="525" height="575">
<path d="M295.79 266.519L288.288 265.972L279.717 265.823L270.078 266.07L259.75 271.018L254.1 282.005L253.05 285.728L255.169 281.608L258.885 274.381L259.789 277.67L261.946 280.202L265.172 282.337L266.241 281.94L270.154 279.375L277.274 275.619L283.688 273.236L276.911 274.643L277.255 272.293L276.167 269.364L274.01 266.832L281.149 266.402L295.79 266.519Z" fill="#273AAA"/>
<path d="M232.568 263.338L238.714 276.61L247.954 268.734L263.263 260.824L279.298 254.868L289.987 250.897L296.764 249.491L301.403 248.879L311.825 260.562L332.25 272.974L356.894 273.819L375.448 271.371L386.138 267.4L385.164 284.428L377.013 295.233L368.824 299.386L362.391 298.443L368.881 309.365L372.508 319.128L369.034 335.974L368.008 351.061C367.816 353.889 368.227 356.725 369.214 359.382L372.766 368.944C373.267 370.292 373.912 371.583 374.69 372.793L379.284 379.942L386.343 376.56C388.504 375.525 390.834 374.886 393.221 374.675L401.389 373.952L407.908 373.917C411.585 373.897 415.196 374.891 418.344 376.79L426.071 381.45L436.847 390.207C437.793 390.976 438.667 391.83 439.457 392.758L449.054 404.022L458.045 415.126L464.516 422.722L453.769 416.715L446.611 413.818L435.176 412.511L430.538 413.123L435.539 413.487L443.766 415.986L448.424 418.7L457.377 423.152L463.897 427.758C465.045 428.569 466.103 429.498 467.056 430.53L471.731 435.597L479.634 443.772L487.698 452.354C489.021 453.763 490.134 455.357 491.001 457.085L494.39 463.845L498.36 471.259L536.387 529.226C537.21 530.481 537.889 531.824 538.412 533.231L543.066 545.759L560.436 585.971L578.14 639.887C578.692 641.566 579.018 643.311 579.111 645.077L580.975 680.56L581.873 650.228L581.109 641.623L575.249 616.023L564.35 583.407L572.242 583.643C574.348 583.706 576.451 583.436 578.473 582.842L587.912 580.072C589.089 579.726 590.231 579.273 591.325 578.719L606.059 571.246L612.797 563.188L609.991 572.008L604.338 579.501C602.69 581.686 600.612 583.509 598.231 584.858L586.95 591.249C585.493 592.075 583.938 592.714 582.321 593.152L573.703 595.487L581.25 594.82C584.04 594.573 586.746 593.743 589.194 592.384L601.194 585.723C602.813 584.824 604.3 583.705 605.611 582.398L616.062 571.975L623.144 561.567L632.354 552.906C634.015 551.344 635.397 549.51 636.44 547.482L639.596 541.345C640.207 540.157 640.697 538.911 641.06 537.626L643.841 527.762C644.419 525.711 644.666 523.581 644.572 521.452L644.061 509.882C643.95 507.372 643.367 504.904 642.343 502.61L636.659 489.882L640.989 504.32C641.498 506.017 641.779 507.774 641.825 509.545L642.13 521.268C642.185 523.398 641.9 525.523 641.285 527.563L638.452 536.955C637.696 539.461 636.457 541.794 634.802 543.821L625.606 555.096L633.45 533.59C633.845 532.507 634.146 531.393 634.348 530.259L636.225 519.771C636.613 517.599 636.64 515.378 636.303 513.197L634.646 502.469C634.361 500.618 633.816 498.816 633.029 497.116L628.964 488.339C628.369 487.054 627.639 485.836 626.787 484.706L620.873 476.858L617.647 474.723L621.56 472.158L626.58 475.849L632.689 482.468L627.286 474.475L623.335 470.388L627.21 461.171L628.388 458.369C630.135 454.214 630.427 449.592 629.218 445.251L628.197 441.585C627.694 439.78 626.941 438.055 625.958 436.46L624.313 433.789C622.351 430.606 619.537 428.037 616.19 426.372L612.359 424.467L615.671 427.338C618.207 429.537 620.149 432.339 621.318 435.485L623.347 440.948C623.708 441.918 623.992 442.915 624.199 443.929L624.449 445.161C625.046 448.096 624.882 451.135 623.974 453.989C623.043 456.916 621.36 459.548 619.094 461.623L618.27 462.377C615.722 464.71 612.613 466.343 609.246 467.117L606.537 467.739L612.118 462.63C613.823 461.07 615.156 459.148 616.022 457.006C617.228 454.021 617.474 450.734 616.725 447.602L616.564 446.93C615.982 444.493 614.887 442.208 613.353 440.226L611.004 437.192L612.607 441.507C613.228 443.179 613.623 444.927 613.78 446.704L613.795 446.865C614.129 450.632 613.388 454.417 611.659 457.78L610.068 460.872L602.242 466.002L597.241 465.637L591.132 459.018L588.231 451.207L585.978 432.045L586.2 415.131C586.218 413.757 586.094 412.384 585.83 411.036L582.493 393.947C582.285 392.882 581.99 391.835 581.612 390.817L575.99 375.683C575.285 373.785 574.296 372.005 573.056 370.404L566.984 362.562C566.046 361.351 564.973 360.251 563.784 359.285L555.328 352.413C554.031 351.359 552.607 350.472 551.09 349.772L541.276 345.247C539.564 344.458 537.973 343.431 536.549 342.197L534.306 340.252C532.463 338.654 530.928 336.733 529.777 334.582L527.548 330.421L513.098 301.346L505.1 276.54L495.995 245.48L484.809 225.191L472.229 210.976L463.62 204.175L448.578 196.429L424.965 188.535L409.495 179.291C408.346 178.604 407.268 177.803 406.278 176.901L394.917 166.541C393.677 165.409 392.583 164.126 391.663 162.722L379.938 144.823C379.314 143.87 378.609 142.971 377.831 142.138L364.764 128.134C363.482 126.761 362.013 125.575 360.4 124.611L347.301 116.784C346.191 116.121 345.02 115.567 343.803 115.13L327.384 109.233L317.003 107.223C316.06 107.04 315.105 106.926 314.145 106.88L298.929 106.161C297.655 106.101 296.377 106.163 295.115 106.346L279.874 108.556C278.224 108.795 276.611 109.239 275.072 109.879L255.131 118.162C253.122 118.997 251.262 120.154 249.626 121.587L241.083 129.069L250.092 122.203C251.662 121.007 253.4 120.05 255.25 119.362L276.123 111.608C277.447 111.117 278.82 110.766 280.218 110.564L295.122 108.403C296.859 108.151 298.621 108.129 300.364 108.337L315.799 110.181C317.332 110.364 318.839 110.724 320.289 111.254L337.406 117.507C338.611 117.947 339.772 118.503 340.871 119.166L351.76 125.732L358.45 131.018C359.725 132.025 360.872 133.183 361.866 134.467L369.722 144.614L379.076 156.695L385.91 165.267L393.312 173.956C394.127 174.913 395.031 175.791 396.011 176.578L403.526 182.615C404.468 183.371 405.475 184.041 406.537 184.615L415.723 189.583C416.653 190.086 417.621 190.514 418.619 190.864L432.505 195.734L443.233 198.415L461.139 207.319L476.219 221.716L484.141 233.217L493.895 252.926L501.912 281.058L506.321 302.752L513.919 319.929L502.771 306.293L495.536 290.093L488.283 270.566L479.922 244.784L470.893 227.028L458.333 216.138L438.996 206.656L415.774 195.723C414.549 195.146 413.386 194.447 412.302 193.635L399.065 183.719C397.745 182.729 396.551 181.58 395.513 180.298L388.086 171.125L365.447 146.203L352.599 133.937C351.119 132.524 349.432 131.347 347.595 130.446L331.029 122.322L309.917 119.058C308.508 118.84 307.081 118.773 305.658 118.859L286.381 120.02L267.673 122.951C266.353 123.158 265.057 123.497 263.805 123.962L249.653 129.219L232.206 137.922L220.829 146.592L211.552 147.817L200.862 151.788L191.333 158.73C189.404 160.135 187.742 161.875 186.426 163.866L182.901 169.198C181.401 171.467 179.455 173.406 177.18 174.896L168.888 180.331L155.319 188.019C152.999 189.333 150.965 191.099 149.337 193.211L139.103 206.49C137.199 208.961 135.9 211.843 135.308 214.906L134.127 221.02L133.5 218.399C132.483 214.142 132.89 209.668 134.659 205.665L135.374 204.047C136.589 201.299 138.406 198.86 140.692 196.912L146.458 191.996L154.991 185.493L169.131 177.298C170.378 176.575 171.543 175.72 172.606 174.746L177.984 169.823C178.778 169.097 179.512 168.307 180.179 167.462L181.659 165.587L192.654 152.615L209.395 145.285L219.378 142.687L223.654 141.099L222.288 140.898C218.964 140.411 215.57 140.768 212.421 141.938L208.669 143.332L191.222 152.035L178.795 164.429L172.364 171.394C171.449 172.385 170.436 173.281 169.341 174.068L161.386 179.785L145.996 189.346C144.403 190.335 142.958 191.544 141.702 192.936L135.013 200.349C132.73 202.879 131.131 205.952 130.368 209.274L129.37 213.626C128.954 215.436 128.793 217.294 128.891 219.148L129.545 231.611L133.268 258.005L139.853 285.557L139.605 304.538L130.136 334.72L123.112 355.107L120.725 374.882L125.841 395.203L137.714 410.791L166.405 432.355L139.49 409.021L127.979 394.408L123.932 373.69L124.963 366.641L130.422 384.612L136.569 397.884L143.422 409.782L153.825 418.139L167.092 427.655L178.202 434.639L182.859 437.353L191.087 439.852L192.9 444.734L190.781 448.854L199.046 458.005L209.144 475.365L211.378 491.201L204.372 514.914L189.158 539.453L184.252 555.72L183.908 558.069L191.773 559.592L198.149 550.557L211.702 547.745L228.844 548.044L250.319 556.732L266.773 561.731L291.398 559.25L301.889 560.789C303.467 561.02 305.01 561.439 306.488 562.037L312.258 564.371C314.544 565.296 316.64 566.636 318.439 568.323L323.892 573.438C324.664 574.162 325.377 574.945 326.024 575.782L328.424 578.881C329.291 580.001 330.037 581.209 330.648 582.486L335.149 591.884L332.463 581.972C332.066 580.509 331.505 579.097 330.79 577.761L329.211 574.813C328.338 573.184 327.244 571.683 325.96 570.355L322.94 567.231C320.997 565.221 318.654 563.641 316.062 562.592L311.403 560.707L303.176 558.208L295.178 533.402L289.05 523.457L282.942 516.837L293.937 503.864L304.283 502.243L310.579 503.667C312.568 504.116 314.476 504.867 316.237 505.894L322.895 509.773L325.148 510.894C329.468 513.042 334.419 513.556 339.089 512.341L341.831 511.628L338.662 519.471L334.424 527.712L341.163 519.653L345.401 511.413L350.669 496.123L356.969 473.783L362.8 456.236C363.124 455.26 363.523 454.311 363.994 453.397L369.607 442.48C370.102 441.519 370.673 440.599 371.317 439.73L380.409 427.443C381.26 426.293 382.232 425.238 383.308 424.295L392.704 416.066L408.738 410.11L391.272 415.487L381.139 423.909C379.844 424.986 378.69 426.222 377.704 427.588L368.022 441.009C367.437 441.82 366.914 442.674 366.456 443.563L360.787 454.588C360.316 455.502 359.917 456.452 359.593 457.427L353.762 474.975L345.343 501.434L343.95 507.507L340.743 508.699L337.894 509.29C335.301 509.828 332.621 509.844 330.021 509.341C327.438 508.841 324.973 507.835 322.779 506.383L318.098 503.286C316.985 502.549 315.8 501.925 314.562 501.424L310.697 499.86L302.126 499.711L298.557 499.926L310.258 485.58L321.253 472.607L343.55 437.659L366.895 398.988L379.322 386.594L371.859 392.7L365.464 398.408L357.675 410.19L339.617 436.897L328.297 455.546L316.958 470.869L291.647 415.83L290.922 413.877L281.301 417.451L273.818 420.23L263.453 418.525L246.273 411.574L213.287 388.273L193.893 368.812L184.883 354.382L178.718 337.784L178.279 323.503L175.683 306.691L173.488 297.507L184.139 286.883L192.328 282.73L202.675 281.109L210.539 282.632L218.06 286.504L222.737 292.545L226.345 298.982L230.334 309.722L231.823 320.279L231.518 329.281L230.849 337.307L233.369 340.815L243.372 341.544L256.219 340.105L249.079 340.535L243.009 340.567L234.438 340.418L231.918 336.91L232.243 331.234L232.892 319.882L231.766 310.301L227.776 299.561L223.806 292.148L218.06 286.504L212.677 281.838L208.02 279.124L200.499 275.251L189.427 274.919L177.668 279.288L170.204 285.393L169.785 274.439L170.033 255.458L174.939 239.192L184.464 218.988L191.546 208.579L197.941 202.871L224.341 198.619L258.338 211.545L273.781 226.918L292.068 240.125L282.428 240.372L269.581 241.811L254.616 247.371L241.807 255.462L232.568 263.338Z" fill="#273AAA"/>
<path d="M205.271 297.922L215.999 300.603L200.976 296.184L195.268 297.193L186.716 300.37L181.39 305.682L179.634 310.778L179.31 316.454L182.116 307.634L184.779 304.978L185.685 307.419L188.911 309.554L196.051 309.124L201.395 307.139L202.98 303.217L202.426 300.089L200.985 297.847L205.271 297.922Z" fill="#273AAA"/>
<path d="M293.07 357.169L296.649 353.974L290.864 356.123C289.734 356.542 288.569 356.859 287.382 357.069L285.132 357.467C284.018 357.664 282.89 357.766 281.758 357.772L280.214 357.78C278.339 357.79 276.473 357.537 274.668 357.027L272.728 356.479C271.319 356.081 269.844 355.974 268.392 356.166C266.787 356.378 265.251 356.948 263.897 357.836L262.041 359.052L259.606 360.5C257.947 361.486 256.027 361.939 254.103 361.799L253.934 361.787C252.697 361.697 251.455 361.873 250.293 362.305C248.657 362.913 247.243 364.001 246.236 365.427L244.593 367.756L242.797 369.829C241.171 371.707 239.209 373.265 237.012 374.424L233.216 376.426L238.871 375.856C240.566 375.686 242.233 375.299 243.83 374.705L247.838 373.217L258.165 368.269L265.264 365.632C266.938 365.011 268.688 364.616 270.466 364.458L276.884 363.891C278.663 363.733 280.412 363.338 282.086 362.717L286.715 360.997C289.054 360.128 291.209 358.83 293.07 357.169Z" fill="#273AAA"/>
<path d="M272.883 381.69L279.64 376.958L272.52 380.714L265.4 384.47L257.192 385.297L251.121 385.33L257.554 386.273L265.763 385.446L272.883 381.69Z" fill="#273AAA"/>
<path d="M373.215 317.755L365.121 338.538L354.87 356.79L328.603 384.324L303.024 407.159L289.146 415.648L282.733 418.03" stroke="#273AAA"/>
</mask>
<g mask="url(#mask0_573_438)">
<path d="M107.874 256.702L107.25 246.415C105.926 224.595 111.645 202.927 123.565 184.602C134.689 167.499 150.686 154.123 169.489 146.203L243.738 114.928C267.279 105.012 292.873 100.95 318.328 103.09L331.368 104.186C352.059 105.925 371.858 113.385 388.552 125.732C413.173 143.942 429.258 171.445 433.059 201.832L436.938 232.848C439.068 249.879 438.816 267.124 436.19 284.086L429.937 324.465C426.71 345.303 418.579 365.076 406.215 382.156C388.774 406.248 363.339 423.928 334.757 432.151C318.959 436.696 302.23 438.387 285.848 437.01L283.114 436.781C243.576 433.457 206.964 414.608 181.289 384.356L139.292 334.871C120.643 312.897 109.619 285.47 107.874 256.702Z" fill="#273AAA"/>
<path d="M107.874 256.702L107.25 246.415C105.926 224.595 111.645 202.927 123.565 184.602C134.689 167.499 150.686 154.123 169.489 146.203L243.738 114.928C267.279 105.012 292.873 100.95 318.328 103.09L331.368 104.186C352.059 105.925 371.858 113.385 388.552 125.732C413.173 143.942 429.258 171.445 433.059 201.832L436.938 232.848C439.068 249.879 438.816 267.124 436.19 284.086L429.937 324.465C426.71 345.303 418.579 365.076 406.215 382.156C388.774 406.248 363.339 423.928 334.757 432.151C318.959 436.696 302.23 438.387 285.848 437.01L283.114 436.781C243.576 433.457 206.964 414.608 181.289 384.356L139.292 334.871C120.643 312.897 109.619 285.47 107.874 256.702Z" fill="#273AAA"/>
<path d="M107.874 256.702L107.25 246.415C105.926 224.595 111.645 202.927 123.565 184.602C134.689 167.499 150.686 154.123 169.489 146.203L243.738 114.928C267.279 105.012 292.873 100.95 318.328 103.09L331.368 104.186C352.059 105.925 371.858 113.385 388.552 125.732C413.173 143.942 429.258 171.445 433.059 201.832L436.938 232.848C439.068 249.879 438.816 267.124 436.19 284.086L429.937 324.465C426.71 345.303 418.579 365.076 406.215 382.156C388.774 406.248 363.339 423.928 334.757 432.151C318.959 436.696 302.23 438.387 285.848 437.01L283.114 436.781C243.576 433.457 206.964 414.608 181.289 384.356L139.292 334.871C120.643 312.897 109.619 285.47 107.874 256.702Z" fill="#273AAA"/>
</g>
<path d="M127.667 556.193L139.081 523L150.054 556.272C154.983 571.215 166.658 582.966 181.569 587.992L213.09 598.616L184.49 606.82C167.936 611.568 154.991 624.501 150.227 641.051L139.081 679.774L127.482 641.121C122.506 624.54 109.308 611.713 92.5923 607.212L60.671 598.616L95.4678 587.606C110.571 582.827 122.516 571.174 127.667 556.193Z" fill="#D1ECEF"/>
</svg>
