<svg width="319" height="322" viewBox="0 0 319 322" fill="none" xmlns="http://www.w3.org/2000/svg">
<path d="M89 173L100.5 172L92 173L87.5 174.5L81.5 177L76.5 180.5L72 184L67.5 189L63.5 194.5L67 188.5L71 183.5L75.5 179.5L81.5 175.5L89 173Z" fill="#273AAA"/>
<path d="M97.5 194.5L101.5 192.5L100.5 194L98.5 196L100.5 196.5H107.5L111.5 196L116 194.5L119 193.5L120 192L119.5 190.5L115.5 189L119.5 189.5L123 191.5L122 194L116 196L107.5 197.5L100 198L97 196.5L97.5 194.5Z" fill="#273AAA"/>
<path d="M182.5 132L187.5 128.5L182.5 132.5L180 134.5L179.5 137L181 138L184 137.5L186.5 137L184.5 138L181 138.5H182.5L185.5 140.5L185.974 141.921C186.653 143.96 187 146.096 187 148.246V149.5V150.982C187 152.302 187.359 153.598 188.038 154.731C188.345 155.242 188.713 155.713 189.134 156.134L191 158L192.5 159.5H196.5L192.5 160L191 159.5L188 155.5L187.752 155.19C186.605 153.756 185.863 152.041 185.603 150.223C185.535 149.742 185.5 149.256 185.5 148.77V148.154C185.5 146.393 185.255 144.641 184.771 142.949L184.5 142L182.5 140H180.5L179 142.5L179.5 140L180.5 138.5H181L179 137L179.5 134L182.5 132Z" fill="#273AAA"/>
<path d="M194.5 127L198 128L194 126.5L191 127.5L189.5 130L188 133.5L187 137L186.639 138.804C186.549 139.255 186.612 139.723 186.817 140.134C187.223 140.946 188.111 141.398 189.006 141.249L190.212 141.048C190.404 141.016 190.593 140.969 190.777 140.908L190.874 140.875C191.615 140.628 192.287 140.213 192.839 139.661L194 138.5L194.5 136L195.5 133.5L196 132.5H197L198 133L197.5 132.5L196 132L195 133L194 136L193.441 137.117C193.149 137.702 192.764 138.236 192.302 138.698L191.651 139.349C191.227 139.773 190.686 140.063 190.097 140.181L188.891 140.422C188.647 140.471 188.394 140.394 188.218 140.218C188.078 140.078 188 139.889 188 139.691V138L188.5 134L190 130L191.5 128L194.5 127Z" fill="#273AAA"/>
<path d="M201.5 128.5L200 129.5L198.5 131.5L199 130L200.5 128.5L201.5 127.5H202.425C203.447 127.5 204.442 127.832 205.26 128.445C205.749 128.811 206.162 129.269 206.476 129.793L206.521 129.868C207.153 130.921 207.387 132.177 207.185 133.388C207.064 134.117 206.788 134.818 206.379 135.432L205.227 137.159C205.076 137.386 204.903 137.597 204.711 137.789C203.935 138.565 203.5 139.616 203.5 140.712V142V147.5L203.108 150.639C203.037 151.203 202.821 151.739 202.48 152.194L202.061 152.753C201.708 153.223 201.154 153.5 200.566 153.5C200.197 153.5 199.836 153.391 199.529 153.186L199.097 152.898C198.703 152.635 198.365 152.297 198.102 151.903L198.063 151.845C197.694 151.291 197.471 150.652 197.416 149.988L197 145L197.782 149.304C197.924 150.083 198.3 150.8 198.86 151.36L199.646 152.146C199.873 152.373 200.18 152.5 200.5 152.5C200.82 152.5 201.127 152.373 201.354 152.146L201.75 151.75C202.23 151.27 202.5 150.618 202.5 149.939V147.5L203 142V141.5C203 139.877 203.526 138.298 204.5 137L205.721 135.169C206.229 134.407 206.5 133.511 206.5 132.595C206.5 131.875 206.332 131.165 206.01 130.52L205.871 130.241C205.627 129.754 205.273 129.33 204.837 129.003C203.991 128.368 202.904 128.149 201.879 128.405L201.5 128.5Z" fill="#273AAA"/>
<path d="M197 137.5L198.5 134.5L197.5 137.5L197 139.5V141V143L196.5 141V139.5L197 137.5Z" fill="#273AAA"/>
<path d="M213 141L214.5 137.5L215 137L214.5 140L213 142L212 143.5L212.5 147.5L212.902 150.314C212.967 150.767 212.943 151.228 212.832 151.673L212.64 152.44C212.55 152.8 212.329 153.114 212.019 153.32C211.427 153.716 210.637 153.637 210.134 153.134L210.092 153.092C210.031 153.031 209.975 152.965 209.925 152.894L207.5 149.5L205.5 146V141.5L207 138.5L208 136L208.603 134.494C208.859 133.854 209.341 133.33 209.957 133.021C210.625 132.688 211.398 132.633 212.106 132.869L212.211 132.904C212.403 132.968 212.589 133.051 212.765 133.151L216 135L219.5 138L222 141L222.598 141.797C223.197 142.596 223.888 143.323 224.655 143.962C225.874 144.979 226.905 146.229 227.676 147.617C228.542 149.176 229.092 150.916 229.269 152.691L229.337 153.369C229.445 154.454 229.445 155.546 229.337 156.631L229 160V156.793C229 155.601 228.882 154.411 228.648 153.242C228.22 151.098 227.406 149.05 226.248 147.196L225.5 146L221.5 141L217.5 137.5L213.213 134.166C213.071 134.056 212.919 133.96 212.758 133.879L212.549 133.774C211.624 133.312 210.507 133.493 209.776 134.224C209.593 134.407 209.441 134.618 209.326 134.849L208 137.5L206 142V146L208 149L210.615 152.486C210.838 152.784 211.242 152.879 211.575 152.713C211.835 152.582 212 152.316 212 152.024V149.361C212 149.121 211.983 148.881 211.949 148.643L211.5 145.5V143L213 141Z" fill="#273AAA"/>
<path d="M192 148.5L188.5 142L190.5 143.5L193 148C193.969 150.261 194.113 152.791 193.406 155.147L193 156.5L193.166 154.837C193.384 152.657 192.98 150.46 192 148.5Z" fill="#273AAA"/>
<path d="M203.5 155.5L197 156L203.5 155L208 155.5L211 157L208 156L203.5 155.5Z" fill="#273AAA"/>
<path d="M123 211L135 207L124 214L116 219.5L108.5 226.5L103 233.5L90.5 253.5L97 242L101.5 233L106.5 225.5L112.5 218.5L123 211Z" fill="#273AAA"/>
<path d="M122.903 218.866L121 219.5L123.199 217.301C123.712 216.788 124.407 216.5 125.133 216.5H125.314C126.061 216.5 126.764 216.851 127.211 217.449C127.702 218.103 127.821 218.963 127.526 219.726L119.5 240.5L111.5 261L117.5 240.5L123.715 225.201C123.905 224.734 124.055 224.253 124.164 223.761L124.86 220.631C124.949 220.228 124.871 219.806 124.642 219.462C124.263 218.894 123.551 218.65 122.903 218.866Z" fill="#273AAA"/>
<path d="M75.5 222L73 238.5V230.5L74 222L75.5 216.5L80.5 207L75.5 222Z" fill="#273AAA"/>
<path d="M83 214V207.686C83 207.247 82.8256 206.826 82.5152 206.515C81.9327 205.933 81.8671 205.01 82.3614 204.351L82.6 204.033C82.8518 203.698 83.247 203.5 83.6667 203.5C84.403 203.5 85 204.097 85 204.833V206L84.5 214L84 224.5L82.5 232L83 237L81.5 232L82.5 224.5L83 214Z" fill="#273AAA"/>
<path d="M59.5 214L54.5 208.5V211L58.5 214L59.5 218.5V214Z" fill="#273AAA"/>
<path d="M60 221.974V218.5L60.7475 220.742C61.2474 222.242 61.9234 223.677 62.7612 225.018L66.5 231L72.5 242L62.5 230L60.8951 227.593C59.9988 226.248 59.6478 224.613 59.9135 223.019C59.9711 222.674 60 222.324 60 221.974Z" fill="#273AAA"/>
<path d="M74 247L73 242.5L93.5 275.5L99.9588 284.785C100.982 286.255 102.197 287.581 103.573 288.728L105.717 290.514C106.902 291.501 108.197 292.348 109.576 293.038L110.229 293.365C111.737 294.118 113.334 294.679 114.983 295.032L117.876 295.652C118.957 295.884 120.055 296.025 121.159 296.075L130.5 296.5H140.5L152.076 295.643C153.356 295.548 154.623 295.33 155.861 294.992L165 292.5L178.5 287.5L193 280L179 288.5L166 294L156.911 296.479C155.64 296.825 154.338 297.046 153.024 297.136L142.185 297.884C141.064 297.961 139.938 297.944 138.819 297.832L130.5 297L119.5 296.5H113.006C110.047 296.5 107.133 295.776 104.518 294.392C101.563 292.828 99.0987 290.478 97.3956 287.601L77.5 254L74 247Z" fill="#273AAA"/>
<path d="M140.5 249L142.5 238.5V249L144 261L147.5 270.5L155 273.5H163.5L175 281L163.5 274.5H155L146.5 271.5L142.5 261L140.5 249Z" fill="#273AAA"/>
<path d="M153.275 262.196L146.5 261H155H159.168C161.015 261 162.82 260.453 164.356 259.429C164.785 259.144 165.236 258.894 165.706 258.682L175 254.5L173.209 256.035C172.073 257.009 170.832 257.852 169.508 258.548L166.373 260.198C163.501 261.71 160.304 262.5 157.058 262.5H156.751C155.586 262.5 154.423 262.398 153.275 262.196Z" fill="#273AAA"/>
<path d="M182.955 278.904L178.5 281L182.041 278.709C185.278 276.614 189.051 275.5 192.906 275.5H196H200.689C201.885 275.5 203.071 275.272 204.181 274.828C206.319 273.972 208.069 272.362 209.099 270.303L211.274 265.952C212.087 264.325 212.675 262.594 213.021 260.808L215.026 250.45C215.341 248.823 215.452 247.163 215.358 245.509L214.5 230.5L216.233 245.66C216.41 247.215 216.405 248.785 216.217 250.338L214.971 260.615C214.66 263.181 213.855 265.662 212.599 267.921L211.199 270.441C210.087 272.443 208.456 274.109 206.478 275.263C204.528 276.401 202.31 277 200.053 277H196H191.471C188.527 277 185.619 277.65 182.955 278.904Z" fill="#273AAA"/>
<path d="M203.5 296L202.5 280L207.5 307.5L206 321.5V307.5L203.5 296Z" fill="#273AAA"/>
<path d="M219 320.5L209.5 317.5L219 319.5H227.254C229.404 319.5 231.54 319.153 233.579 318.474L236.5 317.5L242.474 315.391C244.151 314.8 245.741 313.987 247.202 312.975L248.832 311.847C250.599 310.624 252.158 309.123 253.447 307.404L254.918 305.443C255.638 304.483 256.27 303.46 256.807 302.387L261 294L264.5 288.5L263.5 283.5L260 278.5L264.5 283.5L265.5 288.5L262.83 292.695C262.278 293.564 261.793 294.474 261.38 295.417L258.5 302L257.394 304.527C255.832 308.098 253.261 311.134 249.997 313.263L246.471 315.562C244.506 316.844 242.33 317.77 240.043 318.298L232.719 319.988C231.245 320.328 229.736 320.5 228.222 320.5H219Z" fill="#273AAA"/>
<path d="M240.5 290H232.5L240.5 288.5L246.5 286.5L252.5 283.5L260 275.5L254 283.5L248 287.5L240.5 290Z" fill="#273AAA"/>
<path d="M57 267.397V249L59.5 269L63.6439 295.705C63.8805 297.23 64.2928 298.722 64.8726 300.152L71.5 316.5L64.1178 303.376C63.0465 301.472 62.2946 299.404 61.8919 297.257L59.5 284.5L57.2552 270.582C57.0853 269.529 57 268.464 57 267.397Z" fill="#273AAA"/>
<path d="M17.5 151.5L24.5 144.5L26 143L21.5 144.5L15 151.5L10 160L8 168.5V184L13.5 198L19.5 207L15 198L10 184V168.5L12.5 160L17.5 151.5Z" fill="#273AAA"/>
<path d="M180.169 257.5H187L184.5 257L182.186 256.614C181.73 256.538 181.284 256.413 180.855 256.242L179.65 255.76C179.227 255.591 178.865 255.297 178.612 254.917C178.226 254.339 178.129 253.614 178.349 252.954L178.437 252.69C178.479 252.564 178.53 252.44 178.59 252.321L178.731 252.037C179.237 251.026 179.5 249.912 179.5 248.781V245.886C179.5 243.645 179.115 241.421 178.361 239.312L177 235.5L176 229.5V223L177.5 215L180 206.5L182.5 200.5L184 199.5L202.5 186L222 171L230 165L239 150L251.5 125.5L264 98L265 96L270.5 91.5H269.5L264.5 95.5L263 96.5L250.5 124.5L237 149L229 164L222 169L215 174.5L205 182.5L200 186.5L182 200L177 210L174.5 222.5V228L175.5 236L177 242L177.857 248C177.952 248.666 178 249.337 178 250.01V251.3C178 251.764 177.935 252.226 177.808 252.673L177.456 253.904C177.175 254.889 177.449 255.949 178.174 256.674C178.703 257.203 179.42 257.5 180.169 257.5Z" fill="#273AAA"/>
<path d="M200 261.5L194.5 258L197 259L200.5 261L204 264.5V267L203.5 264.5L200 261.5Z" fill="#273AAA"/>
<path d="M201 256L194 255L201 255.5L206.5 257L210 260L210.5 262.5L208 264L209.5 262.5L209 260L206 257.5L201 256Z" fill="#273AAA"/>
<path d="M224.5 261.5L219.5 256L225 261L231 264L238 265.5L242.5 268L243.5 271.5L243 270L242 269L237.5 266L230.5 265L224.5 261.5Z" fill="#273AAA"/>
<path d="M241.5 275.5V280L242 275.5L245 272L250 269.5H255L260 271L264.5 275L266.5 276L267.5 276.5L268 275V271L266 267.5L259.5 255.5L251 241L247.5 237.5L243.5 234.5L241 233.5L243 235L246.5 238L250 242.5L262 264L266.5 272L267 275L265.5 274.5L262 271.5L256 268.5H249L244.5 271.5L241.5 275.5Z" fill="#273AAA"/>
<path d="M244 257V267V269L244.5 265.5L245.5 259L245.804 256.266C245.934 255.091 245.96 253.907 245.882 252.727L245.753 250.794C245.586 248.287 244.948 245.834 243.872 243.563L241 237.5L238 229L236 219V209.5L234.5 219L237.5 229L240.5 237.5L243.012 247.129C243.337 248.373 243.54 249.646 243.621 250.93L244 257Z" fill="#273AAA"/>
<path d="M217.5 225L189 258L198 244.5L206.5 233L214 224.5L223.5 214L232.5 206.5L240 200L257.5 187.5L273 177.5L288.5 168L295.5 163.5L305.5 157L313 151L315 147.5L316 144L315.5 141L314.5 139H313.5L313 139.5L312.5 141.5L311.5 143.755L307 146L300.5 149L296.5 151L296 150.5L298 147.5L302 142.5L305.5 137L308 135L311.5 133L315 132.349L317 130.5L317.5 128L317 125.5L314.5 122.5L312 122L308.5 123.5L303 126.5L299 130L290 138L284 143L285 141L291.5 132.5L297 124.5L300.5 120L303.5 117.5L310 115L313.5 113L314 111L313.5 107.5L312 105L310.5 103.5L307.5 104L310.5 103L312 103.5L314.5 107L315.5 111L314.5 113.5L312.5 115.5V121L315 121.5L318 125L318.5 128L318 131L316 133L313.5 134V138H314.5L316.5 140.5L317 144L315.5 150L308 156.5L296.5 165L267.5 184L249 196.5L232.5 210L217.5 225Z" fill="#273AAA"/>
<path d="M110 74L113 72.5L116.5 71L120.5 69.5L125.5 70L129.5 74L130.5 75.5L129 74L126.369 71.3691L126.5 73L126 74.5L125 76H124.5L122.5 75.5L119 75H116L119 74.5L118.5 73.5V72L119 70.5L116 71.5L110 74Z" fill="#273AAA"/>
<path d="M135.5 62L135 69L130 67L122.5 66H115H110L107 66.5L105 67L102.5 74L96 83L86 87.5L78 89.5H73L76 97L81 100.5L85 101L87.5 99.5L86.5 105.5V110.5L90.5 117.5L92.4936 122.342C93.4882 124.757 94 127.344 94 129.956V132.02C94 133.337 93.8699 134.65 93.6116 135.942L93 139L91.9422 138.894C89.3394 138.634 86.7107 138.887 84.2052 139.638L83 140C79.7332 141.307 76.902 143.51 74.8326 146.355L74 147.5L71.3184 152.48C70.7738 153.492 70.3174 154.548 69.9541 155.638L68 161.5L66 168L64.5 172.5L68 168L70.5 165.5L75 163L77 162.5L75 163.5L72 166L70.5 168L67.5 171.5L66.0626 173.8C65.356 174.93 64.7642 176.129 64.296 177.377L63.5 179.5L61.5 184.5L59.9661 188.488C59.3249 190.155 58.9099 191.901 58.7322 193.678L58.5 196L58 200L51.4228 231.476C51.1417 232.822 51 234.193 51 235.567V241L50 262L50.9143 288.057C50.9712 289.68 51.2255 291.289 51.6715 292.85L56 308L51 294.5L50 290.5L48.5 278L48 261.5L46.6509 262.1C44.5657 263.026 42.3372 263.589 40.0621 263.764L39.0121 263.845C37.6741 263.948 36.3291 263.916 34.9975 263.75L29 263L25 260.5L27.5 264L28.87 264.959C31.261 266.633 33.9894 267.763 36.8635 268.27L38.2813 268.52C40.0852 268.839 41.9243 268.908 43.747 268.725L46 268.5L45.4511 268.665C42.5227 269.543 39.4319 269.739 36.4162 269.236L34.9664 268.994C32.9999 268.667 31.0934 268.047 29.3101 267.155L25 265L20.5 261.5L17.2387 259.995C15.0965 259.006 13.1461 257.646 11.4777 255.978L11.4003 255.9C10.4691 254.969 9.63204 253.948 8.90148 252.852L7.68777 251.032C6.56902 249.354 5.71055 247.516 5.14146 245.581L4.48269 243.341C3.83245 241.13 3.56919 238.824 3.70451 236.523L4 231.5L4.35593 237.551C4.45162 239.177 4.74576 240.786 5.23181 242.342L6.09029 245.089C6.69328 247.018 7.58533 248.845 8.73604 250.508L9.22835 251.219C10.728 253.385 12.6409 255.233 14.857 256.658L18.5 259L12.5283 251.322C11.844 250.442 11.2344 249.507 10.7059 248.525L9.47476 246.239C8.49746 244.424 7.80663 242.469 7.42674 240.443L6.9756 238.037C6.65984 236.352 6.5618 234.635 6.68387 232.926L6.86067 230.451C6.95333 229.153 7.17234 227.868 7.51456 226.613L8.5 223L9.5 221.5L7.5 221L6 223.5L4.5 227.5L5.5 223L6.5 220.5L3.5 217C1.55075 214.726 0.376168 211.89 0.146447 208.904L0.138382 208.799C0.0465082 207.605 0.108475 206.403 0.322759 205.225C0.76627 202.786 1.85032 200.508 3.46382 198.626L4 198C2.68474 200.631 2 203.531 2 206.472V207.202C2 207.733 2.03771 208.264 2.11284 208.79L2.21281 209.49C2.40151 210.811 2.90481 212.067 3.68033 213.152C4.54434 214.362 5.71638 215.318 7.07476 215.922L7.1898 215.973C8.69933 216.644 10.3674 216.876 12.0027 216.642L13 216.5L10.0581 215.193C9.03311 214.737 8.12653 214.052 7.40843 213.19C6.48978 212.088 5.91551 210.74 5.75705 209.313L5.69792 208.781C5.56723 207.605 5.66724 206.415 5.99236 205.277L6.5 203.5V205.731C6.5 206.574 6.60334 207.413 6.8077 208.231C7.2607 210.043 8.19766 211.698 9.5184 213.018L10.5 214L14.5 215L16.5 214L18 210V206L16 197L13.6356 190.301C13.2128 189.103 12.9051 187.868 12.7167 186.611L11.7213 179.975C11.574 178.993 11.5 178.001 11.5 177.008V171.301C11.5 169.443 11.759 167.594 12.2695 165.807L12.9053 163.582C13.3006 162.198 13.8441 160.861 14.5263 159.594L15.838 157.158C16.6098 155.725 17.5536 154.391 18.6487 153.186L20.658 150.976C21.5485 149.997 22.3002 148.9 22.8922 147.716C23.6254 146.249 24.1039 144.669 24.3073 143.042L24.5 141.5L26 126L25.5 113.5L24.5 98L26 87L29 78.5L31.5 74L36.5 68L45 60.5L49.3557 54.5604C50.1168 53.5226 50.7759 52.4137 51.3239 51.2491L53.4971 46.6311C54.1634 45.2153 54.6612 43.7261 54.9804 42.1942L56.6759 34.0558C56.8916 33.0202 57.1892 32.0034 57.5657 31.0149L60.0374 24.5268C60.6762 22.8499 61.5378 21.2666 62.599 19.8195L65.3573 16.0582C66.1173 15.0218 66.9755 14.0611 67.9198 13.1894L73 8.5L76.2381 6.34129C77.0781 5.78123 77.9594 5.2856 78.8744 4.85863L83.1309 2.87226C84.3737 2.29229 85.6728 1.84169 87.0078 1.52758L90.8286 0.628567C92.6012 0.211476 94.4225 0.0384383 96.242 0.114249L101.934 0.351435C104.293 0.449702 106.615 0.964689 108.794 1.87256L111.5 3L108.579 2.02633C106.54 1.34656 104.404 1 102.254 1H95.8212C94.2789 1 92.7418 1.1784 91.2405 1.53166L87.7564 2.35143C85.9279 2.78167 84.1692 3.46735 82.532 4.38827L79.089 6.32496C77.7013 7.10553 76.4118 8.04901 75.2478 9.13536L70.9011 13.1923C69.9692 14.0621 69.1225 15.019 68.3727 16.05L65.5 20L64.116 22.4912C63.3744 23.826 62.7882 25.2414 62.3687 26.7096L61 31.5L59 38.5L57.5 43.5L56.0631 47.8107C55.6884 48.9347 55.2147 50.0231 54.6473 51.0632L53.342 53.4563C52.7818 54.4834 52.1324 55.4595 51.4015 56.3731L49.4906 58.7618C48.8312 59.586 48.1077 60.3567 47.3267 61.0667L43 65L39 68L33 75L29 84L27.5 90.5L26.5 101L27.5 115L29 125.5L28.5 134.5L31 126.5L31.5 118V108L31 95L32 85.5L35.5 78.5L42 71L49.1742 62.9817C50.0559 61.9963 50.8377 60.9259 51.5081 59.7862L54.3121 55.0194C55.1013 53.6777 55.7312 52.2485 56.189 50.7607L57.5 46.5L63 31.5L65.7895 25.2236C66.5921 23.4178 67.6578 21.741 68.952 20.2477L73.5 15L80.5564 10.6877C81.848 9.89846 83.2249 9.25836 84.6609 8.77971L91.5 6.5L98.3568 4.97626C99.7813 4.6597 101.236 4.5 102.695 4.5H108L116.5 5.5L122.5 7.5L126.5 6.5H131.5L135.149 7.6227C137.033 8.20236 138.79 9.13224 140.329 10.3635C142.089 11.7713 144.132 12.7829 146.318 13.3295L149 14L153.247 14.7494C156.05 15.2441 158.715 16.3315 161.065 17.9389L163.103 19.3339C165.666 21.0872 167.785 23.413 169.293 26.1272L169.5 26.5L169.382 25.435C169.133 23.2002 168.198 21.0975 166.704 19.4169C165.583 18.1563 164.185 17.1739 162.619 16.5475L160 15.5L155.5 14L149.799 12.9311C148.272 12.6447 146.783 12.1811 145.362 11.5499L144.555 11.1912C143.52 10.7312 142.526 10.1842 141.584 9.55597L141.5 9.5L135 5.5L127 5L122.5 5.5H120.5C122.136 4.51848 124.008 4 125.915 4H127L135.5 5L142.5 8.5L145.108 9.94867C146.366 10.6475 147.695 11.2086 149.074 11.6221L152 12.5L158.113 13.8585C160.027 14.2837 161.866 14.9946 163.568 15.9672L164.635 16.577C166.841 17.8378 168.687 19.6445 169.994 21.8236C170.662 22.9364 171.181 24.132 171.537 25.3798L173 30.5L175.5 43L177 56.5L180 65L188.5 77L194.5 85L198.5 93.5L199.5 103.5L197 112.5L188.5 127L196 112L198.5 103.5L197 93.5L195.5 90.5L196 99.5L195.5 106.5L194.5 113L191.5 118.5L187.5 125L184 130L182.5 132L179.5 134.5V137L181 138.5L179 144L177.5 153.5L179 161L185.5 170.5L195.5 179L200 185.5L200.5 186.5L197.5 188.5L193.5 185.5L187.5 186.5L180.5 189.5L173 197L167 202L156.5 205L153.461 206.823C152.159 207.605 150.957 208.543 149.883 209.617C148.307 211.193 147.028 213.039 146.106 215.067L145.615 216.147C145.206 217.048 144.864 217.978 144.592 218.929L144.538 219.118C144.18 220.37 143.946 221.653 143.837 222.951L143.5 227L143.15 222.796C143.05 221.602 143.075 220.401 143.224 219.212L143.242 219.06C143.413 217.692 143.759 216.352 144.271 215.072C145.082 213.045 146.296 211.204 147.84 209.66L148.5 209L151.5 206.5L151 194L152 188.5L153.5 184.5L147 180.5L142.5 181.5L141.518 182.201C139.849 183.393 138.374 184.835 137.143 186.476L136 188L135.947 188.062C134.053 190.271 131.392 191.679 128.5 192L131 195L134 198L130 195.5L127 192.5L122.5 186.5L116.5 177.5L111.904 171.233C111.302 170.412 110.638 169.638 109.919 168.919L107.17 166.17C106.391 165.391 105.549 164.678 104.653 164.038L100.842 161.316C99.6181 160.441 98.2989 159.708 96.91 159.129L93 157.5H85.5L93.5 157L97.5066 158.541C99.1615 159.178 100.724 160.031 102.154 161.08L106.267 164.096C107.088 164.698 107.862 165.362 108.581 166.081L111.419 168.919C112.138 169.638 112.802 170.412 113.404 171.233L118 177.5L125.5 188L127 190.5H128.5L129.659 190.307C130.873 190.105 132.029 189.647 133.053 188.965C134.008 188.328 134.828 187.508 135.465 186.553L136.507 184.99C137.167 183.999 137.924 183.076 138.766 182.234L139.5 181.5L143 180L144.5 179.5L137.5 175L131 171L116.5 159L101 145.5L94 142L98 143.5L101.5 145L106.5 149L118 158L125.5 164.5L132.5 169.5L134.5 140.5V139.5H139H142.5L146.5 137L152.5 131L162.5 115L167.5 103L169 95V86.5L167 80L165.5 72L165 67.5L159 64.5L155 64L150.5 65L147.5 67L145 70L144 73.5L143.5 77V82.5L144.5 87.5L146 91.5L147.5 95L147 97L143 99L137.5 100.5L140.5 99.5L143 98.5L146.5 97L147 95L146 92.5L144 87.5L143 83V77.5L143.5 73.5L145 70L146.5 67L148 65L150.5 62L155 60H160.5L164.5 61.5L163 56.5L160 48L155.5 41.5L148.5 34L144 30.5L140.5 29L129 31.5L117 43L113 52.5L107.5 61.5L111.5 60L117 58.5H124L130.5 60L135.5 62Z" fill="#273AAA"/>
<path d="M152 73L148 76L153.5 71.5L156 71H160L163 72.5L164.5 74.5L165.5 77L163 73.5L161.5 72.75V74L160.5 75.5L157.5 76.5H155L153.75 75L153.5 73.5L153.75 72.25L152 73Z" fill="#273AAA"/>
<path d="M123.82 113.852L123 113.5H125.177C126.057 113.5 126.935 113.413 127.797 113.241L127.99 113.202C128.662 113.068 129.32 112.872 129.956 112.617L130.298 112.481C131.095 112.162 131.841 111.727 132.511 111.191L133.25 110.6C133.744 110.205 134.318 109.921 134.932 109.767C135.633 109.592 136.367 109.592 137.068 109.767L138 110L139.201 110.24C140.043 110.409 140.917 110.292 141.685 109.908L141.758 109.871C142.246 109.627 142.784 109.5 143.329 109.5C144.089 109.5 144.829 109.746 145.437 110.202L146.5 111C148.15 111.99 149.981 112.64 151.886 112.912L152.5 113L151.693 113.23C149.906 113.741 148.057 114 146.199 114H146L141 113.5H139.11C137.379 113.5 135.658 113.753 134 114.25L133.497 114.401C132.173 114.798 130.798 115 129.415 115C127.492 115 125.588 114.609 123.82 113.852Z" fill="#273AAA"/>
<path d="M137 122L133.5 121L137 121.5L140.5 122L144 121L146.5 120L144 121.5L140.5 122.5L137 122Z" fill="#273AAA"/>
<path d="M86 110L92.5 118L99.5 124.5L114.5 132.5L128.5 138.5L135.5 140H138.5" stroke="#273AAA"/>
<path d="M264 45L263.818 41.899C263.621 38.5552 265.213 35.358 268 33.5L273.537 38.6412C274.369 39.4136 274.483 40.6894 273.802 41.5975C273.603 41.8625 273.466 42.1686 273.401 42.4934L272.719 45.9056C272.574 46.6323 272.521 47.3744 272.562 48.1144L272.96 55.285C272.986 55.7567 273.109 56.218 273.32 56.6405L273.634 57.2682C273.875 57.7503 274.218 58.1744 274.639 58.5111L275.315 59.0518C276.037 59.6298 277.03 59.735 277.858 59.3212C278.276 59.1118 278.624 58.783 278.856 58.3764L279.89 56.567C280.29 55.8678 280.5 55.0764 280.5 54.2711V51.5L280.066 45.8517C280.022 45.2877 279.886 44.7348 279.664 44.2149C278.903 42.4406 278.656 40.4886 278.949 38.5807L279.5 35L304 40L307.5 43.5L311 103.5L304.5 106L296.204 109.556C294.74 110.183 293.356 110.983 292.082 111.938L288 115L279.5 122.5L271.911 129.14C271.646 129.372 271.306 129.5 270.954 129.5C270.151 129.5 269.5 128.849 269.5 128.046V127.29C269.5 127.097 269.525 126.906 269.575 126.72L271.5 119.5L274 109.5L275.5 104.5L276.221 100.532C276.405 99.5246 276.82 98.5734 277.434 97.754C277.81 97.2539 278.254 96.8096 278.754 96.4345L284 92.5L291.5 86V83.5L289.5 83L279.5 86L271.5 91L264.5 96.5L264 70V45Z" fill="#273AAA"/>
<path d="M275.268 48.1967L275.34 47.9806C275.442 47.6729 275.663 47.4185 275.953 47.2735C276.297 47.1013 276.703 47.1013 277.047 47.2735C277.337 47.4185 277.558 47.6729 277.66 47.9806L277.858 48.5744C277.949 48.8469 277.928 49.1443 277.799 49.4013C277.616 49.7682 277.241 50 276.831 50H276.567C276.204 50 275.856 49.8557 275.599 49.5987C275.232 49.2318 275.104 48.689 275.268 48.1967Z" fill="#273AAA"/>
<path d="M275.277 52.9459L275.318 52.8648C275.436 52.628 275.628 52.436 275.865 52.3176C276.258 52.1212 276.725 52.1503 277.091 52.3939L277.296 52.531C277.736 52.824 278 53.3173 278 53.8456V53.9325C278 54.2959 277.856 54.6443 277.599 54.9013C277.232 55.2682 276.689 55.3963 276.197 55.2322L276.171 55.2236C275.749 55.0828 275.417 54.7515 275.276 54.3292L275.196 54.0877C275.07 53.7114 275.1 53.3007 275.277 52.9459Z" fill="#273AAA"/>
<path d="M274.253 40.9965L273.5 42L266 35.5L266.2 35.167C267.006 33.8226 268.459 33 270.027 33C270.342 33 270.655 33.0332 270.962 33.0991L284.5 36L279.5 42.5L278.898 41.5967C278.635 41.2028 278.297 40.8648 277.903 40.6022L277.628 40.4184C277.218 40.1456 276.738 40 276.246 40C275.462 40 274.723 40.3692 274.253 40.9965Z" fill="#273AAA"/>
</svg>
