<svg width="97" height="104" viewBox="0 0 97 104" fill="none" xmlns="http://www.w3.org/2000/svg">
<mask id="mask0_548_49" style="mask-type:luminance" maskUnits="userSpaceOnUse" x="19" y="19" width="73" height="79">
<path d="M48.3202 97.4721C50.5852 98.0526 53.0574 97.7991 55.2834 96.7491L66.6236 91.3701C67.8474 90.7884 69.0135 90.0742 70.0915 89.238L84.1722 78.3547C86.8243 76.3011 88.9365 73.6397 90.2812 70.6507C91.3921 68.1785 91.5251 65.4726 90.6564 63.0607C90.0918 61.5079 89.3003 60.061 88.3037 58.7505L67.1163 31.0806C65.181 28.5571 62.6108 26.573 59.6154 25.3134C57.415 24.3847 54.9948 23.9395 52.5204 23.9973C50.1511 24.0605 47.9453 23.1241 46.4772 21.4232L45.0257 19.7451L32.4121 30.8918L24.1031 35.8109L19.7736 38.5534L19.9959 39.054C21.0501 41.3901 21.2268 44.0696 20.5081 46.6647L20.2173 47.6982C19.974 48.5697 19.8385 49.4679 19.8108 50.3579C19.6577 55.0153 20.9207 59.4973 23.4244 63.2461L44.5468 94.837C45.4107 96.1389 46.754 97.0715 48.3119 97.4781L48.3202 97.4721Z" fill="white"/>
</mask>
<g mask="url(#mask0_548_49)">
<mask id="mask1_548_49" style="mask-type:luminance" maskUnits="userSpaceOnUse" x="19" y="29" width="63" height="53">
<path d="M23.469 68.4222L33.5115 81.7039L42.1743 77.6428L53.5301 71.7424L54.7511 71.1393C58.9431 69.0645 62.7669 66.2695 66.0285 62.9059L70.003 58.7958L81.5394 46.4896L70.6308 29.9938L57.233 42.5765L47.8752 49.5982C47.4845 49.8802 47.0938 50.1622 46.6728 50.4197L34.3076 58.1972L19.2129 66.3096L23.458 68.407L23.469 68.4222Z" fill="white"/>
</mask>
<g mask="url(#mask1_548_49)">
<path d="M33.511 81.7038L34.7618 79.5481C34.7354 79.1612 33.3453 77.288 33.4515 76.9097C33.8708 75.4588 33.0628 74.8473 32.5906 73.8078L31.2317 70.8218C31.0312 70.3865 30.7866 69.96 30.5141 69.565L29.4353 68.0355C28.8546 67.2136 28.6644 66.1793 28.8833 65.1514C29.0796 64.2673 29.6847 63.4941 30.5237 63.0625L35.3749 60.5698C35.6685 60.4159 35.9565 60.2544 36.2335 60.0776L45.1892 54.3205C45.6213 54.0433 46.0315 53.7357 46.4196 53.3976L53.2584 47.4402C53.4663 47.2553 53.6852 47.0857 53.9041 46.9161L57.1047 44.5013C58.3268 43.5844 59.4194 42.5057 60.3603 41.3045L65.1485 35.1687L65.8631 32.1126L21.4024 63.5107L31.8042 79.4444" fill="#F7C7D9"/>
<path d="M33.511 81.7038L34.7618 79.5481C34.7354 79.1612 33.3453 77.288 33.4515 76.9097C33.8708 75.4588 33.0628 74.8473 32.5906 73.8078L31.2317 70.8218C31.0312 70.3865 30.7866 69.96 30.5141 69.565L29.4353 68.0355C28.8546 67.2136 28.6644 66.1793 28.8833 65.1514C29.0796 64.2673 29.6847 63.4941 30.5237 63.0625L35.3749 60.5698C35.6685 60.4159 35.9565 60.2544 36.2335 60.0776L45.1892 54.3205C45.6213 54.0433 46.0315 53.7357 46.4196 53.3976L53.2584 47.4402C53.4663 47.2553 53.6852 47.0857 53.9041 46.9161L57.1047 44.5013C58.3268 43.5844 59.4194 42.5057 60.3603 41.3045L65.1485 35.1687L65.8631 32.1126L21.4024 63.5107L31.8042 79.4444" stroke="#F7C7D9" stroke-miterlimit="10"/>
<path d="M49.6348 76.05L58.7614 67.8496L66.1476 61.0216C67.52 59.7525 68.7271 58.3244 69.7272 56.7673L72.7998 52.0207C73.2859 51.2754 73.6893 50.4855 74.0125 49.6722L74.4306 48.6048C74.9657 47.2442 74.9565 45.7777 74.4049 44.5056L74.339 44.3444C73.9767 43.5272 73.7944 42.6264 73.8001 41.706L73.8125 35.1898L84.5444 49.0061L64.9492 68.4171L49.6403 76.0576L49.6348 76.05Z" fill="#F7C7D9" stroke="#F7C7D9" stroke-miterlimit="10"/>
</g>
<path d="M23.469 68.4222L33.5115 81.7039L42.1743 77.6428L53.5301 71.7424L54.7511 71.1393C58.9431 69.0645 62.7669 66.2695 66.0285 62.9059L70.003 58.7958L81.5394 46.4896L70.6308 29.9938L57.233 42.5765L47.8752 49.5982C47.4845 49.8802 47.0938 50.1622 46.6728 50.4197L34.3076 58.1972L19.2129 66.3096L23.458 68.407L23.469 68.4222Z" stroke="#F7C7D9" stroke-miterlimit="10"/>
</g>
<path d="M48.3202 97.4721C50.5852 98.0526 53.0574 97.7991 55.2834 96.7491L66.6236 91.3701C67.8474 90.7884 69.0135 90.0742 70.0915 89.238L84.1722 78.3547C86.8243 76.3011 88.9365 73.6397 90.2812 70.6507C91.3921 68.1785 91.5251 65.4726 90.6564 63.0607C90.0918 61.5079 89.3003 60.061 88.3037 58.7505L67.1163 31.0806C65.181 28.5571 62.6108 26.573 59.6154 25.3134C57.415 24.3847 54.9948 23.9395 52.5204 23.9973C50.1511 24.0605 47.9453 23.1241 46.4772 21.4232L45.0257 19.7451L32.4121 30.8918L24.1031 35.8109L19.7736 38.5534L19.9959 39.054C21.0501 41.3901 21.2268 44.0696 20.5081 46.6647L20.2173 47.6982C19.974 48.5697 19.8385 49.4679 19.8108 50.3579C19.6577 55.0153 20.9207 59.4973 23.4244 63.2461L44.5468 94.837C45.4107 96.1389 46.754 97.0715 48.3119 97.4781L48.3202 97.4721Z" stroke="#F7C7D9" stroke-miterlimit="10"/>
<path d="M17.2697 37.4484L17.7898 38.1865L19.395 38.5009L24.1114 35.8039L32.4961 30.5169L40.5359 24.1915L45.0256 19.7442L45.6511 18.6664L44.864 17.541L43.3484 18.6118L39.9614 21.4163L30.9963 28.3866L22.3705 33.8476L17.2697 37.4484Z" stroke="#F7C7D9" stroke-miterlimit="10"/>
<mask id="mask2_548_49" style="mask-type:luminance" maskUnits="userSpaceOnUse" x="8" y="6" width="39" height="32">
<path d="M9.13026 30.692L13.3759 36.0831C14.268 37.2139 15.7536 37.7306 17.2695 37.4484L30.9961 28.3865L44.8555 17.547L45.4939 16.7149C46.0047 16.0562 46.1843 15.219 45.9793 14.4622L45.8645 14.0579L41.3869 7.6974C40.9851 7.14072 40.3753 6.76892 39.6652 6.6784C38.9135 6.58299 38.1223 6.78299 37.4684 7.24339L31.0183 11.795C30.5611 12.125 30.0874 12.4322 29.6166 12.7257L21.3485 17.824C20.2793 18.4798 19.2514 19.2102 18.2703 19.988L10.1527 26.4509C9.48483 26.9794 8.99049 27.6958 8.74193 28.49C8.49618 29.2706 8.64012 30.083 9.11644 30.6903L9.13026 30.692Z" fill="white"/>
</mask>
<g mask="url(#mask2_548_49)">
<path d="M10.1153 30.7251L9.93767 30.0762C9.73824 29.327 9.77954 28.5084 10.1164 27.7665C10.2194 27.5414 10.3416 27.3603 10.469 27.2916L10.9262 26.9616C11.3443 26.7526 11.5232 26.983 11.6916 27.0586L11.9944 27.478C12.091 27.5243 12.0274 27.5238 12.0879 27.6077L13.7915 30.0202L16.6457 33.0984L18.0055 34.0538L17.3945 33.2074C17.3893 33.0951 15.2064 31.0519 15.1513 30.9756L14.8486 30.5562L12.8915 28.7559L12.3453 26.668L11.7783 25.8825C11.66 25.7011 11.6386 25.4613 11.7167 25.2542L11.8393 24.9337C11.9759 24.5799 11.8057 24.204 11.4633 24.08C11.1071 23.9543 10.6891 24.1284 10.5166 24.485L8.92779 27.7313" fill="#F7C7D9"/>
<path d="M10.1153 30.7251L9.93767 30.0762C9.73824 29.327 9.77954 28.5084 10.1164 27.7665C10.2194 27.5414 10.3416 27.3603 10.469 27.2916L10.9262 26.9616C11.3443 26.7526 11.5232 26.983 11.6916 27.0586L11.9944 27.478C12.091 27.5243 12.0274 27.5238 12.0879 27.6077L13.7915 30.0202L16.6457 33.0984L18.0055 34.0538L17.3945 33.2074C17.3893 33.0951 15.2064 31.0519 15.1513 30.9756L14.8486 30.5562L12.8915 28.7559L12.3453 26.668L11.7783 25.8825C11.66 25.7011 11.6386 25.4613 11.7167 25.2542L11.8393 24.9337C11.9759 24.5799 11.8057 24.204 11.4633 24.08C11.1071 23.9543 10.6891 24.1284 10.5166 24.485L8.92779 27.7313" stroke="#F7C7D9" stroke-width="0.75" stroke-miterlimit="10"/>
<path d="M12.1851 24.7996L12.0224 25.555C12.4795 25.225 13.4758 24.8886 13.7077 24.9996L15.5666 25.4904C15.6632 25.5367 15.7542 25.6102 15.8147 25.6941L17.5183 28.1066L19.9098 31.5072L21.5525 32.1889L20.7756 31.3229C20.7538 31.2227 20.7154 31.1344 20.6549 31.0505L18.6755 28.4311L17.4646 26.7186L16.0749 24.7408L15.5079 23.9553C15.3896 23.7739 15.3682 23.5341 15.4463 23.327L15.5689 23.0065C15.7055 22.6527 17.3338 20.8973 16.9859 20.7657L15.1957 22.1391C14.8395 22.0135 14.4215 22.1876 14.249 22.5442L10.3398 26.0967" fill="#F7C7D9"/>
<path d="M12.1851 24.7996L12.0224 25.555C12.4795 25.225 13.4758 24.8886 13.7077 24.9996L15.5666 25.4904C15.6632 25.5367 15.7542 25.6102 15.8147 25.6941L17.5183 28.1066L19.9098 31.5072L21.5525 32.1889L20.7756 31.3229C20.7538 31.2227 20.7154 31.1344 20.6549 31.0505L18.6755 28.4311L17.4646 26.7186L16.0749 24.7408L15.5079 23.9553C15.3896 23.7739 15.3682 23.5341 15.4463 23.327L15.5689 23.0065C15.7055 22.6527 17.3338 20.8973 16.9859 20.7657L15.1957 22.1391C14.8395 22.0135 14.4215 22.1876 14.249 22.5442L10.3398 26.0967" stroke="#F7C7D9" stroke-width="0.75" stroke-miterlimit="10"/>
<path d="M13.8697 24.2447L15.3646 23.5832C15.8218 23.2532 16.8181 22.9168 17.05 23.0278L18.9089 23.5186C19.0055 23.5649 19.0965 23.6384 19.157 23.7223L20.8606 26.1348L23.2521 29.5354L24.157 30.9816L24.1096 29.3571C24.0878 29.2569 24.0494 29.1686 23.9888 29.0847L22.0095 26.4653L20.7986 24.7528L19.4088 22.7749L18.8419 21.9895C18.7236 21.8081 18.7022 21.5683 18.7803 21.3612L18.9029 21.0407C19.0395 20.6869 20.6678 18.9315 20.3199 18.7999L18.5297 20.1733C18.1735 20.0477 17.7555 20.2218 17.583 20.5783L13.6738 24.1309" fill="#F7C7D9"/>
<path d="M13.8697 24.2447L15.3646 23.5832C15.8218 23.2532 16.8181 22.9168 17.05 23.0278L18.9089 23.5186C19.0055 23.5649 19.0965 23.6384 19.157 23.7223L20.8606 26.1348L23.2521 29.5354L24.157 30.9816L24.1096 29.3571C24.0878 29.2569 24.0494 29.1686 23.9888 29.0847L22.0095 26.4653L20.7986 24.7528L19.4088 22.7749L18.8419 21.9895C18.7236 21.8081 18.7022 21.5683 18.7803 21.3612L18.9029 21.0407C19.0395 20.6869 20.6678 18.9315 20.3199 18.7999L18.5297 20.1733C18.1735 20.0477 17.7555 20.2218 17.583 20.5783L13.6738 24.1309" stroke="#F7C7D9" stroke-width="0.75" stroke-miterlimit="10"/>
<path d="M18.1168 21.3525L19.6117 20.6909C20.0689 20.3609 21.0652 20.0245 21.297 20.1356L23.156 20.6264C23.2526 20.6726 23.3436 20.7462 23.4041 20.83L25.1076 23.2425L27.4992 26.6431L29.5522 27.8058L28.3567 26.4649C28.3349 26.3646 28.2965 26.2764 28.2359 26.1925L26.2566 23.5731L25.0457 21.8605L23.6559 19.8827C23.0658 19.4155 23.077 18.5027 23.6924 17.9541C23.7673 17.9001 23.8366 17.8384 23.8948 17.7964L24.3519 17.4664C24.4885 17.1126 24.9149 16.0393 24.5587 15.9136L22.7685 17.2871C22.4123 17.1615 21.9943 17.3356 21.8217 17.6921L17.9126 21.2447" fill="#F7C7D9"/>
<path d="M18.1168 21.3525L19.6117 20.6909C20.0689 20.3609 21.0652 20.0245 21.297 20.1356L23.156 20.6264C23.2526 20.6726 23.3436 20.7462 23.4041 20.83L25.1076 23.2425L27.4992 26.6431L29.5522 27.8058L28.3567 26.4649C28.3349 26.3646 28.2965 26.2764 28.2359 26.1925L26.2566 23.5731L25.0457 21.8605L23.6559 19.8827C23.0658 19.4155 23.077 18.5027 23.6924 17.9541C23.7673 17.9001 23.8366 17.8384 23.8948 17.7964L24.3519 17.4664C24.4885 17.1126 24.9149 16.0393 24.5587 15.9136L22.7685 17.2871C22.4123 17.1615 21.9943 17.3356 21.8217 17.6921L17.9126 21.2447" stroke="#F7C7D9" stroke-width="0.75" stroke-miterlimit="10"/>
<path d="M32.3748 11.362L34.6912 11.4531C35.2564 11.045 34.5595 10.2722 35.7876 10.0468L36.4814 10.0796C37.1392 10.1151 37.7132 10.4199 38.0737 10.9368C38.2003 11.1122 38.3324 11.2953 38.4562 11.4843C38.9846 12.2512 39.9037 12.7013 41.0094 12.7267L41.026 12.7147C41.5843 12.7525 42.0144 13.138 42.0901 13.6633C42.128 13.9259 42.1796 14.1902 42.3008 14.358C42.5264 14.6707 42.2032 15.484 41.9662 16.119C41.8575 16.4063 41.9588 16.7043 42.2182 16.8535L42.5011 17.438C42.6851 17.8155 42.6615 18.2733 42.4336 18.6582C42.2196 19.0099 41.9037 19.2728 41.4212 19.7254L37.4671 23.496L46.3325 16.5978C46.319 16.4915 45.7987 15.8232 45.7298 15.7453L45.9824 13.6606L44.1881 11.1049L43.259 8.57415L42.1138 6.19942C41.9872 6.02402 40.4771 6.24413 40.5912 5.99936L38.5856 7.31955C38.7803 6.92377 40.8575 4.84439 40.4735 4.75038L38.2428 6.44184C37.845 6.3462 37.3356 6.58633 37.0994 6.97723L32.1789 11.2482" fill="#F7C7D9"/>
<path d="M32.3748 11.362L34.6912 11.4531C35.2564 11.045 34.5595 10.2722 35.7876 10.0468L36.4814 10.0796C37.1392 10.1151 37.7132 10.4199 38.0737 10.9368C38.2003 11.1122 38.3324 11.2953 38.4562 11.4843C38.9846 12.2512 39.9037 12.7013 41.0094 12.7267L41.026 12.7147C41.5843 12.7525 42.0144 13.138 42.0901 13.6633C42.128 13.9259 42.1796 14.1902 42.3008 14.358C42.5264 14.6707 42.2032 15.484 41.9662 16.119C41.8575 16.4063 41.9588 16.7043 42.2182 16.8535L42.5011 17.438C42.6851 17.8155 42.6615 18.2733 42.4336 18.6582C42.2196 19.0099 41.9037 19.2728 41.4212 19.7254L37.4671 23.496L46.3325 16.5978C46.319 16.4915 45.7987 15.8232 45.7298 15.7453L45.9824 13.6606L44.1881 11.1049L43.259 8.57415L42.1138 6.19942C41.9872 6.02402 40.4771 6.24413 40.5912 5.99936L38.5856 7.31955C38.7803 6.92377 40.8575 4.84439 40.4735 4.75038L38.2428 6.44184C37.845 6.3462 37.3356 6.58633 37.0994 6.97723L32.1789 11.2482" stroke="#F7C7D9" stroke-width="0.75" stroke-miterlimit="10"/>
<path d="M22.6222 18.2749L23.7553 17.515C23.9797 17.353 24.2673 17.331 24.4992 17.442L25.548 17.9492C25.6446 17.9955 25.7356 18.069 25.7962 18.1528L27.4997 20.5653L29.8912 23.9659L31.0911 25.6632L30.7571 23.7817C30.7353 23.6814 30.6969 23.5932 30.6363 23.5093L28.657 20.8899L27.4461 19.1774L26.9341 18.4682C26.4003 17.6936 26.4381 17.0979 26.9827 16.2408L27.6081 15.163C27.4815 14.9876 27.2273 14.9507 27.3053 14.7436L25.5421 15.4712C25.6787 15.1175 25.5085 14.7416 25.1661 14.6175C24.8098 14.4919 24.3919 14.666 24.2193 15.0225L22.6305 18.2689" fill="#F7C7D9"/>
<path d="M22.6222 18.2749L23.7553 17.515C23.9797 17.353 24.2673 17.331 24.4992 17.442L25.548 17.9492C25.6446 17.9955 25.7356 18.069 25.7962 18.1528L27.4997 20.5653L29.8912 23.9659L31.0911 25.6632L30.7571 23.7817C30.7353 23.6814 30.6969 23.5932 30.6363 23.5093L28.657 20.8899L27.4461 19.1774L26.9341 18.4682C26.4003 17.6936 26.4381 17.0979 26.9827 16.2408L27.6081 15.163C27.4815 14.9876 27.2273 14.9507 27.3053 14.7436L25.5421 15.4712C25.6787 15.1175 25.5085 14.7416 25.1661 14.6175C24.8098 14.4919 24.3919 14.666 24.2193 15.0225L22.6305 18.2689" stroke="#F7C7D9" stroke-width="0.75" stroke-miterlimit="10"/>
<path d="M26.1478 16.9943L27.6317 16.3176C28.0889 15.9876 29.0797 15.6436 29.3005 15.7393L31.1154 16.1691C31.212 16.2154 31.2975 16.2813 31.358 16.3652L32.979 18.6633L35.2549 21.9037L36.1158 23.289L36.107 21.7179C36.0907 21.6252 36.0522 21.537 35.9972 21.4607L34.7894 20.4882L32.7915 17.6503L31.6235 15.4543L31.0841 14.707C30.9713 14.5333 30.9555 14.3011 31.039 14.1016L31.1672 13.7887C31.3093 13.4425 34.1224 10.2983 33.7772 10.1879L30.8637 10.9687C30.513 10.8507 29.1937 11.9306 29.0157 12.2795L24.6804 15.9773" fill="#F7C7D9"/>
<path d="M26.1478 16.9943L27.6317 16.3176C28.0889 15.9876 29.0797 15.6436 29.3005 15.7393L31.1154 16.1691C31.212 16.2154 31.2975 16.2813 31.358 16.3652L32.979 18.6633L35.2549 21.9037L36.1158 23.289L36.107 21.7179C36.0907 21.6252 36.0522 21.537 35.9972 21.4607L34.7894 20.4882L32.7915 17.6503L31.6235 15.4543L31.0841 14.707C30.9713 14.5333 30.9555 14.3011 31.039 14.1016L31.1672 13.7887C31.3093 13.4425 34.1224 10.2983 33.7772 10.1879L30.8637 10.9687C30.513 10.8507 29.1937 11.9306 29.0157 12.2795L24.6804 15.9773" stroke="#F7C7D9" stroke-width="0.75" stroke-miterlimit="10"/>
<path d="M31.0669 11.3552L30.6809 13.6405C31.1381 13.3104 32.6972 11.5818 33.4626 11.6789L34.4567 12.04C34.5533 12.0863 34.6443 12.1598 34.7048 12.2437L36.4084 14.6562L38.7999 18.0568L40.4426 18.7385L39.6657 17.8725C39.6439 17.7723 38.9427 17.4665 38.8877 17.3902L38.2767 16.5438L36.1962 13.5566L35.4989 12.0301C35.1521 11.5496 34.9854 10.9508 35.0122 10.3399L35.0274 9.923C34.9007 9.74761 36.0374 8.72992 36.1238 8.51678L34.4757 9.54408C34.6122 9.1903 36.2406 7.43494 35.8927 7.3033L34.1025 8.67675C33.7462 8.5511 33.3283 8.72523 33.1557 9.08176L29.2466 12.6343" fill="#F7C7D9"/>
<path d="M31.0669 11.3552L30.6809 13.6405C31.1381 13.3104 32.6972 11.5818 33.4626 11.6789L34.4567 12.04C34.5533 12.0863 34.6443 12.1598 34.7048 12.2437L36.4084 14.6562L38.7999 18.0568L40.4426 18.7385L39.6657 17.8725C39.6439 17.7723 38.9427 17.4665 38.8877 17.3902L38.2767 16.5438L36.1962 13.5566L35.4989 12.0301C35.1521 11.5496 34.9854 10.9508 35.0122 10.3399L35.0274 9.923C34.9007 9.74761 36.0374 8.72992 36.1238 8.51678L34.4757 9.54408C34.6122 9.1903 36.2406 7.43494 35.8927 7.3033L34.1025 8.67675C33.7462 8.5511 33.3283 8.72523 33.1557 9.08176L29.2466 12.6343" stroke="#F7C7D9" stroke-width="0.75" stroke-miterlimit="10"/>
<path d="M9.54303 27.9365L9.08585 28.2666C9.21922 28.9242 10.6895 30.7859 11.1829 31.2417L13.5901 33.1927C13.9929 33.4355 14.343 33.7628 14.6099 34.1501L15.4009 34.913C16.2387 35.7234 17.5012 35.9835 18.6939 35.5865L20.9548 34.8477L15.1466 39.2375L7.38672 28.8203" fill="#F7C7D9"/>
<path d="M9.54303 27.9365L9.08585 28.2666C9.21922 28.9242 10.6895 30.7859 11.1829 31.2417L13.5901 33.1927C13.9929 33.4355 14.343 33.7628 14.6099 34.1501L15.4009 34.913C16.2387 35.7234 17.5012 35.9835 18.6939 35.5865L20.9548 34.8477L15.1466 39.2375L7.38672 28.8203" stroke="#F7C7D9" stroke-miterlimit="10"/>
</g>
<path d="M9.13123 30.6925L13.3769 36.0836C14.269 37.2144 15.7546 37.7311 17.2704 37.4488L30.997 28.387L44.8564 17.5474L45.4949 16.7154C46.0057 16.0567 46.1852 15.2195 45.9803 14.4627L45.8655 14.0584L41.3879 7.69789C40.9861 7.14121 40.3763 6.76941 39.6661 6.67888C38.9145 6.58348 38.1232 6.78348 37.4694 7.24388L31.0193 11.7955C30.5621 12.1255 30.0884 12.4326 29.6175 12.7262L21.3495 17.8245C20.2803 18.4803 19.2524 19.2107 18.2713 19.9885L10.1537 26.4514C9.48581 26.9799 8.99146 27.6963 8.74291 28.4905C8.49716 29.2711 8.64109 30.0835 9.11742 30.6908L9.13123 30.6925Z" stroke="#F7C7D9" stroke-miterlimit="10"/>
<mask id="mask3_548_49" style="mask-type:luminance" maskUnits="userSpaceOnUse" x="45" y="83" width="15" height="12">
<path d="M45.7821 91.5556C45.8467 92.1005 46.0911 92.5968 46.4908 92.9578L47.1579 93.5667C47.5989 93.9674 48.1898 94.1905 48.8284 94.1819L49.879 94.1659C50.3545 94.159 50.8193 94.0323 51.232 93.7808L55.8821 91.062C56.0594 90.9573 56.2256 90.8373 56.3726 90.708L58.5795 88.6858C59.0952 88.2091 59.4179 87.5702 59.4643 86.8988L59.4902 86.5669C59.5453 85.7499 59.1939 84.9828 58.5374 84.5288L57.9499 84.1177C57.2686 83.6468 56.3593 83.5608 55.5345 83.8894L53.8628 84.5162C53.6552 84.5964 51.7266 86.0234 51.5437 86.1554L46.9344 89.0883C46.1226 89.6627 45.6717 90.6145 45.7765 91.5479L45.7821 91.5556Z" fill="white"/>
</mask>
<g mask="url(#mask3_548_49)">
<path d="M51.1213 87.4463L51.1384 88.1531C51.143 88.4397 51.214 88.7133 51.3459 88.966L51.7471 89.732C51.824 89.8736 51.9093 90.0093 52.0278 90.1209L52.3969 90.5272C52.7082 90.8709 53.0916 91.1393 53.5223 91.3155L54.8309 91.8672L56.46 91.6193L61.2469 87.6187L57.1959 81.8666L51.7696 86.1199C51.3567 86.4412 51.1201 86.9367 51.1323 87.4615L51.1213 87.4463Z" fill="#F7C7D9" stroke="#F7C7D9" stroke-miterlimit="10"/>
</g>
<path d="M45.7821 91.5556C45.8467 92.1005 46.0911 92.5968 46.4908 92.9578L47.1579 93.5667C47.5989 93.9674 48.1898 94.1905 48.8284 94.1819L49.879 94.1659C50.3545 94.159 50.8193 94.0323 51.232 93.7808L55.8821 91.062C56.0594 90.9573 56.2256 90.8373 56.3726 90.708L58.5795 88.6858C59.0952 88.2091 59.4179 87.5702 59.4643 86.8988L59.4902 86.5669C59.5453 85.7499 59.1939 84.9828 58.5374 84.5288L57.9499 84.1177C57.2686 83.6468 56.3593 83.5608 55.5345 83.8894L53.8628 84.5162C53.6552 84.5964 51.7266 86.0234 51.5437 86.1554L46.9344 89.0883C46.1226 89.6627 45.6717 90.6145 45.7765 91.5479L45.7821 91.5556Z" stroke="#F7C7D9" stroke-miterlimit="10"/>
<mask id="mask4_548_49" style="mask-type:luminance" maskUnits="userSpaceOnUse" x="55" y="74" width="10" height="14">
<path d="M62.5418 81.5802C62.0846 81.9102 63.7699 81.3549 64.2746 80.0046L64.8281 77.1808C64.9574 76.5191 64.8185 75.8538 64.4304 75.3336L64.2432 75.0743C63.7642 74.4458 62.9802 74.0954 62.1396 74.157L61.3931 74.2087C60.5249 74.2671 59.7161 74.7581 59.2299 75.5034L58.2328 76.9771C58.1161 77.1657 57.4125 79.3788 57.3427 79.5799L55.3698 84.5187C55.06 85.4383 55.2919 86.4076 55.9728 87.018C56.3725 87.3791 56.8943 87.594 57.4692 87.6198L58.4145 87.6682" fill="white"/>
</mask>
<g mask="url(#mask4_548_49)">
<path d="M57.5005 80.3589L57.9688 80.8676C58.1534 81.0708 58.3961 81.2319 58.664 81.3402L59.4812 81.6666C59.6386 81.727 59.7933 81.7661 59.9646 81.7932L60.5366 81.8675C61.0119 81.9304 61.5068 81.8979 61.9799 81.7652L63.427 81.3702L64.6305 80.1998L66.0727 74.3683L59.0096 72.5883L57.1869 78.9962C57.0444 79.4818 57.1727 79.9924 57.506 80.3666L57.5005 80.3589Z" fill="#F7C7D9" stroke="#F7C7D9" stroke-width="0.5" stroke-miterlimit="10"/>
</g>
<path d="M62.5413 81.5802C62.0841 81.9102 63.7694 81.3549 64.2741 80.0046L64.8277 77.1808C64.9569 76.5191 64.818 75.8538 64.4299 75.3336L64.2428 75.0743C63.7637 74.4458 62.9797 74.0954 62.1392 74.157L61.3926 74.2087C60.5244 74.2671 59.7156 74.7581 59.2294 75.5034L58.2323 76.9771C58.1156 77.1657 57.412 79.3788 57.3422 79.5799L55.3693 84.5187C55.0595 85.4383 55.2914 86.4076 55.9723 87.018C56.372 87.3791 56.8938 87.594 57.4687 87.6198L58.414 87.6682" stroke="#F7C7D9" stroke-width="0.5" stroke-miterlimit="10"/>
<mask id="mask5_548_49" style="mask-type:luminance" maskUnits="userSpaceOnUse" x="62" y="67" width="15" height="9">
<path d="M63.2296 69.0658C62.9101 69.5515 62.7535 70.1053 62.7877 70.6606L62.8456 71.5816C62.8824 72.193 63.157 72.7487 63.6064 73.1435L64.3563 73.7969C64.6926 74.0877 65.1122 74.2836 65.5736 74.3449L70.6772 75.0918C70.8706 75.1146 71.0669 75.1237 71.2687 75.1056L74.1915 74.8633C74.8745 74.811 75.5279 74.4901 76.0161 73.9754L76.2602 73.718C76.8566 73.0903 77.108 72.2476 76.953 71.4548L76.8142 70.7546C76.6565 69.9405 76.0669 69.299 75.2578 69.0363L73.6506 68.4913C73.4517 68.4261 71.1298 68.3623 70.9197 68.3515L65.7022 67.8145C64.7431 67.7644 63.785 68.2588 63.2406 69.081L63.2296 69.0658Z" fill="white"/>
</mask>
<g mask="url(#mask5_548_49)">
<path d="M69.7509 69.114L69.2901 69.7018C69.1069 69.9384 68.9734 70.2088 68.8923 70.4993L68.6628 71.3725C68.6153 71.5344 68.5954 71.6996 68.5894 71.8663L68.5793 72.4304C68.5667 72.9034 68.662 73.3682 68.8459 73.7806L69.403 75.0604L70.7246 75.8927L76.7904 75.6782L77.7893 68.4267L71.1076 68.4362C70.599 68.4322 70.0922 68.6936 69.7647 69.1156L69.7509 69.114Z" fill="#F7C7D9" stroke="#F7C7D9" stroke-width="0.5" stroke-miterlimit="10"/>
</g>
<path d="M63.2305 69.0658C62.9111 69.5515 62.7545 70.1053 62.7887 70.6606L62.8466 71.5816C62.8833 72.193 63.158 72.7487 63.6074 73.1435L64.3572 73.7969C64.6936 74.0877 65.1131 74.2836 65.5746 74.3449L70.6782 75.0918C70.8716 75.1146 71.0679 75.1237 71.2697 75.1056L74.1925 74.8633C74.8755 74.811 75.5289 74.4901 76.0171 73.9754L76.2612 73.718C76.8575 73.0903 77.109 72.2476 76.954 71.4548L76.8152 70.7546C76.6574 69.9405 76.0679 69.299 75.2587 69.0363L73.6516 68.4913C73.4527 68.4261 71.1308 68.3623 70.9207 68.3515L65.7032 67.8145C64.744 67.7644 63.786 68.2588 63.2415 69.081L63.2305 69.0658Z" stroke="#F7C7D9" stroke-width="0.5" stroke-miterlimit="10"/>
<mask id="mask6_548_49" style="mask-type:luminance" maskUnits="userSpaceOnUse" x="77" y="53" width="9" height="13">
<path d="M81.81 65.7105C82.3131 65.7069 82.8168 65.5289 83.2325 65.2289L83.939 64.7188C84.399 64.3752 84.7268 63.8834 84.8667 63.3416L85.0935 62.4472C85.197 62.0477 85.1817 61.6411 85.0558 61.2565L83.6675 57.0737C83.6155 56.914 83.5468 56.7664 83.456 56.6231L82.1384 54.5701C81.8275 54.0869 81.3282 53.763 80.7397 53.6658L80.444 53.6241C79.7256 53.5047 78.9536 53.7488 78.3935 54.2691L77.8944 54.7337C77.3178 55.266 77.0389 56.0357 77.1444 56.7599L77.336 58.2339C77.3631 58.4115 78.2034 60.1712 78.2747 60.3401L79.8649 64.5047C80.1998 65.2489 80.9475 65.7067 81.8128 65.6969L81.81 65.7105Z" fill="white"/>
</mask>
<g mask="url(#mask6_548_49)">
<path d="M79.3349 60.8274L79.9705 60.8673C80.2276 60.8906 80.4903 60.8517 80.7505 60.7567L81.5281 60.4853C81.672 60.4394 81.8132 60.3723 81.9434 60.2899L82.3894 60.0144C82.7633 59.7793 83.096 59.4695 83.3515 59.1227L84.1372 58.0568L84.2854 56.6507L81.7838 52.2393L75.7036 55.2015L78.2947 60.1747C78.4926 60.5539 78.8816 60.795 79.3487 60.8291L79.3349 60.8274Z" fill="#F7C7D9" stroke="#F7C7D9" stroke-width="0.5" stroke-miterlimit="10"/>
</g>
<path d="M81.81 65.7105C82.3131 65.7069 82.8168 65.5289 83.2325 65.2289L83.939 64.7188C84.399 64.3752 84.7268 63.8834 84.8667 63.3416L85.0935 62.4472C85.197 62.0477 85.1817 61.6411 85.0558 61.2565L83.6675 57.0737C83.6155 56.914 83.5468 56.7664 83.456 56.6231L82.1384 54.5701C81.8275 54.0869 81.3282 53.763 80.7397 53.6658L80.444 53.6241C79.7256 53.5047 78.9536 53.7488 78.3935 54.2691L77.8944 54.7337C77.3178 55.266 77.0389 56.0357 77.1444 56.7599L77.336 58.2339C77.3631 58.4115 78.2034 60.1712 78.2747 60.3401L79.8649 64.5047C80.1998 65.2489 80.9475 65.7067 81.8128 65.6969L81.81 65.7105Z" stroke="#F7C7D9" stroke-width="0.5" stroke-miterlimit="10"/>
<mask id="mask7_548_49" style="mask-type:luminance" maskUnits="userSpaceOnUse" x="46" y="73" width="16" height="8">
<path d="M61.2507 78.0576C61.4652 77.5316 61.4974 76.9632 61.3443 76.4358L61.0844 75.5678C60.9065 74.9886 60.5238 74.511 59.9884 74.2247L59.1025 73.7506C58.7079 73.5367 58.2465 73.4406 57.7737 73.4687L52.5313 73.8079C52.3377 73.8201 52.133 73.8518 51.9366 73.9124L49.0893 74.7498C48.4197 74.9432 47.8405 75.3845 47.471 75.976L47.2903 76.2688C46.843 76.9977 46.7711 77.8615 47.095 78.5905L47.386 79.2388C47.7264 79.9906 48.4518 80.4877 49.3058 80.5672L51.0191 80.7688C51.2347 80.7871 53.5554 80.3763 53.7683 80.3385L59.0779 79.7769C60.0431 79.6253 60.8884 78.9571 61.2507 78.0576Z" fill="white"/>
</mask>
<g mask="url(#mask7_548_49)">
<path d="M54.7499 79.3517L55.0838 78.6932C55.2173 78.4228 55.2901 78.1383 55.3076 77.8472L55.3491 76.9589C55.3552 76.7922 55.3391 76.6298 55.3092 76.4657L55.1948 75.922C55.1051 75.4648 54.9101 75.0371 54.6376 74.6771L53.798 73.5665L52.3068 73.0421L46.3255 74.4947L46.9137 81.6677L53.561 80.2795C54.0645 80.1713 54.5107 79.826 54.7499 79.3517Z" fill="#F7C7D9" stroke="#F7C7D9" stroke-miterlimit="10"/>
</g>
<path d="M61.2507 78.0576C61.4652 77.5316 61.4974 76.9632 61.3443 76.4358L61.0844 75.5678C60.9065 74.9886 60.5238 74.511 59.9884 74.2247L59.1025 73.7506C58.7079 73.5367 58.2465 73.4406 57.7737 73.4687L52.5313 73.8079C52.3377 73.8201 52.133 73.8518 51.9366 73.9124L49.0893 74.7498C48.4197 74.9432 47.8405 75.3845 47.471 75.976L47.2903 76.2688C46.843 76.9977 46.7711 77.8615 47.095 78.5905L47.386 79.2388C47.7264 79.9906 48.4518 80.4877 49.3058 80.5672L51.0191 80.7688C51.2347 80.7871 53.5554 80.3763 53.7683 80.3385L59.0779 79.7769C60.0431 79.6253 60.8884 78.9571 61.2507 78.0576Z" stroke="#F7C7D9" stroke-miterlimit="10"/>
<mask id="mask8_548_49" style="mask-type:luminance" maskUnits="userSpaceOnUse" x="65" y="72" width="13" height="12">
<path d="M76.8944 73.5619C76.6388 73.0853 76.2253 72.7226 75.7145 72.5229L74.8558 72.1916C74.287 71.9642 73.6346 71.9712 73.023 72.1923L72.0211 72.556C71.5699 72.7192 71.1599 72.992 70.8436 73.3595L67.3034 77.3882C67.173 77.5403 67.0536 77.7077 66.9535 77.8843L66.2341 78.972L65.6086 80.0498L66.8368 79.8245C66.8368 79.8245 66.8012 79.7226 67.6022 79.9215L69.4275 80.541C70.7874 81.4965 70.7592 83.4191 70.7592 83.4191L71.5632 82.6763C71.7351 82.5291 73.0903 80.5881 73.2263 80.4087L76.1856 76.521C76.7741 75.725 77.3341 74.3813 76.8999 73.5696L76.8944 73.5619Z" fill="white"/>
</mask>
<g mask="url(#mask8_548_49)">
<path d="M73.186 79.0926L72.9198 78.4612C72.8101 78.204 72.6449 77.9752 72.4354 77.7901L71.7876 77.2254C71.6608 77.1198 71.5311 77.0278 71.382 76.9614L70.888 76.7148C70.4629 76.5113 69.9989 76.3939 69.5235 76.3659L68.064 76.3059L66.5743 77.0796L63.3564 82.3255L69.3125 86.2152L73.0598 80.5292C73.3404 80.0947 73.4001 79.5644 73.2053 79.1018L73.186 79.0926Z" fill="#F7C7D9" stroke="#F7C7D9" stroke-miterlimit="10"/>
</g>
<path d="M76.8944 73.5619C76.6388 73.0853 76.2253 72.7226 75.7145 72.5229L74.8558 72.1916C74.287 71.9642 73.6346 71.9712 73.023 72.1923L72.0211 72.556C71.5699 72.7192 71.1599 72.992 70.8436 73.3595L67.3034 77.3882C67.173 77.5403 67.0536 77.7077 66.9535 77.8843L66.2341 78.972L65.6086 80.0498L66.8368 79.8245C66.8368 79.8245 66.8012 79.7226 67.6022 79.9215L69.4275 80.541C70.7874 81.4965 70.7592 83.4191 70.7592 83.4191L71.5632 82.6763C71.7351 82.5291 73.0903 80.5881 73.2263 80.4087L76.1856 76.521C76.7741 75.725 77.3341 74.3813 76.8999 73.5696L76.8944 73.5619Z" stroke="#F7C7D9" stroke-miterlimit="10"/>
<mask id="mask9_548_49" style="mask-type:luminance" maskUnits="userSpaceOnUse" x="73" y="62" width="14" height="12">
<path d="M73.1254 70.5993C73.2038 71.1458 73.4732 71.6241 73.8812 71.9791L74.5677 72.5623C75.0254 72.9511 75.6274 73.1545 76.255 73.1307L77.2973 73.0858C77.7673 73.0713 78.2378 72.9173 78.6505 72.6658L83.2208 69.8191C83.3926 69.7067 83.5533 69.579 83.7003 69.4498L85.8493 67.3649C86.354 66.873 86.6574 66.2248 86.6816 65.5578L86.6937 65.2242C86.7212 64.404 86.3449 63.655 85.6718 63.2129L85.0731 62.8215C84.3807 62.3702 83.4658 62.3114 82.6492 62.6689L80.9884 63.3458C80.7863 63.4337 78.8962 64.914 78.7217 65.04L74.1921 68.1009C73.3968 68.6982 72.9707 69.6669 73.1144 70.584L73.1254 70.5993Z" fill="white"/>
</mask>
<g mask="url(#mask9_548_49)">
<path d="M78.3526 66.3509L78.3918 67.0533C78.4047 67.334 78.4896 67.6091 78.6298 67.8559L79.0476 68.6099C79.1245 68.7515 79.2181 68.8811 79.3283 68.9988L79.7141 69.3931C80.042 69.7247 80.4282 69.9795 80.8672 70.1498L82.1925 70.6546L83.8162 70.3641L88.4874 66.2383L84.2535 60.6182L78.9456 65.018C78.5437 65.3546 78.321 65.8517 78.3498 66.3645L78.3526 66.3509Z" fill="#F7C7D9" stroke="#F7C7D9" stroke-width="0.5" stroke-miterlimit="10"/>
</g>
<path d="M73.1254 70.5997C73.2038 71.1463 73.4732 71.6246 73.8812 71.9796L74.5677 72.5628C75.0254 72.9516 75.6274 73.155 76.255 73.1312L77.2973 73.0863C77.7673 73.0718 78.2378 72.9178 78.6505 72.6663L83.2208 69.8195C83.3926 69.7072 83.5533 69.5795 83.7003 69.4503L85.8493 67.3654C86.354 66.8735 86.6574 66.2253 86.6816 65.5583L86.6937 65.2247C86.7212 64.4045 86.3449 63.6555 85.6718 63.2134L85.0731 62.822C84.3807 62.3707 83.4658 62.3119 82.6492 62.6694L80.9884 63.3463C80.7863 63.4342 78.8962 64.9145 78.7217 65.0405L74.1921 68.1014C73.3968 68.6987 72.9707 69.6674 73.1144 70.5845L73.1254 70.5997Z" stroke="#F7C7D9" stroke-width="0.5" stroke-miterlimit="10"/>
<mask id="mask10_548_49" style="mask-type:luminance" maskUnits="userSpaceOnUse" x="68" y="56" width="10" height="13">
<path d="M69.0017 67.7068C69.3404 68.1234 69.826 68.4109 70.3703 68.5168L71.2875 68.7014C71.8925 68.8214 72.5453 68.7098 73.113 68.3928L74.049 67.8679C74.4728 67.6316 74.8387 67.2979 75.0861 66.8873L77.0985 63.4396C77.2041 63.2706 77.1976 62.6837 77.1976 62.6837L76.9608 61.5323L76.0547 59.5765L75.4902 58.0237L75.3608 56.1104C75.3608 56.1104 74.4601 55.9486 73.883 56.6204L72.6872 57.9591C72.5457 58.1309 71.53 60.2444 71.4326 60.4423L68.7777 65.1194C68.3354 65.9955 68.4262 66.9971 68.9934 67.7128L69.0017 67.7068Z" fill="white"/>
</mask>
<g mask="url(#mask10_548_49)">
<path d="M71.7273 61.6213L72.071 62.22C72.2112 62.4668 72.4041 62.6639 72.6441 62.8038L73.367 63.2447C73.4995 63.3231 73.6485 63.3895 73.8032 63.4287L74.3336 63.5678C74.7838 63.6836 75.262 63.698 75.746 63.6153L77.2176 63.3418L78.6145 62.1943L81.1969 55.9804L74.7449 53.2954L71.688 60.0954C71.4541 60.6122 71.4633 61.1855 71.719 61.6273L71.7273 61.6213Z" fill="#F7C7D9" stroke="#F7C7D9" stroke-width="0.5" stroke-miterlimit="10"/>
</g>
<path d="M69.0017 67.7068C69.3404 68.1234 69.826 68.4109 70.3703 68.5168L71.2875 68.7014C71.8925 68.8214 72.5453 68.7098 73.113 68.3928L74.049 67.8679C74.4728 67.6316 74.8387 67.2979 75.0861 66.8873L77.0985 63.4396C77.2041 63.2706 77.1976 62.6837 77.1976 62.6837L76.9608 61.5323L76.0547 59.5765L75.4902 58.0237L75.3608 56.1104C75.3608 56.1104 74.4601 55.9486 73.883 56.6204L72.6872 57.9591C72.5457 58.1309 71.53 60.2444 71.4326 60.4423L68.7777 65.1194C68.3354 65.9955 68.4262 66.9971 68.9934 67.7128L69.0017 67.7068Z" stroke="#F7C7D9" stroke-width="0.5" stroke-miterlimit="10"/>
<path d="M37.4077 65.5742C38.261 65.863 39.2779 66.0105 40.1529 65.5413C41.6898 64.7102 41.2592 62.7824 42.9574 61.6494C44.2123 60.8131 44.9232 61.5527 46.3363 60.5326C47.4751 59.7106 47.3114 59.0284 48.3526 58.474C49.6652 57.7701 50.3922 58.6372 51.5688 58.1127C53.3682 57.3125 52.6323 54.8743 54.536 53.4653C56.2983 52.1584 57.7284 53.6316 59.9002 52.2262C61.3794 51.2628 61.214 50.2455 63.0074 48.7538C64.2796 47.6962 65.6054 47.1683 66.5545 46.8892" stroke="#F7C7D9" stroke-miterlimit="10"/>
<path d="M41.0053 70.6798C41.4663 69.1639 42.1539 68.5052 42.7217 68.1881C43.3918 67.8204 43.6786 68.0425 44.407 67.6328C45.6643 66.9224 45.5544 65.8418 46.4233 65.5741C47.4748 65.2443 48.2277 66.6726 49.0057 66.2966C49.8474 65.8862 49.9621 63.7156 49.9621 63.7156C50.7294 64.1129 51.1968 64.0422 51.4847 63.9156C52.3761 63.5041 52.1095 62.1539 53.201 61.4239C53.8576 60.9848 54.1495 61.3541 54.8863 60.8686C55.8532 60.2287 55.7703 59.3257 56.4399 59.1323C57.1981 58.9214 57.6619 59.9669 58.2653 59.7518C59.0291 59.4788 58.5842 57.6889 59.6789 56.8407C60.4603 56.2418 61.0139 56.8861 62.1296 56.3824C63.8211 55.6253 63.5425 53.6805 65.2368 52.9099C66.25 52.4569 66.7239 52.9732 67.6876 52.4515C68.6845 51.9059 69.1579 50.8102 69.4039 49.9599" stroke="#F7C7D9" stroke-miterlimit="10"/>
<mask id="mask11_548_49" style="mask-type:luminance" maskUnits="userSpaceOnUse" x="55" y="81" width="14" height="11">
<path d="M55.1361 89.0829C55.2007 89.6278 55.4451 90.1241 55.8448 90.4852L56.5119 91.094C56.9529 91.4948 57.5438 91.7178 58.1824 91.7092L59.233 91.6932C59.7085 91.6864 60.1733 91.5596 60.586 91.3081L65.2361 88.5894C65.4134 88.4846 65.5797 88.3646 65.7266 88.2354L67.9335 86.2131C68.4492 85.7365 68.7719 85.0975 68.8183 84.4261L68.8442 84.0942C68.8993 83.2773 68.5479 82.5102 67.8914 82.0561L67.3039 81.6451C66.6226 81.1741 65.7133 81.0881 64.8885 81.4168L63.2168 82.0435C63.0092 82.1238 61.0806 83.5507 60.8977 83.6827L56.2884 86.6156C55.4766 87.19 55.0257 88.1418 55.1306 89.0753L55.1361 89.0829Z" fill="white"/>
</mask>
<g mask="url(#mask11_548_49)">
<path d="M60.4811 84.9809L60.4982 85.6877C60.5028 85.9744 60.5739 86.2479 60.7057 86.5007L61.1069 87.2667C61.1839 87.4083 61.2691 87.5439 61.3877 87.6556L61.7568 88.0619C62.0681 88.4055 62.4515 88.6739 62.8822 88.8502L64.1908 89.4019L65.8198 89.1539L70.6067 85.1533L66.5557 79.4012L61.1294 83.6546C60.7165 83.9759 60.48 84.4714 60.4921 84.9962L60.4811 84.9809Z" fill="#F7C7D9" stroke="#F7C7D9" stroke-width="0.5" stroke-miterlimit="10"/>
</g>
<path d="M55.1361 89.0829C55.2007 89.6278 55.4451 90.1241 55.8448 90.4852L56.5119 91.094C56.9529 91.4948 57.5438 91.7178 58.1824 91.7092L59.233 91.6932C59.7085 91.6864 60.1733 91.5596 60.586 91.3081L65.2361 88.5894C65.4134 88.4846 65.5797 88.3646 65.7266 88.2354L67.9335 86.2131C68.4492 85.7365 68.7719 85.0975 68.8183 84.4261L68.8442 84.0942C68.8993 83.2773 68.5479 82.5102 67.8914 82.0561L67.3039 81.6451C66.6226 81.1741 65.7133 81.0881 64.8885 81.4168L63.2168 82.0435C63.0092 82.1238 61.0806 83.5507 60.8977 83.6827L56.2884 86.6156C55.4766 87.19 55.0257 88.1418 55.1306 89.0753L55.1361 89.0829Z" stroke="#F7C7D9" stroke-width="0.5" stroke-miterlimit="10"/>
<mask id="mask12_548_49" style="mask-type:luminance" maskUnits="userSpaceOnUse" x="40" y="78" width="12" height="13">
<path d="M51.1105 86.7111C51.0981 86.2561 50.9613 85.8213 50.6971 85.4552L47.8515 81.4081C47.7414 81.2555 47.6147 81.115 47.4768 80.9941L45.3705 79.1972C44.877 78.7763 44.2169 78.58 43.5311 78.6458L43.191 78.6826C42.3531 78.7655 41.5664 79.2521 41.108 79.9658L40.6941 80.6009C40.2163 81.3402 40.136 82.2449 40.4847 82.9908L41.1489 84.5064C41.2313 84.6906 42.7217 86.3174 42.8594 86.4731L45.9264 90.4417" fill="white"/>
</mask>
<g mask="url(#mask12_548_49)">
<path d="M44.1996 86.6654L44.9215 86.5271C45.2092 86.4702 45.5026 86.3512 45.7575 86.1788L46.5359 85.6633C46.6773 85.5613 46.8186 85.4593 46.9379 85.3268L47.3511 84.9009C47.6951 84.5366 47.9728 84.1157 48.1484 83.6758L48.6918 82.3092L48.4147 80.7693L44.2557 76.8119L38.3905 81.7533L42.813 86.286C43.1519 86.6329 43.6601 86.7764 44.1913 86.6714L44.1996 86.6654Z" fill="#F7C7D9" stroke="#F7C7D9" stroke-miterlimit="10"/>
</g>
<path d="M51.1105 86.7111C51.0981 86.2561 50.9613 85.8213 50.6971 85.4552L47.8515 81.4081C47.7414 81.2555 47.6147 81.115 47.4768 80.9941L45.3705 79.1972C44.877 78.7763 44.2169 78.58 43.5311 78.6458L43.191 78.6826C42.3531 78.7655 41.5664 79.2521 41.108 79.9658L40.6941 80.6009C40.2163 81.3402 40.136 82.2449 40.4847 82.9908L41.1489 84.5064C41.2313 84.6906 42.7217 86.3174 42.8594 86.4731L45.9264 90.4417" stroke="#F7C7D9" stroke-miterlimit="10"/>
<path d="M50.3101 81.9418L52.1044 84.4976L52.7284 83.8732C53.0778 83.5165 53.5512 83.314 54.0267 83.3072L54.7096 83.2898L55.4978 81.4565L50.3018 81.9478L50.3101 81.9418Z" fill="#F7C7D9"/>
<path d="M65.84 75.4295L66.2745 77.0297L67.3571 75.6219L65.84 75.4295Z" fill="#F7C7D9" stroke="#F7C7D9" stroke-width="0.25" stroke-miterlimit="10"/>
<path d="M77.1469 64.8898L78.5377 63.909L78.2295 63.482L77.1469 64.8898Z" fill="#F7C7D9"/>
<path d="M57.938 72.0855L58.1289 72.0522C58.7845 71.9269 59.4503 72.0611 59.9688 72.4291L60.5205 72.808L61.7486 72.5827L61.2857 71.2233C61.1351 70.7869 61.1007 70.3013 61.1906 69.8304L61.3369 69.0521L60.9791 68.5564L58.66 70.1956L56.5671 71.1497L56.6988 72.3305L57.9269 72.1052L57.938 72.0855Z" fill="#F7C7D9"/>
<path d="M78.3074 74.2585L78.333 74.9245C78.3484 75.2961 78.2559 75.676 78.0724 76.0173L77.1883 77.595L78.5515 77.5042C78.9607 77.4756 79.3647 77.3347 79.7056 77.0887L80.2376 76.7047C80.4454 76.5547 80.6201 76.3589 80.7259 76.1201L81.0128 75.4491C81.2329 74.9307 81.2789 74.3639 81.1451 73.8457L81.0058 73.3199L80.8516 73.1064L80.0398 73.6808C79.6658 73.9508 79.234 74.1233 78.7832 74.1819L78.3241 74.2465L78.3074 74.2585Z" fill="#F7C7D9" stroke="#F7C7D9" stroke-width="0.5" stroke-miterlimit="10"/>
<mask id="mask13_548_49" style="mask-type:luminance" maskUnits="userSpaceOnUse" x="38" y="28" width="15" height="9">
<path d="M39.4592 30.0033C39.1094 30.4645 38.9169 31.0211 38.9152 31.5791L38.915 32.5072C38.9158 33.1214 39.1434 33.6995 39.5733 34.1199L40.2705 34.823C40.5874 35.1394 40.9876 35.3609 41.4434 35.4494L46.4603 36.5141C46.6509 36.5505 46.8443 36.5733 47.0434 36.5688L49.9573 36.5068C50.6402 36.4895 51.3128 36.2127 51.823 35.7284L52.0781 35.4863C52.7103 34.8908 53.0225 34.0622 52.9201 33.2546L52.8256 32.5457C52.7204 31.7169 52.189 31.0333 51.3966 30.7237L49.8395 30.073C49.6435 29.9941 47.3524 29.7804 47.1369 29.7621L41.995 28.892C41.0416 28.7798 40.0616 29.2088 39.4592 30.0033Z" fill="white"/>
</mask>
<g mask="url(#mask13_548_49)">
<path d="M45.9294 30.4714L45.4328 31.0271C45.2302 31.2545 45.0774 31.5156 44.9825 31.8045L44.6922 32.6636C44.6392 32.8179 44.6027 32.995 44.5911 33.1541L44.5451 33.7209C44.5104 34.1984 44.5614 34.6719 44.7149 35.0947L45.1862 36.4132L46.4411 37.3284L52.4698 37.5003L53.9496 30.2845L47.3135 29.8667C46.8105 29.8354 46.29 30.0603 45.9294 30.4714Z" fill="#F7C7D9" stroke="#F7C7D9" stroke-miterlimit="10"/>
</g>
<path d="M39.4592 30.0033C39.1094 30.4645 38.9169 31.0211 38.9152 31.5791L38.915 32.5072C38.9158 33.1214 39.1434 33.6995 39.5733 34.1199L40.2705 34.823C40.5874 35.1394 40.9876 35.3609 41.4434 35.4494L46.4603 36.5141C46.6509 36.5505 46.8443 36.5733 47.0434 36.5688L49.9573 36.5068C50.6402 36.4895 51.3128 36.2127 51.823 35.7284L52.0781 35.4863C52.7103 34.8908 53.0225 34.0622 52.9201 33.2546L52.8256 32.5457C52.7204 31.7169 52.189 31.0333 51.3966 30.7237L49.8395 30.073C49.6435 29.9941 47.3524 29.7804 47.1369 29.7621L41.995 28.892C41.0416 28.7798 40.0616 29.2088 39.4592 30.0033Z" stroke="#F7C7D9" stroke-miterlimit="10"/>
<mask id="mask14_548_49" style="mask-type:luminance" maskUnits="userSpaceOnUse" x="36" y="41" width="8" height="15">
<path d="M41.726 41.9726C41.2152 41.773 40.632 41.7532 40.0675 41.9171L39.135 42.1842C38.518 42.3628 37.9694 42.7589 37.6055 43.2883L36.9946 44.1585C36.7224 44.5521 36.5524 44.9996 36.5205 45.4634L36.12 50.5662C36.1084 50.7603 36.1105 50.9559 36.1431 51.1412L36.5932 53.9017C36.6935 54.5485 37.0732 55.1095 37.625 55.4536L37.9009 55.6256C38.5851 56.048 39.464 56.1095 40.2557 55.77L40.9616 55.4693C41.7838 55.1194 42.397 54.41 42.6042 53.576L43.049 51.8978C43.0995 51.6874 43.0043 49.4362 43.005 49.2269L43.1845 44.0632C43.1654 43.1259 42.604 42.3132 41.726 41.9726Z" fill="white"/>
</mask>
<g mask="url(#mask14_548_49)">
<path d="M42.1322 48.2802L41.5029 47.9689C41.2462 47.841 40.9616 47.7797 40.6659 47.7728L39.7647 47.7505C39.5961 47.7446 39.4219 47.766 39.2532 47.795L38.6833 47.9164C38.202 48.0202 37.7314 48.2091 37.3214 48.4819L36.0664 49.3182L35.3126 50.7787L35.9494 56.5827L43.4074 55.862L42.9247 49.4132C42.8848 48.9201 42.5904 48.4946 42.135 48.2666L42.1322 48.2802Z" fill="#F7C7D9" stroke="#F7C7D9" stroke-miterlimit="10"/>
</g>
<path d="M41.726 41.9726C41.2152 41.773 40.632 41.7532 40.0675 41.9171L39.135 42.1842C38.518 42.3628 37.9694 42.7589 37.6055 43.2883L36.9946 44.1585C36.7224 44.5521 36.5524 44.9996 36.5205 45.4634L36.12 50.5662C36.1084 50.7603 36.1105 50.9559 36.1431 51.1412L36.5932 53.9017C36.6935 54.5485 37.0732 55.1095 37.625 55.4536L37.9009 55.6256C38.5851 56.048 39.464 56.1095 40.2557 55.77L40.9616 55.4693C41.7838 55.1194 42.397 54.41 42.6042 53.576L43.049 51.8978C43.0995 51.6874 43.0043 49.4362 43.005 49.2269L43.1845 44.0632C43.1654 43.1259 42.604 42.3132 41.726 41.9726Z" stroke="#F7C7D9" stroke-miterlimit="10"/>
</svg>
