<svg width="57" height="94" viewBox="0 0 57 94" fill="none" xmlns="http://www.w3.org/2000/svg">
<g clip-path="url(#clip0_159_201)">
<mask id="mask0_159_201" style="mask-type:luminance" maskUnits="userSpaceOnUse" x="0" y="17" width="56" height="77">
<path d="M1.97995 86.62C3.43995 88.53 5.53995 89.85 7.89995 90.33L19.94 92.75C21.24 93.01 22.57 93.12 23.9 93.07L41.25 92.45C44.52 92.33 47.71 91.35 50.48 89.61C52.77 88.17 54.42 85.92 55.11 83.3C55.55 81.61 55.75 79.87 55.71 78.12L54.75 41.08C54.66 37.7 53.76 34.39 52.11 31.44C50.9 29.27 49.24 27.38 47.25 25.89C45.34 24.47 44.13 22.29 43.94 19.91L43.75 17.56L27.41 19.32L18.03 18.39L13.04 18.06L12.93 18.63C12.43 21.3 11.04 23.72 8.98995 25.51L8.16995 26.22C7.47995 26.82 6.85995 27.51 6.32995 28.26C3.54995 32.18 1.98995 36.83 1.82995 41.62L0.499953 82C0.439953 83.66 0.969954 85.3 1.96995 86.62H1.97995Z" fill="white"/>
</mask>
<g mask="url(#mask0_159_201)">
<mask id="mask1_159_201" style="mask-type:luminance" maskUnits="userSpaceOnUse" x="-4" y="41" width="63" height="28">
<path d="M-1.09 46.11L-0.73 63.81L8.44 65.7L20.79 67.68L22.1 67.92C26.6 68.74 31.22 68.71 35.72 67.84L41.21 66.77L57.36 63.34L58.15 42.33L40.37 44.84L28.96 45.07C28.49 45.07 28.02 45.07 27.54 45.03L13.32 44.04L-3.25 41.64L-1.09 46.09V46.11Z" fill="white"/>
</mask>
<g mask="url(#mask1_159_201)">
<path d="M-0.730039 63.81L1.48996 62.73C1.68996 62.38 1.65996 59.9 1.95996 59.64C3.11996 58.65 2.82996 57.62 3.04996 56.43L3.67996 53.01C3.76996 52.51 3.81996 51.99 3.82996 51.48L3.84996 49.49C3.85996 48.42 4.29996 47.41 5.05996 46.66C5.71996 46.02 6.63996 45.73 7.54996 45.88L12.81 46.75C13.13 46.8 13.45 46.84 13.77 46.86L24.14 47.47C24.64 47.5 25.14 47.49 25.64 47.44L34.45 46.56C34.72 46.53 34.99 46.52 35.26 46.51L39.17 46.42C40.66 46.39 42.14 46.14 43.57 45.69L50.86 43.38L53.17 41.19L0.0799609 40.59L-0.790039 60.8" fill="#273AAA"/>
<path d="M-0.730039 63.81L1.48996 62.73C1.68996 62.38 1.65996 59.9 1.95996 59.64C3.11996 58.65 2.82996 57.62 3.04996 56.43L3.67996 53.01C3.76996 52.51 3.81996 51.99 3.82996 51.48L3.84996 49.49C3.85996 48.42 4.29996 47.41 5.05996 46.66C5.71996 46.02 6.63996 45.73 7.54996 45.88L12.81 46.75C13.13 46.8 13.45 46.84 13.77 46.86L24.14 47.47C24.64 47.5 25.14 47.49 25.64 47.44L34.45 46.56C34.72 46.53 34.99 46.52 35.26 46.51L39.17 46.42C40.66 46.39 42.14 46.14 43.57 45.69L50.86 43.38L53.17 41.19L0.0799609 40.59L-0.790039 60.8" stroke="#273AAA" stroke-miterlimit="10"/>
<path d="M15.25 68.97L27.15 67.58L36.89 66.29C38.7 66.05 40.47 65.57 42.15 64.85L47.29 62.67C48.1 62.33 48.87 61.9 49.59 61.4L50.53 60.74C51.73 59.9 52.56 58.63 52.85 57.19L52.89 57.01C53.07 56.08 53.44 55.19 53.97 54.4L57.7 48.79L58.3 67.38L31.72 71.92L15.25 68.98V68.97Z" fill="#273AAA" stroke="#273AAA" stroke-miterlimit="10"/>
</g>
<path d="M-1.09 46.11L-0.73 63.81L8.44 65.7L20.79 67.68L22.1 67.92C26.6 68.74 31.22 68.71 35.72 67.84L41.21 66.77L57.36 63.34L58.15 42.33L40.37 44.84L28.96 45.07C28.49 45.07 28.02 45.07 27.54 45.03L13.32 44.04L-3.25 41.64L-1.09 46.09V46.11Z" stroke="#273AAA" stroke-miterlimit="10"/>
</g>
<path d="M1.97995 86.62C3.43995 88.53 5.53995 89.85 7.89995 90.33L19.94 92.75C21.24 93.01 22.57 93.12 23.9 93.07L41.25 92.45C44.52 92.33 47.71 91.35 50.48 89.61C52.77 88.17 54.42 85.92 55.11 83.3C55.55 81.61 55.75 79.87 55.71 78.12L54.75 41.08C54.66 37.7 53.76 34.39 52.11 31.44C50.9 29.27 49.24 27.38 47.25 25.89C45.34 24.47 44.13 22.29 43.94 19.91L43.75 17.56L27.41 19.32L18.03 18.39L13.04 18.06L12.93 18.63C12.43 21.3 11.04 23.72 8.98995 25.51L8.16995 26.22C7.47995 26.82 6.85995 27.51 6.32995 28.26C3.54995 32.18 1.98995 36.83 1.82995 41.62L0.499953 82C0.439953 83.66 0.969954 85.3 1.96995 86.62H1.97995Z" stroke="#273AAA" stroke-miterlimit="10"/>
<path d="M11.6899 15.55L11.6799 16.51L12.7699 17.78L18.0399 18.39L27.6899 19.05L37.6599 18.6L43.7499 17.56L44.8599 17.02L44.8799 15.56L43.0699 15.54L38.7899 15.85L27.7199 16.28L17.7799 15.62L11.6899 15.55Z" stroke="#273AAA" stroke-miterlimit="10"/>
<mask id="mask2_159_201" style="mask-type:luminance" maskUnits="userSpaceOnUse" x="9" y="1" width="39" height="16">
<path d="M9.10993 4.65998L9.38993 11.95C9.44993 13.48 10.3299 14.85 11.6899 15.55L27.7199 16.28L44.8699 15.56L45.8499 15.24C46.6299 14.99 47.2499 14.38 47.5199 13.6L47.6599 13.18L47.7499 4.90998C47.7499 4.17998 47.4799 3.47998 46.9699 2.95998C46.4299 2.40998 45.6899 2.08998 44.9099 2.07998L37.2099 1.98998C36.6599 1.98998 36.1099 1.95998 35.5699 1.91998L26.1199 1.16998C24.8999 1.06998 23.6699 1.05998 22.4499 1.11998L12.3399 1.63998C11.5099 1.67998 10.7099 1.98998 10.0599 2.51998C9.41993 3.03998 9.06993 3.82998 9.09993 4.64998L9.10993 4.65998Z" fill="white"/>
</mask>
<g mask="url(#mask2_159_201)">
<path d="M9.86987 5.29998L10.0999 4.62998C10.3699 3.85998 10.8699 3.17998 11.5599 2.74998C11.7699 2.61998 11.9699 2.53998 12.1099 2.55998H12.6599C13.1099 2.63998 13.1199 2.94998 13.2099 3.11998V3.66998C13.2599 3.76998 13.2099 3.72998 13.2099 3.83998L13.1799 6.97998L13.6799 11.41L14.2099 13.08V11.97C14.2699 11.87 13.7099 8.74998 13.7099 8.64998V8.09998L13.1899 5.32998L13.9499 3.18998V2.15998C13.9599 1.92998 14.0799 1.70998 14.2599 1.57998L14.5399 1.37998C14.8499 1.15998 14.9299 0.729976 14.7299 0.409976C14.5199 0.0799761 14.0899 -0.0300239 13.7499 0.169976L10.6399 1.97998" fill="#273AAA"/>
<path d="M9.86987 5.29998L10.0999 4.62998C10.3699 3.85998 10.8699 3.17998 11.5599 2.74998C11.7699 2.61998 11.9699 2.53998 12.1099 2.55998H12.6599C13.1099 2.63998 13.1199 2.94998 13.2099 3.11998V3.66998C13.2599 3.76998 13.2099 3.72998 13.2099 3.83998L13.1799 6.97998L13.6799 11.41L14.2099 13.08V11.97C14.2699 11.87 13.7099 8.74998 13.7099 8.64998V8.09998L13.1899 5.32998L13.9499 3.18998V2.15998C13.9599 1.92998 14.0799 1.70998 14.2599 1.57998L14.5399 1.37998C14.8499 1.15998 14.9299 0.729976 14.7299 0.409976C14.5199 0.0799761 14.0899 -0.0300239 13.7499 0.169976L10.6399 1.97998" stroke="#273AAA" stroke-width="0.75" stroke-miterlimit="10"/>
<path d="M14.8899 1.47997L14.3299 2.02997C14.8799 2.02997 15.8599 2.35997 15.9799 2.59997L17.1699 4.17997C17.2199 4.27997 17.2499 4.39997 17.2499 4.50997L17.2199 7.64997L17.1699 12.07L18.0799 13.68L17.9599 12.45C17.9999 12.35 18.0199 12.25 18.0199 12.14L17.9499 8.64997L17.9699 6.41997L17.9999 3.84997V2.81997C18.0099 2.58997 18.1299 2.36997 18.3099 2.23997L18.5899 2.03997C18.8999 1.81997 21.1899 1.31997 20.9899 0.98997L18.7899 1.05997C18.5799 0.72997 18.1499 0.61997 17.8099 0.81997L12.6899 1.44997" fill="#273AAA"/>
<path d="M14.8899 1.47997L14.3299 2.02997C14.8799 2.02997 15.8599 2.35997 15.9799 2.59997L17.1699 4.17997C17.2199 4.27997 17.2499 4.39997 17.2499 4.50997L17.2199 7.64997L17.1699 12.07L18.0799 13.68L17.9599 12.45C17.9999 12.35 18.0199 12.25 18.0199 12.14L17.9499 8.64997L17.9699 6.41997L17.9999 3.84997V2.81997C18.0099 2.58997 18.1299 2.36997 18.3099 2.23997L18.5899 2.03997C18.8999 1.81997 21.1899 1.31997 20.9899 0.98997L18.7899 1.05997C18.5799 0.72997 18.1499 0.61997 17.8099 0.81997L12.6899 1.44997" stroke="#273AAA" stroke-width="0.75" stroke-miterlimit="10"/>
<path d="M16.54 2.04997L18.1 2.40997C18.65 2.40997 19.63 2.73997 19.75 2.97997L20.94 4.55997C20.99 4.65997 21.02 4.77998 21.02 4.88998L20.99 8.02997L20.94 12.45L20.83 14.26L21.7199 12.83C21.7599 12.73 21.78 12.63 21.78 12.52L21.7099 9.02997L21.7299 6.79997L21.76 4.22997V3.19997C21.77 2.96997 21.89 2.74997 22.07 2.61997L22.35 2.41997C22.66 2.19997 24.95 1.69997 24.75 1.36997L22.5499 1.43997C22.3399 1.10997 21.91 0.999975 21.57 1.19997L16.45 1.82997" fill="#273AAA"/>
<path d="M16.54 2.04997L18.1 2.40997C18.65 2.40997 19.63 2.73997 19.75 2.97997L20.94 4.55997C20.99 4.65997 21.02 4.77998 21.02 4.88998L20.99 8.02997L20.94 12.45L20.83 14.26L21.7199 12.83C21.7599 12.73 21.78 12.63 21.78 12.52L21.7099 9.02997L21.7299 6.79997L21.76 4.22997V3.19997C21.77 2.96997 21.89 2.74997 22.07 2.61997L22.35 2.41997C22.66 2.19997 24.95 1.69997 24.75 1.36997L22.5499 1.43997C22.3399 1.10997 21.91 0.999975 21.57 1.19997L16.45 1.82997" stroke="#273AAA" stroke-width="0.75" stroke-miterlimit="10"/>
<path d="M21.5499 2.19997L23.11 2.55997C23.66 2.55997 24.64 2.88997 24.76 3.12997L25.95 4.70997C26 4.80997 26.03 4.92997 26.03 5.03997L26 8.17997L25.95 12.6L26.91 14.88L26.7299 12.98C26.7699 12.88 26.79 12.78 26.79 12.67L26.7199 9.17997L26.74 6.94997L26.77 4.37997C26.57 3.60997 27.0999 2.82997 27.9 2.73997C27.99 2.73997 28.0799 2.72997 28.15 2.72997H28.7C29.01 2.50997 29.96 1.84997 29.75 1.51997L27.5499 1.58997C27.3399 1.25997 26.91 1.14997 26.57 1.34997L21.45 1.97997" fill="#273AAA"/>
<path d="M21.5499 2.19997L23.11 2.55997C23.66 2.55997 24.64 2.88997 24.76 3.12997L25.95 4.70997C26 4.80997 26.03 4.92997 26.03 5.03997L26 8.17997L25.95 12.6L26.91 14.88L26.7299 12.98C26.7699 12.88 26.79 12.78 26.79 12.67L26.7199 9.17997L26.74 6.94997L26.77 4.37997C26.57 3.60997 27.1 2.82997 27.9 2.73997C27.99 2.73997 28.08 2.72997 28.15 2.72997H28.7C29.01 2.50997 29.96 1.84997 29.75 1.51997L27.5499 1.58997C27.3399 1.25997 26.91 1.14997 26.57 1.34997L21.45 1.97997" stroke="#273AAA" stroke-width="0.75" stroke-miterlimit="10"/>
<path d="M38.5299 2.45997L40.3099 3.97997C40.9899 3.97997 40.8799 2.87997 41.9799 3.44997L42.5099 3.90997C43.0099 4.34997 43.2899 4.96997 43.2799 5.63997C43.2799 5.86997 43.2799 6.10997 43.2699 6.34997C43.2499 7.33997 43.7199 8.29997 44.5799 9.00997H44.5999C45.0199 9.38997 45.1399 9.98997 44.8999 10.49C44.7799 10.74 44.6699 11 44.6699 11.22C44.6699 11.63 43.9499 12.13 43.3999 12.53C43.1499 12.71 43.0599 13.03 43.1799 13.32L43.0699 14C42.9999 14.44 42.7199 14.82 42.3199 15.01C41.9499 15.18 41.5499 15.21 40.9099 15.3L35.6299 16.09L46.5799 15.66C46.6299 15.56 46.5999 14.66 46.5899 14.55L47.9799 12.91L48.0199 9.58997L48.7299 6.82997L49.1799 4.06997C49.1799 3.83997 47.8599 3.08997 48.0899 2.94997L45.7499 2.83997C46.1299 2.61997 48.9599 2.11997 48.7099 1.79997L45.9799 1.86997C45.7199 1.53997 45.1799 1.42997 44.7699 1.61997L38.4399 2.23997" fill="#273AAA"/>
<path d="M38.5299 2.45997L40.3099 3.97997C40.9899 3.97997 40.8799 2.87997 41.9799 3.44997L42.5099 3.90997C43.0099 4.34997 43.2899 4.96997 43.2799 5.63997C43.2799 5.86997 43.2799 6.10997 43.2699 6.34997C43.2499 7.33997 43.7199 8.29997 44.5799 9.00997H44.5999C45.0199 9.38997 45.1399 9.98997 44.8999 10.49C44.7799 10.74 44.6699 11 44.6699 11.22C44.6699 11.63 43.9499 12.13 43.3999 12.53C43.1499 12.71 43.0599 13.03 43.1799 13.32L43.0699 14C42.9999 14.44 42.7199 14.82 42.3199 15.01C41.9499 15.18 41.5499 15.21 40.9099 15.3L35.6299 16.09L46.5799 15.66C46.6299 15.56 46.5999 14.66 46.5899 14.55L47.9799 12.91L48.0199 9.58997L48.7299 6.82997L49.1799 4.06997C49.1799 3.83997 47.8599 3.08997 48.0899 2.94997L45.7499 2.83997C46.1299 2.61997 48.9599 2.11997 48.7099 1.79997L45.9799 1.86997C45.7199 1.53997 45.1799 1.42997 44.7699 1.61997L38.4399 2.23997" stroke="#273AAA" stroke-width="0.75" stroke-miterlimit="10"/>
<path d="M26.8699 2.34997L28.1999 2.39997C28.4699 2.39997 28.7099 2.55997 28.8299 2.79997L29.3699 3.88997C29.4199 3.98997 29.4499 4.10997 29.4499 4.21997L29.4199 7.35997L29.3699 11.78L29.3499 13.99L30.1599 12.16C30.1999 12.06 30.2199 11.96 30.2199 11.85L30.1499 8.35997L30.1699 6.12997V5.19997C30.1899 4.19997 30.5599 3.70997 31.4799 3.30997L32.5899 2.76997C32.5899 2.53997 32.4099 2.34997 32.5899 2.21997L30.7799 1.74997C31.0899 1.52997 31.1699 1.09997 30.9699 0.779971C30.7599 0.449971 30.3299 0.339971 29.9899 0.539971L26.8799 2.34997" fill="#273AAA"/>
<path d="M26.8699 2.34997L28.1999 2.39997C28.4699 2.39997 28.7099 2.55997 28.8299 2.79997L29.3699 3.88997C29.4199 3.98997 29.4499 4.10997 29.4499 4.21997L29.4199 7.35997L29.3699 11.78L29.3499 13.99L30.1599 12.16C30.1999 12.06 30.2199 11.96 30.2199 11.85L30.1499 8.35997L30.1699 6.12997V5.19997C30.1899 4.19997 30.5599 3.70997 31.4799 3.30997L32.5899 2.76997C32.5899 2.53997 32.4099 2.34997 32.5899 2.21997L30.7799 1.74997C31.0899 1.52997 31.1699 1.09997 30.9699 0.779971C30.7599 0.449971 30.3299 0.339971 29.9899 0.539971L26.8799 2.34997" stroke="#273AAA" stroke-width="0.75" stroke-miterlimit="10"/>
<path d="M30.3899 3.43997L31.9499 3.77997C32.4999 3.77997 33.4799 4.09997 33.5999 4.31997L34.7899 5.81997C34.8399 5.91997 34.8699 6.02997 34.8699 6.13997L34.8399 9.12997L34.7899 13.34L34.6799 15.07L35.5699 13.71C35.6099 13.62 35.6299 13.52 35.6299 13.42L35.2299 11.83L35.2699 8.13997L35.5999 5.51997V4.53997C35.6099 4.31997 35.7299 4.10997 35.9099 3.98997L36.1899 3.79997C36.4999 3.58997 40.5199 2.62997 40.3099 2.31997L37.5599 1.17997C37.3499 0.859975 35.6899 0.969975 35.3499 1.15997L29.8099 1.64997" fill="#273AAA"/>
<path d="M30.3899 3.43997L31.9499 3.77997C32.4999 3.77997 33.4799 4.09997 33.5999 4.31997L34.7899 5.81997C34.8399 5.91997 34.8699 6.02997 34.8699 6.13997L34.8399 9.12997L34.7899 13.34L34.6799 15.07L35.5699 13.71C35.6099 13.62 35.6299 13.52 35.6299 13.42L35.2299 11.83L35.2699 8.13997L35.5999 5.51997V4.53997C35.6099 4.31997 35.7299 4.10997 35.9099 3.98997L36.1899 3.79997C36.4999 3.58997 40.5199 2.62997 40.3099 2.31997L37.5599 1.17997C37.3499 0.859975 35.6899 0.969975 35.3499 1.15997L29.8099 1.64997" stroke="#273AAA" stroke-width="0.75" stroke-miterlimit="10"/>
<path d="M37.5 1.63997L35.89 3.36997C36.44 3.36997 38.66 2.84997 39.21 3.40997L39.79 4.33997C39.84 4.43997 39.87 4.55997 39.87 4.66997L39.84 7.80997L39.79 12.23L40.7 13.84L40.58 12.61C40.62 12.51 40.24 11.81 40.24 11.71V10.6L40.3 6.72997L40.62 4.97997C40.62 4.34997 40.83 3.72997 41.2 3.21997L41.45 2.86997C41.45 2.63997 42.93 2.46997 43.12 2.33997L41.23 2.19997C41.54 1.97997 43.83 1.47997 43.63 1.14997L41.43 1.21997C41.22 0.889974 40.79 0.779974 40.45 0.979974L35.33 1.60997" fill="#273AAA"/>
<path d="M37.5 1.63997L35.89 3.36997C36.44 3.36997 38.66 2.84997 39.21 3.40997L39.79 4.33997C39.84 4.43997 39.87 4.55997 39.87 4.66997L39.84 7.80997L39.79 12.23L40.7 13.84L40.58 12.61C40.62 12.51 40.24 11.81 40.24 11.71V10.6L40.3 6.72997L40.62 4.97997C40.62 4.34997 40.83 3.72997 41.2 3.21997L41.45 2.86997C41.45 2.63997 42.93 2.46997 43.12 2.33997L41.23 2.19997C41.54 1.97997 43.83 1.47997 43.63 1.14997L41.43 1.21997C41.22 0.889974 40.79 0.779974 40.45 0.979974L35.33 1.60997" stroke="#273AAA" stroke-width="0.75" stroke-miterlimit="10"/>
<path d="M11.0099 2.53996H10.4599C10.1899 3.18996 10.2899 5.70996 10.4199 6.40996L11.2099 9.58996C11.3899 10.05 11.4799 10.55 11.4699 11.05L11.6599 12.2C11.8599 13.42 12.7099 14.43 13.8799 14.83L16.0899 15.6L8.98993 15.77L8.79993 1.95996" fill="#273AAA"/>
<path d="M11.0099 2.53996H10.4599C10.1899 3.18996 10.2899 5.70996 10.4199 6.40996L11.2099 9.58996C11.3899 10.05 11.4799 10.55 11.4699 11.05L11.6599 12.2C11.8599 13.42 12.7099 14.43 13.8799 14.83L16.0899 15.6L8.98993 15.77L8.79993 1.95996" stroke="#273AAA" stroke-miterlimit="10"/>
</g>
<path d="M9.10993 4.65998L9.38993 11.95C9.44993 13.48 10.3299 14.85 11.6899 15.55L27.7199 16.28L44.8699 15.56L45.8499 15.24C46.6299 14.99 47.2499 14.38 47.5199 13.6L47.6599 13.18L47.7499 4.90998C47.7499 4.17998 47.4799 3.47998 46.9699 2.95998C46.4299 2.40998 45.6899 2.08998 44.9099 2.07998L37.2099 1.98998C36.6599 1.98998 36.1099 1.95998 35.5699 1.91998L26.1199 1.16998C24.8999 1.06998 23.6699 1.05998 22.4499 1.11998L12.3399 1.63998C11.5099 1.67998 10.7099 1.98998 10.0599 2.51998C9.41993 3.03998 9.06993 3.82998 9.09993 4.64998L9.10993 4.65998Z" stroke="#273AAA" stroke-miterlimit="10"/>
<mask id="mask3_159_201" style="mask-type:luminance" maskUnits="userSpaceOnUse" x="3" y="78" width="15" height="8">
<path d="M3.34998 79.94C3.08998 80.45 2.99998 81.03 3.10998 81.59L3.28998 82.53C3.40998 83.15 3.74998 83.71 4.25998 84.1L5.09998 84.74C5.47998 85.03 5.91998 85.21 6.38998 85.25L11.62 85.8C11.82 85.82 12.02 85.82 12.21 85.8L15.11 85.43C15.79 85.34 16.41 84.99 16.83 84.44L17.04 84.17C17.55 83.5 17.71 82.62 17.45 81.82L17.22 81.1C16.95 80.27 16.28 79.63 15.44 79.4L13.76 78.9C13.55 78.84 11.21 78.87 10.99 78.87L5.66998 78.53C4.69998 78.52 3.79998 79.06 3.34998 79.93V79.94Z" fill="white"/>
</mask>
<g mask="url(#mask3_159_201)">
<path d="M9.92 79.72L9.53 80.34C9.37 80.59 9.27 80.87 9.23 81.17L9.11 82.08C9.09 82.25 9.08 82.42 9.11 82.59L9.17 83.17C9.22 83.66 9.37 84.13 9.61 84.55L10.33 85.84L11.76 86.64L17.83 86.17L17.91 78.69L11.19 78.98C10.68 79 10.21 79.28 9.92 79.74V79.72Z" fill="#273AAA" stroke="#273AAA" stroke-miterlimit="10"/>
</g>
<path d="M3.34998 79.94C3.08998 80.45 2.99998 81.03 3.10998 81.59L3.28998 82.53C3.40998 83.15 3.74998 83.71 4.25998 84.1L5.09998 84.74C5.47998 85.03 5.91998 85.21 6.38998 85.25L11.62 85.8C11.82 85.82 12.02 85.82 12.21 85.8L15.11 85.43C15.79 85.34 16.41 84.99 16.83 84.44L17.04 84.17C17.55 83.5 17.71 82.62 17.45 81.82L17.22 81.1C16.95 80.27 16.28 79.63 15.44 79.4L13.76 78.9C13.55 78.84 11.21 78.87 10.99 78.87L5.66998 78.53C4.69998 78.52 3.79998 79.06 3.34998 79.93V79.94Z" stroke="#273AAA" stroke-miterlimit="10"/>
<mask id="mask4_159_201" style="mask-type:luminance" maskUnits="userSpaceOnUse" x="13" y="74" width="15" height="11">
<path d="M22.3 81.77C21.75 81.77 23.4 82.34 24.57 81.49L26.62 79.4C27.1 78.91 27.37 78.25 27.36 77.56V77.22C27.34 76.38 26.92 75.59 26.22 75.12L25.6 74.7C24.88 74.21 23.96 74.13 23.15 74.47L21.52 75.12C21.32 75.21 19.5 76.68 19.33 76.81L14.95 79.84C14.18 80.44 13.81 81.42 14 82.37C14.11 82.93 14.4 83.44 14.84 83.82L15.56 84.45" fill="white"/>
</mask>
<g mask="url(#mask4_159_201)">
<path d="M19.0099 77.58L19.0899 78.31C19.1199 78.6 19.2199 78.89 19.3699 79.15L19.8299 79.94C19.9199 80.09 20.0199 80.22 20.1399 80.35L20.5499 80.77C20.8899 81.12 21.2999 81.4 21.7499 81.58L23.1199 82.14L24.7399 81.88L29.2099 77.75L24.6399 71.82L19.5399 76.21C19.1499 76.54 18.9599 77.06 19.0099 77.59V77.58Z" fill="#273AAA" stroke="#273AAA" stroke-width="0.5" stroke-miterlimit="10"/>
</g>
<path d="M22.3 81.77C21.75 81.77 23.4 82.34 24.57 81.49L26.62 79.4C27.1 78.91 27.37 78.25 27.36 77.56V77.22C27.34 76.38 26.92 75.59 26.22 75.12L25.6 74.7C24.88 74.21 23.96 74.13 23.15 74.47L21.52 75.12C21.32 75.21 19.5 76.68 19.33 76.81L14.95 79.84C14.18 80.44 13.81 81.42 14 82.37C14.11 82.93 14.4 83.44 14.84 83.82L15.56 84.45" stroke="#273AAA" stroke-width="0.5" stroke-miterlimit="10"/>
<mask id="mask5_159_201" style="mask-type:luminance" maskUnits="userSpaceOnUse" x="27" y="71" width="13" height="13">
<path d="M29.99 71.41C29.46 71.63 29.02 72.01 28.73 72.51L28.25 73.34C27.93 73.89 27.83 74.54 27.96 75.16L28.18 76.19C28.28 76.65 28.5 77.08 28.83 77.42L32.44 81.24C32.58 81.38 32.73 81.51 32.9 81.62L35.35 83.23C35.92 83.61 36.62 83.74 37.3 83.6L37.64 83.53C38.47 83.36 39.15 82.79 39.48 82.01L39.77 81.32C40.11 80.52 40.01 79.6 39.52 78.87L38.56 77.4C38.44 77.22 36.64 75.72 36.48 75.58L32.66 71.87C31.93 71.23 30.89 71.06 29.99 71.43V71.41Z" fill="white"/>
</mask>
<g mask="url(#mask5_159_201)">
<path d="M35.1199 75.51L34.4199 75.73C34.1399 75.82 33.88 75.97 33.65 76.17L32.97 76.78C32.84 76.89 32.73 77.02 32.63 77.16L32.2999 77.64C32.0199 78.04 31.83 78.5 31.74 78.97L31.45 80.42L32.02 81.96L36.9399 85.55L41.8699 79.92L36.58 75.77C36.18 75.45 35.63 75.36 35.13 75.52L35.1199 75.51Z" fill="#273AAA" stroke="#273AAA" stroke-width="0.5" stroke-miterlimit="10"/>
</g>
<path d="M29.99 71.41C29.46 71.63 29.02 72.01 28.73 72.51L28.25 73.34C27.93 73.89 27.83 74.54 27.96 75.16L28.18 76.19C28.28 76.65 28.5 77.08 28.83 77.42L32.44 81.24C32.58 81.38 32.73 81.51 32.9 81.62L35.35 83.23C35.92 83.61 36.62 83.74 37.3 83.6L37.64 83.53C38.47 83.36 39.15 82.79 39.48 82.01L39.77 81.32C40.11 80.52 40.01 79.6 39.52 78.87L38.56 77.4C38.44 77.22 36.64 75.72 36.48 75.58L32.66 71.87C31.93 71.23 30.89 71.06 29.99 71.43V71.41Z" stroke="#273AAA" stroke-width="0.5" stroke-miterlimit="10"/>
<mask id="mask6_159_201" style="mask-type:luminance" maskUnits="userSpaceOnUse" x="45" y="68" width="9" height="13">
<path d="M46.6 80.08C47 80.39 47.5 80.55 48 80.55H48.85C49.41 80.54 49.95 80.32 50.37 79.94L51.06 79.31C51.37 79.03 51.59 78.67 51.71 78.26L53 73.79C53.05 73.62 53.08 73.45 53.09 73.27L53.22 70.68C53.25 70.07 53.04 69.48 52.63 69.03L52.42 68.81C51.92 68.26 51.17 67.99 50.43 68.09L49.77 68.18C49.01 68.28 48.35 68.77 48.02 69.46L47.33 70.85C47.25 71.02 46.91 73.06 46.87 73.25L45.75 77.83C45.59 78.68 45.92 79.54 46.61 80.07L46.6 80.08Z" fill="white"/>
</mask>
<g mask="url(#mask6_159_201)">
<path d="M47.43 74.33L47.91 74.76C48.1 74.94 48.33 75.07 48.59 75.15L49.36 75.4C49.5 75.45 49.65 75.48 49.8 75.49L50.31 75.53C50.74 75.56 51.18 75.5 51.58 75.36L52.81 74.93L53.73 73.81L54.27 68.45L47.77 67.22L46.98 73.12C46.92 73.57 47.09 74.02 47.44 74.34L47.43 74.33Z" fill="#273AAA" stroke="#273AAA" stroke-width="0.5" stroke-miterlimit="10"/>
</g>
<path d="M46.6 80.08C47 80.39 47.5 80.55 48 80.55H48.85C49.41 80.54 49.95 80.32 50.37 79.94L51.06 79.31C51.37 79.03 51.59 78.67 51.71 78.26L53 73.79C53.05 73.62 53.08 73.45 53.09 73.27L53.22 70.68C53.25 70.07 53.04 69.48 52.63 69.03L52.42 68.81C51.92 68.26 51.17 67.99 50.43 68.09L49.77 68.18C49.01 68.28 48.35 68.77 48.02 69.46L47.33 70.85C47.25 71.02 46.91 73.06 46.87 73.25L45.75 77.83C45.59 78.68 45.92 79.54 46.61 80.07L46.6 80.08Z" stroke="#273AAA" stroke-width="0.5" stroke-miterlimit="10"/>
<mask id="mask7_159_201" style="mask-type:luminance" maskUnits="userSpaceOnUse" x="11" y="67" width="14" height="12">
<path d="M23.29 77.93C23.76 77.61 24.11 77.14 24.29 76.59L24.58 75.68C24.77 75.07 24.74 74.42 24.48 73.84L24.05 72.88C23.86 72.45 23.55 72.08 23.16 71.81L18.82 68.84C18.66 68.73 18.48 68.63 18.29 68.56L15.56 67.51C14.92 67.26 14.21 67.28 13.58 67.56L13.27 67.7C12.5 68.05 11.95 68.75 11.79 69.58L11.65 70.32C11.49 71.18 11.78 72.06 12.41 72.66L13.65 73.9C13.81 74.05 15.88 75.14 16.07 75.24L20.59 78.06C21.44 78.53 22.49 78.48 23.29 77.93Z" fill="white"/>
</mask>
<g mask="url(#mask7_159_201)">
<path d="M17.41 75L18.05 74.64C18.31 74.49 18.53 74.29 18.71 74.05L19.25 73.31C19.35 73.17 19.43 73.02 19.5 72.86L19.72 72.32C19.91 71.87 20 71.38 19.99 70.9L19.96 69.42L19.08 68.04L13.52 65.57L9.89001 72.12L15.94 75.06C16.4 75.28 16.95 75.26 17.41 75Z" fill="#273AAA" stroke="#273AAA" stroke-miterlimit="10"/>
</g>
<path d="M23.29 77.93C23.76 77.61 24.11 77.14 24.29 76.59L24.58 75.68C24.77 75.07 24.74 74.42 24.48 73.84L24.05 72.88C23.86 72.45 23.55 72.08 23.16 71.81L18.82 68.84C18.66 68.73 18.48 68.63 18.29 68.56L15.56 67.51C14.92 67.26 14.21 67.28 13.58 67.56L13.27 67.7C12.5 68.05 11.95 68.75 11.79 69.58L11.65 70.32C11.49 71.18 11.78 72.06 12.41 72.66L13.65 73.9C13.81 74.05 15.88 75.14 16.07 75.24L20.59 78.06C21.44 78.53 22.49 78.48 23.29 77.93Z" stroke="#273AAA" stroke-miterlimit="10"/>
<mask id="mask8_159_201" style="mask-type:luminance" maskUnits="userSpaceOnUse" x="25" y="79" width="14" height="10">
<path d="M38.23 83.79C38.3 83.22 38.18 82.65 37.89 82.16L37.4 81.34C37.08 80.79 36.56 80.39 35.95 80.2L34.95 79.89C34.5 79.75 34.02 79.73 33.56 79.85L28.46 81.12C28.27 81.17 28.08 81.24 27.9 81.33L26.71 81.82L25.6 82.36L26.7 82.93C26.7 82.93 26.73 82.82 27.25 83.49L28.34 85.16C28.87 86.83 27.75 88.47 27.75 88.47L28.81 88.33C29.03 88.31 31.21 87.48 31.42 87.41L35.98 85.9C36.9 85.58 38.11 84.77 38.23 83.8V83.79Z" fill="white"/>
</mask>
<g mask="url(#mask8_159_201)">
<path d="M32.14 86.25L32.29 85.54C32.35 85.25 32.35 84.95 32.29 84.66L32.1 83.77C32.06 83.6 32.01 83.44 31.93 83.29L31.68 82.77C31.46 82.33 31.16 81.94 30.8 81.62L29.68 80.66L28.06 80.4L22.52 82.92L25.01 89.98L31.22 87.41C31.69 87.21 32.04 86.79 32.15 86.27L32.14 86.25Z" fill="#273AAA" stroke="#273AAA" stroke-miterlimit="10"/>
</g>
<path d="M38.23 83.79C38.3 83.22 38.18 82.65 37.89 82.16L37.4 81.34C37.08 80.79 36.56 80.39 35.95 80.2L34.95 79.89C34.5 79.75 34.02 79.73 33.56 79.85L28.46 81.12C28.27 81.17 28.08 81.24 27.9 81.33L26.71 81.82L25.6 82.36L26.7 82.93C26.7 82.93 26.73 82.82 27.25 83.49L28.34 85.16C28.87 86.83 27.75 88.47 27.75 88.47L28.81 88.33C29.03 88.31 31.21 87.48 31.42 87.41L35.98 85.9C36.9 85.58 38.11 84.77 38.23 83.8V83.79Z" stroke="#273AAA" stroke-miterlimit="10"/>
<mask id="mask9_159_201" style="mask-type:luminance" maskUnits="userSpaceOnUse" x="36" y="77" width="16" height="8">
<path d="M36.9399 78.89C36.6899 79.41 36.6299 79.99 36.7499 80.55L36.9599 81.48C37.0999 82.1 37.4599 82.65 37.9699 83.02L38.8199 83.63C39.1999 83.91 39.6599 84.07 40.1299 84.11L45.3699 84.5C45.5699 84.51 45.7699 84.5 45.9599 84.48L48.8499 84.02C49.5299 83.91 50.1399 83.54 50.5399 82.98L50.7399 82.7C51.2299 82.01 51.3599 81.13 51.0799 80.33L50.8299 79.62C50.5399 78.8 49.8499 78.18 48.9999 77.98L47.2999 77.53C47.0899 77.48 44.7499 77.58 44.5399 77.58L39.2099 77.4C38.2399 77.42 37.3499 77.99 36.9399 78.87V78.89Z" fill="white"/>
</mask>
<g mask="url(#mask9_159_201)">
<path d="M43.5 78.48L43.13 79.11C42.98 79.36 42.89 79.65 42.86 79.95L42.76 80.86C42.74 81.03 42.74 81.2 42.76 81.37L42.84 81.95C42.91 82.44 43.07 82.9 43.32 83.32L44.08 84.58L45.53 85.34L51.58 84.69L51.44 77.21L44.73 77.7C44.22 77.74 43.76 78.03 43.49 78.49L43.5 78.48Z" fill="#273AAA" stroke="#273AAA" stroke-width="0.5" stroke-miterlimit="10"/>
</g>
<path d="M36.9399 78.89C36.6899 79.41 36.6299 79.99 36.7499 80.55L36.9599 81.48C37.0999 82.1 37.4599 82.65 37.9699 83.02L38.8199 83.63C39.1999 83.91 39.6599 84.07 40.1299 84.11L45.3699 84.5C45.5699 84.51 45.7699 84.5 45.9599 84.48L48.8499 84.02C49.5299 83.91 50.1399 83.54 50.5399 82.98L50.7399 82.7C51.2299 82.01 51.3599 81.13 51.0799 80.33L50.8299 79.62C50.5399 78.8 49.8499 78.18 48.9999 77.98L47.2999 77.53C47.0899 77.48 44.7499 77.58 44.5399 77.58L39.2099 77.4C38.2399 77.42 37.3499 77.99 36.9399 78.87V78.89Z" stroke="#273AAA" stroke-width="0.5" stroke-miterlimit="10"/>
<mask id="mask10_159_201" style="mask-type:luminance" maskUnits="userSpaceOnUse" x="35" y="67" width="12" height="11">
<path d="M35.33 73.83C35.36 74.4 35.58 74.95 35.95 75.38L36.57 76.11C36.98 76.59 37.56 76.9 38.19 76.98L39.23 77.11C39.7 77.17 40.18 77.11 40.61 76.91L44.17 75.19C44.35 75.11 44.68 74.6 44.68 74.6L45.15 73.46L45.55 71.21L45.99 69.52L46.98 67.79C46.98 67.79 46.36 67.09 45.52 67.31L43.81 67.72C43.6 67.78 41.59 68.97 41.4 69.08L36.63 71.46C35.78 71.94 35.28 72.86 35.32 73.83H35.33Z" fill="white"/>
</mask>
<g mask="url(#mask10_159_201)">
<path d="M40.96 70.28L40.89 71.01C40.86 71.31 40.9 71.6 41.01 71.87L41.33 72.7C41.39 72.85 41.47 73 41.57 73.13L41.91 73.58C42.2 73.96 42.57 74.27 43 74.5L44.32 75.18L46.08 75.06L51.67 71.31L48.1 64.98L41.8 68.94C41.32 69.24 41 69.74 40.95 70.28H40.96Z" fill="#273AAA" stroke="#273AAA" stroke-width="0.5" stroke-miterlimit="10"/>
</g>
<path d="M35.33 73.83C35.36 74.4 35.58 74.95 35.95 75.38L36.57 76.11C36.98 76.59 37.56 76.9 38.19 76.98L39.23 77.11C39.7 77.17 40.18 77.11 40.61 76.91L44.17 75.19C44.35 75.11 44.68 74.6 44.68 74.6L45.15 73.46L45.55 71.21L45.99 69.52L46.98 67.79C46.98 67.79 46.36 67.09 45.52 67.31L43.81 67.72C43.6 67.78 41.59 68.97 41.4 69.08L36.63 71.46C35.78 71.94 35.28 72.86 35.32 73.83H35.33Z" stroke="#273AAA" stroke-width="0.5" stroke-miterlimit="10"/>
<path d="M11.5599 52.33C12.0699 53.11 12.7899 53.87 13.7499 54.01C15.4399 54.25 16.1999 52.32 18.1899 52.4C19.6599 52.46 19.7999 53.54 21.4999 53.54C22.8699 53.54 23.1299 52.85 24.2699 53.02C25.7099 53.23 25.7899 54.43 27.0199 54.71C28.8999 55.14 29.7099 52.58 32.0199 52.55C34.1599 52.52 34.4499 54.68 36.9699 54.82C38.6899 54.91 39.1399 53.93 41.4099 53.76C43.0199 53.64 44.3699 54.01 45.2799 54.36" stroke="#273AAA" stroke-miterlimit="10"/>
<path d="M11.49 58.97C12.72 57.95 13.64 57.81 14.27 57.89C15.01 57.99 15.11 58.36 15.92 58.46C17.32 58.63 17.85 57.63 18.69 57.94C19.71 58.31 19.49 60.01 20.32 60.17C21.22 60.34 22.55 58.54 22.55 58.54C22.93 59.36 23.34 59.59 23.64 59.66C24.58 59.86 25.14 58.53 26.42 58.58C27.19 58.61 27.21 59.11 28.07 59.15C29.2 59.2 29.65 58.37 30.29 58.62C31.01 58.91 30.78 60.1 31.38 60.29C32.14 60.53 32.81 58.71 34.16 58.66C35.12 58.63 35.19 59.53 36.36 59.79C38.13 60.19 39.02 58.34 40.8 58.73C41.86 58.97 41.94 59.71 43 59.86C44.1 60.01 45.1 59.36 45.78 58.78" stroke="#273AAA" stroke-miterlimit="10"/>
<mask id="mask11_159_201" style="mask-type:luminance" maskUnits="userSpaceOnUse" x="11" y="82" width="16" height="8">
<path d="M12.1599 83.63C11.8999 84.14 11.8099 84.72 11.9199 85.28L12.0999 86.22C12.2199 86.84 12.5599 87.4 13.0699 87.79L13.9099 88.43C14.2899 88.72 14.7299 88.9 15.1999 88.94L20.4299 89.49C20.6299 89.51 20.8299 89.51 21.0199 89.49L23.9199 89.12C24.5999 89.03 25.2199 88.68 25.6399 88.13L25.8499 87.86C26.3599 87.19 26.5199 86.31 26.2599 85.51L26.0299 84.79C25.7599 83.96 25.0899 83.32 24.2499 83.09L22.5699 82.59C22.3599 82.53 20.0199 82.56 19.7999 82.56L14.4799 82.22C13.5099 82.21 12.6099 82.75 12.1599 83.62V83.63Z" fill="white"/>
</mask>
<g mask="url(#mask11_159_201)">
<path d="M18.7299 83.42L18.3399 84.04C18.1799 84.29 18.0799 84.57 18.0399 84.87L17.9199 85.78C17.8999 85.95 17.8899 86.12 17.9199 86.29L17.9799 86.87C18.0299 87.36 18.1799 87.83 18.4199 88.25L19.1399 89.54L20.5699 90.34L26.6399 89.87L26.7199 82.39L19.9999 82.68C19.4899 82.7 19.0199 82.98 18.7299 83.44V83.42Z" fill="#273AAA" stroke="#273AAA" stroke-width="0.5" stroke-miterlimit="10"/>
</g>
<path d="M12.1599 83.63C11.8999 84.14 11.8099 84.72 11.9199 85.28L12.0999 86.22C12.2199 86.84 12.5599 87.4 13.0699 87.79L13.9099 88.43C14.2899 88.72 14.7299 88.9 15.1999 88.94L20.4299 89.49C20.6299 89.51 20.8299 89.51 21.0199 89.49L23.9199 89.12C24.5999 89.03 25.2199 88.68 25.6399 88.13L25.8499 87.86C26.3599 87.19 26.5199 86.31 26.2599 85.51L26.0299 84.79C25.7599 83.96 25.0899 83.32 24.2499 83.09L22.5699 82.59C22.3599 82.53 20.0199 82.56 19.7999 82.56L14.4799 82.22C13.5099 82.21 12.6099 82.75 12.1599 83.62V83.63Z" stroke="#273AAA" stroke-width="0.5" stroke-miterlimit="10"/>
<mask id="mask12_159_201" style="mask-type:luminance" maskUnits="userSpaceOnUse" x="3" y="66" width="8" height="14">
<path d="M10.3299 79.08C10.5799 78.68 10.7199 78.22 10.7199 77.74L10.7799 72.48C10.7799 72.28 10.7599 72.08 10.7199 71.89L10.0799 69.03C9.92989 68.36 9.51989 67.78 8.93989 67.41L8.64989 67.23C7.93989 66.78 7.03989 66.71 6.26989 67.04L5.57989 67.33C4.77989 67.67 4.19989 68.4 4.04989 69.26L3.70989 70.98C3.66989 71.19 3.91989 73.52 3.93989 73.74L4.09989 79.07" fill="white"/>
</mask>
<g mask="url(#mask12_159_201)">
<path d="M4.88985 74.74L5.53985 75.07C5.79985 75.2 6.09985 75.28 6.39985 75.29L7.30985 75.33C7.47985 75.33 7.64985 75.33 7.81985 75.29L8.38985 75.18C8.86985 75.08 9.32985 74.89 9.71985 74.62L10.9299 73.78L11.5899 72.28L10.5599 66.28L3.09985 66.89L4.00985 73.55C4.07985 74.06 4.39985 74.5 4.87985 74.74H4.88985Z" fill="#273AAA" stroke="#273AAA" stroke-miterlimit="10"/>
</g>
<path d="M10.3299 79.08C10.5799 78.68 10.7199 78.22 10.7199 77.74L10.7799 72.48C10.7799 72.28 10.7599 72.08 10.7199 71.89L10.0799 69.03C9.92989 68.36 9.51989 67.78 8.93989 67.41L8.64989 67.23C7.93989 66.78 7.03989 66.71 6.26989 67.04L5.57989 67.33C4.77989 67.67 4.19989 68.4 4.04989 69.26L3.70989 70.98C3.66989 71.19 3.91989 73.52 3.93989 73.74L4.09989 79.07" stroke="#273AAA" stroke-miterlimit="10"/>
<path d="M12.42 74.47L12.38 77.79L13.23 77.64C13.71 77.55 14.2 77.67 14.58 77.96L15.13 78.37L16.8 77.28L12.41 74.47H12.42Z" fill="#273AAA"/>
<path d="M28.42 78.52L27.85 80.17L29.51 79.63L28.42 78.52Z" fill="#273AAA" stroke="#273AAA" stroke-width="0.25" stroke-miterlimit="10"/>
<path d="M43.38 76.47L45.04 76.49V75.93L43.38 76.47Z" fill="#273AAA"/>
<path d="M24.08 70.72L24.25 70.81C24.84 71.11 25.29 71.64 25.49 72.28L25.71 72.95L26.81 73.52L27.22 72.06C27.35 71.59 27.6 71.15 27.94 70.8L28.5 70.22V69.57L25.73 69.54L23.53 69.06L22.96 70.16L24.06 70.73L24.08 70.72Z" fill="#273AAA"/>
<path d="M38.9499 85.27L38.5899 85.86C38.3899 86.19 38.0999 86.46 37.7599 86.64L36.1599 87.45L37.2899 88.22C37.6299 88.45 38.0299 88.58 38.4399 88.58H39.0799C39.3299 88.58 39.5799 88.52 39.7999 88.38L40.4099 87.98C40.8799 87.67 41.2399 87.21 41.4299 86.68L41.6199 86.14V85.86L40.6499 85.85C40.1999 85.85 39.7599 85.73 39.3699 85.5L38.9699 85.27H38.9499Z" fill="#273AAA" stroke="#273AAA" stroke-width="0.5" stroke-miterlimit="10"/>
<mask id="mask13_159_201" style="mask-type:luminance" maskUnits="userSpaceOnUse" x="31" y="22" width="12" height="14">
<path d="M33.49 22.94C32.95 23.12 32.48 23.48 32.16 23.96L31.63 24.76C31.28 25.29 31.13 25.93 31.23 26.56L31.38 27.6C31.45 28.07 31.64 28.51 31.95 28.87L35.31 32.91C35.44 33.06 35.58 33.2 35.74 33.32L38.08 35.08C38.63 35.49 39.32 35.67 40 35.57L40.34 35.52C41.18 35.4 41.9 34.88 42.28 34.12L42.61 33.45C43 32.67 42.97 31.75 42.52 30.99L41.66 29.46C41.55 29.27 39.86 27.66 39.7 27.51L36.13 23.56C35.44 22.87 34.42 22.63 33.49 22.94Z" fill="white"/>
</mask>
<g mask="url(#mask13_159_201)">
<path d="M38.34 27.37L37.63 27.54C37.34 27.61 37.07 27.74 36.83 27.93L36.11 28.49C35.98 28.59 35.85 28.72 35.75 28.85L35.39 29.31C35.09 29.7 34.86 30.14 34.74 30.6L34.36 32.03L34.83 33.6L39.5 37.5L44.79 32.2L39.78 27.71C39.4 27.37 38.86 27.24 38.34 27.37Z" fill="#273AAA" stroke="#273AAA" stroke-miterlimit="10"/>
</g>
<path d="M33.49 22.94C32.95 23.12 32.48 23.48 32.16 23.96L31.63 24.76C31.28 25.29 31.13 25.93 31.23 26.56L31.38 27.6C31.45 28.07 31.64 28.51 31.95 28.87L35.31 32.91C35.44 33.06 35.58 33.2 35.74 33.32L38.08 35.08C38.63 35.49 39.32 35.67 40 35.57L40.34 35.52C41.18 35.4 41.9 34.88 42.28 34.12L42.61 33.45C43 32.67 42.97 31.75 42.52 30.99L41.66 29.46C41.55 29.27 39.86 27.66 39.7 27.51L36.13 23.56C35.44 22.87 34.42 22.63 33.49 22.94Z" stroke="#273AAA" stroke-miterlimit="10"/>
<mask id="mask14_159_201" style="mask-type:luminance" maskUnits="userSpaceOnUse" x="17" y="33" width="12" height="13">
<path d="M28.4499 34.67C28.1599 34.18 27.7099 33.8 27.1699 33.59L26.2799 33.24C25.6899 33.01 25.0299 33.01 24.4399 33.24L23.4599 33.61C23.0199 33.78 22.6299 34.06 22.3399 34.44L19.1099 38.59C18.9899 38.75 18.8799 38.92 18.7999 39.1L17.5799 41.76C17.2899 42.38 17.2699 43.1 17.5099 43.74L17.6299 44.06C17.9299 44.85 18.5899 45.45 19.4099 45.65L20.1399 45.83C20.9899 46.04 21.8799 45.81 22.5199 45.22L23.8299 44.05C23.9899 43.9 25.1999 41.9 25.3199 41.72L28.4099 37.38C28.9299 36.56 28.9499 35.51 28.4499 34.67Z" fill="white"/>
</mask>
<g mask="url(#mask14_159_201)">
<path d="M25.1699 40.36L24.8499 39.7C24.7199 39.43 24.5299 39.2 24.2999 39.01L23.5999 38.43C23.4699 38.32 23.3199 38.23 23.1699 38.15L22.6499 37.9C22.2099 37.69 21.7299 37.56 21.2499 37.54L19.7799 37.48L18.3499 38.27L15.5399 43.67L21.8499 47.69L25.1499 41.83C25.3999 41.38 25.4099 40.83 25.1799 40.35L25.1699 40.36Z" fill="#273AAA" stroke="#273AAA" stroke-miterlimit="10"/>
</g>
<path d="M28.4499 34.67C28.1599 34.18 27.7099 33.8 27.1699 33.59L26.2799 33.24C25.6899 33.01 25.0299 33.01 24.4399 33.24L23.4599 33.61C23.0199 33.78 22.6299 34.06 22.3399 34.44L19.1099 38.59C18.9899 38.75 18.8799 38.92 18.7999 39.1L17.5799 41.76C17.2899 42.38 17.2699 43.1 17.5099 43.74L17.6299 44.06C17.9299 44.85 18.5899 45.45 19.4099 45.65L20.1399 45.83C20.9899 46.04 21.8799 45.81 22.5199 45.22L23.8299 44.05C23.9899 43.9 25.1999 41.9 25.3199 41.72L28.4099 37.38C28.9299 36.56 28.9499 35.51 28.4499 34.67Z" stroke="#273AAA" stroke-miterlimit="10"/>
</g>
<defs>
<clipPath id="clip0_159_201">
<rect width="56.21" height="92.99" fill="white" transform="translate(0 0.589996)"/>
</clipPath>
</defs>
</svg>
