<svg width="142" height="127" viewBox="0 0 142 127" fill="none" xmlns="http://www.w3.org/2000/svg">
<path d="M97.0057 30.429L112.663 26.294C113.682 26.0249 114.751 26.0129 115.776 26.259C117.418 26.6535 118.836 27.684 119.718 29.1239L120 29.5844C120.791 30.8758 121.183 32.3725 121.125 33.8858L120.718 44.4767C120.68 45.4752 120.567 46.4694 120.38 47.451L116.011 70.3939C115.412 73.5411 114.065 76.4983 112.085 79.0166L110.358 81.212C107.66 84.6427 103.914 87.0966 99.6907 88.1993L92.6061 90.0493C90.5603 90.5835 88.4428 90.7899 86.3324 90.6609L76.4831 90.0586C73.0475 89.8485 69.6157 90.5287 66.5199 92.0333L57.3468 96.4917C54.3098 97.9677 50.9486 98.6508 47.5763 98.4772L36.4114 97.9026C33.2018 97.7375 30.0793 96.8012 27.3082 95.1732L19.0144 90.3006C17.6055 89.4728 16.422 88.3109 15.5683 86.9175C13.5021 83.5448 13.6284 79.2688 15.8902 76.0239L15.941 75.951C16.745 74.7976 17.299 73.489 17.5677 72.109L18.351 68.086C18.5936 66.8398 18.717 65.5733 18.7196 64.3038L18.7325 57.8307C18.7411 53.5536 20.9679 49.5871 24.6151 47.3527C26.6289 46.119 28.9551 45.4902 31.3163 45.5414L36.0194 45.6434C42.0238 45.2661 47.452 41.9407 50.5154 36.7628L53.1193 33.0863C55.6618 29.4965 59.623 27.1707 63.9967 26.6997C66.3468 26.4466 68.7235 26.7399 70.9415 27.5567L76.0398 29.4342C77.9537 30.139 79.9641 30.5469 82.0013 30.6438L90.9489 31.0694C92.9887 31.1664 95.0313 30.9504 97.0057 30.429Z" fill="#F7C7D9"/>
<path d="M99.7737 36.3385L109.405 34.619C109.521 34.5983 109.638 34.5874 109.756 34.5863C111.138 34.5735 112.157 35.8747 111.814 37.214L106.783 56.8238L102.814 73.3468C102.169 76.0338 100.819 78.5001 98.9029 80.4918C95.5532 83.9743 90.7744 85.701 85.9723 85.1639L76.5929 84.1148L72.8088 83.9696C68.3401 83.7982 64.011 85.5436 60.9109 88.7666C58.7185 91.0459 55.8879 92.6088 52.791 93.2498L48.9136 94.0523C46.0306 94.6491 43.0513 94.6019 40.1886 93.9143L32.196 91.9943C30.3479 91.5504 28.573 90.844 26.9253 89.8967L19.9472 85.8847C19.0631 85.3764 18.4612 84.4905 18.3141 83.4814C18.1222 82.1651 18.7332 80.861 19.8675 80.1661L20.8233 79.5805C21.4886 79.173 22.0498 78.6161 22.4625 77.9541L24.2009 75.1658L24.9865 73.467C25.9685 71.3434 26.5703 69.064 26.7645 66.7325L27.0715 63.0459C27.1852 61.6806 27.4844 60.3373 27.9608 59.0529L28.6562 57.178C29.7254 54.2951 31.9862 52.0136 34.8592 50.918L35.412 50.7073C37.0613 50.0783 38.8622 49.9624 40.5786 50.3747L40.9582 50.4659C44.1348 51.2289 47.4605 50.0255 49.4132 47.4063L52.2718 43.0554C53.7863 40.7503 55.7911 38.808 58.1429 37.3672C61.6346 35.2281 65.7309 34.2918 69.8051 34.7015L79.1465 35.6408L95.0381 36.6125C96.6219 36.7093 98.2116 36.6174 99.7737 36.3385Z" fill="#FC4D5C"/>
<path d="M95.1622 43.6131L99.3428 42.3699C99.8551 42.2175 100.402 42.2278 100.908 42.3991C102.432 42.9148 103.119 44.6813 102.345 46.0911L102.068 46.5965C101.949 46.8125 101.857 47.042 101.794 47.28L98.3251 60.2463L95.6076 68.5397C94.7237 71.2371 92.9094 73.5324 90.489 75.0152C87.4617 76.8698 83.767 77.284 80.4043 76.1456L80.3164 76.1159C78.9911 75.6672 77.5982 75.4507 76.1992 75.4758L75.1215 75.4951C70.8139 75.5724 66.6706 77.1621 63.4169 79.9861L59.9414 83.0025C57.9786 84.706 55.7025 86.0107 53.2405 86.8435L50.8318 87.6583C47.8419 88.6697 44.655 88.959 41.5318 88.5027L36.179 87.7206C35.1895 87.576 34.217 87.3321 33.2763 86.9925L26.9361 84.704C26.1384 84.4161 25.541 83.7434 25.3494 82.9172C25.1063 81.8688 25.5612 80.7825 26.4789 80.2203L28.21 79.1598C28.866 78.7579 29.427 78.2184 29.8543 77.5786L30.7365 76.2573C32.319 73.8873 33.0478 71.0492 32.803 68.2099L32.5089 64.7988L32.5749 63.0789C32.7011 59.789 34.8818 56.9337 38.0225 55.9461C38.4634 55.8074 38.9158 55.7083 39.3743 55.6498L42.8345 55.2087C47.1981 54.6524 51.2566 52.673 54.3815 49.577L55.7662 48.2052L60.3569 43.5289C62.072 41.7818 64.2659 40.5814 66.6621 40.0791C69.0116 39.5866 71.4535 39.7866 73.6915 40.6548L79.3162 42.8369C81.4685 43.6718 83.749 44.1278 86.0568 44.1847L90.1118 44.2847C91.82 44.3268 93.5243 44.1002 95.1622 43.6131Z" fill="#F7C7D9" fill-opacity="0.68"/>
<path d="M91.4412 48.4463L94.9122 47.5719C95.1067 47.5229 95.3081 47.5075 95.5078 47.5263C96.6303 47.6319 97.3663 48.7498 97.0196 49.8227L95.3463 55.0018C95.0276 55.9879 94.4642 56.8771 93.7085 57.5863L88.6313 62.3512C85.6878 65.1135 81.8369 66.7059 77.8021 66.829C76.6075 66.8655 75.4204 67.0311 74.2615 67.3231L74.1489 67.3514C70.0998 68.3714 66.544 70.7953 64.1148 74.1916L63.314 75.3112C60.9386 78.6322 57.6037 81.1465 53.7573 82.5165L52.9462 82.8054C51.3353 83.3791 49.6575 83.7439 47.9538 83.8908L38.6165 84.6959C37.6666 84.7778 36.7157 84.5494 35.9066 84.0449C34.3691 83.0864 33.5751 81.2845 33.9051 79.503L34.4005 76.8287C34.5219 76.173 34.721 75.5342 34.9936 74.9257L37.6629 68.9658C38.7361 66.5696 40.2705 64.4083 42.1787 62.605L43.1046 61.73C45.2382 59.7136 47.7896 58.1916 50.5776 57.2721L54.6371 55.9333L62.6426 54.3032C64.9102 53.8414 67.0121 52.7792 68.7287 51.2274C70.9379 49.2304 73.8034 48.0561 76.7776 47.9064C77.8481 47.8525 78.9332 47.93 79.9846 48.1385L82.6654 48.6701C85.5711 49.2463 88.5686 49.1699 91.4412 48.4463Z" fill="#FC4D5C"/>
<path d="M82.2925 51.3046L88.8553 52.2032C89.1577 52.2446 89.4256 52.4195 89.5851 52.6798C89.8787 53.1591 89.7282 53.7857 89.2489 54.0793L82.7802 58.0422C81.9917 58.5253 81.1304 58.8781 80.2296 59.087L73.8884 60.5578L72.4723 61.0248C68.029 62.4902 64.24 65.467 61.7647 69.4373L60.9954 70.6712C59.3527 73.3059 57.1192 75.5221 54.4716 77.144L52.6055 78.2873C50.8726 79.3489 48.9164 79.9924 46.8917 80.167L40.3227 80.7334C39.4088 80.8122 38.5287 80.3678 38.0495 79.5856C37.714 79.0379 37.6098 78.3793 37.7598 77.7548L38.9496 72.8016C39.4263 70.817 40.3106 68.9531 41.5463 67.3285L41.8677 66.9059C44.2312 63.7985 47.5805 61.5866 51.3662 60.633C52.8791 60.2519 54.4368 60.0782 55.9965 60.1166L56.4651 60.1282C61.1368 60.2434 65.6593 58.4797 69.0196 55.2322L69.3079 54.9536C70.0317 54.2541 70.8298 53.636 71.688 53.1102C74.174 51.5873 77.0785 50.8911 79.9847 51.1215L82.2925 51.3046Z" fill="#F7C7D9" fill-opacity="0.39"/>
<path d="M52.6243 64.7325L50.5504 68.4053L54.5083 67.8821C55.1097 67.8026 55.7209 67.9104 56.2588 68.1909L56.8732 68.5113C57.5651 68.8722 57.9696 69.616 57.8965 70.3929C57.8272 71.1287 57.3416 71.7594 56.6479 72.0144L53.8359 73.048C53.2793 73.2526 52.6978 73.3821 52.1069 73.4331L48.0465 73.7832C46.1583 73.946 44.3029 74.3763 42.5359 75.0613L39.9876 76.0491L40.7443 74.4128L42.1812 71.4713C43.1248 69.5398 44.3735 67.7731 45.8794 66.2391L46.4942 65.6129L48.7729 63.2917C49.1693 62.8879 49.6828 62.6193 50.2405 62.5241L50.982 62.3975C51.6191 62.2887 52.2582 62.5787 52.5958 63.1297C52.8956 63.6192 52.9065 64.2327 52.6243 64.7325Z" fill="#FC4D5C"/>
<path d="M78.7084 53.5707L77.4375 54.8652L80.7488 55.9861C80.9843 56.0659 81.1503 56.2774 81.1716 56.5251C81.2039 56.9001 80.9003 57.2185 80.5242 57.2041L77.6296 57.093L73.7655 56.5285L77.4432 53.1226C77.4854 53.0835 77.5313 53.0486 77.5804 53.0186L78.0434 52.735C78.3844 52.526 78.8261 52.7491 78.8605 53.1475C78.874 53.304 78.8184 53.4586 78.7084 53.5707Z" fill="#FC4D5C"/>
</svg>
