<svg width="142" height="132" viewBox="0 0 142 132" fill="none" xmlns="http://www.w3.org/2000/svg">
<path d="M30.7163 54.9819L20.7686 42.2033C20.1213 41.3719 19.6905 40.3928 19.5148 39.3538C19.2332 37.6888 19.6246 35.9801 20.6028 34.6036L20.9157 34.1634C21.793 32.929 23.0161 31.9819 24.4308 31.4414L34.3316 27.6589C35.265 27.3023 36.2238 27.0162 37.2 26.8029L60.0168 21.8175C63.1468 21.1336 66.3952 21.2117 69.4887 22.0451L72.1855 22.7716C76.3999 23.907 80.1271 26.3898 82.7987 29.8413L87.2805 35.6317C88.5746 37.3037 89.5955 39.1703 90.305 41.1621L93.6162 50.4576C94.7713 53.7001 96.7436 56.5896 99.3424 58.8466L107.043 65.5343C109.592 67.7484 111.54 70.5719 112.703 73.7417L116.556 84.2365C117.664 87.2535 118.028 90.4929 117.618 93.6805L116.391 103.221C116.183 104.842 115.579 106.387 114.632 107.719C112.341 110.943 108.358 112.504 104.486 111.697L104.399 111.679C103.023 111.393 101.602 111.396 100.227 111.691L96.2191 112.549C94.9777 112.815 93.7644 113.199 92.5957 113.694L86.6368 116.223C82.6994 117.893 78.1773 117.402 74.6909 114.924C72.7658 113.556 71.2746 111.663 70.3951 109.471L68.6433 105.105C65.9399 99.7307 60.751 96.043 54.7863 95.2573L50.3829 94.305C46.0833 93.3752 42.3896 90.6445 40.24 86.8065C39.0849 84.7443 38.422 82.4431 38.3029 80.0825L38.029 74.6563C37.9262 72.6194 37.5125 70.6102 36.8021 68.6984L33.6822 60.3016C32.9709 58.3873 31.9707 56.5933 30.7163 54.9819Z" fill="#FC4D5C"/>
<path d="M35.0655 50.1169L29.7042 41.9328C29.6398 41.8345 29.5838 41.7309 29.5367 41.6233C28.9823 40.3566 29.7791 38.9086 31.1458 38.699L51.1568 35.6307L67.9119 32.7971C70.6367 32.3363 73.435 32.6102 76.0186 33.5907C80.5363 35.305 83.9998 39.0228 85.3903 43.6505L88.1062 52.6892L89.4576 56.2267C91.0536 60.4042 94.3579 63.7011 98.5389 65.2877C101.496 66.4097 104.044 68.3999 105.849 70.9969L108.109 74.2483C109.789 76.6659 110.915 79.4246 111.406 82.3275L112.776 90.4324C113.093 92.3065 113.14 94.2162 112.915 96.1035L111.964 104.096C111.843 105.109 111.265 106.01 110.394 106.541C109.259 107.235 107.819 107.184 106.735 106.414L105.821 105.764C105.186 105.312 104.453 105.015 103.682 104.895L100.435 104.39L98.5646 104.334C96.226 104.264 93.8933 104.605 91.6726 105.342L88.1612 106.506C86.8609 106.937 85.5079 107.189 84.1395 107.255L82.1422 107.351C79.071 107.499 76.0852 106.315 73.9501 104.103L73.5393 103.677C72.3136 102.407 71.5002 100.796 71.2059 99.0552L71.1408 98.6702C70.596 95.449 68.184 92.8624 65.0086 92.0942L59.885 91.1723C57.1704 90.6839 54.5972 89.6022 52.349 88.0044C49.0113 85.6323 46.5426 82.2321 45.3205 78.3239L42.5186 69.3632L37.176 54.3652C36.6435 52.8704 35.9351 51.4443 35.0655 50.1169Z" fill="#F7C7D9" stroke="#FC4D5C"/>
<path d="M43.5663 51.5037L40.7822 48.1463C40.441 47.7349 40.2358 47.2278 40.1947 46.6949C40.0712 45.0915 41.4262 43.7658 43.0265 43.9243L43.6003 43.9811C43.8455 44.0054 44.0927 44.0001 44.3366 43.9652L57.6239 42.0671L66.3185 41.312C69.1464 41.0664 71.9695 41.8344 74.2832 43.4788C77.1771 45.5354 79.0079 48.7711 79.2805 52.3109L79.2876 52.4034C79.3951 53.7985 79.7425 55.1645 80.3146 56.4415L80.7553 57.4251C82.5168 61.3569 85.605 64.5439 89.4793 66.4284L93.6176 68.4414C95.9548 69.5782 98.048 71.1597 99.7802 73.0974L101.475 74.9931C103.578 77.3463 105.095 80.164 105.901 83.2157L107.282 88.446C107.538 89.4129 107.695 90.4031 107.752 91.4016L108.135 98.1312C108.183 98.978 107.799 99.7914 107.114 100.292C106.245 100.927 105.068 100.935 104.19 100.311L102.536 99.1353C101.909 98.6896 101.192 98.3853 100.436 98.2435L98.8745 97.9505C96.0736 97.425 93.1772 97.8684 90.6617 99.2078L87.6396 100.817L86.0318 101.431C82.9563 102.606 79.4743 101.721 77.3334 99.2198C77.0328 98.8687 76.7641 98.4915 76.5304 98.0927L74.7667 95.0831C72.5427 91.2879 69.1294 88.3318 65.0554 86.6725L63.2502 85.9373L57.1475 83.5499C54.8675 82.658 52.9025 81.1112 51.5001 79.1043C50.1251 77.1366 49.3508 74.8121 49.2711 72.4129L49.0708 66.3831C48.9941 64.0759 48.5186 61.7993 47.6653 59.6543L46.1659 55.8854C45.5343 54.2976 44.657 52.819 43.5663 51.5037Z" fill="#FC4D5C"/>
<path d="M49.472 53.0295L47.3057 50.1801C47.1843 50.0204 47.091 49.8412 47.03 49.6501C46.6866 48.5762 47.4261 47.4606 48.5489 47.3584L53.9692 46.8651C55.0012 46.7712 56.0402 46.9405 56.9891 47.3573L63.3642 50.1573C67.0601 51.7806 70.0359 54.6977 71.7326 58.3605C72.2349 59.4449 72.8531 60.4718 73.5764 61.4232L73.6467 61.5156C76.1739 64.8397 79.7987 67.1589 83.8759 68.0605L85.2199 68.3577C89.2067 69.2393 92.8281 71.32 95.5976 74.3202L96.1816 74.9529C97.3415 76.2094 98.3354 77.6094 99.1391 79.1188L103.544 87.3911C103.992 88.2327 104.155 89.197 104.009 90.1391C103.73 91.9294 102.385 93.3669 100.616 93.7625L97.9623 94.3563C97.3116 94.5019 96.6459 94.5695 95.9792 94.5576L89.4498 94.4412C86.8248 94.3945 84.2346 93.8313 81.8272 92.7839L80.659 92.2756C77.967 91.1044 75.5659 89.355 73.6261 87.1515L70.8016 83.943L66.1606 77.2195C64.8461 75.315 63.0441 73.7986 60.9432 72.8286C58.2394 71.5804 56.0348 69.4055 54.7299 66.7287C54.2602 65.7652 53.9057 64.7367 53.6849 63.6878L53.1218 61.0135C52.5115 58.1147 51.2649 55.3877 49.472 53.0295Z" fill="#F7C7D9" stroke="#FC4D5C"/>
<path d="M55.6912 60.3226L53.9422 53.9336C53.8616 53.6392 53.9174 53.3242 54.0942 53.0754C54.4198 52.6172 55.0552 52.5098 55.5134 52.8354L61.6969 57.23C62.4507 57.7657 63.1132 58.4194 63.6589 59.166L67.5001 64.4213L68.4854 65.5405C71.5769 69.0523 75.8018 71.3691 80.425 72.0878L81.8618 72.3112C84.9299 72.7881 87.8448 73.9728 90.3756 75.7715L92.1595 77.0393C93.8159 78.2165 95.1756 79.7633 96.1307 81.557L99.2295 87.3768C99.6607 88.1865 99.5973 89.1703 99.0659 89.918C98.6938 90.4416 98.129 90.7959 97.4956 90.903L92.4729 91.7524C90.4604 92.0928 88.399 92.0109 86.4198 91.5119L85.9049 91.3821C82.1194 90.4276 78.7705 88.2151 76.4077 85.1072C75.4635 83.8653 74.6924 82.5007 74.1157 81.051L73.9424 80.6155C72.2151 76.2734 68.818 72.8057 64.5124 70.9894L64.143 70.8336C63.2157 70.4424 62.3339 69.9509 61.5135 69.3678C59.1371 67.679 57.357 65.2806 56.4284 62.5171L55.6912 60.3226Z" fill="#FC4D5C"/>
<path d="M79.6848 82.3413L83.8768 82.8075L81.8423 79.3725C81.5332 78.8505 81.3925 78.2459 81.4394 77.6411L81.4931 76.9503C81.5534 76.1723 82.0788 75.5084 82.8221 75.2708C83.5261 75.0457 84.2967 75.2449 84.8035 75.7829L86.8577 77.9636C87.2644 78.3953 87.6117 78.8793 87.8904 79.4028L89.8059 83.0001C90.6966 84.6729 91.8205 86.2106 93.144 87.5671L95.0526 89.5233L93.2506 89.4694L89.9812 89.3021C87.8344 89.1922 85.7193 88.737 83.7174 87.9538L82.9002 87.6341L79.8709 86.4491C79.344 86.243 78.8954 85.8761 78.589 85.4005L78.1815 84.7682C77.8314 84.2249 77.8474 83.5233 78.2218 82.9965C78.5543 82.5286 79.1143 82.2778 79.6848 82.3413Z" fill="#F7C7D9"/>
<path d="M59.1821 62.7299L60.8715 63.3908L60.603 59.9052C60.5839 59.6574 60.7134 59.4217 60.9328 59.3049C61.265 59.128 61.6771 59.2823 61.8114 59.6339L62.8452 62.3399L63.8423 66.1156L59.2664 64.0695C59.2139 64.046 59.1638 64.0174 59.1169 63.9841L58.6744 63.6696C58.3484 63.4379 58.3802 62.9441 58.7332 62.7561C58.8718 62.6823 59.0358 62.6727 59.1821 62.7299Z" fill="#F7C7D9"/>
</svg>
