<svg width="276" height="78" viewBox="0 0 276 78" fill="none" xmlns="http://www.w3.org/2000/svg">
<g clip-path="url(#clip0_577_872)">
<path d="M154.404 14.3191L152.124 14.4579L170 40.5L167.607 39.5698L155 26.0184L145.014 16.5L143.5 17.5L141.092 19.6841L133.699 27.7314L125.374 36.5178L121.212 40.911L123.085 40.5181L122.807 42.9229L124.68 42.5299L125.073 44.403L126.946 44.01L126.668 46.4149L129.073 46.6925L128.264 48.4268L130.669 48.7044L129.859 50.4386L131.593 51.2481L131.455 52.4505L132.657 52.5893L133.582 55.133L135.455 54.7401L135.848 56.6131L137.05 56.7519L136.911 57.9544L137.582 57.4226L137.975 59.2956L139.177 59.4345L139.039 60.6369L139.709 60.1051L140.102 61.9781L141.975 61.5852L141.836 62.7876L143.522 62.5435L143.432 64.7995L145.014 63.5444L146.368 65.7478L147.432 67.089L149.86 61.8863L158.717 53.7705L167.607 43.5935L170 42.5299L180.509 44.01L176.902 43.5935L177.18 41.1887L175.307 41.5816L175.584 39.1768L173.711 39.5698L175.053 38.5062L173.85 38.3673L173.457 36.4943L172.116 37.5579L172.394 35.153L170.521 35.546L170.798 33.1411L168.925 33.5341L169.203 31.1293L167.33 31.5222L167.607 29.1174L166.937 29.6492L166.544 27.7761L164.671 28.1691L165.48 26.4349L163.5 26.5L164.5 24.5L162 25L163.5 22.5L161 23.5L162.5 20.5L159.5 22L160 18.6205L158.659 19.6841L158.405 16.6087L157.063 17.6723L157.202 16.4698L156 16.331L156.139 15.1286L155.468 15.6604L155.607 14.4579L154.266 15.5215L154.404 14.3191Z" stroke="#273AAA" stroke-miterlimit="10"/>
<path d="M144.774 20.9377C143.972 21.235 143.4 22.0707 142.811 22.691L134.536 30.8254L128.315 37.6372C127.485 38.5466 126.962 39.2782 127.356 40.408L128.951 42.4199L143.587 58.122C144.222 58.7984 144.651 59.4633 146.41 60.1111L146.472 60.106C147.587 59.9972 148.646 59.5285 149.477 58.7715L164.77 43.5093C165.849 42.4459 165.504 41.5288 164.516 40.4338L147.317 21.5421C146.686 20.8416 145.677 20.6034 144.767 20.943L144.774 20.9377Z" stroke="#273AAA" stroke-miterlimit="10"/>
<path d="M150 25C148.88 24.9925 149.86 25.1997 149.476 25.2529C148.652 25.371 147.965 25.4683 147.118 25.736C145.323 26.2964 144.084 27.2134 143.431 27.6985C142.951 28.0573 142.189 28.6395 141.392 29.5223C140.932 30.0296 140.467 30.6278 140.036 31.3518C138.61 33.7277 138.47 35.8925 138.443 36.4378C138.355 38.6269 139.032 40.155 139.544 41.3107C140.167 42.7169 141.111 44.8303 143.426 46.2063C145.107 47.2107 147.325 48.0516 149.258 48.2016C151.593 48.3921 153.123 47.8559 155.42 46.7991C158.998 45.153 160.557 41.6228 160.969 40.5859C161.452 39.5146 159.848 38.8052 159.5 36.4378C159.175 34.2375 158.788 35.6097 156.5 33C154.292 30.4909 154.625 29.1354 152.847 29.1251L150 25Z" stroke="#273AAA" stroke-miterlimit="10"/>
<path d="M151.721 29.2772C150.935 29.2779 149.627 29.4193 149.354 29.4609C148.778 29.5467 148.293 29.6248 147.699 29.812C146.434 30.2143 145.561 30.8629 145.101 31.2058C144.568 31.6071 143.532 32.3954 142.696 33.7793C141.681 35.4471 141.568 36.9571 141.547 37.3446C141.469 38.8708 141.936 39.9422 142.295 40.739C142.725 41.7086 143.376 43.1911 144.991 44.1391C146.16 44.8285 147.715 45.3979 149.074 45.5C150.718 45.6167 151.791 45.235 153.408 44.4773C155.931 43.3065 157.046 40.8277 157.343 40.1005C157.693 39.3428 158.23 37.9121 158 36.259C157.787 34.7236 157.034 33.9116 155.445 32.1136C153.915 30.3774 152.976 29.2759 151.726 29.284L151.721 29.2772Z" stroke="#273AAA" stroke-miterlimit="10"/>
<path d="M144.774 20.9377L128.981 36.9343L137.616 29.9016L140.243 29.0961L142.5 28L146 25.5C146.294 25.4304 149.209 24.9359 149.5 25C151.327 25.3754 152.837 28.2216 154.2 29.5L157.35 33L160 38L160.427 42.5L157.5 45L160.5 43.5C160.858 42.7249 162.193 44.2906 163 44C163.795 43.708 163.357 42.9505 164 43.5L165 41.5L146.54 20.9894L144.767 20.943L144.774 20.9377Z" fill="#273AAA" stroke="#273AAA" stroke-miterlimit="10"/>
<path d="M137.687 48.6008L133.224 46.995L145.036 59.4529C145.957 59.8699 147.005 59.869 147.929 59.464L149.489 58.7729L157.235 51.0467L154.185 52.2419C153.668 52.4442 153.25 52.8408 153.016 53.3437C152.748 53.916 152.15 54.2489 151.524 54.1768L150.827 54.0962C150.382 54.0449 149.935 54.0603 149.493 54.1493L149.012 54.2462C147.984 54.4503 146.911 54.2412 146.039 53.6653L144.387 52.5728L140.413 50.8956L137.691 48.6196L137.687 48.6008Z" fill="#273AAA" stroke="#273AAA" stroke-miterlimit="10"/>
</g>
<g clip-path="url(#clip1_577_872)">
<mask id="mask0_577_872" style="mask-type:luminance" maskUnits="userSpaceOnUse" x="12" y="9" width="87" height="65">
<path d="M33.1435 72.3535L93.1636 47.4539C97.8874 45.4942 100.128 40.0762 98.1685 35.3524L89.838 15.2718C87.8783 10.548 82.4603 8.30727 77.7365 10.267L17.7164 35.1665C12.9926 37.1262 10.7518 42.5442 12.7115 47.268L21.042 67.3486C23.0017 72.0724 28.4197 74.3132 33.1435 72.3535Z" fill="white"/>
</mask>
<g mask="url(#mask0_577_872)">
<path d="M85.3898 50.6819L94.3114 45.7888C95.0009 45.4079 95.649 44.9464 96.2405 44.421L97.1393 43.607C97.8495 42.9719 98.3292 42.1252 98.5074 41.1902L98.5656 40.9218C98.7279 40.0571 98.6232 39.1658 98.244 38.3687L96.548 34.7666L95.6883 33.4678C94.8665 32.2401 94.2605 30.8766 93.8857 29.4462L93.1711 26.7326L90.9121 16.72L102.124 43.7381L85.3898 50.6819Z" fill="#273AAA" stroke="#273AAA" stroke-miterlimit="10"/>
<path d="M21.7045 68.9422L20.6023 62.8016C20.4594 61.9784 20.2008 61.1887 19.8488 60.4347L18.135 56.7859L16.4861 53.0268C15.868 51.6037 15.3806 50.1306 15.0277 48.617L14.6818 47.122C14.3793 45.8246 13.905 44.582 13.2662 43.413C12.5836 42.1857 12.6147 40.6967 13.3451 39.4974C13.9341 38.5448 14.7746 37.7744 15.776 37.2851L23.8933 33.3413C24.1909 33.1956 24.4649 33.0161 24.7282 32.8085L26.0607 31.7005L9.15851 38.7085L21.701 68.9329" fill="#273AAA"/>
<path d="M21.7045 68.9422L20.6023 62.8016C20.4594 61.9784 20.2008 61.1887 19.8488 60.4347L18.135 56.7859L16.4861 53.0268C15.868 51.6037 15.3806 50.1306 15.0277 48.617L14.6818 47.122C14.3793 45.8246 13.905 44.582 13.2662 43.413C12.5836 42.1857 12.6147 40.6967 13.3451 39.4974C13.9341 38.5448 14.7746 37.7744 15.776 37.2851L23.8933 33.3413C24.1909 33.1956 24.4649 33.0161 24.7282 32.8085L26.0607 31.7005L9.15851 38.7085L21.701 68.9329" stroke="#273AAA" stroke-miterlimit="10"/>
</g>
<path d="M33.1435 72.3535L93.1636 47.4539C97.8874 45.4942 100.128 40.0762 98.1685 35.3524L89.838 15.2718C87.8783 10.548 82.4603 8.30727 77.7365 10.267L17.7164 35.1665C12.9926 37.1262 10.7518 42.5442 12.7115 47.268L21.042 67.3486C23.0017 72.0724 28.4197 74.3132 33.1435 72.3535Z" stroke="#273AAA" stroke-miterlimit="10"/>
<mask id="mask1_577_872" style="mask-type:luminance" maskUnits="userSpaceOnUse" x="88" y="37" width="6" height="6">
<path d="M91.3212 42.4517C92.7507 42.1132 93.6352 40.6799 93.2967 39.2503C92.9582 37.8208 91.5249 36.9363 90.0954 37.2748C88.6658 37.6133 87.7814 39.0466 88.1199 40.4761C88.4583 41.9057 89.8916 42.7902 91.3212 42.4517Z" fill="white"/>
</mask>
<g mask="url(#mask1_577_872)">
<path d="M91.6479 41.475C91.5377 41.6348 91.3816 41.7586 91.2076 41.8357L89.1101 42.8183L94.853 41.1507L92.9924 36.8088L90.2288 37.1679L91.2601 37.5984C91.7564 37.805 92.1798 38.1572 92.4903 38.606C92.7335 38.9627 92.8596 39.3213 92.786 39.7454L92.4306 40.6089C92.1921 40.6572 91.8476 41.1847 91.6573 41.4714L91.6479 41.475Z" fill="#273AAA" stroke="#273AAA" stroke-miterlimit="10"/>
</g>
<path d="M91.3212 42.4517C92.7507 42.1132 93.6352 40.6799 93.2967 39.2503C92.9582 37.8208 91.5249 36.9363 90.0954 37.2748C88.6658 37.6133 87.7814 39.0466 88.1199 40.4761C88.4583 41.9057 89.8916 42.7902 91.3212 42.4517Z" fill="#273AAA" stroke="#273AAA" stroke-miterlimit="10"/>
<mask id="mask2_577_872" style="mask-type:luminance" maskUnits="userSpaceOnUse" x="79" y="40" width="7" height="7">
<path d="M79.9412 44.4555C80.465 45.828 82.0024 46.5159 83.3749 45.9921C84.7474 45.4682 85.4353 43.9309 84.9114 42.5584C84.3876 41.1859 82.8503 40.498 81.4778 41.0218C80.1053 41.5457 79.4173 43.083 79.9412 44.4555Z" fill="white"/>
</mask>
<g mask="url(#mask2_577_872)">
<path d="M79.5314 43.8305L80.4862 44.986C80.6501 45.1911 80.9047 45.2972 81.1703 45.2922C81.5027 45.2937 81.8277 45.4159 82.0841 45.6391C82.4194 45.9286 82.888 46.0066 83.3049 45.8368L83.4076 45.7976C83.6937 45.6777 83.9183 45.4528 84.0418 45.1595L84.2137 44.7407L84.3026 44.5248C84.4745 44.1059 84.4707 43.6471 84.3009 43.2303C84.1489 42.8602 84.109 42.4472 84.1804 42.0454L84.5179 40.3217L86.7949 45.8105L81.3061 48.0875L80.3543 45.4538" fill="#273AAA"/>
<path d="M79.5314 43.8305L80.4862 44.986C80.6501 45.1911 80.9047 45.2972 81.1703 45.2922C81.5027 45.2937 81.8277 45.4159 82.0841 45.6391C82.4194 45.9286 82.888 46.0066 83.3049 45.8368L83.4076 45.7976C83.6937 45.6777 83.9183 45.4528 84.0418 45.1595L84.2137 44.7407L84.3026 44.5248C84.4745 44.1059 84.4707 43.6471 84.3009 43.2303C84.1489 42.8602 84.109 42.4472 84.1804 42.0454L84.5179 40.3217L86.7949 45.8105L81.3061 48.0875L80.3543 45.4538" stroke="#273AAA" stroke-miterlimit="10"/>
</g>
<path d="M79.9412 44.4555C80.465 45.828 82.0024 46.5159 83.3749 45.9921C84.7474 45.4682 85.4353 43.9309 84.9114 42.5584C84.3876 41.1859 82.8503 40.498 81.4778 41.0218C80.1053 41.5457 79.4173 43.083 79.9412 44.4555Z" stroke="#273AAA" stroke-miterlimit="10"/>
<path d="M90.0906 45.1627L87.6153 46.1932L87.9857 47.0793L87.1317 46.9451L86.1219 46.7953L86.735 45.9619L87.2343 45.2789L87.6153 46.1932L90.0871 45.1534L90.0906 45.1627Z" fill="#273AAA" stroke="#273AAA" stroke-width="0.75" stroke-miterlimit="10"/>
<path d="M82.3854 48.3071L79.9101 49.3375L80.2805 50.2237L79.4394 50.0952L78.4167 49.9397L79.0298 49.1063L79.5291 48.4233L79.9101 49.3375L82.3818 48.2978L82.3854 48.3071Z" fill="#273AAA" stroke="#273AAA" stroke-width="0.75" stroke-miterlimit="10"/>
<path d="M74.468 51.5967L71.9798 52.6213L72.3501 53.5075L71.509 53.379L70.4992 53.2293L71.1088 52.3865L71.6081 51.7036L71.9798 52.6213L74.4551 51.5909L74.468 51.5967Z" fill="#273AAA" stroke="#273AAA" stroke-width="0.75" stroke-miterlimit="10"/>
<path d="M66.9994 54.8006L64.5241 55.831L64.8945 56.7172L64.0534 56.5887L63.0307 56.4331L63.6438 55.5997L64.1431 54.9168L64.5241 55.831L66.9959 54.7912L66.9994 54.8006Z" fill="#273AAA" stroke="#273AAA" stroke-width="0.75" stroke-miterlimit="10"/>
<path d="M59.3572 57.7175L56.8819 58.748L57.2523 59.6342L56.4018 59.5092L55.3885 59.3501L56.0016 58.5167L56.5009 57.8337L56.8819 58.748L59.3537 57.7082L59.3572 57.7175Z" fill="#273AAA" stroke="#273AAA" stroke-width="0.75" stroke-miterlimit="10"/>
<path d="M52.154 61.0556L49.6787 62.086L50.0397 62.9758L49.1986 62.8473L48.1852 62.6882L48.7983 61.8548L49.2976 61.1718L49.6787 62.086L52.1504 61.0463L52.154 61.0556Z" fill="#273AAA" stroke="#273AAA" stroke-width="0.75" stroke-miterlimit="10"/>
<path d="M44.1568 64.1081L41.6815 65.1385L42.0519 66.0247L41.2014 65.8997L40.188 65.7406L40.8011 64.9072L41.3004 64.2243L41.6815 65.1385L44.1568 64.1081Z" fill="#273AAA" stroke="#273AAA" stroke-width="0.75" stroke-miterlimit="10"/>
<path d="M36.455 67.2618L33.9762 68.2829L34.3465 69.1691L33.5054 69.0406L32.4827 68.885L33.0958 68.0516L33.5951 67.3687L33.9762 68.2829L36.4515 67.2525L36.455 67.2618Z" fill="#273AAA" stroke="#273AAA" stroke-width="0.75" stroke-miterlimit="10"/>
<path d="M25.3428 62.0412L26.1577 59.493L25.2431 59.1999L25.8871 58.6437L26.6649 57.9615L26.9014 58.9737L27.1075 59.7941L26.1577 59.493L25.3464 62.0505L25.3428 62.0412Z" fill="#273AAA" stroke="#273AAA" stroke-width="0.75" stroke-miterlimit="10"/>
<path d="M26.3675 55.7523L25.3465 53.2734L24.4603 53.6438L24.5852 52.7933L24.7443 51.78L25.5777 52.3931L26.2607 52.8924L25.3465 53.2734L26.3769 55.7487L26.3675 55.7523Z" fill="#273AAA" stroke="#273AAA" stroke-width="0.75" stroke-miterlimit="10"/>
<path d="M22.9533 49.7235L20.6767 48.3018L20.1735 49.1147L19.7863 48.3527L19.3292 47.4354L20.3616 47.4481L21.2044 47.4689L20.6767 48.3018L22.9533 49.7235Z" fill="#273AAA" stroke="#273AAA" stroke-width="0.75" stroke-miterlimit="10"/>
<path d="M19.0862 38.5263L21.5801 37.4888L21.9505 38.375L22.4591 37.6885L23.0722 36.855L22.0402 36.7031L21.1991 36.5746L21.5801 37.4888L19.0826 38.517L19.0862 38.5263Z" fill="#273AAA" stroke="#273AAA" stroke-width="0.75" stroke-miterlimit="10"/>
<path d="M26.8026 35.2707L29.2966 34.2332L29.6669 35.1194L30.1756 34.4328L30.7887 33.5994L29.7566 33.4475L28.9155 33.3189L29.2966 34.2332L26.799 35.2614L26.8026 35.2707Z" fill="#273AAA" stroke="#273AAA" stroke-width="0.75" stroke-miterlimit="10"/>
<path d="M34.7854 31.9561L37.2701 30.9222L37.6404 31.8083L38.1491 31.1218L38.7622 30.2884L37.7301 30.1364L36.8984 30.0044L37.2701 30.9222L34.7819 31.9468L34.7854 31.9561Z" fill="#273AAA" stroke="#273AAA" stroke-width="0.75" stroke-miterlimit="10"/>
<path d="M42.3719 28.9213L44.8565 27.8873L45.2269 28.7735L45.7355 28.087L46.3486 27.2536L45.3259 27.098L44.4848 26.9695L44.8565 27.8873L42.3683 28.9119L42.3719 28.9213Z" fill="#273AAA" stroke="#273AAA" stroke-width="0.75" stroke-miterlimit="10"/>
<path d="M49.8839 25.551L52.3779 24.5134L52.7482 25.3996L53.2569 24.7131L53.87 23.8797L52.8379 23.7277L51.9968 23.5992L52.3779 24.5134L49.8803 25.5416L49.8839 25.551Z" fill="#273AAA" stroke="#273AAA" stroke-width="0.75" stroke-miterlimit="10"/>
<path d="M57.3807 22.7858L59.8747 21.7483L60.245 22.6345L60.7537 21.948L61.3668 21.1146L60.3348 20.9626L59.4936 20.8341L59.8747 21.7483L57.3771 22.7765L57.3807 22.7858Z" fill="#273AAA" stroke="#273AAA" stroke-width="0.75" stroke-miterlimit="10"/>
<path d="M65.2407 19.2613L67.7347 18.2238L68.105 19.11L68.6137 18.4235L69.2268 17.5901L68.1947 17.4381L67.3536 17.3096L67.7347 18.2238L65.2371 19.252L65.2407 19.2613Z" fill="#273AAA" stroke="#273AAA" stroke-width="0.75" stroke-miterlimit="10"/>
<path d="M72.957 16.0057L75.4545 14.9775L75.8249 15.8637L76.3299 15.1679L76.9466 14.3438L75.911 14.1825L75.0735 14.0633L75.4545 14.9775L72.957 16.0057Z" fill="#273AAA" stroke="#273AAA" stroke-width="0.75" stroke-miterlimit="10"/>
<path d="M85.2638 20.3743L84.6189 22.9753L85.5531 23.2074L84.9492 23.8125L84.2172 24.5308L83.906 23.5471L83.6589 22.7316L84.6189 22.9753L85.2509 20.3685L85.2638 20.3743Z" fill="#273AAA" stroke="#273AAA" stroke-width="0.75" stroke-miterlimit="10"/>
<path d="M84.2618 27.3396L85.2922 29.8149L86.1784 29.4445L86.0405 30.2892L85.8943 31.3083L85.0516 30.6988L84.378 30.1959L85.2922 29.8149L84.2524 27.3431L84.2618 27.3396Z" fill="#273AAA" stroke="#273AAA" stroke-width="0.75" stroke-miterlimit="10"/>
<path d="M87.5014 33.7241L89.9216 34.8768L90.3309 34.0141L90.795 34.7254L91.3607 35.5905L90.3302 35.6949L89.495 35.7782L89.9216 34.8768L87.4957 33.737L87.5014 33.7241Z" fill="#273AAA" stroke="#273AAA" stroke-width="0.75" stroke-miterlimit="10"/>
<mask id="mask3_577_872" style="mask-type:luminance" maskUnits="userSpaceOnUse" x="72" y="44" width="6" height="6">
<path d="M72.317 47.8686C72.8409 49.2411 74.3782 49.9291 75.7507 49.4052C77.1232 48.8813 77.8112 47.344 77.2873 45.9715C76.7634 44.599 75.2261 43.9111 73.8536 44.4349C72.4811 44.9588 71.7932 46.4961 72.317 47.8686Z" fill="white"/>
</mask>
<g mask="url(#mask3_577_872)">
<path d="M73.8637 44.1528L72.9367 45.3415C72.7811 45.5508 72.7323 45.8156 72.7783 46.0763C72.8492 46.4024 72.7974 46.7433 72.6423 47.038C72.428 47.4302 72.4577 47.9005 72.7138 48.2631L72.7811 48.3551C72.9628 48.6069 73.233 48.782 73.533 48.8388L73.9794 48.9146L74.209 48.9554C74.6554 49.0312 75.1101 48.9326 75.4726 48.6765C75.8013 48.444 76.1915 48.3164 76.6022 48.2988L78.3635 48.2581L73.5028 51.6761L70.0848 46.8154L72.4449 45.3151" fill="#273AAA"/>
<path d="M73.8637 44.1528L72.9367 45.3415C72.7811 45.5508 72.7323 45.8156 72.7783 46.0763C72.8492 46.4024 72.7974 46.7433 72.6423 47.038C72.428 47.4302 72.4577 47.9005 72.7138 48.2631L72.7811 48.3551C72.9628 48.6069 73.233 48.782 73.533 48.8388L73.9794 48.9146L74.209 48.9554C74.6554 49.0312 75.1101 48.9326 75.4726 48.6765C75.8013 48.444 76.1915 48.3164 76.6022 48.2988L78.3635 48.2581L73.5028 51.6761L70.0848 46.8154L72.4449 45.3151" stroke="#273AAA" stroke-miterlimit="10"/>
</g>
<path d="M72.317 47.8686C72.8409 49.2411 74.3782 49.9291 75.7507 49.4052C77.1232 48.8813 77.8112 47.344 77.2873 45.9715C76.7634 44.599 75.2261 43.9111 73.8536 44.4349C72.4811 44.9588 71.7932 46.4961 72.317 47.8686Z" stroke="#273AAA" stroke-miterlimit="10"/>
<mask id="mask4_577_872" style="mask-type:luminance" maskUnits="userSpaceOnUse" x="64" y="47" width="7" height="6">
<path d="M68.0162 52.3459C69.4458 52.0074 70.3303 50.5741 69.9918 49.1446C69.6533 47.715 68.22 46.8306 66.7905 47.1691C65.3609 47.5075 64.4764 48.9408 64.8149 50.3704C65.1534 51.7999 66.5867 52.6844 68.0162 52.3459Z" fill="white"/>
</mask>
<g mask="url(#mask4_577_872)">
<path d="M68.35 51.3844C68.2397 51.5442 68.0836 51.668 67.9097 51.7451L65.8121 52.7277L71.5551 51.0602L69.6944 46.7182L66.9308 47.0773L67.9621 47.5078C68.4584 47.7144 68.8818 48.0666 69.1923 48.5154C69.4355 48.8721 69.5616 49.2307 69.488 49.6549L69.1326 50.5184C68.8941 50.5666 68.5496 51.0941 68.3593 51.3808L68.35 51.3844Z" fill="#273AAA" stroke="#273AAA" stroke-miterlimit="10"/>
</g>
<path d="M68.0161 52.3459C69.4457 52.0074 70.3301 50.5741 69.9917 49.1446C69.6532 47.715 68.2199 46.8306 66.7903 47.1691C65.3608 47.5075 64.4763 48.9408 64.8148 50.3704C65.1533 51.7999 66.5866 52.6844 68.0161 52.3459Z" stroke="#273AAA" stroke-miterlimit="10"/>
<mask id="mask5_577_872" style="mask-type:luminance" maskUnits="userSpaceOnUse" x="57" y="50" width="6" height="6">
<path d="M60.7037 55.3846C62.1333 55.0461 63.0178 53.6128 62.6793 52.1833C62.3408 50.7537 60.9075 49.8692 59.478 50.2077C58.0484 50.5462 57.1639 51.9795 57.5024 53.409C57.8409 54.8386 59.2742 55.7231 60.7037 55.3846Z" fill="white"/>
</mask>
<g mask="url(#mask5_577_872)">
<path d="M61.0384 54.4106C60.9282 54.5704 60.7721 54.6942 60.5981 54.7713L58.5006 55.7539L64.2435 54.0864L62.3829 49.7444L59.6193 50.1035L60.6506 50.5341C61.1469 50.7407 61.5703 51.0928 61.8808 51.5416C62.124 51.8984 62.2501 52.2569 62.1765 52.6811L61.8211 53.5446C61.5826 53.5928 61.2381 54.1203 61.0478 54.407L61.0384 54.4106Z" fill="#273AAA" stroke="#273AAA" stroke-miterlimit="10"/>
</g>
<path d="M60.7036 55.3846C62.1332 55.0461 63.0176 53.6128 62.6792 52.1833C62.3407 50.7537 60.9074 49.8692 59.4778 50.2077C58.0483 50.5462 57.1638 51.9795 57.5023 53.409C57.8408 54.8386 59.2741 55.7231 60.7036 55.3846Z" stroke="#273AAA" stroke-miterlimit="10"/>
<mask id="mask6_577_872" style="mask-type:luminance" maskUnits="userSpaceOnUse" x="49" y="53" width="7" height="6">
<path d="M52.963 58.5207C54.3926 58.1823 55.277 56.749 54.9386 55.3194C54.6001 53.8899 53.1668 53.0054 51.7372 53.3439C50.3077 53.6824 49.4232 55.1157 49.7617 56.5452C50.1002 57.9748 51.5335 58.8592 52.963 58.5207Z" fill="white"/>
</mask>
<g mask="url(#mask6_577_872)">
<path d="M53.2981 57.547C53.1878 57.7068 53.0317 57.8306 52.8578 57.9077L50.7603 58.8903L56.5032 57.2227L54.6425 52.8808L51.8789 53.2399L52.9102 53.6704C53.4065 53.877 53.83 54.2292 54.1404 54.678C54.3836 55.0347 54.5098 55.3933 54.4362 55.8175L54.0807 56.681C53.8422 56.7292 53.4977 57.2567 53.3074 57.5434L53.2981 57.547Z" fill="#273AAA" stroke="#273AAA" stroke-miterlimit="10"/>
</g>
<path d="M52.9629 58.5207C54.3924 58.1823 55.2769 56.749 54.9384 55.3194C54.5999 53.8899 53.1667 53.0054 51.7371 53.3439C50.3076 53.6824 49.4231 55.1157 49.7616 56.5452C50.1001 57.9748 51.5333 58.8592 52.9629 58.5207Z" stroke="#273AAA" stroke-miterlimit="10"/>
<mask id="mask7_577_872" style="mask-type:luminance" maskUnits="userSpaceOnUse" x="42" y="56" width="6" height="6">
<path d="M45.6502 61.5581C47.0797 61.2196 47.9642 59.7864 47.6257 58.3568C47.2872 56.9273 45.8539 56.0428 44.4244 56.3813C42.9948 56.7198 42.1103 58.153 42.4488 59.5826C42.7873 61.0121 44.2206 61.8966 45.6502 61.5581Z" fill="white"/>
</mask>
<g mask="url(#mask7_577_872)">
<path d="M45.9808 60.5861C45.8706 60.7459 45.7145 60.8697 45.5405 60.9468L43.443 61.9294L49.1859 60.2619L47.3253 55.9199L44.5616 56.279L45.593 56.7096C46.0893 56.9162 46.5127 57.2683 46.8231 57.7171C47.0663 58.0739 47.1925 58.4324 47.1189 58.8566L46.7635 59.7201C46.525 59.7683 46.1804 60.2958 45.9902 60.5825L45.9808 60.5861Z" fill="#273AAA" stroke="#273AAA" stroke-miterlimit="10"/>
</g>
<path d="M45.65 61.5582C47.0796 61.2197 47.9641 59.7864 47.6256 58.3568C47.2871 56.9273 45.8538 56.0428 44.4242 56.3813C42.9947 56.7198 42.1102 58.1531 42.4487 59.5826C42.7872 61.0122 44.2205 61.8967 45.65 61.5582Z" stroke="#273AAA" stroke-miterlimit="10"/>
<mask id="mask8_577_872" style="mask-type:luminance" maskUnits="userSpaceOnUse" x="35" y="59" width="6" height="6">
<path d="M38.1236 64.6418C39.5758 64.42 40.5733 63.063 40.3516 61.6107C40.1298 60.1585 38.7728 59.161 37.3206 59.3827C35.8683 59.6045 34.8708 60.9615 35.0925 62.4137C35.3143 63.866 36.6713 64.8635 38.1236 64.6418Z" fill="white"/>
</mask>
<g mask="url(#mask8_577_872)">
<path d="M36.0334 62.8202C35.8794 62.697 35.7649 62.5373 35.7065 62.3562L34.9014 60.191L36.0991 66.049L40.5766 64.5434L40.4386 61.7702L39.9177 62.7611C39.6724 63.2401 39.2873 63.6333 38.8113 63.9006C38.4346 64.1193 38.0653 64.2175 37.6456 64.0994L36.8203 63.6758C36.7943 63.4395 36.2992 63.0398 36.0276 62.8331L36.0334 62.8202Z" fill="#273AAA" stroke="#273AAA" stroke-miterlimit="10"/>
</g>
<path d="M38.1234 64.6417C39.5757 64.42 40.5732 63.063 40.3515 61.6107C40.1297 60.1585 38.7727 59.1609 37.3204 59.3827C35.8682 59.6044 34.8707 60.9615 35.0924 62.4137C35.3142 63.8659 36.6712 64.8635 38.1234 64.6417Z" stroke="#273AAA" stroke-miterlimit="10"/>
<mask id="mask9_577_872" style="mask-type:luminance" maskUnits="userSpaceOnUse" x="26" y="62" width="6" height="6">
<path d="M29.9105 67.9022C31.3401 67.5637 32.2246 66.1304 31.8861 64.7009C31.5476 63.2713 30.1143 62.3869 28.6847 62.7254C27.2552 63.0639 26.3707 64.4971 26.7092 65.9267C27.0477 67.3562 28.481 68.2407 29.9105 67.9022Z" fill="white"/>
</mask>
<g mask="url(#mask9_577_872)">
<path d="M30.2498 66.9329C30.1395 67.0928 29.9834 67.2166 29.8094 67.2937L27.7119 68.2762L33.4548 66.6087L31.5942 62.2668L28.8306 62.6259L29.8619 63.0564C30.3582 63.263 30.7816 63.6152 31.0921 64.064C31.3353 64.4207 31.4614 64.7793 31.3878 65.2034L31.0324 66.0669C30.7939 66.1151 30.4494 66.6427 30.2591 66.9294L30.2498 66.9329Z" fill="#273AAA" stroke="#273AAA" stroke-miterlimit="10"/>
</g>
<path d="M81.6935 36.9224C83.0701 37.4354 84.6019 36.7353 85.1149 35.3587C85.6279 33.9821 84.9279 32.4503 83.5513 31.9373C82.1747 31.4243 80.6428 32.1243 80.1298 33.5009C79.6168 34.8775 80.3169 36.4094 81.6935 36.9224Z" fill="#273AAA" stroke="#273AAA" stroke-miterlimit="10"/>
<path d="M29.9105 67.9022C31.3401 67.5637 32.2246 66.1304 31.8861 64.7009C31.5476 63.2713 30.1143 62.3869 28.6847 62.7254C27.2552 63.0639 26.3707 64.4971 26.7092 65.9267C27.0477 67.3562 28.481 68.2407 29.9105 67.9022Z" stroke="#273AAA" stroke-miterlimit="10"/>
<mask id="mask10_577_872" style="mask-type:luminance" maskUnits="userSpaceOnUse" x="79" y="31" width="7" height="7">
<path d="M81.6934 36.9224C83.07 37.4354 84.6018 36.7353 85.1148 35.3587C85.6278 33.9821 84.9277 32.4503 83.5511 31.9373C82.1745 31.4243 80.6427 32.1243 80.1297 33.5009C79.6167 34.8775 80.3168 36.4094 81.6934 36.9224Z" fill="white"/>
</mask>
<g mask="url(#mask10_577_872)">
<path d="M80.7539 34.33C80.6861 34.1525 80.6651 33.9572 80.6979 33.7627L81.0462 31.4783L79.2396 37.1772L83.8819 38.0384L85.1138 35.5452L84.1811 36.1581C83.7287 36.4592 83.2006 36.618 82.6657 36.6187C82.2292 36.6248 81.8611 36.5298 81.5539 36.2296L81.0332 35.4544C81.122 35.2385 80.8845 34.6441 80.7539 34.33Z" fill="#273AAA" stroke="#273AAA" stroke-miterlimit="10"/>
</g>
<mask id="mask11_577_872" style="mask-type:luminance" maskUnits="userSpaceOnUse" x="78" y="14" width="7" height="7">
<path d="M81.9548 19.9347C83.3844 19.5962 84.2689 18.1629 83.9304 16.7334C83.5919 15.3038 82.1586 14.4194 80.7291 14.7579C79.2995 15.0964 78.415 16.5296 78.7535 17.9592C79.092 19.3887 80.5253 20.2732 81.9548 19.9347Z" fill="white"/>
</mask>
<g mask="url(#mask11_577_872)">
<path d="M82.298 18.9696C82.1877 19.1294 82.0316 19.2532 81.8577 19.3303L79.7601 20.3129L85.5031 18.6454L83.6424 14.3034L80.8788 14.6625L81.9101 15.0931C82.4064 15.2997 82.8298 15.6518 83.1403 16.1006C83.3835 16.4573 83.5096 16.8159 83.436 17.2401L83.0806 18.1036C82.8421 18.1518 82.4976 18.6793 82.3073 18.966L82.298 18.9696Z" fill="#273AAA" stroke="#273AAA" stroke-miterlimit="10"/>
</g>
<path d="M81.9548 19.9347C83.3844 19.5962 84.2689 18.1629 83.9304 16.7334C83.5919 15.3038 82.1586 14.4194 80.7291 14.7579C79.2995 15.0964 78.415 16.5296 78.7535 17.9592C79.092 19.3887 80.5253 20.2732 81.9548 19.9347Z" stroke="#273AAA" stroke-miterlimit="10"/>
<mask id="mask12_577_872" style="mask-type:luminance" maskUnits="userSpaceOnUse" x="70" y="18" width="6" height="6">
<path d="M70.5912 21.9501C71.1151 23.3226 72.6524 24.0106 74.0249 23.4867C75.3974 22.9628 76.0853 21.4255 75.5615 20.053C75.0376 18.6805 73.5003 17.9926 72.1278 18.5164C70.7553 19.0403 70.0673 20.5776 70.5912 21.9501Z" fill="white"/>
</mask>
<g mask="url(#mask12_577_872)">
<path d="M70.1778 21.3158L71.1327 22.4713C71.2965 22.6763 71.5511 22.7825 71.8168 22.7775C72.1492 22.779 72.4741 22.9012 72.7306 23.1244C73.0659 23.4139 73.5345 23.4919 73.9513 23.3221L74.0541 23.2829C74.3402 23.163 74.5647 22.9381 74.6883 22.6448L74.8602 22.2259L74.9491 22.0101C75.121 21.5912 75.1172 21.1324 74.9474 20.7156C74.7954 20.3454 74.7555 19.9325 74.8269 19.5306L75.1644 17.807L77.4414 23.2958L71.9525 25.5728L71.0008 22.9391" fill="#273AAA"/>
<path d="M70.1778 21.3158L71.1327 22.4713C71.2965 22.6763 71.5511 22.7825 71.8168 22.7775C72.1492 22.779 72.4741 22.9012 72.7306 23.1244C73.0659 23.4139 73.5345 23.4919 73.9513 23.3221L74.0541 23.2829C74.3402 23.163 74.5647 22.9381 74.6883 22.6448L74.8602 22.2259L74.9491 22.0101C75.121 21.5912 75.1172 21.1324 74.9474 20.7156C74.7954 20.3454 74.7555 19.9325 74.8269 19.5306L75.1644 17.807L77.4414 23.2958L71.9525 25.5728L71.0008 22.9391" stroke="#273AAA" stroke-miterlimit="10"/>
</g>
<path d="M70.5912 21.9501C71.1151 23.3226 72.6524 24.0106 74.0249 23.4867C75.3974 22.9628 76.0853 21.4255 75.5615 20.053C75.0376 18.6805 73.5003 17.9926 72.1278 18.5164C70.7553 19.0403 70.0673 20.5776 70.5912 21.9501Z" stroke="#273AAA" stroke-miterlimit="10"/>
<mask id="mask13_577_872" style="mask-type:luminance" maskUnits="userSpaceOnUse" x="63" y="21" width="6" height="6">
<path d="M63.573 25.0999C64.0969 26.4724 65.6342 27.1603 67.0067 26.6365C68.3792 26.1126 69.0671 24.5753 68.5433 23.2028C68.0194 21.8303 66.4821 21.1423 65.1096 21.6662C63.7371 22.1901 63.0491 23.7274 63.573 25.0999Z" fill="white"/>
</mask>
<g mask="url(#mask13_577_872)">
<path d="M65.1232 21.3934L64.1962 22.5821C64.0406 22.7914 63.9918 23.0562 64.0378 23.3169C64.1088 23.643 64.0569 23.9839 63.9018 24.2786C63.6876 24.6708 63.7172 25.1411 63.9733 25.5037L64.0406 25.5957C64.2223 25.8475 64.4925 26.0226 64.7925 26.0794L65.2389 26.1552L65.4685 26.196C65.9149 26.2718 66.3696 26.1732 66.7321 25.9171C67.0608 25.6846 67.451 25.557 67.8617 25.5394L69.623 25.4987L64.7623 28.9167L61.3443 24.056L63.7045 22.5557" fill="#273AAA"/>
<path d="M65.1232 21.3934L64.1962 22.5821C64.0406 22.7914 63.9918 23.0562 64.0378 23.3169C64.1088 23.643 64.0569 23.9839 63.9018 24.2786C63.6876 24.6708 63.7172 25.1411 63.9733 25.5037L64.0406 25.5957C64.2223 25.8475 64.4925 26.0226 64.7925 26.0794L65.2389 26.1552L65.4685 26.196C65.9149 26.2718 66.3696 26.1732 66.7321 25.9171C67.0608 25.6846 67.451 25.557 67.8617 25.5394L69.623 25.4987L64.7623 28.9167L61.3443 24.056L63.7045 22.5557" stroke="#273AAA" stroke-miterlimit="10"/>
</g>
<path d="M63.573 25.0999C64.0969 26.4724 65.6342 27.1603 67.0067 26.6365C68.3792 26.1126 69.0671 24.5753 68.5433 23.2028C68.0194 21.8303 66.4821 21.1423 65.1096 21.6662C63.7371 22.1901 63.0491 23.7274 63.573 25.0999Z" stroke="#273AAA" stroke-miterlimit="10"/>
<mask id="mask14_577_872" style="mask-type:luminance" maskUnits="userSpaceOnUse" x="55" y="24" width="6" height="6">
<path d="M58.6535 29.8383C60.083 29.4998 60.9675 28.0665 60.629 26.637C60.2905 25.2074 58.8572 24.323 57.4277 24.6615C55.9981 25 55.1136 26.4332 55.4521 27.8628C55.7906 29.2923 57.2239 30.1768 58.6535 29.8383Z" fill="white"/>
</mask>
<g mask="url(#mask14_577_872)">
<path d="M58.9965 28.8697C58.8862 29.0295 58.7301 29.1533 58.5561 29.2304L56.4586 30.213L62.2015 28.5454L60.3409 24.2035L57.5773 24.5626L58.6086 24.9931C59.1049 25.1997 59.5283 25.5519 59.8388 26.0007C60.082 26.3574 60.2081 26.716 60.1345 27.1401L59.7791 28.0037C59.5406 28.0519 59.1961 28.5794 59.0058 28.8661L58.9965 28.8697Z" fill="#273AAA" stroke="#273AAA" stroke-miterlimit="10"/>
</g>
<path d="M58.6535 29.8383C60.083 29.4998 60.9675 28.0665 60.629 26.637C60.2905 25.2074 58.8572 24.323 57.4277 24.6615C55.9981 25 55.1136 26.4332 55.4521 27.8628C55.7906 29.2923 57.2239 30.1768 58.6535 29.8383Z" stroke="#273AAA" stroke-miterlimit="10"/>
<mask id="mask15_577_872" style="mask-type:luminance" maskUnits="userSpaceOnUse" x="47" y="27" width="6" height="7">
<path d="M50.733 33.1271C52.1626 32.7886 53.0471 31.3553 52.7086 29.9258C52.3701 28.4962 50.9368 27.6117 49.5073 27.9502C48.0777 28.2887 47.1932 29.722 47.5317 31.1515C47.8702 32.5811 49.3035 33.4656 50.733 33.1271Z" fill="white"/>
</mask>
<g mask="url(#mask15_577_872)">
<path d="M51.0697 32.1628C50.9594 32.3227 50.8033 32.4465 50.6294 32.5236L48.5319 33.5061L54.2748 31.8386L52.4141 27.4966L49.6505 27.8558L50.6818 28.2863C51.1781 28.4929 51.6016 28.8451 51.912 29.2939C52.1552 29.6506 52.2814 30.0092 52.2078 30.4333L51.8523 31.2968C51.6138 31.345 51.2693 31.8726 51.079 32.1593L51.0697 32.1628Z" fill="#273AAA" stroke="#273AAA" stroke-miterlimit="10"/>
</g>
<path d="M50.733 33.1271C52.1626 32.7886 53.0471 31.3553 52.7086 29.9258C52.3701 28.4962 50.9368 27.6118 49.5073 27.9502C48.0777 28.2887 47.1932 29.722 47.5317 31.1516C47.8702 32.5811 49.3035 33.4656 50.733 33.1271Z" stroke="#273AAA" stroke-miterlimit="10"/>
<mask id="mask16_577_872" style="mask-type:luminance" maskUnits="userSpaceOnUse" x="39" y="31" width="7" height="6">
<path d="M43.0017 36.2597C44.4313 35.9212 45.3157 34.4879 44.9773 33.0584C44.6388 31.6288 43.2055 30.7444 41.7759 31.0828C40.3464 31.4213 39.4619 32.8546 39.8004 34.2842C40.1389 35.7137 41.5722 36.5982 43.0017 36.2597Z" fill="white"/>
</mask>
<g mask="url(#mask16_577_872)">
<path d="M43.3386 35.2957C43.2284 35.4555 43.0722 35.5793 42.8983 35.6564L40.8008 36.639L46.5437 34.9714L44.6831 30.6295L41.9194 30.9886L42.9508 31.4191C43.4471 31.6257 43.8705 31.9779 44.1809 32.4267C44.4241 32.7834 44.5503 33.142 44.4767 33.5661L44.1213 34.4297C43.8828 34.4779 43.5382 35.0054 43.348 35.2921L43.3386 35.2957Z" fill="#273AAA" stroke="#273AAA" stroke-miterlimit="10"/>
</g>
<path d="M43.0016 36.2597C44.4311 35.9212 45.3156 34.4879 44.9771 33.0584C44.6386 31.6288 43.2054 30.7444 41.7758 31.0828C40.3463 31.4213 39.4618 32.8546 39.8003 34.2842C40.1388 35.7137 41.572 36.5982 43.0016 36.2597Z" stroke="#273AAA" stroke-miterlimit="10"/>
<mask id="mask17_577_872" style="mask-type:luminance" maskUnits="userSpaceOnUse" x="32" y="34" width="6" height="6">
<path d="M35.6892 39.2984C37.1188 38.9599 38.0032 37.5266 37.6648 36.097C37.3263 34.6675 35.893 33.783 34.4634 34.1215C33.0339 34.46 32.1494 35.8933 32.4879 37.3228C32.8264 38.7524 34.2597 39.6369 35.6892 39.2984Z" fill="white"/>
</mask>
<g mask="url(#mask17_577_872)">
<path d="M36.0177 38.3255C35.9074 38.4853 35.7513 38.6091 35.5774 38.6862L33.4799 39.6687L39.2228 38.0012L37.3621 33.6593L34.5985 34.0184L35.6298 34.4489C36.1261 34.6555 36.5496 35.0077 36.86 35.4565C37.1032 35.8132 37.2294 36.1718 37.1558 36.5959L36.8003 37.4594C36.5618 37.5077 36.2173 38.0352 36.027 38.3219L36.0177 38.3255Z" fill="#273AAA" stroke="#273AAA" stroke-miterlimit="10"/>
</g>
<path d="M35.6891 39.2984C37.1186 38.9599 38.0031 37.5266 37.6646 36.097C37.3261 34.6675 35.8929 33.783 34.4633 34.1215C33.0338 34.46 32.1493 35.8933 32.4878 37.3228C32.8263 38.7524 34.2595 39.6369 35.6891 39.2984Z" stroke="#273AAA" stroke-miterlimit="10"/>
<mask id="mask18_577_872" style="mask-type:luminance" maskUnits="userSpaceOnUse" x="25" y="37" width="6" height="6">
<path d="M28.1518 42.3834C29.604 42.1617 30.6015 40.8047 30.3798 39.3524C30.158 37.9002 28.801 36.9026 27.3488 37.1244C25.8965 37.3461 24.899 38.7032 25.1207 40.1554C25.3425 41.6077 26.6995 42.6052 28.1518 42.3834Z" fill="white"/>
</mask>
<g mask="url(#mask18_577_872)">
<path d="M26.0645 40.5724C25.9105 40.4492 25.796 40.2895 25.7376 40.1085L24.9326 37.9432L26.1303 43.8012L30.6077 42.2956L30.4698 39.5225L29.9489 40.5134C29.7035 40.9923 29.3184 41.3855 28.8424 41.6528C28.4657 41.8716 28.0964 41.9697 27.6767 41.8516L26.8514 41.428C26.8254 41.1918 26.3303 40.792 26.0588 40.5853L26.0645 40.5724Z" fill="#273AAA" stroke="#273AAA" stroke-miterlimit="10"/>
</g>
<path d="M28.1518 42.3834C29.604 42.1617 30.6015 40.8046 30.3798 39.3524C30.158 37.9001 28.801 36.9026 27.3488 37.1244C25.8965 37.3461 24.899 38.7031 25.1207 40.1554C25.3425 41.6076 26.6995 42.6051 28.1518 42.3834Z" stroke="#273AAA" stroke-miterlimit="10"/>
<mask id="mask19_577_872" style="mask-type:luminance" maskUnits="userSpaceOnUse" x="17" y="40" width="6" height="6">
<path d="M20.5595 45.4008C21.989 45.0623 22.8735 43.629 22.535 42.1995C22.1965 40.7699 20.7632 39.8854 19.3337 40.2239C17.9041 40.5624 17.0196 41.9957 17.3581 43.4253C17.6966 44.8548 19.1299 45.7393 20.5595 45.4008Z" fill="white"/>
</mask>
<g mask="url(#mask19_577_872)">
<path d="M20.8962 44.4182C20.786 44.5781 20.6299 44.7019 20.4559 44.779L18.3584 45.7615L24.1013 44.094L22.2407 39.752L19.477 40.1112L20.5084 40.5417C21.0047 40.7483 21.4281 41.1005 21.7385 41.5493C21.9817 41.906 22.1079 42.2646 22.0343 42.6887L21.6789 43.5522C21.4404 43.6004 21.0959 44.128 20.9056 44.4147L20.8962 44.4182Z" fill="#273AAA" stroke="#273AAA" stroke-miterlimit="10"/>
</g>
<path d="M20.5593 45.4008C21.9889 45.0623 22.8734 43.629 22.5349 42.1995C22.1964 40.7699 20.7631 39.8854 19.3335 40.2239C17.904 40.5624 17.0195 41.9957 17.358 43.4253C17.6965 44.8548 19.1298 45.7393 20.5593 45.4008Z" stroke="#273AAA" stroke-miterlimit="10"/>
<mask id="mask20_577_872" style="mask-type:luminance" maskUnits="userSpaceOnUse" x="76" y="23" width="6" height="6">
<path d="M78.2618 28.6352C79.6384 29.1482 81.1703 28.4482 81.6833 27.0716C82.1963 25.695 81.4962 24.1631 80.1196 23.6501C78.743 23.1371 77.2112 23.8372 76.6982 25.2138C76.1852 26.5904 76.8853 28.1222 78.2618 28.6352Z" fill="white"/>
</mask>
<g mask="url(#mask20_577_872)">
<path d="M77.3182 26.0295C77.2505 25.852 77.2294 25.6567 77.2622 25.4622L77.6105 23.1778L75.8039 28.8767L80.4462 29.7379L81.6782 27.2447L80.7454 27.8576C80.293 28.1587 79.7649 28.3174 79.23 28.3182C78.7935 28.3243 78.4254 28.2293 78.1182 27.9291L77.5975 27.1538C77.6864 26.938 77.4488 26.3436 77.3182 26.0295Z" fill="#273AAA" stroke="#273AAA" stroke-miterlimit="10"/>
</g>
<path d="M78.2618 28.6352C79.6384 29.1482 81.1703 28.4482 81.6833 27.0716C82.1963 25.695 81.4962 24.1631 80.1196 23.6501C78.743 23.1371 77.2112 23.8372 76.6982 25.2138C76.1852 26.5904 76.8853 28.1222 78.2618 28.6352Z" stroke="#273AAA" stroke-miterlimit="10"/>
<mask id="mask21_577_872" style="mask-type:luminance" maskUnits="userSpaceOnUse" x="29" y="53" width="6" height="6">
<path d="M30.8637 58.5145C32.2402 59.0275 33.7721 58.3275 34.2851 56.9509C34.7981 55.5743 34.098 54.0425 32.7214 53.5294C31.3448 53.0164 29.813 53.7165 29.3 55.0931C28.787 56.4697 29.4871 58.0015 30.8637 58.5145Z" fill="white"/>
</mask>
<g mask="url(#mask21_577_872)">
<path d="M29.9197 55.9164C29.8519 55.7389 29.8309 55.5436 29.8637 55.3491L30.212 53.0647L28.4054 58.7636L33.0477 59.6248L34.2796 57.1316L33.3468 57.7445C32.8945 58.0456 32.3664 58.2043 31.8315 58.2051C31.395 58.2112 31.0269 58.1162 30.7196 57.816L30.1989 57.0407C30.2878 56.8249 30.0502 56.2305 29.9197 55.9164Z" fill="#273AAA" stroke="#273AAA" stroke-miterlimit="10"/>
</g>
<path d="M30.8638 58.5145C32.2404 59.0275 33.7722 58.3275 34.2852 56.9509C34.7982 55.5743 34.0981 54.0425 32.7215 53.5294C31.345 53.0164 29.8131 53.7165 29.3001 55.0931C28.7871 56.4697 29.4872 58.0015 30.8638 58.5145Z" stroke="#273AAA" stroke-miterlimit="10"/>
<mask id="mask22_577_872" style="mask-type:luminance" maskUnits="userSpaceOnUse" x="25" y="45" width="6" height="7">
<path d="M28.2025 51.1096C29.6548 50.8879 30.6523 49.5308 30.4306 48.0786C30.2088 46.6263 28.8518 45.6288 27.3995 45.8505C25.9473 46.0723 24.9498 47.4293 25.1715 48.8816C25.3933 50.3338 26.7503 51.3313 28.2025 51.1096Z" fill="white"/>
</mask>
<g mask="url(#mask22_577_872)">
<path d="M26.1098 49.3C25.9558 49.1769 25.8413 49.0172 25.7829 48.8361L24.9779 46.6709L26.1755 52.5289L30.653 51.0233L30.515 48.2501L29.9941 49.241C29.7488 49.72 29.3637 50.1132 28.8877 50.3805C28.511 50.5992 28.1417 50.6974 27.722 50.5793L26.8967 50.1557C26.8707 49.9194 26.3756 49.5197 26.1041 49.313L26.1098 49.3Z" fill="#273AAA" stroke="#273AAA" stroke-miterlimit="10"/>
</g>
<path d="M28.2025 51.1096C29.6548 50.8878 30.6523 49.5308 30.4306 48.0786C30.2088 46.6263 28.8518 45.6288 27.3995 45.8505C25.9473 46.0723 24.9498 47.4293 25.1715 48.8815C25.3933 50.3338 26.7503 51.3313 28.2025 51.1096Z" stroke="#273AAA" stroke-miterlimit="10"/>
</g>
<mask id="mask23_577_872" style="mask-type:luminance" maskUnits="userSpaceOnUse" x="110" y="14" width="7" height="7">
<path d="M110.949 18.3822C111.472 19.7547 113.01 20.4427 114.382 19.9188C115.755 19.3949 116.443 17.8576 115.919 16.4851C115.395 15.1126 113.858 14.4247 112.485 14.9485C111.113 15.4724 110.425 17.0097 110.949 18.3822Z" fill="white"/>
</mask>
<g mask="url(#mask23_577_872)">
<path d="M110.535 17.7479L111.49 18.9034C111.654 19.1084 111.908 19.2146 112.174 19.2096C112.507 19.2111 112.831 19.3333 113.088 19.5565C113.423 19.846 113.892 19.924 114.309 19.7542L114.411 19.715C114.697 19.5951 114.922 19.3702 115.046 19.0769L115.218 18.658L115.306 18.4422C115.478 18.0233 115.474 17.5645 115.305 17.1477C115.153 16.7775 115.113 16.3646 115.184 15.9627L115.522 14.2391L117.799 19.7279L112.31 22.0049L111.358 19.3712" fill="#273AAA"/>
<path d="M110.535 17.7479L111.49 18.9034C111.654 19.1084 111.908 19.2146 112.174 19.2096C112.507 19.2111 112.831 19.3333 113.088 19.5565C113.423 19.846 113.892 19.924 114.309 19.7542L114.411 19.715C114.697 19.5951 114.922 19.3702 115.046 19.0769L115.218 18.658L115.306 18.4422C115.478 18.0233 115.474 17.5645 115.305 17.1477C115.153 16.7775 115.113 16.3646 115.184 15.9627L115.522 14.2391L117.799 19.7279L112.31 22.0049L111.358 19.3712" stroke="#273AAA" stroke-miterlimit="10"/>
</g>
<path d="M110.949 18.3822C111.472 19.7547 113.01 20.4427 114.382 19.9188C115.755 19.3949 116.443 17.8576 115.919 16.4851C115.395 15.1126 113.858 14.4247 112.485 14.9485C111.113 15.4724 110.425 17.0097 110.949 18.3822Z" stroke="#273AAA" stroke-miterlimit="10"/>
<mask id="mask24_577_872" style="mask-type:luminance" maskUnits="userSpaceOnUse" x="121" y="63" width="7" height="7">
<path d="M121.949 67.3822C122.472 68.7547 124.01 69.4427 125.382 68.9188C126.755 68.3949 127.443 66.8576 126.919 65.4851C126.395 64.1126 124.858 63.4247 123.485 63.9485C122.113 64.4724 121.425 66.0097 121.949 67.3822Z" fill="white"/>
</mask>
<g mask="url(#mask24_577_872)">
<path d="M121.535 66.7479L122.49 67.9034C122.654 68.1084 122.908 68.2146 123.174 68.2096C123.507 68.2111 123.831 68.3333 124.088 68.5565C124.423 68.846 124.892 68.924 125.309 68.7542L125.411 68.715C125.697 68.5951 125.922 68.3702 126.046 68.0769L126.218 67.658L126.306 67.4422C126.478 67.0233 126.474 66.5645 126.305 66.1477C126.153 65.7775 126.113 65.3646 126.184 64.9627L126.522 63.2391L128.799 68.7279L123.31 71.0049L122.358 68.3712" fill="#273AAA"/>
<path d="M121.535 66.7479L122.49 67.9034C122.654 68.1084 122.908 68.2146 123.174 68.2096C123.507 68.2111 123.831 68.3333 124.088 68.5565C124.423 68.846 124.892 68.924 125.309 68.7542L125.411 68.715C125.697 68.5951 125.922 68.3702 126.046 68.0769L126.218 67.658L126.306 67.4422C126.478 67.0233 126.474 66.5645 126.305 66.1477C126.153 65.7775 126.113 65.3646 126.184 64.9627L126.522 63.2391L128.799 68.7279L123.31 71.0049L122.358 68.3712" stroke="#273AAA" stroke-miterlimit="10"/>
</g>
<path d="M121.949 67.3822C122.472 68.7547 124.01 69.4427 125.382 68.9188C126.755 68.3949 127.443 66.8576 126.919 65.4851C126.395 64.1126 124.858 63.4247 123.485 63.9485C122.113 64.4724 121.425 66.0097 121.949 67.3822Z" stroke="#273AAA" stroke-miterlimit="10"/>
<mask id="mask25_577_872" style="mask-type:luminance" maskUnits="userSpaceOnUse" x="217" y="23" width="7" height="7">
<path d="M217.949 27.3822C218.472 28.7547 220.01 29.4427 221.382 28.9188C222.755 28.3949 223.443 26.8576 222.919 25.4851C222.395 24.1126 220.858 23.4247 219.485 23.9485C218.113 24.4724 217.425 26.0097 217.949 27.3822Z" fill="white"/>
</mask>
<g mask="url(#mask25_577_872)">
<path d="M217.535 26.7479L218.49 27.9034C218.654 28.1084 218.908 28.2146 219.174 28.2096C219.507 28.2111 219.831 28.3333 220.088 28.5565C220.423 28.846 220.892 28.924 221.309 28.7542L221.411 28.715C221.697 28.5951 221.922 28.3702 222.046 28.0769L222.218 27.658L222.306 27.4422C222.478 27.0233 222.474 26.5645 222.305 26.1477C222.153 25.7775 222.113 25.3646 222.184 24.9627L222.522 23.2391L224.799 28.7279L219.31 31.0049L218.358 28.3712" fill="#273AAA"/>
<path d="M217.535 26.7479L218.49 27.9034C218.654 28.1084 218.908 28.2146 219.174 28.2096C219.507 28.2111 219.831 28.3333 220.088 28.5565C220.423 28.846 220.892 28.924 221.309 28.7542L221.411 28.715C221.697 28.5951 221.922 28.3702 222.046 28.0769L222.218 27.658L222.306 27.4422C222.478 27.0233 222.474 26.5645 222.305 26.1477C222.153 25.7775 222.113 25.3646 222.184 24.9627L222.522 23.2391L224.799 28.7279L219.31 31.0049L218.358 28.3712" stroke="#273AAA" stroke-miterlimit="10"/>
</g>
<path d="M217.949 27.3822C218.472 28.7547 220.01 29.4427 221.382 28.9188C222.755 28.3949 223.443 26.8576 222.919 25.4851C222.395 24.1126 220.858 23.4247 219.485 23.9485C218.113 24.4724 217.425 26.0097 217.949 27.3822Z" stroke="#273AAA" stroke-miterlimit="10"/>
<mask id="mask26_577_872" style="mask-type:luminance" maskUnits="userSpaceOnUse" x="253" y="42" width="7" height="7">
<path d="M253.949 46.3822C254.472 47.7547 256.01 48.4427 257.382 47.9188C258.755 47.3949 259.443 45.8576 258.919 44.4851C258.395 43.1126 256.858 42.4247 255.485 42.9485C254.113 43.4724 253.425 45.0097 253.949 46.3822Z" fill="white"/>
</mask>
<g mask="url(#mask26_577_872)">
<path d="M253.535 45.7479L254.49 46.9034C254.654 47.1084 254.908 47.2146 255.174 47.2096C255.507 47.2111 255.831 47.3333 256.088 47.5565C256.423 47.846 256.892 47.924 257.309 47.7542L257.411 47.715C257.697 47.5951 257.922 47.3702 258.046 47.0769L258.218 46.658L258.306 46.4422C258.478 46.0233 258.474 45.5645 258.305 45.1477C258.153 44.7775 258.113 44.3646 258.184 43.9627L258.522 42.2391L260.799 47.7279L255.31 50.0049L254.358 47.3712" fill="#273AAA"/>
<path d="M253.535 45.7479L254.49 46.9034C254.654 47.1084 254.908 47.2146 255.174 47.2096C255.507 47.2111 255.831 47.3333 256.088 47.5565C256.423 47.846 256.892 47.924 257.309 47.7542L257.411 47.715C257.697 47.5951 257.922 47.3702 258.046 47.0769L258.218 46.658L258.306 46.4422C258.478 46.0233 258.474 45.5645 258.305 45.1477C258.153 44.7775 258.113 44.3646 258.184 43.9627L258.522 42.2391L260.799 47.7279L255.31 50.0049L254.358 47.3712" stroke="#273AAA" stroke-miterlimit="10"/>
</g>
<path d="M253.949 46.3822C254.472 47.7547 256.01 48.4427 257.382 47.9188C258.755 47.3949 259.443 45.8576 258.919 44.4851C258.395 43.1126 256.858 42.4247 255.485 42.9485C254.113 43.4724 253.425 45.0097 253.949 46.3822Z" stroke="#273AAA" stroke-miterlimit="10"/>
<mask id="mask27_577_872" style="mask-type:luminance" maskUnits="userSpaceOnUse" x="95" y="57" width="7" height="7">
<path d="M95.9485 61.3822C96.4724 62.7547 98.0097 63.4427 99.3822 62.9188C100.755 62.3949 101.443 60.8576 100.919 59.4851C100.395 58.1126 98.8576 57.4247 97.4851 57.9485C96.1126 58.4724 95.4246 60.0097 95.9485 61.3822Z" fill="white"/>
</mask>
<g mask="url(#mask27_577_872)">
<path d="M95.5351 60.7479L96.49 61.9034C96.6538 62.1084 96.9084 62.2146 97.1741 62.2096C97.5065 62.2111 97.8314 62.3333 98.0879 62.5565C98.4232 62.846 98.8918 62.924 99.3086 62.7542L99.4114 62.715C99.6975 62.5951 99.922 62.3702 100.046 62.0769L100.218 61.658L100.306 61.4422C100.478 61.0233 100.474 60.5645 100.305 60.1477C100.153 59.7775 100.113 59.3646 100.184 58.9627L100.522 57.2391L102.799 62.7279L97.3098 65.0049L96.3581 62.3712" fill="#273AAA"/>
<path d="M95.5351 60.7479L96.49 61.9034C96.6538 62.1084 96.9084 62.2146 97.1741 62.2096C97.5065 62.2111 97.8314 62.3333 98.0879 62.5565C98.4232 62.846 98.8918 62.924 99.3086 62.7542L99.4114 62.715C99.6975 62.5951 99.922 62.3702 100.046 62.0769L100.218 61.658L100.306 61.4422C100.478 61.0233 100.474 60.5645 100.305 60.1477C100.153 59.7775 100.113 59.3646 100.184 58.9627L100.522 57.2391L102.799 62.7279L97.3098 65.0049L96.3581 62.3712" stroke="#273AAA" stroke-miterlimit="10"/>
</g>
<path d="M95.9485 61.3822C96.4724 62.7547 98.0097 63.4427 99.3822 62.9188C100.755 62.3949 101.443 60.8576 100.919 59.4851C100.395 58.1126 98.8576 57.4247 97.4851 57.9485C96.1126 58.4724 95.4246 60.0097 95.9485 61.3822Z" stroke="#273AAA" stroke-miterlimit="10"/>
<defs>
<clipPath id="clip0_577_872">
<rect width="49.31" height="48.72" fill="white" transform="translate(155.174 8) rotate(51.5861)"/>
</clipPath>
<clipPath id="clip1_577_872">
<rect width="43.12" height="85.1" fill="white" transform="translate(87.5054 6) rotate(69.1087)"/>
</clipPath>
</defs>
</svg>
