<svg width="60" height="115" viewBox="0 0 60 115" fill="none" xmlns="http://www.w3.org/2000/svg">
<g clip-path="url(#clip0_159_309)">
<path d="M24.45 1.58999C26.76 1.58999 28.94 2.56999 30.47 4.28999L31.53 10.61C31.81 12.29 31.69 14.05 31.18 15.68L28.96 22.76L22.84 43.03L17.85 52.3C15.47 56.72 15.27 62.09 17.31 66.67L19.28 72.28V72.32L19.31 72.36C20.16 74.26 21.98 75.43 24.06 75.43C25.69 75.43 27.18 74.69 28.17 73.4L29.87 71.78C32.49 69.29 33.55 65.56 32.62 62.06L31.5 57.81C31.17 56.54 31.31 55.19 31.89 54.02L33.03 51.75C33.8 50.21 35.19 49.11 36.87 48.72L39.43 49.17C41.77 49.58 43.69 51.2 44.49 53.43L44.31 58.63L42.54 63.94L36.47 74.87L32.08 80.49C30.06 83.07 29.84 86.7 31.53 89.51L31.93 90.17C32.94 91.86 34.8 92.9 36.76 92.9C36.86 92.9 36.96 92.9 37.06 92.9L45.81 92.44L54.76 94.83C56.54 95.9 57.89 98.24 58.28 100.97C58.65 103.56 58.07 105.94 56.73 107.32C53.35 110.79 48.64 112.78 43.8 112.78C42.62 112.78 41.43 112.66 40.26 112.43L37.36 111.85C36.01 111.58 34.76 110.95 33.74 110.04L16.96 94.97C15.48 93.64 14.32 92.06 13.51 90.25L5.03 71.46L1.37 50.16V30.08L6.2 15.59L10.09 9.75999C12.17 6.62999 15.28 4.25999 18.85 3.06999L21.91 2.04999C22.73 1.77999 23.59 1.63999 24.46 1.63999M24.45 0.589992C23.49 0.589992 22.53 0.739992 21.59 1.04999L18.53 2.06999C14.74 3.32999 11.48 5.82999 9.26 9.14999L5.3 15.09L0.380005 29.87V50.2L4.07 71.71L12.6 90.61C13.47 92.53 14.73 94.25 16.3 95.66L33.08 110.73C34.24 111.77 35.65 112.48 37.17 112.78L40.07 113.36C41.31 113.61 42.56 113.73 43.8 113.73C48.89 113.73 53.82 111.69 57.44 107.97C60.91 104.4 59.48 96.31 55.14 93.86L45.91 91.4L37 91.87C36.92 91.87 36.84 91.87 36.76 91.87C35.14 91.87 33.63 91.02 32.78 89.62L32.38 88.96C30.89 86.49 31.08 83.35 32.86 81.07L37.29 75.39L43.44 64.31L45.29 58.77L45.48 53.24C44.61 50.58 42.34 48.62 39.59 48.14L36.84 47.66C34.8 48.07 33.06 49.4 32.13 51.26L30.99 53.53C30.29 54.92 30.13 56.52 30.52 58.03L31.64 62.28C32.47 65.43 31.52 68.78 29.16 71.02L27.4 72.69C26.55 73.84 25.29 74.39 24.03 74.39C22.47 74.39 20.92 73.53 20.19 71.91L18.21 66.26C16.26 61.92 16.45 56.92 18.7 52.74L23.74 43.38L29.89 23.02L32.11 15.95C32.67 14.16 32.8 12.27 32.49 10.42L31.38 3.82999C29.63 1.72999 27.06 0.569992 24.42 0.569992L24.45 0.589992Z" fill="#273AAA"/>
<path d="M30.38 4.08999L24.6 4.63999C22.47 4.63999 20.4 5.38999 18.76 6.74999L12.72 12.22C11.09 13.7 9.90001 15.6 9.3 17.72L7.76 23.1L5.3 35.41L4.07 44.02V57.16L4.38 71.08L0.690005 51.57C0.480005 50.66 0.380005 49.73 0.380005 48.8V35.01C0.380005 31.61 0.950005 28.23 2.07 25.02L5.3 15.72L11.67 7.52999C13.13 5.64999 15.14 4.26999 17.43 3.58999L22.5 2.06999C24.32 1.33999 26.36 1.40999 28.13 2.25999L30.39 4.08999H30.38Z" fill="#273AAA" stroke="#273AAA" stroke-width="0.75" stroke-miterlimit="10"/>
<path d="M22.53 74.79L23.16 75.28C24.73 76.5 26.9 76.6 28.57 75.54L29.46 74.97C32.14 73.26 34.15 70.68 35.16 67.66L35.39 66.96C35.83 65.63 36.01 64.22 35.9 62.81L35.48 57.37C35.47 57.23 35.48 57.08 35.48 56.94L35.77 54.29C35.94 52.75 37 51.45 38.48 50.97L41.36 50.08L37.36 49.08C36.16 48.8 35.47 49.32 34.44 50.01L33.59 51.4L31.35 54.25C31.21 54.81 31.16 55.39 31.21 55.96L31.59 60.03C32.85 62.36 33 65.13 32 67.58L31.39 69.05L27.36 73.78C26.6 74.44 25.71 74.95 24.75 75.27L22.51 74.79H22.53Z" fill="#273AAA" stroke="#273AAA" stroke-miterlimit="10"/>
<path d="M31.38 88.09L31.67 90.93C32.08 92.99 33.89 94.48 36 94.48H38.32L51.38 94.09L48.67 93.33C46.89 92.08 44.74 91.46 42.57 91.57L35.56 91.92C34.36 91.98 33.23 91.38 32.61 90.35L31.39 88.09H31.38Z" fill="#273AAA" stroke="#273AAA" stroke-miterlimit="10"/>
<path d="M26.38 31.09L21.38 40.09L18.75 43.24C17.18 45.12 16.03 47.3 15.36 49.65L15.34 49.73C14.71 51.93 14.7 54.25 15.3 56.46L17.38 64.09L17.01 57.32C17.26 55.2 18 53.17 19.18 51.39L21.14 48.45C21.3 48.21 21.44 47.97 21.56 47.72L22.9 45.01C23.47 43.96 23.88 42.83 24.13 41.66L26.37 31.11L26.38 31.09Z" fill="#273AAA" stroke="#273AAA" stroke-width="0.75" stroke-miterlimit="10"/>
<path d="M27.29 104.36L33.38 107.53C35.34 108.55 37.53 109.09 39.74 109.09H49.01C50.25 109.09 51.45 108.72 52.48 108.03L58.37 103.09L57.87 105.1C57.55 106.39 56.82 107.55 55.79 108.4L51.62 111.83C51.01 112.23 50.33 112.51 49.61 112.63L43.97 113.62C43.54 113.7 43.09 113.7 42.66 113.62L38.9 113C36.26 112.56 33.84 111.27 32 109.33L27.29 104.36Z" fill="#273AAA" stroke="#273AAA" stroke-width="0.75" stroke-miterlimit="10"/>
</g>
<defs>
<clipPath id="clip0_159_309">
<rect width="59.38" height="113.46" fill="white" transform="translate(0 0.589996)"/>
</clipPath>
</defs>
</svg>
