<svg width="127" height="115" viewBox="0 0 127 115" fill="none" xmlns="http://www.w3.org/2000/svg">
<g clip-path="url(#clip0_575_448)">
<path d="M16.3122 28.752C17.7444 26.9395 19.8649 25.8367 22.163 25.7027L27.7789 28.7894C29.2706 29.6113 30.5771 30.7966 31.5398 32.2074L35.7184 38.3388L47.8279 55.7079L52.0074 65.3705C53.9997 69.9782 58.089 73.4646 62.9473 74.7036L68.5703 76.6361L68.6017 76.6609L68.6517 76.6622C70.6694 77.1732 72.7158 76.4707 74.0054 74.8387C75.016 73.5598 75.3592 71.9319 74.9609 70.3554L74.7438 68.0172C74.4145 64.4177 72.1452 61.2734 68.8225 59.8331L64.7935 58.0769C63.5925 57.5484 62.6201 56.6015 62.0617 55.4211L60.9874 53.1192C60.2565 51.5603 60.2553 49.7877 60.9909 48.2278L62.9311 46.4982C64.7036 44.9164 67.1651 44.4144 69.4107 45.1693L73.3791 48.5345L76.4479 53.2155L81.2602 64.7546L82.9479 71.6834C83.7198 74.8679 86.4315 77.2911 89.684 77.7073L90.4498 77.8027C92.402 78.058 94.3712 77.2435 95.5864 75.7056C95.6484 75.6272 95.7104 75.5487 95.7724 75.4702L100.836 68.3198L108.261 62.7794C110.204 62.0462 112.877 62.4378 115.261 63.8244C117.522 65.1399 119.03 67.0705 119.282 68.9775C119.909 73.7809 118.55 78.7101 115.549 82.5076C114.817 83.4334 113.986 84.2927 113.08 85.0681L110.827 86.9839C109.778 87.8757 108.508 88.4658 107.162 88.7019L84.9345 92.5242C82.9734 92.8608 81.0146 92.7913 79.0922 92.3046L59.092 87.3083L40.1107 76.9739L24.3559 64.5244L15.9816 51.7509L13.8192 45.0842C12.653 41.5117 12.7217 37.6022 14.0014 34.0633L15.0983 31.0301C15.3949 30.2193 15.8182 29.4577 16.3576 28.7751M15.5276 28.132C14.9324 28.8852 14.4549 29.7314 14.1153 30.6611L13.0184 33.6944C11.6572 37.4493 11.5975 41.5571 12.826 45.3573L15.0313 52.1471L23.5774 65.1709L39.5283 77.7755L58.6929 88.2165L78.8105 93.2418C80.8563 93.7496 82.987 93.8274 85.0667 93.4698L107.294 89.6476C108.829 89.3822 110.261 88.7161 111.438 87.7095L113.692 85.7938C114.657 84.9759 115.526 84.0695 116.294 83.0966C119.45 79.103 120.906 73.9701 120.232 68.8234C119.582 63.8875 112.348 59.9937 107.735 61.8798L100.082 67.5965L94.9271 74.8787C94.8775 74.9415 94.8279 75.0043 94.7783 75.067C93.7739 76.3381 92.1708 76.9958 90.5453 76.7948L89.7795 76.6994C86.9177 76.3371 84.5719 74.2412 83.8866 71.431L82.1766 64.4336L77.2962 52.7387L74.0965 47.8524L69.8755 44.2747C67.249 43.3081 64.3038 43.874 62.2222 45.734L60.1406 47.5941C59.1975 49.4489 59.1622 51.6387 60.045 53.5216L61.1192 55.8234C61.7758 57.2344 62.932 58.352 64.3585 58.9822L68.3875 60.7384C71.3736 62.0402 73.413 64.8626 73.7073 68.103L73.9264 70.5193C74.3017 71.8992 73.952 73.2288 73.1708 74.2174C72.2036 75.4414 70.5679 76.1243 68.8442 75.6927L63.1836 73.7432C58.5694 72.5824 54.7642 69.3333 52.8796 64.9764L48.6605 55.2188L36.499 37.7703L32.3283 31.6451C31.271 30.0959 29.8687 28.8221 28.225 27.9184L22.3663 24.7035C19.6336 24.7745 17.1301 26.0718 15.4933 28.1431L15.5276 28.132Z" fill="#FC4D5C"/>
<path d="M21.9503 25.6493L18.7982 30.5253C17.4776 32.1965 16.7827 34.2856 16.833 36.4156L17.3799 44.546C17.5306 46.7425 18.2835 48.8541 19.5749 50.6393L22.8412 55.1832L30.9745 64.7455L36.9673 71.0487L47.277 79.1955L58.3908 87.5827L40.7955 78.3817C39.9513 77.9823 39.1596 77.4841 38.4299 76.9075L27.6102 68.3577C24.9426 66.2497 22.644 63.7069 20.8199 60.838L15.5257 52.5377L13.0492 42.462C12.4793 40.1509 12.6427 37.7182 13.529 35.4999L15.4798 30.5796C16.0355 28.699 17.3552 27.1418 19.1195 26.28L21.9565 25.6414L21.9503 25.6493Z" fill="#FC4D5C" stroke="#FC4D5C" stroke-width="0.75" stroke-miterlimit="10"/>
<path d="M72.5546 75.6423L73.3297 75.4518C75.2603 74.9764 76.6841 73.3358 76.8879 71.3683L76.9924 70.3166C77.3124 67.1537 76.5343 63.977 74.791 61.3122L74.3844 60.6977C73.6136 59.5279 72.619 58.5125 71.4445 57.7246L66.9158 54.6813C66.7998 54.6024 66.6883 54.5015 66.5784 54.4147L64.6791 52.5442C63.5762 51.456 63.2134 49.8183 63.7544 48.3595L64.8417 45.5481L61.5771 48.0665C60.6134 48.8344 60.5936 49.6982 60.4964 50.9341L61.06 52.4628L61.9073 55.9873C62.2598 56.4444 62.6839 56.8432 63.1621 57.1574L66.5911 59.3826C69.2004 59.8386 71.4667 61.4383 72.769 63.7419L73.5442 65.132L74.7568 71.2265C74.8034 72.232 74.6517 73.2465 74.3076 74.1981L72.5422 75.658L72.5546 75.6423Z" fill="#FC4D5C" stroke="#FC4D5C" stroke-miterlimit="10"/>
<path d="M88.4769 76.9446L90.885 78.4778C92.7555 79.4334 95.0467 78.937 96.3549 77.2815L97.7933 75.4612L105.585 64.9725L103.308 66.6276C101.224 67.2492 99.4042 68.5517 98.1451 70.3225L94.0736 76.0395C93.3766 77.0183 92.2053 77.5329 91.0127 77.3807L88.4831 76.9367L88.4769 76.9446Z" fill="#FC4D5C" stroke="#FC4D5C" stroke-miterlimit="10"/>
<path d="M40.6545 45.5276L44.6159 55.0306L45.4568 59.0471C45.9585 61.4446 46.9559 63.6985 48.3843 65.6811L48.4347 65.7464C49.7702 67.6047 51.5843 69.051 53.6903 69.9504L60.9664 73.049L55.4252 69.1419C53.9169 67.6314 52.7829 65.7922 52.1179 63.7628L51.0264 60.4021C50.9373 60.1278 50.8358 59.8692 50.7141 59.62L49.4186 56.8884C48.9481 55.7902 48.3157 54.7679 47.5528 53.8464L40.664 45.5479L40.6545 45.5276Z" fill="#FC4D5C" stroke="#FC4D5C" stroke-width="0.75" stroke-miterlimit="10"/>
<path d="M98.7065 90.241L104.97 87.4282C106.985 86.5228 108.766 85.1393 110.137 83.4053L115.884 76.132C116.653 75.1591 117.107 73.9882 117.204 72.7523L116.98 65.0682L118.247 66.7067C119.06 67.7575 119.518 69.0495 119.546 70.3846L119.652 75.783C119.588 76.5096 119.386 77.2168 119.034 77.8561L116.314 82.895C116.11 83.282 115.831 83.6351 115.501 83.9229L112.684 86.4886C110.702 88.2871 108.189 89.3861 105.526 89.6269L98.7065 90.241Z" fill="#FC4D5C" stroke="#FC4D5C" stroke-width="0.75" stroke-miterlimit="10"/>
</g>
<defs>
<clipPath id="clip0_575_448">
<rect width="59.38" height="113.46" fill="white" transform="translate(0.858887 47.2874) rotate(-51.6839)"/>
</clipPath>
</defs>
</svg>
