<svg width="127" height="117" viewBox="0 0 127 117" fill="none" xmlns="http://www.w3.org/2000/svg">
<g clip-path="url(#clip0_575_448)">
<path d="M16.1141 29.2371C17.5097 27.3963 19.6077 26.2512 21.9026 26.0711L27.5793 29.0445C29.0872 29.8364 30.4172 30.9953 31.408 32.3864L35.7088 38.4328L48.1642 55.5555L52.5367 65.1323C54.6211 69.6992 58.7795 73.1027 63.6616 74.244L69.3223 76.0634L69.3542 76.0876L69.4041 76.0878C71.4317 76.5583 73.4636 75.8148 74.7202 74.1573C75.705 72.8584 76.0154 71.224 75.5856 69.6558L75.3216 67.3224C74.9202 63.7302 72.5883 60.6321 69.2373 59.2587L65.174 57.5837C63.9626 57.0794 62.9713 56.1522 62.3894 54.9832L61.2692 52.7034C60.5072 51.1594 60.4704 49.3872 61.1745 47.8128L63.0797 46.0447C64.8201 44.4277 67.271 43.8763 69.5313 44.5861L73.5664 47.871L76.7285 52.4894L81.7713 63.9297L83.5976 70.8233C84.4332 73.9916 87.193 76.36 90.4532 76.7109L91.2208 76.7908C93.1777 77.007 95.1302 76.1531 96.3143 74.5912C96.3747 74.5115 96.4351 74.4318 96.4955 74.3521L101.415 67.1015L108.727 61.4133C110.655 60.6413 113.335 60.9792 115.746 62.3177C118.034 63.5876 119.58 65.4876 119.87 67.3891C120.593 72.1789 119.333 77.1345 116.409 80.9914C115.696 81.9317 114.882 82.8075 113.992 83.6009L111.778 85.5615C110.747 86.4741 109.49 87.0896 108.148 87.3527L86.0019 91.62C84.0479 91.9959 82.0881 91.9657 80.1564 91.5177L60.0599 86.9236L40.8752 76.972L24.8738 64.841L16.245 52.2381L13.9493 45.6161C12.7116 42.0677 12.7019 38.1576 13.9104 34.5938L14.9462 31.5391C15.2264 30.7226 15.6344 29.9527 16.16 29.2594M15.3173 28.633C14.7373 29.398 14.2769 30.2536 13.956 31.19L12.9202 34.2447C11.6346 38.0261 11.6573 42.1342 12.9617 45.909L15.3028 52.6533L24.1084 65.503L40.309 77.7851L59.6791 87.8396L79.8935 92.4604C81.9491 92.927 84.0809 92.9621 86.153 92.5628L108.299 88.2955C109.829 87.9994 111.247 87.3047 112.404 86.2747L114.618 84.3141C115.566 83.477 116.417 82.5534 117.166 81.5653C120.241 77.5092 121.594 72.3481 120.817 67.216C120.068 62.2941 112.758 58.5462 108.183 60.5245L100.647 66.3935L95.6385 73.7777C95.5901 73.8414 95.5418 73.9052 95.4935 73.9689C94.5148 75.2599 92.9252 75.9497 91.296 75.7812L90.5284 75.7012C87.66 75.3964 85.2726 73.348 84.531 70.5521L82.6811 63.5904L77.5671 51.9958L74.27 47.1746L69.978 43.6824C67.3327 42.7686 64.3995 43.3935 62.3556 45.2949L60.3117 47.1963C59.406 49.0697 59.4146 51.2597 60.335 53.1245L61.4552 55.4044C62.14 56.8019 63.3183 57.8961 64.7572 58.4975L68.8206 60.1726C71.8322 61.4142 73.9278 64.1951 74.2871 67.429L74.5546 69.8404C74.9575 71.2125 74.6346 72.5489 73.8733 73.5529C72.9309 74.7961 71.3092 75.5117 69.5772 75.1147L63.8786 73.2792C59.2421 72.2111 55.3725 69.039 53.4008 64.7208L48.9869 55.0498L36.4778 37.8487L32.185 31.8084C31.0969 30.2808 29.6694 29.0354 28.0079 28.1647L22.0858 25.068C19.3551 25.1939 16.8781 26.5411 15.2832 28.6448L15.3173 28.633Z" fill="#273AAA"/>
<path d="M21.6888 26.022L18.6352 30.9602C17.3484 32.6576 16.6955 34.7602 16.7885 36.8887L17.4984 45.0065C17.6931 47.1995 18.4882 49.2957 19.8151 51.0546L23.172 55.532L31.4954 64.9293L37.6135 71.1111L48.0845 79.0494L59.3644 87.2119L41.588 78.3657C40.7359 77.9833 39.9344 77.5012 39.1933 76.9393L28.2043 68.6083C25.4949 66.5542 23.1458 64.058 21.2645 61.2262L15.8048 53.0338L13.1267 43.0098C12.5106 40.7106 12.6253 38.2752 13.4668 36.0395L15.3186 31.081C15.8364 29.1897 17.1246 27.6063 18.8712 26.7094L21.6949 26.014L21.6888 26.022Z" fill="#273AAA" stroke="#273AAA" stroke-width="0.75" stroke-miterlimit="10"/>
<path d="M73.2858 74.9899L74.0569 74.7839C75.9776 74.2698 77.3683 72.601 77.5325 70.6298L77.6159 69.5763C77.8724 66.4076 77.0307 63.2472 75.2343 60.6178L74.8155 60.0116C74.0214 58.8575 73.0066 57.8622 71.8165 57.0981L67.2277 54.1462C67.1101 54.0696 66.9966 53.971 66.8851 53.8865L64.9485 52.0544C63.8241 50.9886 63.4285 49.3585 63.9401 47.8891L64.9708 45.0564L61.7574 47.6398C60.8093 48.4269 60.8068 49.2909 60.7344 50.5286L61.3285 52.0457L62.2464 55.5525C62.6081 56.0023 63.04 56.3926 63.5245 56.6971L66.9974 58.8531C69.6153 59.2567 71.9133 60.8106 73.2615 63.0876L74.0644 64.4618L75.399 70.5308C75.4658 71.5352 75.3345 72.5525 75.0095 73.5108L73.2738 75.0058L73.2858 74.9899Z" fill="#273AAA" stroke="#273AAA" stroke-miterlimit="10"/>
<path d="M89.231 75.9725L91.6693 77.4572C93.5586 78.375 95.8394 77.8328 97.1141 76.1514L98.5157 74.3026L106.095 63.6597L103.852 65.3601C101.781 66.0234 99.9877 67.3621 98.7644 69.1578L94.8083 74.9554C94.1312 75.9479 92.9704 76.4859 91.775 76.3577L89.237 75.9646L89.231 75.9725Z" fill="#273AAA" stroke="#273AAA" stroke-miterlimit="10"/>
<path d="M40.7882 45.5212L44.9394 54.9428L45.8607 58.9416C46.4103 61.3285 47.4528 63.5619 48.9207 65.5156L48.9724 65.5798C50.3449 67.411 52.1876 68.8205 54.3112 69.6775L61.648 72.6296L56.0296 68.8344C54.4912 67.3545 53.3206 65.5384 52.6151 63.5227L51.4563 60.1846C51.3617 59.9121 51.2551 59.6556 51.1284 59.4089L49.7783 56.7039C49.286 55.6153 48.6332 54.6059 47.8519 53.6999L40.7981 45.5412L40.7882 45.5212Z" fill="#273AAA" stroke="#273AAA" stroke-width="0.75" stroke-miterlimit="10"/>
<path d="M99.7253 89.0611L105.931 86.1232C107.928 85.1775 109.681 83.7586 111.016 81.9975L116.616 74.6104C117.366 73.6223 117.796 72.4425 117.868 71.2048L117.49 63.5268L118.789 65.1395C119.624 66.1739 120.107 67.4564 120.163 68.7907L120.377 74.1859C120.327 74.9136 120.139 75.6246 119.8 76.2709L117.181 81.3634C116.985 81.7544 116.714 82.113 116.39 82.4073L113.624 85.029C111.679 86.867 109.189 88.0161 106.531 88.3103L99.7253 89.0611Z" fill="#273AAA" stroke="#273AAA" stroke-width="0.75" stroke-miterlimit="10"/>
</g>
<defs>
<clipPath id="clip0_575_448">
<rect width="59.38" height="113.46" fill="white" transform="translate(0.546143 48.1168) rotate(-52.8333)"/>
</clipPath>
</defs>
</svg>
