<svg width="47" height="108" viewBox="0 0 47 108" fill="none" xmlns="http://www.w3.org/2000/svg">
<g clip-path="url(#clip0_159_339)">
<path d="M1.94002 5.2C1.61002 5.54 1.28002 6.3 0.990019 7.1C0.390019 8.75 0.360019 10.55 0.840019 12.24L1.89002 15.91L2.96002 17.25C3.84002 18.35 5.07002 19.12 6.44002 19.43L12.66 20.85L29.42 21.25L37.87 20.74C38.37 20.71 38.86 20.59 39.31 20.38L41.2 19.51C43.4 18.5 45.06 16.58 45.74 14.25L46.05 13.18C46.65 11.12 46.39 8.91 45.33 7.05L45.03 6.77C43.17 5 40.83 3.81 38.31 3.34L33.38 2.42L22.81 1.2C21.61 1.06 20.4 1.05 19.2 1.15L10.46 1.93C9.68002 2 8.91002 2.15 8.16002 2.39C6.33002 2.97 2.93002 4.15 1.93002 5.2H1.94002Z" stroke="#273AAA" stroke-miterlimit="10"/>
<path d="M6.48005 7.08999L5.87005 12.83C5.74005 14.04 6.13005 15.26 6.93005 16.16C7.20005 16.47 7.58005 16.66 7.97005 16.68L14.2701 17.06L34.8001 17.95C35.6201 17.99 36.4201 17.75 37.0901 17.27L37.2201 17.17C38.2601 16.43 38.9001 15.2 38.9301 13.86L39.0201 10.19C39.0401 9.24999 38.7801 8.30999 38.2601 7.51999L38.1501 7.34999C37.4701 6.31999 36.3701 5.67999 35.6401 5.63999L10.2701 4.42999C8.88005 4.35999 7.98005 4.70999 7.29005 5.35999C6.83005 5.79999 6.54005 6.40999 6.47005 7.06999L6.48005 7.08999Z" stroke="#273AAA" stroke-miterlimit="10"/>
<path d="M12.66 20.85L13.07 24.44C13.26 26.06 13.8 27.61 14.66 28.99L17.2 33.07L17.34 35.95C17.39 36.92 17.27 37.89 16.99 38.82L14.95 45.65L13.22 53.12C13.02 53.98 12.94 54.86 12.99 55.74L13.34 62.34C13.37 62.97 13.48 63.6 13.65 64.21L15.62 71.09C15.72 71.45 15.79 71.83 15.81 72.2L15.92 74.25C15.98 75.43 15.71 76.61 15.13 77.65L11.89 83.49L10.38 89.12V96.4L16.03 105.19L24.82 106.83L31.96 102.7L35.52 93.36L34.69 83.2L30.21 77.42C28.86 75.68 28.32 73.45 28.72 71.28L28.91 70.29L31.59 58C31.9 56.58 32.03 55.13 31.98 53.68L31.69 45.33C31.65 44.12 31.38 42.93 30.91 41.82L29.46 38.42C28.82 36.91 28.71 35.23 29.17 33.65L29.62 32.1L31.97 28.16C32.64 27.04 33.1 25.82 33.35 24.54L34.04 20.97L22.96 21.1L12.63 20.85H12.66Z" stroke="#273AAA" stroke-miterlimit="10"/>
<path d="M19.88 79.8L18.14 81.4C16.77 82.66 15.89 84.37 15.66 86.21L15.27 89.34C15.19 90.01 15.24 90.69 15.43 91.34L16.6 95.42L17.74 97.73C18.23 98.73 19.03 99.56 20.01 100.1L21.98 101.18C22.63 101.54 23.37 101.68 24.1 101.58L25.77 101.37C26.79 101.24 27.72 100.7 28.33 99.88L29.62 98.16L27.62 99.32C26.6 99.91 25.42 100.2 24.24 100.15L22.89 100.09L21.36 99.24C19.96 98.47 18.93 97.17 18.49 95.63L18.08 94.18L17.13 91.24C16.84 90.35 16.74 89.42 16.83 88.49L17.15 85.17C17.22 84.42 17.54 83.72 18.05 83.17L19.89 81.2C20.74 80.29 21.95 79.79 23.2 79.84L24.39 79.89L22.34 79.24C21.48 78.97 20.54 79.17 19.88 79.78V79.8Z" fill="#273AAA" stroke="#273AAA" stroke-miterlimit="10"/>
<path d="M28.37 82.93L30.19 86.76C30.71 87.86 31.01 89.05 31.07 90.26L31.19 92.76L31.6 91.91C32.18 90.72 32.29 89.37 31.93 88.1L31.7 87.28C31.32 85.96 30.65 84.5 29.61 83.61L28.37 82.92V82.93Z" fill="#273AAA" stroke="#273AAA" stroke-miterlimit="10"/>
<path d="M16.72 21.51L17.73 25.05C18.1 26.36 18.66 27.6 19.38 28.76L20.71 30.91C20.75 30.98 20.81 31.04 20.89 31.08C22.37 31.9 24.15 31.92 25.65 31.14L25.68 31.12C26.99 30.43 28.01 29.29 28.53 27.9L29.97 24.1L30.68 21.26L23.01 21.11L16.74 21.52L16.72 21.51Z" fill="#273AAA" stroke="#273AAA" stroke-miterlimit="10"/>
<path d="M16.94 39.39L17.25 46.16C17.23 47.14 17.07 48.1 16.77 49.04L15.61 52.68C15.23 53.88 15.13 55.16 15.32 56.4L16.27 62.47L16.23 64.51C16.21 65.4 16.33 66.29 16.57 67.14L17.42 70.11C17.85 71.6 17.86 73.18 17.47 74.68C17.41 74.89 17.32 75.09 17.18 75.26L14.73 78.38L16.01 76.07L15.78 71.64L13.86 64.95C13.54 63.85 13.36 62.72 13.3 61.57L13.05 56.77C12.97 55.2 13.13 53.63 13.53 52.11L16.94 39.38V39.39Z" fill="#273AAA" stroke="#273AAA" stroke-miterlimit="10"/>
<path d="M31.23 45.7L30.06 51.96C30.02 52.18 30 52.41 30.01 52.63L30.11 55.51C30.13 56.11 30.09 56.71 29.98 57.3L28.62 64.6C28.54 65.01 28.5 65.42 28.48 65.83L28.92 70.29L31.73 57.47C31.95 56.4 32.02 55.31 31.93 54.22L31.23 45.69V45.7Z" fill="#273AAA" stroke="#273AAA" stroke-miterlimit="10"/>
<path d="M6.48006 7.09L38.7901 8.58L39.0401 10.2L6.31006 8.71L6.48006 7.09Z" stroke="#273AAA" stroke-miterlimit="10"/>
<path d="M6.13 10.35L5.87 12.82L38.94 13.87L38.99 11.9L6.13 10.35Z" stroke="#273AAA" stroke-miterlimit="10"/>
<path d="M6.06006 14.64L38.1801 16.21" stroke="#273AAA" stroke-miterlimit="10"/>
</g>
<defs>
<clipPath id="clip0_159_339">
<rect width="46.87" height="106.77" fill="white" transform="translate(0 0.589996)"/>
</clipPath>
</defs>
</svg>
