<svg width="52" height="108" viewBox="0 0 52 108" fill="none" xmlns="http://www.w3.org/2000/svg">
<path d="M2.57018 5.13844C2.20854 5.48026 1.84691 6.24433 1.5291 7.04861C0.871583 8.70744 0.838706 10.5171 1.36472 12.2161L2.51539 15.9058L3.68797 17.2529C4.65233 18.3588 6.00025 19.1329 7.5016 19.4446L14.3179 20.8722L32.6847 21.2743L41.9448 20.7616C42.4927 20.7314 43.0297 20.6108 43.5228 20.3997L45.594 19.525C48.005 18.5096 49.8241 16.5793 50.5693 14.2369L50.909 13.1611C51.5665 11.0901 51.2816 8.86829 50.12 6.99834L49.7912 6.71684C47.7529 4.93737 45.1886 3.741 42.427 3.26849L37.0243 2.34356L25.441 1.11703C24.1259 0.976285 22.7999 0.966231 21.4849 1.06677L11.907 1.85094C11.0522 1.92132 10.2084 2.07212 9.38649 2.3134C7.38105 2.89651 3.65509 4.08282 2.55922 5.13844H2.57018Z" stroke="#F7C7D9" stroke-miterlimit="10"/>
<path d="M7.54553 7.03857L6.87705 12.8093C6.73459 14.0258 7.16198 15.2523 8.03867 16.1571C8.33456 16.4688 8.75099 16.6598 9.17838 16.6799L16.0824 17.0619L38.5806 17.9567C39.4792 17.9969 40.3559 17.7556 41.0901 17.273L41.2326 17.1725C42.3723 16.4285 43.0736 15.192 43.1065 13.8448L43.2051 10.1552C43.2271 9.21013 42.9421 8.2651 42.3723 7.47087L42.2517 7.29996C41.5065 6.26445 40.3011 5.62103 39.5011 5.58081L11.6989 4.36434C10.1756 4.29396 9.18934 4.64584 8.43319 5.29931C7.92908 5.74167 7.61128 6.35493 7.53457 7.01846L7.54553 7.03857Z" stroke="#F7C7D9" stroke-miterlimit="10"/>
<path d="M14.3184 20.8721L14.7677 24.4813C14.9759 26.11 15.5677 27.6682 16.5101 29.0556L19.2937 33.1575L19.4471 36.0529C19.5019 37.0281 19.3704 38.0033 19.0635 38.9382L16.8279 45.8048L14.9321 53.3147C14.7129 54.1794 14.6253 55.0641 14.68 55.9488L15.0636 62.5841C15.0965 63.2175 15.217 63.8508 15.4033 64.4641L17.5622 71.3809C17.6718 71.7428 17.7485 72.1249 17.7704 72.4969L17.8909 74.5578C17.9567 75.7441 17.6608 76.9304 17.0252 77.976L13.4746 83.8473L11.8198 89.5074V96.8263L18.0115 105.663L27.6442 107.312L35.4687 103.16L39.37 93.7701L38.4604 83.5557L33.5509 77.7448C32.0715 75.9955 31.4797 73.7535 31.9181 71.5719L32.1263 70.5766L35.0632 58.2209C35.4029 56.7933 35.5454 55.3355 35.4906 53.8778L35.1728 45.4831C35.129 44.2666 34.8331 43.0702 34.318 41.9543L32.729 38.5361C32.0277 37.018 31.9071 35.329 32.4112 33.7406L32.9044 32.1823L35.4797 28.2212C36.2139 27.0952 36.718 25.8687 36.992 24.5818L37.7481 20.9927L25.6059 21.1234L14.2855 20.8721H14.3184Z" stroke="#F7C7D9" stroke-miterlimit="10"/>
<path d="M22.2298 80.1375L20.323 81.746C18.8216 83.0128 17.8573 84.7319 17.6052 86.5818L17.1778 89.7285C17.0902 90.4021 17.145 91.0857 17.3532 91.7392L18.6354 95.8411L19.8846 98.1634C20.4216 99.1688 21.2983 100.003 22.3723 100.546L24.5311 101.632C25.2434 101.994 26.0544 102.135 26.8544 102.034L28.6845 101.823C29.8023 101.692 30.8214 101.149 31.4899 100.325L32.9036 98.5957L30.7118 99.7619C29.5941 100.355 28.3009 100.647 27.0078 100.596L25.5284 100.536L23.8517 99.6815C22.3175 98.9074 21.1887 97.6004 20.7065 96.0522L20.2572 94.5944L19.2162 91.6387C18.8984 90.7439 18.7888 89.809 18.8874 88.874L19.2381 85.5362C19.3148 84.7822 19.6655 84.0785 20.2244 83.5255L22.2408 81.545C23.1723 80.6301 24.4983 80.1274 25.8681 80.1777L27.1722 80.228L24.9256 79.5745C23.9832 79.303 22.9531 79.5041 22.2298 80.1174V80.1375Z" fill="#F7C7D9" stroke="#F7C7D9" stroke-miterlimit="10"/>
<path d="M31.5342 83.2845L33.5287 87.135C34.0985 88.2408 34.4273 89.4372 34.493 90.6537L34.6245 93.1671L35.0738 92.3125C35.7094 91.1162 35.83 89.7589 35.4355 88.4821L35.1834 87.6577C34.767 86.3307 34.0328 84.8629 32.8931 83.9681L31.5342 83.2744V83.2845Z" fill="#F7C7D9" stroke="#F7C7D9" stroke-miterlimit="10"/>
<path d="M18.7676 21.5354L19.8744 25.0944C20.2799 26.4114 20.8936 27.658 21.6826 28.8242L23.1401 30.9857C23.1839 31.0561 23.2497 31.1164 23.3374 31.1567C24.9592 31.981 26.9099 32.0011 28.5537 31.217L28.5866 31.1969C30.0222 30.5032 31.14 29.3571 31.7098 27.9596L33.2879 24.1393L34.0659 21.2841L25.6606 21.1333L18.7895 21.5455L18.7676 21.5354Z" fill="#F7C7D9" stroke="#F7C7D9" stroke-miterlimit="10"/>
<path d="M19.0085 39.511L19.3482 46.3173C19.3263 47.3025 19.1509 48.2676 18.8222 49.2127L17.551 52.8721C17.1345 54.0786 17.025 55.3654 17.2332 56.6121L18.2743 62.7145L18.2304 64.7654C18.2085 65.6602 18.34 66.555 18.603 67.4095L19.5345 70.3954C20.0057 71.8934 20.0167 73.4818 19.5893 74.9899C19.5235 75.201 19.4249 75.4021 19.2715 75.573L16.5866 78.7097L17.9893 76.3873L17.7373 71.9336L15.6332 65.2078C15.2825 64.1019 15.0853 62.9659 15.0195 61.8097L14.7456 56.984C14.6579 55.4056 14.8332 53.8272 15.2716 52.2991L19.0085 39.501V39.511Z" fill="#F7C7D9" stroke="#F7C7D9" stroke-miterlimit="10"/>
<path d="M34.6679 45.8553L33.3858 52.1488C33.3419 52.3699 33.32 52.6012 33.331 52.8224L33.4406 55.7178C33.4625 56.321 33.4186 56.9242 33.2981 57.5173L31.8077 64.8564C31.7201 65.2686 31.6762 65.6808 31.6543 66.093L32.1365 70.5769L35.2159 57.6883C35.457 56.6125 35.5337 55.5167 35.435 54.4209L34.6679 45.8452V45.8553Z" fill="#F7C7D9" stroke="#F7C7D9" stroke-miterlimit="10"/>
<path d="M7.54567 7.03857L42.9532 8.53655L43.2272 10.1652L7.35938 8.66724L7.54567 7.03857Z" stroke="#F7C7D9" stroke-miterlimit="10"/>
<path d="M7.16237 10.3159L6.87744 12.7991L43.1179 13.8548L43.1727 11.8742L7.16237 10.3159Z" stroke="#F7C7D9" stroke-miterlimit="10"/>
<path d="M7.08496 14.6289L42.2843 16.2073" stroke="#F7C7D9" stroke-miterlimit="10"/>
</svg>
