<svg width="54" height="101" viewBox="0 0 54 101" fill="none" xmlns="http://www.w3.org/2000/svg">
<g clip-path="url(#clip0_159_317)">
<path d="M13.64 1.59999L19.72 1.78999L39.84 2.42999C45.85 2.61999 50.66 7.46999 50.8 13.48L52.56 88.03C52.71 94.47 47.48 99.73 41.04 99.62L12.11 99.11C5.87997 99 0.909966 93.88 0.989966 87.64L1.95997 12.77C2.03997 6.42999 7.30997 1.38999 13.64 1.59999Z" stroke="#273AAA" stroke-width="2" stroke-miterlimit="10"/>
<path d="M19.75 2.64999L19.73 1.78999L33.04 2.20999L32.94 3.72999C32.86 4.95999 31.83 5.89999 30.6 5.87999L22.84 5.73999C21.14 5.70999 19.77 4.33999 19.74 2.63999L19.75 2.64999Z" fill="#273AAA" stroke="#273AAA" stroke-miterlimit="10"/>
<path d="M15.62 20.24C16.28 20.85 16.89 21.12 17.45 21.04C18.05 20.96 18.18 20.55 18.77 20.52C19.65 20.49 19.9 21.39 20.6 21.32C21.42 21.24 21.5 19.97 22.32 19.89C23.01 19.82 23.25 20.69 24.15 20.69C24.79 20.69 24.84 20.25 25.47 20.17C26.68 20.02 27.23 21.55 28.22 21.37C29.07 21.22 29.11 20 29.94 19.94C30.65 19.89 30.9 20.77 31.77 20.74C32.41 20.72 32.46 20.23 33.09 20.22C33.89 20.21 34.08 21 34.92 21.02C35.43 21.03 35.56 20.75 36.24 20.5C36.71 20.33 37.44 20.19 38.47 20.39" stroke="#273AAA" stroke-miterlimit="10"/>
<path d="M10.1599 46.59L9.82993 46.95C9.27993 47.56 8.97993 48.34 8.96993 49.16L8.92993 54.26C8.92993 55.07 9.20993 55.85 9.72993 56.46C10.3599 57.2 11.2799 57.62 12.2499 57.62L42.1299 56.94C43.1699 56.94 45.4499 56.22 46.0799 55.39C46.5699 54.76 46.4599 54.04 46.4199 53.24L46.1299 47.6C46.0699 46.34 45.2899 45.22 44.1299 44.71L43.7399 44.54C43.2799 44.34 42.7699 44.24 42.2699 44.26L12.4999 45.48C11.5999 45.52 10.7599 45.91 10.1599 46.58V46.59Z" stroke="#273AAA" stroke-miterlimit="10"/>
<path d="M16.7214 92.6335C18.3001 90.3679 17.6258 87.1695 15.2151 85.4897C12.8045 83.8099 9.57051 84.2848 7.99176 86.5504C6.41301 88.8161 7.08737 92.0144 9.49798 93.6942C11.9086 95.374 15.1426 94.8991 16.7214 92.6335Z" stroke="#273AAA" stroke-miterlimit="10"/>
<path d="M23.0699 95.53L34.2399 94.96" stroke="#273AAA" stroke-miterlimit="10"/>
<path d="M12.83 28.23L11.96 28.6L11.32 30.07C10.73 31.43 10.55 32.93 10.81 34.39L11.04 35.7L12.99 38.73L14.08 38.83C15.31 38.94 16.47 38.25 16.97 37.12L17.34 36.26C17.58 35.72 17.66 35.13 17.59 34.55L17.13 30.74C17.04 29.98 16.68 29.29 16.11 28.78C15.21 27.97 13.93 27.76 12.82 28.23H12.83Z" stroke="#273AAA" stroke-miterlimit="10"/>
<path d="M21.88 27.89L20.73 29.03C20.48 29.28 20.29 29.59 20.2 29.94L19.59 32.25C19.53 32.47 19.51 32.7 19.53 32.93L19.71 35.05C19.74 35.46 19.91 35.85 20.17 36.17L21.29 37.5C21.69 37.98 22.3 38.25 22.93 38.21C23.69 38.17 24.36 37.71 24.66 37.01L25.6 34.86C25.71 34.61 25.77 34.34 25.77 34.07L25.81 29.78C25.81 29.3 25.65 28.84 25.34 28.48L24.93 27.99C24.43 27.4 23.64 27.14 22.89 27.33L22.79 27.36C22.45 27.45 22.14 27.63 21.88 27.88V27.89Z" stroke="#273AAA" stroke-miterlimit="10"/>
<path d="M34.3299 26.94C33.9399 27.17 33.3799 27.56 32.8499 28.18C31.8599 29.34 31.6099 30.58 31.4599 31.35C31.3199 32.1 31.0599 33.55 31.6599 35.21C31.9699 36.07 32.6599 38.01 34.1399 38.18C35.2399 38.3 36.2999 37.38 36.7599 36.5C36.9399 36.15 36.9999 35.86 37.0099 33.78C37.0099 31.41 36.9399 30.66 36.8099 29.92C36.5399 28.35 36.1999 27.91 35.9199 27.64C35.3899 27.14 34.7299 27 34.3399 26.95L34.3299 26.94Z" stroke="#273AAA" stroke-miterlimit="10"/>
<path d="M41.8799 27.05C40.8199 27.21 40.2899 28.6 39.8799 29.64C39.5299 30.55 39.4599 31.32 39.3399 32.86C39.1899 34.66 39.1299 35.58 39.5199 36.4C39.6599 36.68 40.2699 37.95 41.3799 38.08C42.6099 38.22 43.5699 36.84 43.7799 36.54C44.3899 35.66 44.4799 34.63 44.6399 32.59C44.7799 30.77 44.8399 29.85 44.4599 29.05C44.0199 28.13 42.9599 26.89 41.8699 27.05H41.8799Z" stroke="#273AAA" stroke-miterlimit="10"/>
<path d="M11.9899 50.43L12.0699 52.66C12.1099 53.64 12.9099 54.41 13.8899 54.41H16.8499C17.7399 54.41 18.4599 53.69 18.4499 52.81V50.45C18.4299 49.52 17.6699 48.77 16.7299 48.77L13.5499 48.79C12.6599 48.79 11.9499 49.54 11.9799 50.43H11.9899Z" stroke="#273AAA" stroke-miterlimit="10"/>
<path d="M22.5 49.44C22.94 49.86 23.65 50.4 24.33 50.24C25.25 50.03 25.65 48.69 26.05 48.81C26.39 48.91 26.13 49.91 26.57 50.13C27.16 50.42 28.12 48.83 29.2 49.1C29.61 49.2 29.66 49.48 30.12 49.5C30.73 49.53 30.86 49.03 31.44 48.98C32.22 48.92 32.43 49.79 33.27 49.78C33.89 49.78 33.95 49.29 34.59 49.26C35.46 49.23 35.71 50.11 36.42 50.06C37.24 50 37.24 48.8 38.14 48.63C38.91 48.48 39.92 49.17 40.89 49.83C41.14 50 41.41 50.2 41.81 50.23C42.35 50.27 42.82 49.97 43.13 49.71" stroke="#273AAA" stroke-miterlimit="10"/>
<path d="M22.21 52.59C23.54 53.81 24.41 53.93 24.96 53.79C25.51 53.65 25.69 53.28 26.28 53.27C27.18 53.27 27.42 54.14 28.11 54.07C28.91 53.99 28.98 52.77 29.83 52.64C30.48 52.54 30.62 53.22 31.66 53.44C32.69 53.66 32.91 53.08 33.89 53.33C34.84 53.56 34.97 54.18 35.72 54.13C36.36 54.09 36.42 53.64 37.04 53.61C37.92 53.58 38.17 54.48 38.87 54.41C39.65 54.33 39.75 53.19 40.59 52.98C41.1 52.85 41.71 53.12 42.42 53.78" stroke="#273AAA" stroke-miterlimit="10"/>
<path d="M41.4599 89.47L41.5299 92.24C41.5299 92.54 41.7899 92.78 42.0899 92.77L46.6599 92.66C47.0399 92.66 47.3499 92.33 47.3399 91.95L47.2699 89.1C47.2699 88.83 47.0499 88.62 46.7799 88.61L45.7299 88.57C45.4999 88.57 45.3099 88.37 45.2999 88.14V87.92C45.2999 87.73 45.1299 87.57 44.9399 87.58L43.6199 87.61C43.4699 87.61 43.3599 87.74 43.3599 87.88V88.22C43.3699 88.43 43.2099 88.61 42.9899 88.61L42.2499 88.63C41.7999 88.64 41.4499 89.01 41.4599 89.46V89.47Z" stroke="#273AAA" stroke-miterlimit="10"/>
<path d="M44.5099 91.81C45.1782 91.81 45.7199 91.2683 45.7199 90.6C45.7199 89.9317 45.1782 89.39 44.5099 89.39C43.8417 89.39 43.2999 89.9317 43.2999 90.6C43.2999 91.2683 43.8417 91.81 44.5099 91.81Z" stroke="#273AAA" stroke-width="0.75" stroke-miterlimit="10"/>
<path d="M46.3699 89.66C46.4306 89.66 46.4799 89.6107 46.4799 89.55C46.4799 89.4892 46.4306 89.44 46.3699 89.44C46.3091 89.44 46.2599 89.4892 46.2599 89.55C46.2599 89.6107 46.3091 89.66 46.3699 89.66Z" stroke="#273AAA" stroke-width="0.25" stroke-miterlimit="10"/>
<path d="M44.21 95.59C47.1095 95.59 49.46 93.2395 49.46 90.34C49.46 87.4405 47.1095 85.09 44.21 85.09C41.3105 85.09 38.96 87.4405 38.96 90.34C38.96 93.2395 41.3105 95.59 44.21 95.59Z" stroke="#273AAA" stroke-width="0.75" stroke-miterlimit="10"/>
<path d="M28.93 37.54C28.79 37.54 28.64 37.64 28.62 37.8C28.62 37.89 28.65 37.98 28.71 38.04C28.82 38.13 29 38.14 29.11 38.02C29.22 37.89 29.18 37.71 29.09 37.62C29.02 37.55 28.94 37.55 28.93 37.55V37.54Z" fill="#273AAA" stroke="#273AAA" stroke-miterlimit="10"/>
<path d="M10.65 87.37L11.17 89.07L11.9 90.65L12.19 92.96L13.51 92.44L13.4 90.21L14.6 87.46L12.77 86.66L10.65 87.37Z" stroke="#273AAA" stroke-miterlimit="10"/>
</g>
<defs>
<clipPath id="clip0_159_317">
<rect width="53.57" height="100.03" fill="white" transform="translate(0 0.589996)"/>
</clipPath>
</defs>
</svg>
