<svg width="542" height="342" viewBox="0 0 542 342" fill="none" xmlns="http://www.w3.org/2000/svg">
<path d="M192 74L195 72.5L198.5 71L202.5 69.5L207.5 70L211.5 74L212.5 75.5L211 74L208.369 71.3691L208.5 73L208 74.5L207 76H206.5L204.5 75.5L201 75H198L201 74.5L200.5 73.5V72L201 70.5L198 71.5L192 74Z" fill="#273AAA"/>
<path d="M217.5 62L217 69L212 67L204.5 66H197H192L189 66.5L187 67L184.5 74L178 83L168 87.5L160 89.5H155L158 97L163 100.5L167 101L169.5 99.5L168.5 105.5V110.5L172.5 117.5L174.494 122.342C175.488 124.757 176 127.344 176 129.956V132.02C176 133.337 175.87 134.65 175.612 135.942L175 139L173.942 138.894C171.339 138.634 168.711 138.887 166.205 139.638L165 140C161.733 141.307 158.902 143.51 156.833 146.355L156 147.5L153.318 152.48C152.774 153.492 152.317 154.548 151.954 155.638L150 161.5L148 168L146.5 172.5L150 168L152.5 165.5L157 163L159 162.5L157 163.5L154 166L152.5 168L149.5 171.5L148.063 173.8C147.356 174.93 146.764 176.129 146.296 177.377L145.5 179.5L143.5 184.5L141.966 188.488C141.325 190.155 140.91 191.901 140.732 193.678L140.5 196L140 200L133.423 231.476C133.142 232.822 133 234.193 133 235.567V241L132 262L132.914 288.057C132.971 289.68 133.225 291.289 133.672 292.85L138 308L133 294.5L132 290.5L130.5 278L130 261.5L128.651 262.1C126.566 263.026 124.337 263.589 122.062 263.764L121.012 263.845C119.674 263.948 118.329 263.916 116.998 263.75L111 263L107 260.5L109.5 264L110.87 264.959C113.261 266.633 115.989 267.763 118.864 268.27L120.281 268.52C122.085 268.839 123.924 268.908 125.747 268.725L128 268.5L127.451 268.665C124.523 269.543 121.432 269.739 118.416 269.236L116.966 268.994C115 268.667 113.093 268.047 111.31 267.155L107 265L102.5 261.5L99.2387 259.995C97.0965 259.006 95.1461 257.646 93.4777 255.978L93.4003 255.9C92.4691 254.969 91.632 253.948 90.9015 252.852L89.6878 251.032C88.569 249.354 87.7105 247.516 87.1415 245.581L86.4827 243.341C85.8325 241.13 85.5692 238.824 85.7045 236.523L86 231.5L86.3559 237.551C86.4516 239.177 86.7458 240.786 87.2318 242.342L88.0903 245.089C88.6933 247.018 89.5853 248.845 90.736 250.508L91.2284 251.219C92.728 253.385 94.6409 255.233 96.857 256.658L100.5 259L94.5283 251.322C93.844 250.442 93.2344 249.507 92.7059 248.525L91.4748 246.239C90.4975 244.424 89.8066 242.469 89.4267 240.443L88.9756 238.037C88.6598 236.352 88.5618 234.635 88.6839 232.926L88.8607 230.451C88.9533 229.153 89.1723 227.868 89.5146 226.613L90.5 223L91.5 221.5L89.5 221L88 223.5L86.5 227.5L87.5 223L88.5 220.5L85.5 217C83.5507 214.726 82.3762 211.89 82.1464 208.904L82.1384 208.799C82.0465 207.605 82.1085 206.403 82.3228 205.225C82.7663 202.786 83.8503 200.508 85.4638 198.626L86 198C84.6847 200.631 84 203.531 84 206.472V207.202C84 207.733 84.0377 208.264 84.1128 208.79L84.2128 209.49C84.4015 210.811 84.9048 212.067 85.6803 213.152C86.5443 214.362 87.7164 215.318 89.0748 215.922L89.1898 215.973C90.6993 216.644 92.3674 216.876 94.0027 216.642L95 216.5L92.0581 215.193C91.0331 214.737 90.1265 214.052 89.4084 213.19C88.4898 212.088 87.9155 210.74 87.757 209.313L87.6979 208.781C87.5672 207.605 87.6672 206.415 87.9924 205.277L88.5 203.5V205.731C88.5 206.574 88.6033 207.413 88.8077 208.231C89.2607 210.043 90.1977 211.698 91.5184 213.018L92.5 214L96.5 215L98.5 214L100 210V206L98 197L95.6356 190.301C95.2128 189.103 94.9051 187.868 94.7167 186.611L93.7213 179.975C93.574 178.993 93.5 178.001 93.5 177.008V171.301C93.5 169.443 93.759 167.594 94.2695 165.807L94.9053 163.582C95.3006 162.198 95.8441 160.861 96.5263 159.594L97.838 157.158C98.6098 155.725 99.5536 154.391 100.649 153.186L102.658 150.976C103.548 149.997 104.3 148.9 104.892 147.716C105.625 146.249 106.104 144.669 106.307 143.042L106.5 141.5L108 126L107.5 113.5L106.5 98L108 87L111 78.5L113.5 74L118.5 68L127 60.5L131.356 54.5604C132.117 53.5226 132.776 52.4137 133.324 51.2491L135.497 46.6311C136.163 45.2153 136.661 43.7261 136.98 42.1942L138.676 34.0558C138.892 33.0202 139.189 32.0034 139.566 31.0149L142.037 24.5268C142.676 22.8499 143.538 21.2666 144.599 19.8195L147.357 16.0582C148.117 15.0218 148.975 14.0611 149.92 13.1894L155 8.5L158.238 6.34129C159.078 5.78123 159.959 5.2856 160.874 4.85863L165.131 2.87226C166.374 2.29229 167.673 1.84169 169.008 1.52758L172.829 0.628567C174.601 0.211476 176.423 0.0384383 178.242 0.114249L183.934 0.351435C186.293 0.449702 188.615 0.964689 190.794 1.87256L193.5 3L190.579 2.02633C188.54 1.34656 186.404 1 184.254 1H177.821C176.279 1 174.742 1.1784 173.24 1.53166L169.756 2.35143C167.928 2.78167 166.169 3.46735 164.532 4.38827L161.089 6.32496C159.701 7.10553 158.412 8.04901 157.248 9.13536L152.901 13.1923C151.969 14.0621 151.123 15.019 150.373 16.05L147.5 20L146.116 22.4912C145.374 23.826 144.788 25.2414 144.369 26.7096L143 31.5L141 38.5L139.5 43.5L138.063 47.8107C137.688 48.9347 137.215 50.0231 136.647 51.0632L135.342 53.4563C134.782 54.4834 134.132 55.4595 133.402 56.3731L131.491 58.7618C130.831 59.586 130.108 60.3567 129.327 61.0667L125 65L121 68L115 75L111 84L109.5 90.5L108.5 101L109.5 115L111 125.5L110.5 134.5L113 126.5L113.5 118V108L113 95L114 85.5L117.5 78.5L124 71L131.174 62.9817C132.056 61.9963 132.838 60.9259 133.508 59.7862L136.312 55.0194C137.101 53.6777 137.731 52.2485 138.189 50.7607L139.5 46.5L145 31.5L147.79 25.2236C148.592 23.4178 149.658 21.741 150.952 20.2477L155.5 15L162.556 10.6877C163.848 9.89846 165.225 9.25836 166.661 8.77971L173.5 6.5L180.357 4.97626C181.781 4.6597 183.236 4.5 184.695 4.5H190L198.5 5.5L204.5 7.5L208.5 6.5H213.5L217.149 7.6227C219.033 8.20236 220.79 9.13224 222.329 10.3635C224.089 11.7713 226.132 12.7829 228.318 13.3295L231 14L235.247 14.7494C238.05 15.2441 240.715 16.3315 243.065 17.9389L245.103 19.3339C247.666 21.0872 249.785 23.413 251.293 26.1272L251.5 26.5L251.382 25.435C251.133 23.2002 250.198 21.0975 248.704 19.4169C247.583 18.1563 246.185 17.1739 244.619 16.5475L242 15.5L237.5 14L231.799 12.9311C230.272 12.6447 228.783 12.1811 227.362 11.5499L226.555 11.1912C225.52 10.7312 224.526 10.1842 223.584 9.55597L223.5 9.5L217 5.5L209 5L204.5 5.5H202.5C204.136 4.51848 206.008 4 207.915 4H209L217.5 5L224.5 8.5L227.108 9.94867C228.366 10.6475 229.695 11.2086 231.074 11.6221L234 12.5L240.113 13.8585C242.027 14.2837 243.866 14.9946 245.568 15.9672L246.635 16.577C248.841 17.8378 250.687 19.6445 251.994 21.8236C252.662 22.9364 253.181 24.132 253.537 25.3798L255 30.5L257.5 43L259 56.5L262 65L270.5 77L276.5 85L280.5 93.5L281.5 103.5L279 112.5L270.5 127L278 112L280.5 103.5L279 93.5L277.5 90.5L278 99.5L277.5 106.5L276.5 113L273.5 118.5L269.5 125L266 130L264.5 132V134L264 136L263 138.5L261 144L259.5 153.5L261 161L267.5 170.5L272.5 176.5L274.029 178.411C275.629 180.411 276.5 182.895 276.5 185.455C276.5 186.807 276.257 188.148 275.782 189.414L275.584 189.943C275.198 190.973 275 192.063 275 193.162C275 194.696 274.615 196.206 273.881 197.552L269 206.5L268.06 207.835C263.863 213.8 266.778 222.123 273.78 224.165C279.224 225.753 282.464 231.333 281.145 236.848L278 250L266.956 278.716C266.078 280.997 266.692 283.583 268.5 285.227C270.05 286.636 272.228 287.122 274.229 286.506L284 283.5L277.932 287.458C274.489 289.703 270.228 290.309 266.296 289.112C262.895 288.077 260.021 285.778 258.264 282.688L249.114 266.597C247.401 263.584 246.5 260.178 246.5 256.711V235.14C246.5 231.181 245.068 227.355 242.467 224.37L236.34 217.334C234.43 215.142 231.189 214.708 228.769 216.321C227.627 217.082 226.793 218.225 226.416 219.544L226.21 220.264C226.07 220.753 225.979 221.256 225.936 221.763L225.5 227L225.15 222.796C225.05 221.602 225.075 220.401 225.224 219.212L225.242 219.06C225.413 217.692 225.759 216.352 226.271 215.072C227.082 213.045 228.296 211.204 229.84 209.66L230.5 209L233.5 206.5L233 194L234 188.5L235.5 184.5L229 180.5L224.5 181.5L223.518 182.201C221.849 183.393 220.374 184.835 219.143 186.476L218 188L217.947 188.062C216.053 190.271 213.392 191.679 210.5 192L213 195L216 198L212 195.5L209 192.5L204.5 186.5L198.5 177.5L193.904 171.233C193.302 170.412 192.638 169.638 191.919 168.919L189.17 166.17C188.391 165.391 187.549 164.678 186.653 164.038L182.842 161.316C181.618 160.441 180.299 159.708 178.91 159.129L175 157.5H167.5L175.5 157L179.507 158.541C181.162 159.178 182.724 160.031 184.154 161.08L188.267 164.096C189.088 164.698 189.862 165.362 190.581 166.081L193.419 168.919C194.138 169.638 194.802 170.412 195.404 171.233L200 177.5L207.5 188L209 190.5H210.5L211.659 190.307C212.873 190.105 214.029 189.647 215.053 188.965C216.008 188.328 216.828 187.508 217.465 186.553L218.507 184.99C219.167 183.999 219.924 183.076 220.766 182.234L221.5 181.5L225 180L226.5 179.5L219.5 175L213 171L198.5 159L183 145.5L176 142L180 143.5L183.5 145L188.5 149L200 158L207.5 164.5L214.5 169.5L216.5 140.5V139.5H221H224.5L228.5 137L234.5 131L244.5 115L249.5 103L251 95V86.5L249 80L247.5 72L247 67.5L241 64.5L237 64L232.5 65L229.5 67L227 70L226 73.5L225.5 77V82.5L226.5 87.5L228 91.5L229.5 95L229 97L225 99L219.5 100.5L222.5 99.5L225 98.5L228.5 97L229 95L228 92.5L226 87.5L225 83V77.5L225.5 73.5L227 70L228.5 67L230 65L232.5 62L237 60H242.5L246.5 61.5L245 56.5L242 48L237.5 41.5L230.5 34L226 30.5L222.5 29L211 31.5L199 43L195 52.5L189.5 61.5L193.5 60L199 58.5H206L212.5 60L217.5 62Z" fill="#273AAA"/>
<path d="M234 73L230 76L235.5 71.5L238 71H242L245 72.5L246.5 74.5L247.5 77L245 73.5L243.5 72.75V74L242.5 75.5L239.5 76.5H237L235.75 75L235.5 73.5L235.75 72.25L234 73Z" fill="#273AAA"/>
<path d="M205.82 113.852L205 113.5H207.177C208.057 113.5 208.935 113.413 209.797 113.241L209.99 113.202C210.662 113.068 211.32 112.872 211.956 112.617L212.298 112.481C213.095 112.162 213.841 111.727 214.511 111.191L215.25 110.6C215.744 110.205 216.318 109.921 216.932 109.767C217.633 109.592 218.367 109.592 219.068 109.767L220 110L221.201 110.24C222.043 110.409 222.917 110.292 223.685 109.908L223.758 109.871C224.246 109.627 224.784 109.5 225.329 109.5C226.089 109.5 226.829 109.746 227.437 110.202L228.5 111C230.15 111.99 231.981 112.64 233.886 112.912L234.5 113L233.693 113.23C231.906 113.741 230.057 114 228.199 114H228L223 113.5H221.11C219.379 113.5 217.658 113.753 216 114.25L215.497 114.401C214.173 114.798 212.798 115 211.415 115C209.492 115 207.588 114.609 205.82 113.852Z" fill="#273AAA"/>
<path d="M219 122L215.5 121L219 121.5L222.5 122L226 121L228.5 120L226 121.5L222.5 122.5L219 122Z" fill="#273AAA"/>
<path d="M168 110L174.5 118L181.5 124.5L196.5 132.5L210.5 138.5L217.5 140H220.5" stroke="#273AAA"/>
<path d="M356.406 120.017L353.608 118.618L350.344 117.219L346.613 115.82L341.95 116.287L338.219 120.017L337.287 121.416L338.686 120.017L341.14 117.564L341.017 119.085L341.95 121.883L342.883 123.282H343.349H345.199L346.613 123L348.012 122.815L349.2 122.349L351 122L350 121.883H348.479L349 119.5L348.479 118.152L348.012 116.753L350.81 117.686L356.406 120.017Z" fill="#273AAA"/>
<path d="M332.623 108.825V111.623L338.219 110.691L343.815 110.924L349.639 110.691L355.007 111.157L359.904 110.924L361.07 113.489L363.401 120.017L369.464 128.411L378.791 132.608L386.252 134.474H390.915L388.117 141.469L383.454 144.733L379.723 145.2L377.392 143.8L378.324 149.397V154.06L374.594 160.589L372.836 164.858C371.841 167.273 371.329 169.86 371.329 172.473V173.997C371.329 175.314 371.459 176.628 371.718 177.919L372.262 180.641L372.983 180.569C375.586 180.309 378.214 180.561 380.72 181.313L381.589 181.574C384.635 182.792 387.276 184.847 389.206 187.501L389.983 188.569L392.429 193.111C392.973 194.122 393.43 195.179 393.793 196.269L395.579 201.626L397.444 207.688L398.843 211.885L395.579 207.688L393.247 205.357L389.05 203.025L387.185 202.559L389.05 203.491L391.848 205.823L393.247 207.688L396.045 210.953L397.314 212.983C398.021 214.114 398.612 215.312 399.081 216.561L399.776 218.414L401.641 223.077L403.007 226.628C403.648 228.295 404.063 230.04 404.24 231.817L404.439 233.803L404.905 237.534L411.011 266.755C411.292 268.1 411.434 269.471 411.434 270.845V275.773L412.367 295.359V309.468C412.367 311.327 412.108 313.176 411.597 314.963L407.703 328.591L412.367 316L413.299 312.269L413.307 312.237C413.612 310.937 413.786 309.609 413.826 308.274L414.232 294.893L415.278 295.358C417.363 296.284 419.592 296.848 421.867 297.023L422.479 297.07C423.817 297.173 425.162 297.141 426.494 296.974L431.953 296.292L435.683 293.96L433.352 297.224L432.318 297.948C429.927 299.621 427.199 300.752 424.325 301.259L423.479 301.408C421.675 301.726 419.836 301.795 418.014 301.613L416.097 301.421L416.31 301.485C419.238 302.364 422.329 302.559 425.344 302.056L426.188 301.916C428.155 301.588 430.061 300.968 431.844 300.077L435.683 298.157L439.88 294.893L442.862 293.516C444.9 292.576 446.755 291.283 448.341 289.696C449.227 288.81 450.023 287.839 450.718 286.797L451.716 285.3C452.835 283.622 453.693 281.784 454.263 279.849L454.753 278.182C455.403 275.971 455.666 273.664 455.531 271.364L455.269 266.913L454.947 272.391C454.851 274.018 454.557 275.627 454.071 277.182L453.381 279.391C452.778 281.32 451.886 283.147 450.735 284.809L450.546 285.083C449.046 287.249 447.133 289.098 444.917 290.522L441.746 292.561L447.246 285.489C447.93 284.609 448.54 283.674 449.068 282.692L450.064 280.844C451.041 279.029 451.732 277.073 452.112 275.047L452.462 273.18C452.778 271.496 452.876 269.778 452.754 268.069L452.611 266.065C452.518 264.768 452.299 263.483 451.957 262.228L451.072 258.985L450.14 257.586L452.005 257.12L453.404 259.451L454.803 263.182L453.87 258.985L452.938 256.653L455.736 253.389C457.554 251.268 458.649 248.623 458.863 245.838L458.871 245.74C458.957 244.626 458.899 243.506 458.699 242.407C458.285 240.132 457.274 238.007 455.769 236.252L455.269 235.668C456.496 238.122 457.135 240.827 457.135 243.57V244.251C457.135 244.746 457.099 245.241 457.029 245.732L456.936 246.384C456.76 247.616 456.291 248.788 455.567 249.801C454.762 250.929 453.669 251.821 452.402 252.384L452.294 252.431C450.886 253.057 449.331 253.273 447.805 253.056L446.875 252.923L449.619 251.703C450.575 251.278 451.421 250.639 452.09 249.836C452.947 248.808 453.483 247.55 453.631 246.22L453.686 245.724C453.808 244.627 453.714 243.516 453.411 242.455L452.938 240.798V242.879C452.938 243.665 452.841 244.448 452.651 245.21C452.228 246.9 451.354 248.444 450.122 249.676L449.207 250.591L445.476 251.524L443.611 250.591L442.212 246.86V243.13L444.077 234.736L446.24 228.609C446.662 227.411 446.97 226.176 447.159 224.919L448.053 218.956C448.2 217.974 448.274 216.983 448.274 215.99V210.956C448.274 209.097 448.015 207.248 447.505 205.461L447.004 203.707C446.608 202.324 446.065 200.987 445.383 199.72L444.307 197.722C443.535 196.288 442.591 194.955 441.496 193.75L439.733 191.811C438.902 190.897 438.201 189.874 437.649 188.77C436.965 187.402 436.519 185.928 436.329 184.411L436.15 182.973L434.751 168.516L435.217 156.858L436.15 142.401L434.751 132.142L431.953 124.214L429.621 120.017L424.958 114.421L417.03 107.426L413.045 101.992C412.283 100.954 411.624 99.8451 411.076 98.6805L409.172 94.6348C408.506 93.219 408.008 91.7299 407.689 90.198L406.162 82.8675C405.946 81.8319 405.649 80.8151 405.272 79.8267L403.07 74.0456C402.431 72.3686 401.569 70.7853 400.508 69.3382L398.12 66.0819C397.36 65.0455 396.502 64.0848 395.558 63.2131L390.915 58.9277L387.98 56.971C387.14 56.4109 386.259 55.9153 385.344 55.4883L381.592 53.7376C380.35 53.1576 379.05 52.707 377.715 52.3929L374.467 51.6286C372.694 51.2115 370.873 51.0384 369.054 51.1142L364.169 51.3178C361.811 51.416 359.488 51.931 357.309 52.8389L355.007 53.798L357.524 52.959C359.564 52.2792 361.699 51.9327 363.849 51.9327H369.474C371.017 51.9327 372.554 52.1111 374.055 52.4643L376.967 53.1494C378.795 53.5797 380.554 54.2654 382.191 55.1863L385.096 56.82C386.483 57.6005 387.773 58.544 388.937 59.6304L392.778 63.216C393.71 64.0858 394.557 65.0427 395.307 66.0737L397.91 69.6534L399.126 71.8415C399.867 73.1764 400.454 74.5917 400.873 76.06L402.107 80.3791L403.973 86.9077L405.372 91.5711L406.674 95.4778C407.048 96.6018 407.522 97.6902 408.09 98.7303L409.193 100.753C409.753 101.78 410.402 102.756 411.133 103.67L412.775 105.722C413.434 106.546 414.158 107.317 414.939 108.027L418.895 111.623L422.626 114.421L428.222 120.95L431.953 129.344L433.352 135.406L434.284 145.2L433.352 158.257L431.953 168.05L432.419 176.444L430.087 168.983L429.621 161.055V151.728L430.087 139.603L429.155 130.743L425.89 124.214L419.828 117.219L413.226 109.841C412.344 108.855 411.563 107.785 410.892 106.645L408.425 102.451C407.636 101.109 407.006 99.6799 406.548 98.1921L405.372 94.3691L400.242 80.3791L397.722 74.7086C396.919 72.9029 395.853 71.226 394.559 69.7327L390.449 64.99L383.998 61.0481C382.707 60.2588 381.33 59.6187 379.894 59.1401L373.661 57.0623L367.41 55.6733C365.985 55.3567 364.531 55.197 363.071 55.197H358.272L350.344 56.1297L344.748 57.995L341.017 57.0623H336.354L332.951 58.1095C331.194 58.6501 329.555 59.5174 328.119 60.6658C326.478 61.9787 324.573 62.9222 322.534 63.432L320.032 64.0574L316.358 64.7058C313.555 65.2005 310.889 66.2879 308.54 67.8953L307.141 68.8526C304.578 70.6059 302.459 72.9317 300.951 75.6459L300.913 75.7157L301.023 74.7224C301.255 72.6381 302.127 70.6769 303.521 69.1095C304.566 67.9338 305.87 67.0175 307.331 66.4333L309.773 65.4564L313.97 64.0574L319.132 63.0895C320.66 62.803 322.149 62.3395 323.569 61.7083L324.092 61.4759C325.114 61.0215 326.096 60.481 327.027 59.8603L333.09 56.1297L340.551 55.6633L344.748 56.1297H346.613C345.088 55.2142 343.342 54.7307 341.563 54.7307H340.551L332.623 55.6633L326.095 58.9277L323.79 60.208C322.532 60.9069 321.203 61.4679 319.824 61.8814L317.234 62.6584L311.533 63.9254C309.748 64.322 308.033 64.985 306.446 65.8921L305.45 66.4608C303.393 67.6368 301.671 69.3218 300.452 71.3542C299.829 72.392 299.345 73.5071 299.013 74.6709L297.648 79.4464L295.317 91.1047L293.918 103.696L291.12 111.623L283.192 122.815L277.596 130.277L273.865 138.204L272.933 147.531L275.264 155.925L283.192 169.449L276.197 155.459L273.865 147.531L275.264 138.204L276.663 135.406L276.197 143.8L276.663 150.329L277.596 156.392L280.394 161.521L284.125 167.584L287.389 172.247L288.788 174.112V176.5V179L290.187 180.175L292.052 185.304L293.451 194.165L292.052 201.16L276.946 237.534L267.62 245.461L263.423 251.524L262.956 252.456L265.754 254.322L269.485 251.524L263.423 262.249L272.52 275.412C273.973 277.513 276.681 278.338 279.058 277.401L279.651 277.168C281.717 276.354 284.07 277.094 285.299 278.942C286.333 280.497 286.351 282.515 285.346 284.088L276.946 297.224L289.359 286.076C289.784 285.694 290.258 285.368 290.767 285.107L294.269 283.311C297.092 281.863 300.446 283.913 300.446 287.085C300.446 289.675 302.747 291.66 305.308 291.281L309.034 290.731L318.167 288.5L312 287.5L309.351 287.147C306.378 286.75 303.883 284.709 302.907 281.873C302.515 280.735 301.869 279.701 301.018 278.85L299.514 277.345C297.874 275.979 297.388 273.664 298.339 271.753L317.023 234.236C317.766 232.744 318.006 231.051 317.708 229.412C317.401 227.724 317.665 225.982 318.457 224.461L319.275 222.891C319.757 221.967 320.348 221.105 321.037 220.324L321.898 219.347L326.095 220.279L326.841 220.812C328.51 222.004 329.985 223.446 331.216 225.087L332.157 226.342L332.207 226.4C333.973 228.46 336.455 229.773 339.152 230.072L336.82 232.87L334.022 235.668L337.753 233.337L340.551 230.539L344.748 224.943L350.344 216.549L354.569 210.787C355.171 209.966 355.835 209.192 356.555 208.472L358.967 206.061C359.746 205.282 360.588 204.568 361.484 203.928L364.823 201.543C366.048 200.668 367.367 199.935 368.756 199.356L372.262 197.895H379.257L371.796 197.429L368.227 198.802C366.572 199.438 365.009 200.292 363.579 201.34L359.972 203.986C359.15 204.588 358.377 205.252 357.657 205.972L355.156 208.472C354.436 209.192 353.772 209.966 353.17 210.787L348.945 216.549L341.95 226.342L340.551 228.673H339.152L338.071 228.493C336.939 228.305 335.86 227.878 334.906 227.241C334.015 226.647 333.25 225.883 332.656 224.992L331.685 223.534C331.068 222.61 330.362 221.749 329.577 220.964L328.893 220.279L325.628 218.88L324.229 218.414L330.758 214.217L336.82 210.486L350.344 199.294L364.8 186.703L371.329 183.439L367.599 184.838L364.334 186.237L359.671 189.968L348.945 198.362L341.95 204.424L335.421 209.087L333.556 182.04V181.107H329.359H326.095L322.364 178.776L316.768 173.18L307.441 158.257L302.778 147.065L301.379 139.603V131.676L303.244 125.613L304.643 118.152V111.623L310.706 111.157L314.436 110.691L318.633 111.623L321.431 113.489L323.763 116.287L324.696 119.551L325.162 122.815L324.229 127.034L322.298 131.676L319.5 134.567L318.633 136.296L319.1 138.161L323.697 142.401L328.827 143.8L326.029 142.868L323.697 141.935L319.566 138.161L319.1 136.296L319.5 135.5L322.764 131.676L324.696 127.5L325.628 123.282L325.162 119.551L323.763 116.287L322.364 113.489L320.965 111.623L318.633 108.825L314.436 106.96L309.307 108.825L304.643 110.691L306.975 103.696L309.773 95.7681L313.97 89.7057L320.499 82.7107L324.696 79.4464L327.96 78.0474L338.686 80.3791L349.878 91.1047L353.608 99.9651L359.5 109.5H355.007L350 108.359L344 107.5L337.287 106.96L332.623 108.825Z" fill="#273AAA"/>
<path d="M317.234 119.085L320.965 121.883L315.835 117.686L313.504 117.219H309.773L306.975 118.618L305.576 120.484L304.643 122.815L306.975 119.551L308.374 118.852V120.95L309.307 122.349L312.105 123.282H314.436L315.602 121.883L315.835 120.484L315.602 118.385L317.234 119.085Z" fill="#273AAA"/>
<path d="M343.533 160.765L345.199 161.5L341.017 158.257L339.666 157.176C339.016 156.656 338.293 156.234 337.52 155.925L337.475 155.907C336.732 155.61 336.036 155.205 335.411 154.705L334.722 154.153C334.261 153.784 333.726 153.519 333.153 153.376C332.499 153.213 331.815 153.213 331.161 153.376L330.292 153.594L329.172 153.818C328.386 153.975 327.571 153.865 326.855 153.507L326.786 153.473C326.332 153.246 325.83 153.127 325.321 153.127C324.613 153.127 323.923 153.357 323.356 153.782L322.364 154.526C320.819 155.453 319.428 156.616 318.242 157.972L316.768 159.656L317.342 159.492C319.127 158.982 320.974 158.723 322.83 158.723L327.494 158.257H329.256C330.871 158.257 332.476 158.493 334.022 158.956L334.52 159.106C335.736 159.471 336.999 159.656 338.269 159.656C340.081 159.656 341.874 160.034 343.533 160.765Z" fill="#273AAA"/>
<path d="M331.224 164.786L335 164.319H331.224L327.96 164.786L324.696 163.853L321.431 163L324.696 164.319L327.96 165.252L331.224 164.786Z" fill="#273AAA"/>
<path d="M348.274 128.889L349.818 125L351.746 128.889L353.135 131.611C353.665 132.766 353.959 134.015 353.999 135.285L354 135.306C353.964 137.006 352.742 138.448 351.071 138.763L350.521 138.867C350.057 138.955 349.579 138.951 349.116 138.857L348.864 138.806C347.222 138.471 346.079 136.977 346.186 135.306V135.271C346.186 134.011 346.446 132.765 346.951 131.611L348.274 128.889Z" fill="#273AAA"/>
<path d="M378.791 153.594L372.728 161.055L366.2 167.117L352.209 174.579L339.152 180.175L332.623 181.574H329.825" stroke="#273AAA"/>
</svg>
