<svg width="365" height="1464" viewBox="0 0 365 1464" fill="none" xmlns="http://www.w3.org/2000/svg">
<mask id="mask0_572_420" style="mask-type:luminance" maskUnits="userSpaceOnUse" x="41" y="30" width="284" height="442">
<path d="M52.6828 54.4631L41.6967 440.19C41.3119 453.701 51.9525 464.965 65.4632 465.35L288.193 471.694C301.703 472.079 312.968 461.438 313.353 447.927L324.339 62.2002C324.724 48.6896 314.083 37.4251 300.572 37.0403L77.8427 30.6966C64.3321 30.3118 53.0676 40.9524 52.6828 54.4631Z" fill="white"/>
</mask>
<g mask="url(#mask0_572_420)">
<path d="M46.6464 266.406L51.5377 325.763C51.9106 330.395 52.0501 335.039 51.918 339.676L51.2872 363.189C51.0927 370.018 51.616 376.867 53.1741 383.513C54.3685 388.614 54.977 393.835 55.0024 399.078L55.591 416.588C56.7493 421.592 56.7725 426.912 58.0186 434.287C58.6579 436.382 60.005 438.168 61.7943 439.423C63.3359 440.515 64.3809 442.681 65.0928 444.953C66.322 448.832 69.2815 451.946 73.0214 453.567L73.6162 453.816C76.1698 454.821 79.6269 455.463 82.3817 455.542L107.266 459.182L164.552 462.25C165.502 462.297 166.431 462.382 167.379 462.506L229.081 470.01L41 464.653L42.5869 408.937" fill="#273AAA"/>
<path d="M46.6464 266.406L51.5377 325.763C51.9106 330.395 52.0501 335.039 51.918 339.676L51.2872 363.189C51.0927 370.018 51.616 376.867 53.1741 383.513C54.3685 388.614 54.977 393.835 55.0024 399.078L55.591 416.588C56.7493 421.592 56.7725 426.912 58.0186 434.287C58.6579 436.382 60.005 438.168 61.7943 439.423C63.3359 440.515 64.3809 442.681 65.0928 444.953C66.322 448.832 69.2815 451.946 73.0214 453.567L73.6162 453.816C76.1698 454.821 79.6269 455.463 82.3817 455.542L107.266 459.182L164.552 462.25C165.502 462.297 166.431 462.382 167.379 462.506L229.081 470.01L41 464.653L42.5869 408.937" stroke="#273AAA" stroke-miterlimit="10"/>
<path d="M317.453 303.961L313.151 214.371C312.944 210.055 314.67 202.629 313.311 198.533L313.298 186.728C311.313 180.749 310.989 170.295 311.358 162.811C311.447 161.047 311.513 154.622 311.018 152.919C311.272 154.926 310.435 148.864 310.65 144.035C310.798 140.875 310.101 138.078 310.052 135.048C309.962 130.696 309.605 128.24 310.086 123.633C310.407 120.516 310.265 117.347 309.654 114.262L307.465 103.152C306.644 99.9642 310.561 89.203 310.306 85.9145L310.292 74.1095C310.009 70.4319 308.121 65.8154 306.001 61.8719C304.453 58.9543 302.075 56.5373 299.209 54.9025L294.319 52.0838C291.702 50.5725 289.328 48.7381 286.974 46.8654C283.271 43.9253 277.742 44.4474 272.55 43.3869L231.838 35.1019L325.074 37.7574L317.492 303.981" fill="#273AAA"/>
<path d="M317.453 303.961L313.151 214.371C312.944 210.055 314.67 202.629 313.311 198.533L313.298 186.728C311.313 180.749 310.989 170.295 311.358 162.811C311.447 161.047 311.513 154.622 311.018 152.919C311.272 154.926 310.435 148.864 310.65 144.035C310.798 140.875 310.101 138.078 310.052 135.048C309.962 130.696 309.605 128.24 310.086 123.633C310.407 120.516 310.265 117.347 309.654 114.262L307.465 103.152C306.644 99.9642 310.561 89.203 310.306 85.9145L310.292 74.1095C310.009 70.4319 308.121 65.8154 306.001 61.8719C304.453 58.9543 302.075 56.5373 299.209 54.9025L294.319 52.0838C291.702 50.5725 289.328 48.7381 286.974 46.8654C283.271 43.9253 277.742 44.4474 272.55 43.3869L231.838 35.1019L325.074 37.7574L317.492 303.981" stroke="#273AAA" stroke-miterlimit="10"/>
</g>
<path d="M52.6828 54.4631L41.6967 440.19C41.3119 453.701 51.9525 464.965 65.4632 465.35L288.193 471.694C301.703 472.079 312.968 461.438 313.353 447.927L324.339 62.2002C324.724 48.6896 314.083 37.4251 300.572 37.0403L77.8427 30.6966C64.3321 30.3118 53.0676 40.9524 52.6828 54.4631Z" stroke="#273AAA" stroke-miterlimit="10"/>
<path d="M146.856 253.243L144.145 248.914L155.534 247.122C157.87 246.256 160.435 246.174 162.822 246.883L169.695 248.923L160.121 249L146.875 253.243L146.856 253.243Z" fill="#273AAA" stroke="#273AAA" stroke-miterlimit="10"/>
<path d="M148.051 234.463L147.749 233.483C147.074 231.27 147.22 228.886 148.135 226.757L150.234 221.885C150.712 220.792 151.438 219.842 152.353 219.092C153.267 218.341 154.103 217.627 154.846 216.755L158.06 212.983L157.48 219.723C156.12 222.48 155.355 225.487 155.267 228.572L155.247 229.27C155.174 231.812 155.588 234.347 156.471 236.741L157.389 239.253C157.642 239.939 157.992 240.59 158.422 241.165L163.231 247.535L154.835 243.063L152.689 241.352C150.468 239.58 148.828 237.164 148.013 234.423L148.051 234.463Z" fill="#273AAA" stroke="#273AAA" stroke-miterlimit="10"/>
<path d="M164.588 248.292L162.839 250.378L162.473 250.969C160.783 253.736 158.735 256.784 159.109 260.018L159.076 261.182L159.042 262.346C160.541 266.99 161.424 268.705 165.851 270.753L168.165 271.984L170.479 273.214C174.63 274.731 178.946 275.222 183.347 274.746L189.273 272.565L194.927 269.698L198.544 266.772C202.656 262.132 202.831 259.399 205.284 255.081L208.257 250.196L211.148 246.181L208.901 242.603C207.804 240.223 204.375 236.533 202.984 234.921L197.328 228.314C193.458 223.796 188.106 220.809 182.25 219.885C177.611 219.151 172.85 219.967 168.747 222.238C164.96 224.324 162.18 227.837 161.014 231.978L160.473 233.943L160.354 238.114C160.809 241.233 160.842 240.05 161.925 243.614L163.022 245.995L164.589 248.253L164.588 248.292Z" fill="#273AAA" stroke="#273AAA" stroke-miterlimit="10"/>
<mask id="mask1_572_420" style="mask-type:luminance" maskUnits="userSpaceOnUse" x="14" y="914" width="338" height="477">
<path d="M351.544 1325.48L289.435 935.719C287.259 922.067 274.429 912.764 260.777 914.939L35.7189 950.803C22.067 952.978 12.7636 965.809 14.939 979.461L77.0486 1369.22C79.2241 1382.87 92.0547 1392.18 105.707 1390L330.764 1354.14C344.416 1351.96 353.72 1339.13 351.544 1325.48Z" fill="white"/>
</mask>
<g mask="url(#mask1_572_420)">
<path d="M317.417 1111.32L301.244 1052.59C299.991 1048.01 298.97 1043.36 298.224 1038.68L294.399 1014.93C293.299 1008.03 291.474 1001.24 288.648 994.859C286.48 989.958 284.878 984.827 283.858 979.562L279.946 962.075C277.833 957.266 276.801 951.923 274.15 944.748C273.11 942.763 271.417 941.223 269.381 940.301C267.625 939.496 266.164 937.518 265.017 935.369C263.046 931.703 259.481 929.135 255.415 928.216L254.77 928.077C252.013 927.552 248.416 927.562 245.633 928.006L219.933 929.066L161.776 936.846C160.812 936.979 159.862 937.07 158.886 937.126L95.4481 941.285L285.496 911L294.467 967.299" fill="#273AAA"/>
<path d="M317.417 1111.32L301.244 1052.59C299.991 1048.01 298.97 1043.36 298.224 1038.68L294.399 1014.93C293.299 1008.03 291.474 1001.24 288.648 994.859C286.48 989.958 284.878 984.827 283.858 979.562L279.946 962.075C277.833 957.266 276.801 951.923 274.15 944.748C273.11 942.763 271.417 941.223 269.381 940.301C267.625 939.496 266.164 937.518 265.017 935.369C263.046 931.703 259.481 929.135 255.415 928.216L254.77 928.077C252.013 927.552 248.416 927.562 245.633 928.006L219.933 929.066L161.776 936.846C160.812 936.979 159.862 937.07 158.886 937.126L95.4481 941.285L285.496 911L294.467 967.299" stroke="#273AAA" stroke-miterlimit="10"/>
<path d="M38.1204 1124.93L59.4344 1214.16C60.4611 1218.46 60.1347 1226.25 62.2774 1230.11L64.5295 1241.97C67.6581 1247.6 69.966 1258.05 71.0149 1265.64C71.26 1267.43 72.4116 1273.9 73.2322 1275.52C72.5968 1273.55 74.5877 1279.48 75.2871 1284.38C75.7374 1287.58 76.9682 1290.26 77.5927 1293.29C78.5081 1297.65 79.333 1300.05 79.7236 1304.77C79.9913 1307.97 80.7357 1311.13 81.9349 1314.11L86.2411 1324.86C87.6715 1327.91 85.7748 1339.47 86.6555 1342.72L88.9076 1354.59C89.8901 1358.23 92.6628 1362.51 95.5419 1366.07C97.6508 1368.71 100.499 1370.69 103.689 1371.79L109.138 1373.69C112.055 1374.72 114.79 1376.11 117.511 1377.55C121.789 1379.8 127.247 1378.23 132.667 1378.31L175.156 1378.91L80.9453 1393.93L38.0781 1124.92" fill="#273AAA"/>
<path d="M38.1204 1124.93L59.4344 1214.16C60.4611 1218.46 60.1347 1226.25 62.2774 1230.11L64.5295 1241.97C67.6581 1247.6 69.966 1258.05 71.0149 1265.64C71.26 1267.43 72.4116 1273.9 73.2322 1275.52C72.5968 1273.55 74.5877 1279.48 75.2871 1284.38C75.7374 1287.58 76.9682 1290.26 77.5927 1293.29C78.5081 1297.65 79.333 1300.05 79.7236 1304.77C79.9913 1307.97 80.7357 1311.13 81.9349 1314.11L86.2411 1324.86C87.6715 1327.91 85.7748 1339.47 86.6555 1342.72L88.9076 1354.59C89.8901 1358.23 92.6628 1362.51 95.5419 1366.07C97.6508 1368.71 100.499 1370.69 103.689 1371.79L109.138 1373.69C112.055 1374.72 114.79 1376.11 117.511 1377.55C121.789 1379.8 127.247 1378.23 132.667 1378.31L175.156 1378.91L80.9453 1393.93L38.0781 1124.92" stroke="#273AAA" stroke-miterlimit="10"/>
</g>
<path d="M351.544 1325.48L289.435 935.719C287.259 922.067 274.429 912.764 260.777 914.939L35.7189 950.803C22.067 952.978 12.7636 965.809 14.939 979.461L77.0486 1369.22C79.2241 1382.87 92.0547 1392.18 105.707 1390L330.764 1354.14C344.416 1351.96 353.72 1339.13 351.544 1325.48Z" stroke="#273AAA" stroke-miterlimit="10"/>
<path d="M219.198 1143.55L222.744 1147.39L211.636 1151.35C209.453 1152.66 206.891 1153.23 204.357 1152.97L197.062 1152.23L206.67 1150.33L219.178 1143.56L219.198 1143.55Z" fill="#273AAA" stroke="#273AAA" stroke-miterlimit="10"/>
<path d="M221.558 1162.66L222.047 1163.58C223.145 1165.68 223.451 1168.1 222.935 1170.42L221.749 1175.71C221.476 1176.9 220.926 1177.99 220.15 1178.92C219.373 1179.85 218.668 1180.72 218.087 1181.74L215.572 1186.14L214.877 1179.26C215.721 1176.23 215.92 1173.06 215.423 1169.94L215.311 1169.24C214.901 1166.67 214.005 1164.2 212.664 1161.96L211.264 1159.61C210.88 1158.97 210.405 1158.38 209.863 1157.89L203.823 1152.4L213.109 1155.3L215.59 1156.61C218.158 1157.97 220.264 1160.09 221.603 1162.69L221.558 1162.66Z" fill="#273AAA" stroke="#273AAA" stroke-miterlimit="10"/>
<path d="M202.315 1151.89L203.677 1149.46L203.933 1148.8C205.107 1145.7 206.587 1142.25 205.598 1139.07L205.411 1137.89L205.223 1136.72C202.836 1132.33 201.624 1130.78 196.786 1129.56L194.227 1128.76L191.668 1127.96C187.209 1127.22 182.778 1127.55 178.444 1128.86L172.902 1132.18L167.764 1136.13L164.683 1139.76C161.43 1145.2 161.773 1147.98 160.126 1152.79L158.064 1158.26L155.92 1162.84L158.857 1166.01C160.411 1168.2 164.557 1171.26 166.261 1172.61L173.198 1178.18C177.945 1181.99 183.89 1183.97 189.951 1183.79C194.753 1183.65 199.383 1181.93 203.076 1178.87C206.487 1176.05 208.614 1171.99 209.001 1167.61L209.172 1165.53L208.501 1161.32C207.452 1158.27 207.643 1159.47 205.878 1156.09L204.324 1153.9L202.322 1151.93L202.315 1151.89Z" fill="#273AAA" stroke="#273AAA" stroke-miterlimit="10"/>
</svg>
