<svg width="232" height="71" viewBox="0 0 232 71" fill="none" xmlns="http://www.w3.org/2000/svg">
<g clip-path="url(#clip0_558_344)">
<rect width="232" height="71" fill="white"/>
<mask id="mask0_558_344" style="mask-type:luminance" maskUnits="userSpaceOnUse" x="108" y="29" width="12" height="8">
<path d="M108.84 30.1795C108.542 30.5396 108.366 30.9957 108.344 31.4711L108.309 32.2619C108.287 32.7854 108.448 33.2994 108.778 33.6982L109.311 34.3631C109.554 34.6626 109.867 34.8891 110.23 35.0075L114.218 36.3878C114.37 36.4368 114.524 36.4744 114.684 36.4893L117.026 36.7113C117.575 36.7609 118.125 36.5885 118.553 36.2239L118.767 36.0416C119.297 35.5937 119.578 34.9171 119.526 34.2193L119.477 33.6062C119.423 32.89 119.022 32.2574 118.397 31.9189L117.171 31.2176C117.017 31.1319 115.185 30.7338 115.013 30.6978L110.917 29.4716C110.156 29.2861 109.353 29.5593 108.84 30.1795Z" fill="white"/>
</mask>
<g mask="url(#mask0_558_344)">
<path d="M114.02 31.2118L113.6 31.6383C113.429 31.8129 113.297 32.0209 113.21 32.2581L112.945 32.9625C112.897 33.0889 112.861 33.2363 112.846 33.3708L112.788 33.8492C112.742 34.2526 112.765 34.6608 112.873 35.0354L113.202 36.203L114.175 37.1008L119.007 37.8155L120.464 31.8084L115.153 30.8271C114.751 30.753 114.325 30.8955 114.02 31.2118Z" fill="#273AAA" stroke="#273AAA" stroke-miterlimit="10"/>
</g>
<path d="M108.831 30.1418C108.536 30.5003 108.364 30.9559 108.344 31.4317L108.315 32.2234C108.295 32.7474 108.459 33.2632 108.791 33.6647L109.327 34.3341C109.571 34.6356 109.885 34.8645 110.248 34.9855L114.238 36.3945C114.389 36.4446 114.544 36.4833 114.704 36.4993L117.043 36.7373C117.591 36.7907 118.139 36.6217 118.564 36.2596L118.776 36.0785C119.303 35.6336 119.58 34.9579 119.523 34.2588L119.47 33.6447C119.412 32.9271 119.008 32.291 118.383 31.9479L117.155 31.2374C117 31.1505 115.169 30.7395 114.997 30.7023L110.901 29.4469C110.14 29.2561 109.34 29.5242 108.831 30.1418Z" stroke="#273AAA" stroke-miterlimit="10"/>
<mask id="mask1_558_344" style="mask-type:luminance" maskUnits="userSpaceOnUse" x="116" y="12" width="12" height="9">
<path d="M127.969 15.9244C127.971 15.4572 127.818 14.9939 127.535 14.6131L127.062 13.9811C126.748 13.5632 126.299 13.2692 125.792 13.171L124.96 12.9974C124.583 12.9206 124.198 12.9448 123.843 13.084L119.891 14.5545C119.743 14.6131 119.6 14.6823 119.467 14.7725L117.518 16.0898C117.063 16.4005 116.747 16.8833 116.647 17.4364L116.597 17.7129C116.472 18.3951 116.682 19.096 117.163 19.601L117.589 20.0424C118.083 20.5608 118.793 20.7938 119.489 20.6578L120.879 20.4195C121.053 20.3874 122.719 19.5303 122.874 19.4485L126.812 17.7908C127.517 17.45 127.965 16.729 127.969 15.9244Z" fill="white"/>
</mask>
<g mask="url(#mask1_558_344)">
<path d="M123.338 18.4767L123.392 17.8806C123.414 17.637 123.385 17.392 123.302 17.1536L123.061 16.4411C123.018 16.3127 122.952 16.176 122.879 16.0625L122.621 15.6561C122.401 15.3156 122.125 15.0152 121.805 14.7943L120.812 14.1021L119.491 14.028L115.304 16.551L117.98 22.1164L122.705 19.495C123.063 19.296 123.303 18.9149 123.338 18.4767Z" fill="#273AAA" stroke="#273AAA" stroke-miterlimit="10"/>
</g>
<path d="M127.957 15.8579C127.964 15.388 127.815 14.9237 127.536 14.5438L127.069 13.9132C126.76 13.4963 126.315 13.2053 125.811 13.112L124.983 12.9463C124.608 12.8731 124.224 12.9016 123.869 13.0454L119.919 14.5664C119.771 14.627 119.628 14.6981 119.495 14.7902L117.542 16.1359C117.086 16.4532 116.767 16.9421 116.663 17.4994L116.611 17.778C116.48 18.4655 116.684 19.1681 117.159 19.6709L117.58 20.1103C118.068 20.6264 118.773 20.8531 119.469 20.7089L120.856 20.4544C121.029 20.4203 122.696 19.5405 122.852 19.4565L126.79 17.7473C127.495 17.397 127.946 16.6671 127.957 15.8579Z" stroke="#273AAA" stroke-miterlimit="10"/>
<mask id="mask2_558_344" style="mask-type:luminance" maskUnits="userSpaceOnUse" x="135" y="46" width="17" height="12">
<path d="M151.532 50.6012C151.535 49.9327 151.316 49.2699 150.911 48.725L150.234 47.8206C149.785 47.2227 149.142 46.802 148.417 46.6616L147.226 46.4131C146.687 46.3032 146.137 46.3379 145.629 46.5371L139.974 48.6411C139.762 48.725 139.557 48.824 139.367 48.953L136.579 50.8379C135.927 51.2825 135.475 51.9733 135.332 52.7646L135.261 53.1603C135.081 54.1364 135.382 55.1392 136.071 55.8619L136.68 56.4935C137.387 57.2352 138.402 57.5685 139.399 57.3739L141.388 57.033C141.636 56.9871 144.019 55.7607 144.242 55.6437L149.877 53.2717C150.886 52.7841 151.526 51.7524 151.532 50.6012Z" fill="white"/>
</mask>
<g mask="url(#mask2_558_344)">
<path d="M144.906 54.2532L144.983 53.4002C145.014 53.0516 144.972 52.7011 144.854 52.36L144.509 51.3404C144.448 51.1568 144.354 50.9612 144.249 50.7988L143.88 50.2173C143.565 49.73 143.17 49.3002 142.712 48.9841L141.291 47.9938L139.402 47.8877L133.411 51.4977L137.239 59.4609L144.001 55.7102C144.513 55.4255 144.855 54.8801 144.906 54.2532Z" fill="#273AAA" stroke="#273AAA" stroke-miterlimit="10"/>
</g>
<path d="M151.515 50.506C151.524 49.8336 151.311 49.1694 150.912 48.6257L150.245 47.7234C149.802 47.1269 149.165 46.7106 148.444 46.5771L147.259 46.3399C146.723 46.2352 146.174 46.276 145.666 46.4817L140.013 48.6581C139.802 48.7448 139.597 48.8465 139.406 48.9783L136.612 50.9038C135.96 51.3578 135.503 52.0574 135.355 52.8547L135.28 53.2534C135.093 54.237 135.384 55.2424 136.065 55.9618L136.667 56.5905C137.365 57.3289 138.375 57.6533 139.369 57.447L141.354 57.0828C141.601 57.034 143.987 55.7752 144.21 55.6551L149.844 53.2095C150.854 52.7082 151.5 51.6639 151.515 50.506Z" stroke="#273AAA" stroke-miterlimit="10"/>
<mask id="mask3_558_344" style="mask-type:luminance" maskUnits="userSpaceOnUse" x="150" y="25" width="14" height="9">
<path d="M163.188 28.7179C163.191 28.2151 163.026 27.7165 162.721 27.3066L162.212 26.6263C161.874 26.1765 161.39 25.8601 160.845 25.7544L159.949 25.5675C159.544 25.4849 159.13 25.511 158.748 25.6608L154.494 27.2435C154.334 27.3066 154.18 27.3811 154.037 27.4781L151.94 28.8961C151.45 29.2304 151.11 29.7501 151.002 30.3454L150.949 30.643C150.813 31.3773 151.039 32.1316 151.558 32.6753L152.016 33.1504C152.548 33.7083 153.312 33.959 154.061 33.8127L155.557 33.5562C155.744 33.5217 157.537 32.5992 157.705 32.5111L161.943 30.7269C162.702 30.36 163.184 29.584 163.188 28.7179Z" fill="white"/>
</mask>
<g mask="url(#mask3_558_344)">
<path d="M158.204 31.4651L158.262 30.8234C158.285 30.5612 158.254 30.2976 158.165 30.0409L157.905 29.274C157.859 29.1359 157.789 28.9887 157.71 28.8666L157.432 28.4291C157.195 28.0626 156.898 27.7393 156.553 27.5015L155.484 26.7566L154.063 26.6767L149.557 29.3923L152.437 35.3826L157.523 32.5611C157.908 32.3469 158.166 31.9367 158.204 31.4651Z" fill="#273AAA" stroke="#273AAA" stroke-miterlimit="10"/>
</g>
<path d="M163.176 28.6462C163.182 28.1405 163.022 27.6408 162.722 27.2319L162.22 26.5531C161.887 26.1044 161.408 25.7912 160.865 25.6908L159.974 25.5124C159.571 25.4336 159.158 25.4643 158.776 25.6191L154.524 27.2562C154.364 27.3214 154.21 27.3979 154.067 27.497L151.965 28.9455C151.474 29.287 151.131 29.8133 151.019 30.4131L150.963 30.713C150.822 31.4529 151.042 32.2091 151.553 32.7504L152.006 33.2233C152.532 33.7787 153.291 34.0227 154.039 33.8675L155.532 33.5936C155.718 33.5569 157.512 32.61 157.68 32.5196L161.919 30.6799C162.678 30.3029 163.164 29.5173 163.176 28.6462Z" stroke="#273AAA" stroke-miterlimit="10"/>
<mask id="mask4_558_344" style="mask-type:luminance" maskUnits="userSpaceOnUse" x="184" y="14" width="10" height="7">
<path d="M193.318 17.0398C193.32 16.6845 193.203 16.3323 192.988 16.0427L192.628 15.562C192.389 15.2443 192.048 15.0207 191.662 14.946L191.029 14.814C190.743 14.7556 190.45 14.774 190.18 14.8799L187.175 15.9981C187.062 16.0427 186.954 16.0953 186.852 16.1639L185.371 17.1657C185.024 17.4019 184.784 17.7691 184.708 18.1896L184.67 18.3999C184.575 18.9187 184.734 19.4517 185.101 19.8358L185.424 20.1714C185.8 20.5656 186.34 20.7428 186.869 20.6393L187.926 20.4581C188.058 20.4337 189.325 19.782 189.444 19.7198L192.438 18.4592C192.974 18.2 193.315 17.6517 193.318 17.0398Z" fill="white"/>
</mask>
<g mask="url(#mask4_558_344)">
<path d="M189.796 18.9807L189.837 18.5274C189.854 18.3421 189.831 18.1558 189.768 17.9745L189.585 17.4327C189.553 17.3351 189.503 17.2311 189.447 17.1448L189.251 16.8357C189.084 16.5768 188.874 16.3483 188.63 16.1804L187.875 15.654L186.871 15.5976L183.687 17.5162L185.721 21.7485L189.315 19.755C189.587 19.6037 189.769 19.3139 189.796 18.9807Z" fill="#273AAA" stroke="#273AAA" stroke-miterlimit="10"/>
</g>
<path d="M193.309 16.9892C193.314 16.6319 193.201 16.2788 192.988 15.9899L192.634 15.5103C192.398 15.1933 192.06 14.9721 191.676 14.9011L191.047 14.7751C190.762 14.7194 190.47 14.7411 190.2 14.8504L187.196 16.0071C187.083 16.0532 186.975 16.1072 186.873 16.1773L185.388 17.2006C185.042 17.4419 184.799 17.8137 184.72 18.2375L184.68 18.4494C184.581 18.9722 184.736 19.5065 185.098 19.8888L185.417 20.223C185.789 20.6154 186.325 20.7878 186.853 20.6781L187.908 20.4846C188.04 20.4587 189.308 19.7897 189.426 19.7258L192.421 18.426C192.957 18.1596 193.301 17.6046 193.309 16.9892Z" stroke="#273AAA" stroke-miterlimit="10"/>
<mask id="mask5_558_344" style="mask-type:luminance" maskUnits="userSpaceOnUse" x="177" y="40" width="14" height="8">
<path d="M177.907 41.819C177.636 42.2761 177.521 42.8191 177.58 43.3564L177.682 44.25C177.75 44.8413 178.022 45.3895 178.463 45.7783L179.18 46.4294C179.505 46.7224 179.897 46.9208 180.325 46.9892L185.045 47.8284C185.224 47.8564 185.404 47.8712 185.587 47.8594L188.254 47.6919C188.879 47.6499 189.466 47.3585 189.881 46.8733L190.088 46.6307C190.603 46.0339 190.799 45.2246 190.616 44.4508L190.452 43.7717C190.264 42.9776 189.702 42.3392 188.941 42.0705L187.441 41.5016C187.252 41.4329 185.126 41.3121 184.926 41.3023L180.112 40.6551C179.225 40.5824 178.373 41.0318 177.907 41.819Z" fill="white"/>
</mask>
<g mask="url(#mask5_558_344)">
<path d="M183.897 42.0392L183.502 42.5925C183.341 42.8189 183.23 43.0759 183.174 43.3576L183.002 44.1954C182.97 44.3458 182.956 44.5177 182.963 44.6713L182.983 45.2187C183.004 45.6796 183.102 46.1336 183.289 46.5349L183.866 47.7868L185.118 48.6214L190.669 48.5636L191.236 41.5621L185.101 41.4057C184.636 41.3942 184.183 41.63 183.897 42.0392Z" fill="#273AAA" stroke="#273AAA" stroke-miterlimit="10"/>
</g>
<path d="M177.904 41.8043C177.634 42.2608 177.52 42.8036 177.58 43.3411L177.684 44.235C177.753 44.8266 178.027 45.3754 178.468 45.7653L179.186 46.4182C179.512 46.7119 179.904 46.9113 180.332 46.9806L185.053 47.8311C185.232 47.8595 185.412 47.8747 185.594 47.8634L188.261 47.7021C188.885 47.6615 189.471 47.3715 189.885 46.8872L190.092 46.6451C190.605 46.0495 190.799 45.2405 190.615 44.4663L190.449 43.7868C190.26 42.9921 189.696 42.3523 188.935 42.0818L187.434 41.5094C187.245 41.4402 185.12 41.3143 184.92 41.3041L180.106 40.6455C179.218 40.5708 178.367 41.0182 177.904 41.8043Z" stroke="#273AAA" stroke-miterlimit="10"/>
<mask id="mask6_558_344" style="mask-type:luminance" maskUnits="userSpaceOnUse" x="213" y="28" width="14" height="8">
<path d="M213.907 29.819C213.636 30.2761 213.521 30.8191 213.58 31.3564L213.682 32.25C213.75 32.8413 214.022 33.3895 214.463 33.7783L215.18 34.4294C215.505 34.7224 215.897 34.9208 216.325 34.9892L221.045 35.8284C221.224 35.8564 221.404 35.8712 221.587 35.8594L224.254 35.6919C224.879 35.6499 225.466 35.3585 225.881 34.8733L226.088 34.6307C226.603 34.0339 226.799 33.2246 226.616 32.4508L226.452 31.7717C226.264 30.9776 225.702 30.3392 224.941 30.0705L223.441 29.5016C223.252 29.4329 221.126 29.3121 220.926 29.3023L216.112 28.6551C215.225 28.5824 214.373 29.0318 213.907 29.819Z" fill="white"/>
</mask>
<g mask="url(#mask6_558_344)">
<path d="M219.897 30.0392L219.502 30.5925C219.341 30.8189 219.23 31.0759 219.174 31.3576L219.002 32.1954C218.97 32.3458 218.956 32.5177 218.963 32.6713L218.983 33.2187C219.004 33.6796 219.102 34.1336 219.289 34.5349L219.866 35.7868L221.118 36.6214L226.669 36.5636L227.236 29.5621L221.101 29.4057C220.636 29.3942 220.183 29.63 219.897 30.0392Z" fill="#273AAA" stroke="#273AAA" stroke-miterlimit="10"/>
</g>
<path d="M213.904 29.8043C213.634 30.2608 213.52 30.8036 213.58 31.3411L213.684 32.235C213.753 32.8266 214.027 33.3754 214.468 33.7653L215.186 34.4182C215.512 34.7119 215.904 34.9113 216.332 34.9806L221.053 35.8311C221.232 35.8595 221.412 35.8747 221.594 35.8634L224.261 35.7021C224.885 35.6615 225.471 35.3715 225.885 34.8872L226.092 34.6451C226.605 34.0495 226.799 33.2405 226.615 32.4663L226.449 31.7868C226.26 30.9921 225.696 30.3523 224.935 30.0818L223.434 29.5094C223.245 29.4402 221.12 29.3143 220.92 29.3041L216.106 28.6455C215.218 28.5708 214.367 29.0182 213.904 29.8043Z" stroke="#273AAA" stroke-miterlimit="10"/>
<g clip-path="url(#clip1_558_344)">
<mask id="mask7_558_344" style="mask-type:luminance" maskUnits="userSpaceOnUse" x="5" y="5" width="81" height="65">
<path d="M7.23595 19.2399C5.81708 21.1807 5.14518 23.5683 5.35252 25.9677L6.43792 38.2004C6.55636 39.5209 6.82715 40.8277 7.25141 42.0892L12.755 58.5548C13.7953 61.6572 15.6378 64.4396 18.0904 66.6041C20.1195 68.3931 22.7444 69.3391 25.4526 69.2596C27.198 69.2035 28.9235 68.903 30.5907 68.3695L65.8456 56.9689C69.062 55.9262 71.9821 54.1265 74.3447 51.7093C76.0837 49.9347 77.4268 47.8078 78.2929 45.4776C79.1145 43.2438 80.8631 41.4665 83.0921 40.6109L85.2923 39.7637L78.981 24.5894L77.2191 15.3295L76.1238 10.45L75.546 10.5058C72.8436 10.7817 70.1292 10.1332 67.8323 8.67337L66.9193 8.08776C66.1486 7.59572 65.3114 7.19627 64.4421 6.90013C59.8957 5.34283 54.9943 5.16221 50.3548 6.364L11.2484 16.5132C9.63928 16.9253 8.21625 17.8977 7.23312 19.2303L7.23595 19.2399Z" fill="white"/>
</mask>
<g mask="url(#mask7_558_344)">
<mask id="mask8_558_344" style="mask-type:luminance" maskUnits="userSpaceOnUse" x="28" y="1" width="38" height="65">
<path d="M45.2221 4.83371L28.3472 10.1869L29.1289 19.517L30.7241 31.9226L30.8645 33.2469C31.3512 37.7951 32.6871 42.2178 34.7948 46.2878L37.3744 51.2507L45.2336 65.7704L65.6087 60.5836L58.1706 44.2403L54.7218 33.3616C54.5888 32.9108 54.4558 32.46 54.3584 31.9883L51.2846 18.0692L48.8983 1.49725L45.2413 4.82805L45.2221 4.83371Z" fill="white"/>
</mask>
<g mask="url(#mask8_558_344)">
<path d="M28.3472 10.1869L30.0112 12.0106C30.4035 12.1034 32.7736 11.373 33.1079 11.5872C34.3857 12.4197 35.2915 11.8501 36.4951 11.7244L39.9536 11.361C40.4587 11.3059 40.9716 11.2067 41.4636 11.072L43.3779 10.5282C44.407 10.235 45.5002 10.3713 46.4346 10.888C47.2352 11.34 47.7737 12.1403 47.8873 13.0556L48.541 18.3468C48.5836 18.6679 48.6358 18.9861 48.7072 19.2987L51.0561 29.4176C51.1688 29.9056 51.3199 30.3824 51.5093 30.8478L54.846 39.0488C54.9511 39.2993 55.0371 39.5554 55.1231 39.8116L56.3157 43.5363C56.766 44.957 57.4246 46.3058 58.2608 47.55L62.539 53.8886L65.2931 55.4846L50.8476 4.39408L31.2172 9.27773" fill="#273AAA"/>
<path d="M28.3472 10.1869L30.0112 12.0106C30.4035 12.1034 32.7736 11.373 33.1079 11.5872C34.3857 12.4197 35.2915 11.8501 36.4951 11.7244L39.9536 11.361C40.4587 11.3059 40.9716 11.2067 41.4636 11.072L43.3779 10.5282C44.407 10.235 45.5002 10.3713 46.4346 10.888C47.2352 11.34 47.7737 12.1403 47.8873 13.0556L48.541 18.3468C48.5836 18.6679 48.6358 18.9861 48.7072 19.2987L51.0561 29.4176C51.1688 29.9056 51.3199 30.3824 51.5093 30.8478L54.846 39.0488C54.9511 39.2993 55.0371 39.5554 55.1231 39.8116L56.3157 43.5363C56.766 44.957 57.4246 46.3058 58.2608 47.55L62.539 53.8886L65.2931 55.4846L50.8476 4.39408L31.2172 9.27773" stroke="#273AAA" stroke-miterlimit="10"/>
<path d="M27.9194 26.9739L32.6195 37.9944L36.6125 46.9714C37.3548 48.6395 38.316 50.2014 39.4819 51.6091L43.0271 55.9222C43.5824 56.6029 44.2127 57.2198 44.896 57.7689L45.795 58.4838C46.9402 59.3971 48.3931 59.8338 49.8563 59.7046L50.0403 59.692C50.9832 59.6015 51.9415 59.7046 52.8492 59.9894L59.2853 61.9798L41.6247 67.815L29.7498 43.6056L27.9098 26.9767L27.9194 26.9739Z" fill="#273AAA" stroke="#273AAA" stroke-miterlimit="10"/>
</g>
<path d="M45.2221 4.83371L28.3472 10.1869L29.1289 19.517L30.7241 31.9226L30.8645 33.2469C31.3512 37.7951 32.6871 42.2178 34.7948 46.2878L37.3744 51.2507L45.2336 65.7704L65.6087 60.5836L58.1706 44.2403L54.7218 33.3616C54.5888 32.9108 54.4558 32.46 54.3584 31.9883L51.2846 18.0692L48.8983 1.49725L45.2413 4.82805L45.2221 4.83371Z" stroke="#273AAA" stroke-miterlimit="10"/>
</g>
<path d="M7.23595 19.2399C5.81708 21.1807 5.14518 23.5683 5.35252 25.9677L6.43792 38.2004C6.55636 39.5209 6.82715 40.8277 7.25141 42.0892L12.755 58.5548C13.7953 61.6572 15.6378 64.4396 18.0904 66.6041C20.1195 68.3931 22.7444 69.3391 25.4526 69.2596C27.198 69.2035 28.9235 68.903 30.5907 68.3695L65.8456 56.9689C69.062 55.9262 71.9821 54.1265 74.3447 51.7093C76.0837 49.9347 77.4268 47.8078 78.2929 45.4776C79.1145 43.2438 80.8631 41.4665 83.0921 40.6109L85.2923 39.7637L78.981 24.5894L77.2191 15.3295L76.1238 10.45L75.546 10.5058C72.8436 10.7817 70.1292 10.1332 67.8323 8.67337L66.9193 8.08776C66.1486 7.59572 65.3114 7.19627 64.4421 6.90013C59.8957 5.34283 54.9943 5.16221 50.3548 6.364L11.2484 16.5132C9.63928 16.9253 8.21625 17.8977 7.23312 19.2303L7.23595 19.2399Z" stroke="#273AAA" stroke-miterlimit="10"/>
<path d="M78.1492 8.44504L77.2256 8.70706L76.3159 10.1119L77.2219 15.3391L79.3192 24.7815L82.5717 34.2168L85.2922 39.7637L86.1242 40.6756L87.5302 40.2817L87.0373 38.54L85.529 34.5226L81.9845 24.0266L79.8052 14.306L78.1492 8.44504Z" stroke="#273AAA" stroke-miterlimit="10"/>
<mask id="mask9_558_344" style="mask-type:luminance" maskUnits="userSpaceOnUse" x="78" y="2" width="23" height="41">
<path d="M87.8644 2.8893L80.9515 5.22044C79.501 5.71088 78.4359 6.94254 78.1493 8.44503L81.9846 24.0266L87.5275 40.2721L88.1117 41.1215C88.5721 41.7989 89.3326 42.221 90.1572 42.2593L90.5996 42.2747L98.5571 40.0212C99.2573 39.8146 99.8523 39.3576 100.207 38.7213C100.582 38.0478 100.679 37.2475 100.468 36.4965L98.3757 29.0857C98.2201 28.5582 98.0933 28.0221 97.9788 27.4929L96.0245 18.2168C95.7752 17.0184 95.4368 15.8358 95.0341 14.6826L91.6748 5.13286C91.4016 4.34809 90.878 3.66849 90.1857 3.195C89.5059 2.72828 88.6491 2.6161 87.8711 2.87688L87.8644 2.8893Z" fill="white"/>
</mask>
<g mask="url(#mask9_558_344)">
<path d="M87.4655 3.79933L88.1732 3.83037C88.9881 3.87148 89.7818 4.15865 90.3894 4.6988C90.5736 4.86344 90.7069 5.03263 90.7273 5.17257L90.8829 5.70009C90.9335 6.15434 90.639 6.25164 90.5014 6.38606L89.9739 6.54168C89.8921 6.61793 89.9163 6.55865 89.8108 6.58978L86.7906 7.44941L82.6831 9.18238L81.2313 10.1632L82.296 9.84917C82.4088 9.87842 85.2429 8.45855 85.3388 8.43026L85.8664 8.27464L88.3761 6.99216L90.6436 7.11563L91.6316 6.82421C91.855 6.76873 92.0999 6.82158 92.2756 6.95744L92.5466 7.16941C92.8453 7.4045 93.2804 7.35957 93.5307 7.0772C93.7878 6.78242 93.7717 6.33886 93.4837 6.06934L90.8677 3.59853" fill="#273AAA"/>
<path d="M87.4655 3.79933L88.1732 3.83037C88.9881 3.87148 89.7818 4.15865 90.3894 4.6988C90.5736 4.86344 90.7069 5.03263 90.7273 5.17257L90.8829 5.70009C90.9335 6.15434 90.639 6.25164 90.5014 6.38606L89.9739 6.54168C89.8921 6.61793 89.9163 6.55865 89.8108 6.58978L86.7906 7.44941L82.6831 9.18238L81.2313 10.1632L82.296 9.84917C82.4088 9.87842 85.2429 8.45855 85.3388 8.43026L85.8664 8.27464L88.3761 6.99216L90.6436 7.11563L91.6316 6.82421C91.855 6.76873 92.0999 6.82158 92.2756 6.95744L92.5466 7.16941C92.8453 7.4045 93.2804 7.35957 93.5307 7.0772C93.7878 6.78242 93.7717 6.33886 93.4837 6.06934L90.8677 3.59853" stroke="#273AAA" stroke-width="0.75" stroke-miterlimit="10"/>
<path d="M92.5497 7.5334L91.8638 7.15189C92.0194 7.67942 91.9801 8.71274 91.7839 8.89574L90.6051 10.4842C90.5234 10.5604 90.4168 10.6231 90.3113 10.6543L87.2911 11.5139L83.0375 12.7165L81.7508 14.0448L82.8966 13.5817C83.0038 13.5918 83.1054 13.5827 83.2109 13.5516L86.5385 12.497L88.683 11.8852L91.1565 11.1869L92.1444 10.8955C92.3678 10.84 92.6128 10.8928 92.7884 11.0287L93.0595 11.2407C93.3582 11.4757 94.4857 13.5307 94.7456 13.2455L94.056 11.1552C94.3131 10.8604 94.297 10.4169 94.0089 10.1473L91.956 5.4148" fill="#273AAA"/>
<path d="M92.5497 7.5334L91.8638 7.15189C92.0194 7.67942 91.9801 8.71274 91.7839 8.89574L90.6051 10.4842C90.5234 10.5604 90.4168 10.6231 90.3113 10.6543L87.2911 11.5139L83.0375 12.7165L81.7508 14.0448L82.8966 13.5817C83.0038 13.5918 83.1054 13.5827 83.2109 13.5516L86.5385 12.497L88.683 11.8852L91.1565 11.1869L92.1444 10.8955C92.3678 10.84 92.6128 10.8928 92.7884 11.0287L93.0595 11.2407C93.3582 11.4757 94.4857 13.5307 94.7456 13.2455L94.056 11.1552C94.3131 10.8604 94.297 10.4169 94.0089 10.1473L91.956 5.4148" stroke="#273AAA" stroke-width="0.75" stroke-miterlimit="10"/>
<path d="M92.4698 9.27724L92.5659 10.8754C92.7215 11.4029 92.6823 12.4362 92.4861 12.6192L91.3073 14.2076C91.2255 14.2839 91.1189 14.3466 91.0134 14.3777L87.9932 15.2374L83.7397 16.44L81.9725 16.8466L83.5959 17.2956C83.7032 17.3057 83.8047 17.2966 83.9102 17.2654L87.2378 16.2109L89.3824 15.5991L91.8558 14.9007L92.8437 14.6093C93.0672 14.5538 93.3121 14.6067 93.4878 14.7425L93.7588 14.9545C94.0575 15.1896 95.185 17.2446 95.4449 16.9594L94.7554 14.8691C95.0125 14.5743 94.9963 14.1307 94.7083 13.8612L92.6554 9.12867" fill="#273AAA"/>
<path d="M92.4698 9.27724L92.5659 10.8754C92.7215 11.4029 92.6823 12.4362 92.4861 12.6192L91.3073 14.2076C91.2255 14.2839 91.1189 14.3466 91.0134 14.3777L87.9932 15.2374L83.7397 16.44L81.9725 16.8466L83.5959 17.2956C83.7032 17.3057 83.8047 17.2966 83.9102 17.2654L87.2378 16.2109L89.3824 15.5991L91.8558 14.9007L92.8437 14.6093C93.0672 14.5538 93.3121 14.6067 93.4878 14.7425L93.7588 14.9545C94.0575 15.1896 95.185 17.2446 95.4449 16.9594L94.7554 14.8691C95.0125 14.5743 94.9963 14.1307 94.7083 13.8612L92.6554 9.12867" stroke="#273AAA" stroke-width="0.75" stroke-miterlimit="10"/>
<path d="M93.7435 14.125L93.8396 15.7231C93.9952 16.2506 93.956 17.2839 93.7598 17.4669L92.581 19.0553C92.4992 19.1316 92.3926 19.1943 92.2871 19.2254L89.2669 20.0851L85.0134 21.2877L83.0982 22.8536L84.8696 22.1433C84.9769 22.1534 85.0784 22.1443 85.1839 22.1132L88.5115 21.0586L90.6561 20.4468L93.1295 19.7485C93.8115 19.3388 94.7096 19.6264 95.0222 20.3683C95.0477 20.4546 95.0828 20.5381 95.1026 20.6052L95.2582 21.1328C95.5569 21.3679 96.4587 22.0923 96.7158 21.7975L96.0262 19.7072C96.2833 19.4124 96.2672 18.9689 95.9791 18.6993L93.9263 13.9668" fill="#273AAA"/>
<path d="M93.7435 14.125L93.8396 15.7231C93.9952 16.2506 93.956 17.2839 93.7598 17.4669L92.581 19.0553C92.4992 19.1316 92.3926 19.1943 92.2871 19.2254L89.2669 20.0851L85.0134 21.2877L83.0982 22.8536L84.8696 22.1433C84.9769 22.1534 85.0784 22.1443 85.1839 22.1132L88.5115 21.0586L90.6561 20.4468L93.1295 19.7485C93.8115 19.3388 94.7096 19.6264 95.0222 20.3683C95.0477 20.4546 95.0828 20.5381 95.1026 20.6052L95.2582 21.1328C95.5569 21.3679 96.4587 22.0923 96.7158 21.7975L96.0262 19.7072C96.2833 19.4124 96.2672 18.9689 95.9791 18.6993L93.9263 13.9668" stroke="#273AAA" stroke-width="0.75" stroke-miterlimit="10"/>
<path d="M98.2983 30.4847L97.3441 32.622C97.5365 33.2742 98.5604 32.8575 98.3249 34.0738L98.0337 34.7123C97.7531 35.3164 97.2377 35.7603 96.5922 35.9403C96.3716 36.0054 96.1414 36.0733 95.9084 36.1316C94.9532 36.3925 94.1654 37.115 93.7277 38.1407L93.7334 38.1599C93.4877 38.6702 92.9462 38.9551 92.3987 38.8664C92.125 38.822 91.8445 38.7901 91.6335 38.8523C91.2403 38.9683 90.557 38.4192 90.0177 38.0048C89.7743 37.816 89.4419 37.8202 89.1977 38.0173L88.5144 38.1042C88.0726 38.1616 87.6289 38.0005 87.3335 37.6706C87.0657 37.3639 86.9238 36.9887 86.6564 36.4003L84.4048 31.5596L87.9153 41.9405C88.0254 41.9601 88.8801 41.6767 88.9828 41.636L90.9491 42.5052L94.1447 41.6042L96.9928 41.5043L99.7674 41.155C99.988 41.09 100.334 39.6117 100.533 39.7927L99.9767 37.5172C100.295 37.8194 101.575 40.3923 101.812 40.062L100.972 37.4633C101.215 37.1206 101.168 36.5715 100.87 36.232L98.4839 30.3361" fill="#273AAA"/>
<path d="M98.2983 30.4847L97.3441 32.622C97.5365 33.2742 98.5604 32.8575 98.3249 34.0738L98.0337 34.7123C97.7531 35.3164 97.2377 35.7603 96.5922 35.9403C96.3716 36.0054 96.1414 36.0733 95.9084 36.1316C94.9532 36.3925 94.1654 37.115 93.7277 38.1407L93.7334 38.1599C93.4877 38.6702 92.9462 38.9551 92.3987 38.8664C92.125 38.822 91.8445 38.7901 91.6335 38.8523C91.2403 38.9683 90.557 38.4192 90.0177 38.0048C89.7743 37.816 89.4419 37.8202 89.1977 38.0173L88.5144 38.1042C88.0726 38.1616 87.6289 38.0005 87.3335 37.6706C87.0657 37.3639 86.9238 36.9887 86.6564 36.4003L84.4048 31.5596L87.9153 41.9405C88.0254 41.9601 88.8801 41.6767 88.9828 41.636L90.9491 42.5052L94.1447 41.6042L96.9928 41.5043L99.7674 41.155C99.988 41.09 100.334 39.6117 100.533 39.7927L99.9767 37.5172C100.295 37.8194 101.575 40.3923 101.812 40.062L100.972 37.4633C101.215 37.1206 101.168 36.5715 100.87 36.232L98.4839 30.3361" stroke="#273AAA" stroke-width="0.75" stroke-miterlimit="10"/>
<path d="M95.1048 19.27L95.4331 20.5598C95.5095 20.8188 95.424 21.0943 95.2277 21.2773L94.335 22.1036C94.2533 22.1798 94.1467 22.2426 94.0412 22.2737L91.021 23.1333L86.7674 24.3359L84.6421 24.942L86.6265 25.2012C86.7337 25.2112 86.8353 25.2021 86.9408 25.171L90.2684 24.1164L92.4129 23.5047L93.3049 23.2415C94.2697 22.9778 94.8444 23.194 95.4883 23.9633L96.3203 24.8751C96.5409 24.8101 96.6722 24.5837 96.8479 24.7195L96.7865 22.8505C97.0853 23.0856 97.5203 23.0407 97.7707 22.7583C98.0278 22.4635 98.0116 22.02 97.7236 21.7504L95.1076 19.2796" fill="#273AAA"/>
<path d="M95.1048 19.27L95.4331 20.5598C95.5095 20.8188 95.424 21.0943 95.2277 21.2773L94.335 22.1036C94.2533 22.1798 94.1467 22.2426 94.0412 22.2737L91.021 23.1333L86.7674 24.3359L84.6421 24.942L86.6265 25.2012C86.7337 25.2112 86.8353 25.2021 86.9408 25.171L90.2684 24.1164L92.4129 23.5047L93.3049 23.2415C94.2697 22.9778 94.8444 23.194 95.4883 23.9633L96.3203 24.8751C96.5409 24.8101 96.6722 24.5837 96.8479 24.7195L96.7865 22.8505C97.0853 23.0856 97.5203 23.0407 97.7707 22.7583C98.0278 22.4635 98.0116 22.02 97.7236 21.7504L95.1076 19.2796" stroke="#273AAA" stroke-width="0.75" stroke-miterlimit="10"/>
<path d="M95.0553 22.9546L95.1706 24.547C95.3262 25.0745 95.2965 26.105 95.1195 26.2824L94.0175 27.8482C93.9357 27.9244 93.8387 27.9843 93.7332 28.0154L90.8569 28.8326L86.8047 29.9758L85.1143 30.3598L86.6706 30.8286C86.7682 30.8415 86.8698 30.8324 86.9657 30.8041L88.3775 29.9706L91.9281 28.965L94.5344 28.5402L95.4743 28.2629C95.6882 28.2103 95.9236 28.2659 96.0896 28.4046L96.351 28.6194C96.6402 28.8573 98.6983 32.4415 98.9363 32.1523L99.2516 29.1922C99.4991 28.9002 98.9239 27.3392 98.6455 27.0668L96.6081 21.8918" fill="#273AAA"/>
<path d="M95.0553 22.9546L95.1706 24.547C95.3262 25.0745 95.2965 26.105 95.1195 26.2824L94.0175 27.8482C93.9357 27.9244 93.8387 27.9843 93.7332 28.0154L90.8569 28.8326L86.8047 29.9758L85.1143 30.3598L86.6706 30.8286C86.7682 30.8415 86.8698 30.8324 86.9657 30.8041L88.3775 29.9706L91.9281 28.965L94.5344 28.5402L95.4743 28.2629C95.6882 28.2103 95.9236 28.2659 96.0896 28.4046L96.351 28.6194C96.6402 28.8573 98.6983 32.4415 98.9363 32.1523L99.2516 29.1922C99.4991 28.9002 98.9239 27.3392 98.6455 27.0668L96.6081 21.8918" stroke="#273AAA" stroke-width="0.75" stroke-miterlimit="10"/>
<path d="M98.7934 29.2648L96.6786 28.2101C96.8342 28.7376 97.9611 30.7198 97.5796 31.4057L96.8517 32.2252C96.7699 32.3014 96.6633 32.3641 96.5578 32.3953L93.5376 33.2549L89.2841 34.4575L87.9973 35.7859L89.1431 35.3228C89.2503 35.3328 89.8142 34.7703 89.9101 34.742L90.9748 34.4279L94.7036 33.3905L96.4727 33.2023C97.0769 33.0241 97.731 33.0501 98.3249 33.2607L98.7313 33.4014C98.9519 33.3363 99.5337 34.7078 99.7121 34.8532L99.3117 33.0008C99.6104 33.2359 100.738 35.2909 100.998 35.0057L100.308 32.9154C100.565 32.6206 100.549 32.1771 100.261 31.9075L98.2082 27.175" fill="#273AAA"/>
<path d="M98.7934 29.2648L96.6786 28.2101C96.8342 28.7376 97.9611 30.7198 97.5796 31.4057L96.8517 32.2252C96.7699 32.3014 96.6633 32.3641 96.5578 32.3953L93.5376 33.2549L89.2841 34.4575L87.9973 35.7859L89.1431 35.3228C89.2503 35.3328 89.8142 34.7703 89.9101 34.742L90.9748 34.4279L94.7036 33.3905L96.4727 33.2023C97.0769 33.0241 97.731 33.0501 98.3249 33.2607L98.7313 33.4014C98.9519 33.3363 99.5337 34.7078 99.7121 34.8532L99.3117 33.0008C99.6104 33.2359 100.738 35.2909 100.998 35.0057L100.308 32.9154C100.565 32.6206 100.549 32.1771 100.261 31.9075L98.2082 27.175" stroke="#273AAA" stroke-width="0.75" stroke-miterlimit="10"/>
<path d="M90.4353 4.1118L90.2797 3.58428C89.5799 3.50922 87.1911 4.31812 86.5565 4.64087L83.73 6.29832C83.3397 6.60111 82.8856 6.8289 82.4032 6.96078L81.3539 7.46839C80.2404 8.00539 79.5121 9.10643 79.4595 10.3418L79.3463 12.6793L77.1744 5.91756L90.3663 1.828" fill="#273AAA"/>
<path d="M90.4353 4.1118L90.2797 3.58428C89.5799 3.50922 87.1911 4.31812 86.5565 4.64087L83.73 6.29832C83.3397 6.60111 82.8856 6.8289 82.4032 6.96078L81.3539 7.46839C80.2404 8.00539 79.5121 9.10643 79.4595 10.3418L79.3463 12.6793L77.1744 5.91756L90.3663 1.828" stroke="#273AAA" stroke-miterlimit="10"/>
</g>
<path d="M87.8644 2.8893L80.9515 5.22044C79.501 5.71088 78.4359 6.94254 78.1493 8.44503L81.9846 24.0266L87.5275 40.2721L88.1117 41.1215C88.5721 41.7989 89.3326 42.221 90.1572 42.2593L90.5996 42.2747L98.5571 40.0212C99.2573 39.8146 99.8523 39.3576 100.207 38.7213C100.582 38.0478 100.679 37.2475 100.468 36.4965L98.3757 29.0857C98.2201 28.5582 98.0933 28.0221 97.9788 27.4929L96.0245 18.2168C95.7752 17.0184 95.4368 15.8358 95.0341 14.6826L91.6748 5.13286C91.4016 4.34809 90.878 3.66849 90.1857 3.195C89.5059 2.72828 88.6491 2.6161 87.8711 2.87688L87.8644 2.8893Z" stroke="#273AAA" stroke-miterlimit="10"/>
<mask id="mask10_558_344" style="mask-type:luminance" maskUnits="userSpaceOnUse" x="9" y="18" width="9" height="16">
<path d="M14.0307 18.664C13.4679 18.5589 12.8862 18.6367 12.3802 18.9006L11.5295 19.3392C10.9688 19.6297 10.5279 20.1143 10.2981 20.7138L9.92192 21.7005C9.75128 22.1471 9.70313 22.62 9.79774 23.0821L10.75 28.254C10.7874 28.4515 10.844 28.6434 10.9169 28.8199L12.0923 31.4968C12.371 32.1235 12.8821 32.6191 13.5285 32.8664L13.8469 32.9914C14.6338 33.291 15.5231 33.1955 16.2168 32.7198L16.8423 32.2954C17.562 31.8016 17.9863 30.9779 17.9693 30.1072L17.9735 28.3544C17.9716 28.136 17.2808 25.9001 17.2186 25.6891L16.0394 20.4902C15.7746 19.557 15.002 18.8466 14.0403 18.6611L14.0307 18.664Z" fill="white"/>
</mask>
<g mask="url(#mask10_558_344)">
<path d="M16.1005 24.9033L15.3955 24.7046C15.1104 24.6219 14.8136 24.6052 14.5145 24.6517L13.6078 24.7941C13.439 24.823 13.2732 24.8615 13.1186 24.9384L12.5793 25.16C12.1234 25.3466 11.7151 25.6235 11.3801 25.9725L10.3466 27.0281L9.98385 28.626L12.1521 34.315L19.3491 32.2754L17.1696 25.912C17.0061 25.4285 16.6046 25.0569 16.0813 24.9089L16.1005 24.9033Z" fill="#273AAA" stroke="#273AAA" stroke-miterlimit="10"/>
</g>
<path d="M14.0307 18.664C13.4679 18.5589 12.8862 18.6367 12.3802 18.9006L11.5295 19.3392C10.9688 19.6297 10.5279 20.1143 10.2981 20.7138L9.92192 21.7005C9.75128 22.1471 9.70313 22.62 9.79774 23.0821L10.75 28.254C10.7874 28.4515 10.844 28.6434 10.9169 28.8199L12.0923 31.4968C12.371 32.1235 12.8821 32.6191 13.5285 32.8664L13.8469 32.9914C14.6338 33.291 15.5231 33.1955 16.2168 32.7198L16.8423 32.2954C17.562 31.8016 17.9863 30.9779 17.9693 30.1072L17.9735 28.3544C17.9716 28.136 17.2808 25.9001 17.2186 25.6891L16.0394 20.4902C15.7746 19.557 15.002 18.8466 14.0403 18.6611L14.0307 18.664Z" stroke="#273AAA" stroke-miterlimit="10"/>
<mask id="mask11_558_344" style="mask-type:luminance" maskUnits="userSpaceOnUse" x="13" y="29" width="13" height="13">
<path d="M17.637 37.3574C17.4814 36.8299 17.4015 38.5737 18.5478 39.4554L21.1324 40.8304C21.7382 41.1521 22.4477 41.2243 23.1066 41.0195L23.4327 40.9233C24.2328 40.6665 24.8716 40.0401 25.1244 39.2357L25.3518 38.5222C25.6181 37.693 25.4345 36.788 24.8792 36.1073L23.7946 34.7278C23.6517 34.5614 21.7268 33.2317 21.554 33.1054L17.4086 29.7617C16.6152 29.1929 15.5706 29.1153 14.7132 29.5663C14.2072 29.8303 13.8001 30.2527 13.5601 30.7823L13.1595 31.6511" fill="white"/>
</mask>
<g mask="url(#mask11_558_344)">
<path d="M20.7249 33.0164L20.0474 33.2997C19.7777 33.4105 19.5278 33.5884 19.3209 33.8059L18.6933 34.4706C18.5749 34.5994 18.4785 34.7321 18.3878 34.8839L18.101 35.396C17.8615 35.8212 17.7089 36.2936 17.6636 36.7762L17.5141 38.2486L18.2218 39.7289L23.4478 42.8477L27.8425 36.7866L22.1889 33.1371C21.762 32.8564 21.2095 32.8213 20.7153 33.0192L20.7249 33.0164Z" fill="#273AAA" stroke="#273AAA" stroke-width="0.5" stroke-miterlimit="10"/>
</g>
<path d="M17.637 37.3574C17.4814 36.8299 17.4015 38.5737 18.5478 39.4554L21.1324 40.8304C21.7382 41.1521 22.4477 41.2243 23.1066 41.0195L23.4327 40.9233C24.2328 40.6665 24.8716 40.0401 25.1244 39.2357L25.3518 38.5222C25.6181 37.693 25.4345 36.788 24.8792 36.1073L23.7946 34.7278C23.6517 34.5614 21.7268 33.2317 21.554 33.1054L17.4086 29.7617C16.6152 29.1929 15.5706 29.1153 14.7132 29.5663C14.2072 29.8303 13.8001 30.2527 13.5601 30.7823L13.1595 31.6511" stroke="#273AAA" stroke-width="0.5" stroke-miterlimit="10"/>
<mask id="mask12_558_344" style="mask-type:luminance" maskUnits="userSpaceOnUse" x="19" y="40" width="12" height="15">
<path d="M29.7495 41.802C29.3885 41.3559 28.8995 41.0414 28.3379 40.9047L27.406 40.6791C26.788 40.5278 26.1362 40.6158 25.5783 40.9159L24.6527 41.4183C24.2398 41.6444 23.8896 41.9771 23.6568 42.3898L21.0143 46.9331C20.9196 47.107 20.8374 47.2876 20.78 47.4818L19.929 50.2872C19.7258 50.9415 19.7991 51.6496 20.1258 52.2622L20.2891 52.5685C20.687 53.3165 21.4261 53.8075 22.2676 53.9033L23.0115 53.9862C23.875 54.086 24.7291 53.7298 25.2907 53.0532L26.429 51.7166C26.5677 51.5505 27.4971 49.3997 27.5861 49.2066L30.0637 44.493C30.471 43.6118 30.3398 42.5662 29.7303 41.8076L29.7495 41.802Z" fill="white"/>
</mask>
<g mask="url(#mask12_558_344)">
<path d="M27.2685 47.8824L26.8594 47.2732C26.6938 47.0301 26.4764 46.8232 26.2195 46.6592L25.442 46.1796C25.2998 46.086 25.1439 46.0173 24.9814 45.961L24.4276 45.7803C23.9647 45.6249 23.4698 45.5728 22.9935 45.6195L21.5207 45.7516L20.2049 46.734L18.1536 52.4687L24.9485 55.6043L27.4322 49.3563C27.6259 48.8821 27.5566 48.3291 27.2617 47.8948L27.2685 47.8824Z" fill="#273AAA" stroke="#273AAA" stroke-width="0.5" stroke-miterlimit="10"/>
</g>
<path d="M29.7495 41.802C29.3885 41.3559 28.8995 41.0414 28.3379 40.9047L27.406 40.6791C26.788 40.5278 26.1362 40.6158 25.5783 40.9159L24.6527 41.4183C24.2398 41.6444 23.8896 41.9771 23.6568 42.3898L21.0143 46.9331C20.9196 47.107 20.8374 47.2876 20.78 47.4818L19.929 50.2872C19.7258 50.9415 19.7991 51.6496 20.1258 52.2622L20.2891 52.5685C20.687 53.3165 21.4261 53.8075 22.2676 53.9033L23.0115 53.9862C23.875 54.086 24.7291 53.7298 25.2907 53.0532L26.429 51.7166C26.5677 51.5505 27.4971 49.3997 27.5861 49.2066L30.0637 44.493C30.471 43.6118 30.3398 42.5662 29.7303 41.8076L29.7495 41.802Z" stroke="#273AAA" stroke-width="0.5" stroke-miterlimit="10"/>
<mask id="mask13_558_344" style="mask-type:luminance" maskUnits="userSpaceOnUse" x="25" y="58" width="14" height="7">
<path d="M26.1333 60.1863C25.9491 60.6577 25.9371 61.1825 26.0786 61.6621L26.3191 62.4774C26.4871 63.0117 26.8509 63.4674 27.3342 63.7627L28.1337 64.2462C28.4899 64.4644 28.8975 64.5735 29.3247 64.5726L33.977 64.5452C34.1542 64.545 34.3258 64.5257 34.5012 64.4844L37.0222 63.8763C37.6157 63.7325 38.1222 63.3641 38.4378 62.8435L38.5894 62.5799C38.9755 61.9447 39.0223 61.1489 38.717 60.4675L38.4439 59.8599C38.133 59.1592 37.4762 58.6649 36.7211 58.5436L35.1926 58.275C35.007 58.2464 32.9541 58.4975 32.7606 58.5129L28.0508 58.7345C27.1903 58.8215 26.4588 59.3813 26.1457 60.1931L26.1333 60.1863Z" fill="white"/>
</mask>
<g mask="url(#mask13_558_344)">
<path d="M31.8831 59.3556L31.6065 59.9376C31.4876 60.1708 31.428 60.4281 31.4248 60.7002L31.4029 61.5094C31.3945 61.6579 31.4082 61.8102 31.441 61.9569L31.547 62.4574C31.6399 62.8783 31.8219 63.2834 32.0694 63.6274L32.8298 64.6855L34.1643 65.251L39.4581 64.2524L38.7988 57.67L32.9163 58.5816C32.4677 58.6514 32.0842 58.9417 31.8763 59.368L31.8831 59.3556Z" fill="#273AAA" stroke="#273AAA" stroke-width="0.5" stroke-miterlimit="10"/>
</g>
<path d="M26.1333 60.1863C25.9491 60.6577 25.9371 61.1825 26.0786 61.6621L26.3191 62.4774C26.4871 63.0117 26.8509 63.4674 27.3342 63.7627L28.1337 64.2462C28.4899 64.4644 28.8975 64.5735 29.3247 64.5726L33.977 64.5452C34.1542 64.545 34.3258 64.5257 34.5012 64.4844L37.0222 63.8763C37.6157 63.7325 38.1222 63.3641 38.4378 62.8435L38.5894 62.5799C38.9755 61.9447 39.0223 61.1489 38.717 60.4675L38.4439 59.8599C38.133 59.1592 37.4762 58.6649 36.7211 58.5436L35.1926 58.275C35.007 58.2464 32.9541 58.4975 32.7606 58.5129L28.0508 58.7345C27.1903 58.8215 26.4588 59.3813 26.1457 60.1931L26.1333 60.1863Z" stroke="#273AAA" stroke-width="0.5" stroke-miterlimit="10"/>
<mask id="mask14_558_344" style="mask-type:luminance" maskUnits="userSpaceOnUse" x="20" y="23" width="10" height="15">
<path d="M21.6002 37.2205C22.0401 37.5807 22.5899 37.7834 23.1684 37.8005L24.1232 37.8212C24.7621 37.8308 25.377 37.6181 25.8598 37.2046L26.6589 36.5206C27.0175 36.2167 27.2847 35.8147 27.4333 35.3642L29.0541 30.3612C29.1143 30.1767 29.1593 29.9757 29.1727 29.7737L29.4073 26.8581C29.4661 26.1736 29.246 25.4982 28.7992 24.9732L28.5772 24.7155C28.0236 24.076 27.1966 23.7465 26.3553 23.8279L25.6059 23.903C24.7358 23.9928 23.9738 24.5199 23.5765 25.294L22.738 26.8341C22.6394 27.03 22.1796 29.3239 22.1375 29.5344L20.7116 34.6676C20.5013 35.6158 20.8463 36.6088 21.6002 37.2205Z" fill="white"/>
</mask>
<g mask="url(#mask14_558_344)">
<path d="M22.7468 30.7517L23.2732 31.2637C23.4906 31.4706 23.7447 31.6251 24.0258 31.7298L24.8883 32.0384C25.0509 32.0947 25.2174 32.129 25.3907 32.1508L25.9709 32.2091C26.4562 32.264 26.9517 32.2117 27.4092 32.0663L28.8203 31.6187L29.8949 30.3842L30.6909 24.3526L23.3815 22.7241L22.2733 29.3587C22.1925 29.8622 22.3673 30.3841 22.7468 30.7517Z" fill="#273AAA" stroke="#273AAA" stroke-miterlimit="10"/>
</g>
<path d="M21.6002 37.2205C22.0401 37.5807 22.5899 37.7834 23.1684 37.8005L24.1232 37.8212C24.7621 37.8308 25.377 37.6181 25.8598 37.2046L26.6589 36.5206C27.0175 36.2167 27.2847 35.8147 27.4333 35.3642L29.0541 30.3612C29.1143 30.1767 29.1593 29.9757 29.1727 29.7737L29.4073 26.8581C29.4661 26.1736 29.246 25.4982 28.7992 24.9732L28.5772 24.7155C28.0236 24.076 27.1966 23.7465 26.3553 23.8279L25.6059 23.903C24.7358 23.9928 23.9738 24.5199 23.5765 25.294L22.738 26.8341C22.6394 27.03 22.1796 29.3239 22.1375 29.5344L20.7116 34.6676C20.5013 35.6158 20.8463 36.6088 21.6002 37.2205Z" stroke="#273AAA" stroke-miterlimit="10"/>
<mask id="mask15_558_344" style="mask-type:luminance" maskUnits="userSpaceOnUse" x="12" y="40" width="12" height="14">
<path d="M20.2067 53.208C20.7732 53.1139 21.2859 52.8375 21.6739 52.4207L22.3217 51.7187C22.7587 51.2562 22.9952 50.6443 23.0049 50.0054L23.0193 48.9586C23.0262 48.4874 22.9096 48.0213 22.6644 47.6141L20.0033 43.0818C19.9016 42.9137 19.7807 42.7513 19.6434 42.6041L18.8368 41.6013L18.0048 40.6895L17.7693 41.9058C17.7693 41.9058 17.8833 41.9035 17.3878 42.5918L16.0944 44.1097C14.6426 45.0906 12.7528 44.4804 12.7528 44.4804L13.1869 45.4574C13.2684 45.6628 14.6812 47.5189 14.8078 47.7005L17.5463 51.6469C18.1135 52.4388 19.2328 53.3702 20.1971 53.2108L20.2067 53.208Z" fill="white"/>
</mask>
<g mask="url(#mask15_558_344)">
<path d="M16.1242 48.0629L16.8476 48.0059C17.1427 47.9814 17.4305 47.8965 17.6916 47.7569L18.4915 47.3228C18.6432 47.2364 18.7826 47.1431 18.9038 47.024L19.3318 46.6371C19.6916 46.3016 19.9808 45.9035 20.1858 45.4676L20.7897 44.1218L20.5808 42.4944L16.5963 37.8938L10.5293 42.2796L14.7513 47.5087C15.0761 47.9029 15.5779 48.1197 16.1078 48.0781L16.1242 48.0629Z" fill="#273AAA" stroke="#273AAA" stroke-miterlimit="10"/>
</g>
<path d="M20.2067 53.208C20.7732 53.1139 21.2859 52.8375 21.6739 52.4207L22.3217 51.7187C22.7587 51.2562 22.9952 50.6443 23.0049 50.0054L23.0193 48.9586C23.0262 48.4874 22.9096 48.0213 22.6644 47.6141L20.0033 43.0818C19.9016 42.9137 19.7807 42.7513 19.6434 42.6041L18.8368 41.6013L18.0048 40.6895L17.7693 41.9058C17.7693 41.9058 17.8833 41.9035 17.3878 42.5918L16.0944 44.1097C14.6426 45.0906 12.7528 44.4804 12.7528 44.4804L13.1869 45.4574C13.2684 45.6628 14.6812 47.5189 14.8078 47.7005L17.5463 51.6469C18.1135 52.4388 19.2328 53.3702 20.1971 53.2108L20.2067 53.208Z" stroke="#273AAA" stroke-miterlimit="10"/>
<mask id="mask16_558_344" style="mask-type:luminance" maskUnits="userSpaceOnUse" x="20" y="50" width="9" height="16">
<path d="M24.5414 50.5843C23.9719 50.4917 23.3987 50.5982 22.8955 50.8718L22.0629 51.3363C21.5078 51.646 21.0822 52.1469 20.8716 52.7408L20.527 53.7286C20.366 54.1723 20.3427 54.6588 20.4373 55.1209L21.5458 60.2572C21.5928 60.4518 21.6589 60.6408 21.7319 60.8174L22.9908 63.4591C23.2887 64.0802 23.8161 64.5606 24.4664 64.7858L24.7916 64.8985C25.592 65.1732 26.4729 65.0489 27.1609 64.554L27.7712 64.1133C28.4756 63.6032 28.8751 62.766 28.8264 61.8941L28.777 60.1362C28.7656 59.9207 28.0076 57.7046 27.9482 57.5032L26.6128 52.34C26.3192 51.4153 25.5206 50.723 24.5606 50.5787L24.5414 50.5843Z" fill="white"/>
</mask>
<g mask="url(#mask16_558_344)">
<path d="M26.7907 56.7603L26.0817 56.5837C25.7995 56.5105 25.4959 56.5063 25.1997 56.5624L24.2986 56.7239C24.1298 56.7528 23.9668 56.8009 23.8094 56.8682L23.2757 57.109C22.8256 57.3148 22.4296 57.5984 22.0975 57.9571L21.104 59.0425L20.7853 60.6483L23.1205 66.2672L30.2553 64.0165L27.8868 57.7193C27.7042 57.2415 27.2959 56.8824 26.7783 56.7535L26.7907 56.7603Z" fill="#273AAA" stroke="#273AAA" stroke-width="0.5" stroke-miterlimit="10"/>
</g>
<path d="M24.5414 50.5843C23.9719 50.4917 23.3987 50.5982 22.8955 50.8718L22.0629 51.3363C21.5078 51.646 21.0822 52.1469 20.8716 52.7408L20.527 53.7286C20.366 54.1723 20.3427 54.6588 20.4373 55.1209L21.5458 60.2572C21.5928 60.4518 21.6589 60.6408 21.7319 60.8174L22.9908 63.4591C23.2887 64.0802 23.8161 64.5606 24.4664 64.7858L24.7916 64.8985C25.592 65.1732 26.4729 65.0489 27.1609 64.554L27.7712 64.1133C28.4756 63.6032 28.8751 62.766 28.8264 61.8941L28.777 60.1362C28.7656 59.9207 28.0076 57.7046 27.9482 57.5032L26.6128 52.34C26.3192 51.4153 25.5206 50.723 24.5606 50.5787L24.5414 50.5843Z" stroke="#273AAA" stroke-width="0.5" stroke-miterlimit="10"/>
<mask id="mask17_558_344" style="mask-type:luminance" maskUnits="userSpaceOnUse" x="26" y="47" width="13" height="11">
<path d="M28.9392 47.6085C28.401 47.7985 27.9357 48.1652 27.6279 48.6417L27.1032 49.4429C26.7588 49.972 26.6256 50.616 26.7271 51.2429L26.8967 52.2772C26.9721 52.7449 27.1654 53.1883 27.4789 53.5442L30.1359 56.4721C30.2635 56.6221 30.8461 56.7943 30.8461 56.7943L32.0725 56.9226L34.3437 56.6696L36.0891 56.6135L38.0286 57.0735C38.0286 57.0735 38.5245 56.2808 38.0759 55.5374L37.1988 54.0133C37.0818 53.8288 35.3718 52.2377 35.2125 52.0865L31.5802 48.1848C30.8793 47.5054 29.8554 47.2861 28.9364 47.5989L28.9392 47.6085Z" fill="white"/>
</mask>
<g mask="url(#mask17_558_344)">
<path d="M33.937 52.004L33.217 52.1434C32.9208 52.1995 32.654 52.32 32.4261 52.5019L31.7206 53.0436C31.5937 53.1436 31.4725 53.2628 31.3761 53.3955L31.0406 53.8489C30.7582 54.2346 30.5656 54.6772 30.4666 55.1547L30.1879 56.6131L30.801 58.2673L35.9793 62.5678L41.0406 57.3527L35.4599 52.4306C35.0364 52.0551 34.4663 51.8896 33.9342 51.9945L33.937 52.004Z" fill="#273AAA" stroke="#273AAA" stroke-width="0.5" stroke-miterlimit="10"/>
</g>
<path d="M28.9392 47.6085C28.401 47.7985 27.9357 48.1652 27.6279 48.6417L27.1032 49.4429C26.7588 49.972 26.6256 50.616 26.7271 51.2429L26.8967 52.2772C26.9721 52.7449 27.1654 53.1883 27.4789 53.5442L30.1359 56.4721C30.2635 56.6221 30.8461 56.7943 30.8461 56.7943L32.0725 56.9226L34.3437 56.6696L36.0891 56.6135L38.0286 57.0735C38.0286 57.0735 38.5245 56.2808 38.0759 55.5374L37.1988 54.0133C37.0818 53.8288 35.3718 52.2377 35.2125 52.0865L31.5802 48.1848C30.8793 47.5054 29.8554 47.2861 28.9364 47.5989L28.9392 47.6085Z" stroke="#273AAA" stroke-width="0.5" stroke-miterlimit="10"/>
<path d="M42.8353 18.7267C42.2315 19.4365 41.7063 20.3421 41.8436 21.3025C42.0916 22.9914 44.1577 23.1743 44.644 25.1056C45.0024 26.5325 44.0061 26.9723 44.4871 28.6029C44.8748 29.9169 45.6101 29.9711 45.7696 31.1126C45.9756 32.5531 44.8473 32.9694 44.9267 34.2284C45.0462 36.1532 47.7308 36.2058 48.4131 38.4129C49.0474 40.457 47.0577 41.3463 47.6364 43.8029C48.0367 45.4781 49.104 45.6324 49.9093 47.7616C50.48 49.2719 50.507 50.6714 50.4288 51.6432" stroke="#273AAA" stroke-miterlimit="10"/>
<path d="M36.4468 20.5382C37.7732 21.4294 38.1677 22.2722 38.2693 22.8991C38.3827 23.6371 38.0561 23.8377 38.1894 24.6429C38.4224 26.0338 39.5315 26.2592 39.4719 27.1526C39.4056 28.2356 37.7128 28.5056 37.7942 29.3469C37.8858 30.2583 39.9885 31.0246 39.9885 31.0246C39.3095 31.6211 39.2049 32.0794 39.2227 32.387C39.2968 33.3452 40.7309 33.506 41.0451 34.7478C41.2342 35.4949 40.7603 35.6555 40.9652 36.4917C41.237 37.5897 42.1604 37.7864 42.1017 38.471C42.0273 39.2436 40.8208 39.3597 40.8083 39.989C40.7932 40.7858 42.7284 40.9135 43.1583 42.1942C43.4587 43.1065 42.6152 43.4283 42.6969 44.624C42.814 46.4349 44.8403 46.7651 44.9698 48.5827C45.0395 49.6673 44.3524 49.9534 44.5084 51.0125C44.6758 52.11 45.5822 52.8852 46.3309 53.3734" stroke="#273AAA" stroke-miterlimit="10"/>
<mask id="mask18_558_344" style="mask-type:luminance" maskUnits="userSpaceOnUse" x="8" y="28" width="9" height="15">
<path d="M12.984 28.158C12.4213 28.0529 11.8395 28.1307 11.3335 28.3946L10.4829 28.8332C9.92216 29.1238 9.48124 29.6083 9.25147 30.2078L8.87529 31.1946C8.70465 31.6411 8.6565 32.114 8.75111 32.5762L9.70333 37.7481C9.74073 37.9456 9.79732 38.1374 9.87026 38.314L11.0456 40.9908C11.3244 41.6175 11.8355 42.1132 12.4818 42.3604L12.8002 42.4854C13.5871 42.785 14.4765 42.6895 15.1702 42.2138L15.7957 41.7895C16.5154 41.2957 16.9397 40.472 16.9226 39.6012L16.9269 37.8484C16.925 37.63 16.2342 35.3941 16.1719 35.1831L14.9928 29.9843C14.728 29.0511 13.9554 28.3406 12.9936 28.1552L12.984 28.158Z" fill="white"/>
</mask>
<g mask="url(#mask18_558_344)">
<path d="M15.0444 34.4001L14.3393 34.2015C14.0543 34.1188 13.7574 34.1021 13.4584 34.1486L12.5516 34.291C12.3829 34.3199 12.217 34.3584 12.0624 34.4353L11.5231 34.6569C11.0673 34.8435 10.6589 35.1204 10.324 35.4694L9.29042 36.5249L8.92771 38.1229L11.0959 43.8119L18.2929 41.7722L16.1134 35.4089C15.95 34.9254 15.5484 34.5538 15.0252 34.4058L15.0444 34.4001Z" fill="#273AAA" stroke="#273AAA" stroke-width="0.5" stroke-miterlimit="10"/>
</g>
<path d="M12.984 28.158C12.4213 28.0529 11.8395 28.1307 11.3335 28.3946L10.4829 28.8332C9.92216 29.1238 9.48124 29.6083 9.25147 30.2078L8.87529 31.1946C8.70465 31.6411 8.6565 32.114 8.75111 32.5762L9.70333 37.7481C9.74073 37.9456 9.79732 38.1374 9.87026 38.314L11.0456 40.9908C11.3244 41.6175 11.8355 42.1132 12.4818 42.3604L12.8002 42.4854C13.5871 42.785 14.4765 42.6895 15.1702 42.2138L15.7957 41.7895C16.5154 41.2957 16.9397 40.472 16.9226 39.6012L16.9269 37.8484C16.925 37.63 16.2342 35.3941 16.1719 35.1831L14.9928 29.9843C14.728 29.0511 13.9554 28.3406 12.9936 28.1552L12.984 28.158Z" stroke="#273AAA" stroke-width="0.5" stroke-miterlimit="10"/>
<mask id="mask19_558_344" style="mask-type:luminance" maskUnits="userSpaceOnUse" x="15" y="16" width="13" height="10">
<path d="M16.8303 25.1154C17.2847 25.242 17.7655 25.2462 18.2259 25.1103L23.2879 23.6797C23.4798 23.6231 23.6659 23.5473 23.8368 23.4552L26.3989 22.0321C26.9991 21.6987 27.4394 21.1414 27.6302 20.4804L27.7208 20.1513C27.9515 19.343 27.764 18.4599 27.2296 17.8148L26.7562 17.235C26.2038 16.5639 25.3395 16.2142 24.4722 16.3136L22.7263 16.4741C22.5136 16.4952 20.3495 17.3942 20.1441 17.4756L15.0772 19.1371" fill="white"/>
</mask>
<g mask="url(#mask19_558_344)">
<path d="M19.4538 18.6697L19.3212 19.3866C19.27 19.6727 19.2782 19.9831 19.3535 20.2737L19.5726 21.1578C19.6207 21.3208 19.6688 21.4839 19.7553 21.6356L20.022 22.1512C20.2538 22.5833 20.5661 22.9708 20.9354 23.2684L22.0835 24.1913L23.7089 24.4L29.1723 21.7144L26.4766 14.7319L20.3462 17.489C19.8768 17.7004 19.5453 18.1319 19.4509 18.6602L19.4538 18.6697Z" fill="#273AAA" stroke="#273AAA" stroke-miterlimit="10"/>
</g>
<path d="M16.8303 25.1154C17.2847 25.242 17.7655 25.2462 18.2259 25.1103L23.2879 23.6797C23.4798 23.6231 23.6659 23.5473 23.8368 23.4552L26.3989 22.0321C26.9991 21.6987 27.4394 21.1414 27.6302 20.4804L27.7208 20.1513C27.9515 19.343 27.764 18.4599 27.2296 17.8148L26.7562 17.235C26.2038 16.5639 25.3395 16.2142 24.4722 16.3136L22.7263 16.4741C22.5136 16.4952 20.3495 17.3942 20.1441 17.4756L15.0772 19.1371" stroke="#273AAA" stroke-miterlimit="10"/>
<path d="M21.8433 25.8157L18.6477 26.7167L19.032 27.4895C19.2542 27.9244 19.2777 28.4284 19.1071 28.8749L18.8695 29.5184L20.3874 30.8118L21.8405 25.8061L21.8433 25.8157Z" fill="#273AAA"/>
<path d="M22.4857 42.3078L20.7419 42.2279L21.7295 43.6673L22.4857 42.3078Z" fill="#273AAA" stroke="#273AAA" stroke-width="0.25" stroke-miterlimit="10"/>
<path d="M28.6847 56.0765L29.1352 57.6744L29.6723 57.5159L28.6847 56.0765Z" fill="#273AAA"/>
<path d="M28.7391 35.9383L28.7009 36.1268C28.5801 36.7775 28.1991 37.3591 27.6418 37.732L27.0614 38.1326L26.8259 39.3489L28.3423 39.3291C28.8299 39.3208 29.3226 39.4361 29.7545 39.6632L30.4693 40.0362L31.0927 39.8523L30.3377 37.187L30.1757 34.9411L28.9594 34.7056L28.7239 35.9219L28.7391 35.9383Z" fill="#273AAA"/>
<path d="M18.9908 54.3173L18.3231 54.139C17.95 54.0405 17.6089 53.8387 17.3401 53.5636L16.1105 52.2581L15.6917 53.5598C15.5673 53.951 15.5558 54.3714 15.6718 54.7647L15.8528 55.3785C15.9236 55.6183 16.0518 55.8411 16.2484 56.0125L16.8046 56.4844C17.2349 56.8475 17.778 57.0626 18.3401 57.0949L18.9118 57.1244L19.1803 57.0452L18.9155 56.112C18.7882 55.6804 18.7788 55.2244 18.889 54.7852L18.9965 54.3365L18.9908 54.3173Z" fill="#273AAA" stroke="#273AAA" stroke-width="0.5" stroke-miterlimit="10"/>
<mask id="mask20_558_344" style="mask-type:luminance" maskUnits="userSpaceOnUse" x="66" y="30" width="12" height="14">
<path d="M77.2292 31.4452C76.9038 30.9782 76.4255 30.6292 75.8746 30.4581L74.9573 30.1761C74.35 29.9904 73.6937 30.0276 73.1177 30.3018L72.1626 30.7399C71.7316 30.94 71.3634 31.2467 71.1058 31.6459L68.1815 36.0117C68.0744 36.1788 67.9798 36.3527 67.91 36.5401L66.8839 39.2825C66.6463 39.926 66.6689 40.6387 66.9572 41.2626L67.1013 41.5746C67.4541 42.3463 68.1566 42.8898 68.993 43.0392L69.729 43.1662C70.5875 43.3196 71.4614 43.0305 72.063 42.3838L73.2872 41.1261C73.4383 40.9668 74.5044 38.8904 74.603 38.6945L77.3815 34.1527C77.8481 33.2957 77.7897 32.2495 77.2292 31.4452Z" fill="white"/>
</mask>
<g mask="url(#mask20_558_344)">
<path d="M74.3525 37.3504L73.9885 36.7176C73.8393 36.4592 73.6383 36.237 73.3881 36.0606L72.6473 35.5284C72.5146 35.4321 72.3531 35.3441 72.2001 35.285L71.6571 35.0699C71.1981 34.8925 70.711 34.7964 70.2359 34.8114L68.7568 34.8515L67.3839 35.7465L64.9646 41.3292L71.5447 44.9035L74.4338 38.8278C74.6524 38.3671 74.6243 37.8124 74.3525 37.3504Z" fill="#273AAA" stroke="#273AAA" stroke-miterlimit="10"/>
</g>
<path d="M77.2292 31.4452C76.9038 30.9782 76.4255 30.6292 75.8746 30.4581L74.9573 30.1761C74.35 29.9904 73.6937 30.0276 73.1177 30.3018L72.1626 30.7399C71.7316 30.94 71.3634 31.2467 71.1058 31.6459L68.1815 36.0117C68.0744 36.1788 67.9798 36.3527 67.91 36.5401L66.8839 39.2825C66.6463 39.926 66.6689 40.6387 66.9572 41.2626L67.1013 41.5746C67.4541 42.3463 68.1566 42.8898 68.993 43.0392L69.729 43.1662C70.5875 43.3196 71.4614 43.0305 72.063 42.3838L73.2872 41.1261C73.4383 40.9668 74.5044 38.8904 74.603 38.6945L77.3815 34.1527C77.8481 33.2957 77.7897 32.2495 77.2292 31.4452Z" stroke="#273AAA" stroke-miterlimit="10"/>
<mask id="mask21_558_344" style="mask-type:luminance" maskUnits="userSpaceOnUse" x="51" y="21" width="15" height="10">
<path d="M64.5525 29.9299C64.9405 29.5131 65.1776 28.974 65.2262 28.3966L65.3101 27.444C65.3638 26.813 65.1771 26.18 64.7895 25.6791L64.1574 24.8439C63.8698 24.47 63.4909 24.1751 63.0444 24.0045L58.1501 22.0806C57.9627 22.0108 57.7685 21.9534 57.5732 21.9276L54.6767 21.51C54 21.4073 53.3038 21.5918 52.7578 22.0031L52.4849 22.2088C51.812 22.72 51.4233 23.5228 51.4634 24.3659L51.4973 25.117C51.5364 25.9917 52.0088 26.7802 52.7558 27.2272L54.2486 28.1526C54.4378 28.2636 56.6984 28.8583 56.905 28.9225L61.9419 30.6583C62.8756 30.925 63.8883 30.6471 64.5525 29.9299Z" fill="white"/>
</mask>
<g mask="url(#mask21_558_344)">
<path d="M58.167 28.3938L58.7095 27.9002C58.9317 27.6991 59.0986 27.4518 59.2157 27.1774L59.574 26.3419C59.6427 26.1861 59.6866 26.0168 59.7209 25.8503L59.8135 25.2808C59.8905 24.7993 59.8793 24.3022 59.7627 23.8361L59.4044 22.4092L58.242 21.2612L52.2676 20.0938L50.1972 27.2834L56.7514 28.7906C57.2538 28.903 57.7842 28.757 58.1795 28.4006L58.167 28.3938Z" fill="#273AAA" stroke="#273AAA" stroke-miterlimit="10"/>
</g>
<path d="M64.5525 29.9299C64.9405 29.5131 65.1776 28.974 65.2262 28.3966L65.3101 27.444C65.3638 26.813 65.1771 26.18 64.7895 25.6791L64.1574 24.8439C63.8698 24.47 63.4909 24.1751 63.0444 24.0045L58.1501 22.0806C57.9627 22.0108 57.7685 21.9534 57.5732 21.9276L54.6767 21.51C54 21.4073 53.3038 21.5918 52.7578 22.0031L52.4849 22.2088C51.812 22.72 51.4233 23.5228 51.4634 24.3659L51.4973 25.117C51.5364 25.9917 52.0088 26.7802 52.7558 27.2272L54.2486 28.1526C54.4378 28.2636 56.6984 28.8583 56.905 28.9225L61.9419 30.6583C62.8756 30.925 63.8883 30.6471 64.5525 29.9299Z" stroke="#273AAA" stroke-miterlimit="10"/>
</g>
</g>
<defs>
<clipPath id="clip0_558_344">
<rect width="232" height="71" fill="white"/>
</clipPath>
<clipPath id="clip1_558_344">
<rect width="56.21" height="92.99" fill="white" transform="translate(89.1904 -7) rotate(73.5646)"/>
</clipPath>
</defs>
</svg>
